<svg id="Mỗi_hình_1_layer_riêng" data-name="Mỗi hình 1 layer riêng" xmlns="http://www.w3.org/2000/svg" viewBox="0 0 4680 3120"><defs><style>.cls-1,.cls-20{fill:#fff;}.cls-2{fill:#f3f3f4;}.cls-3{fill:#ebecee;}.cls-4{fill:#d3d7db;}.cls-5{fill:#e0e2e5;}.cls-6{fill:#fefefe;}.cls-39,.cls-7{fill:#3d4f53;}.cls-7{opacity:0.09;}.cls-8{fill:#2b363c;}.cls-9{opacity:0.2;}.cls-10{fill:#fbbeac;}.cls-11{fill:#33231c;}.cls-12{fill:#d35e4a;opacity:0.42;}.cls-13{fill:#ff4746;}.cls-14{fill:#a34926;}.cls-15{fill:#ced5e8;}.cls-16{fill:#dee8ff;}.cls-17{opacity:0.1;}.cls-18,.cls-19,.cls-21{fill:none;}.cls-19{stroke:#3d4f53;}.cls-19,.cls-20,.cls-21{stroke-miterlimit:10;}.cls-20{stroke:#000;}.cls-21{stroke:#b9c9bc;stroke-width:4px;}.cls-22{fill:#001d4f;}.cls-23{fill:#ffc5b8;}.cls-24,.cls-25{fill:#e98970;}.cls-24{opacity:0.56;}.cls-26{opacity:0.61;}.cls-27{opacity:0.21;}.cls-28{fill:#1c2426;}.cls-29{fill:#efefef;}.cls-30{fill:#ccc;}.cls-31{fill:#ffbda9;}.cls-32{fill:#3d0b01;}.cls-33{fill:#4c2409;}.cls-34{fill:#6d3713;}.cls-35{fill:#87461b;}.cls-36{fill:#b51a1a;}.cls-37{fill:#ca2722;}.cls-38{fill:#231f20;}</style></defs><title>06</title><rect class="cls-1" width="4680" height="3120"/><path class="cls-2" d="M2348.13,2048.61c-34.76-47.62-65.5-97.43-90.85-151-23.24-49.07-43.18-99.2-57.75-151.24q-47.54-169.79-31.4-345.78c7.56-83.73,28.33-164.21,58.67-241.8,34.55-88.32,80.74-170.84,136.48-248,76.86-106.43,166.37-200,273.61-276.13,51.56-36.59,106.47-67,164.38-93,106.54-47.85,217.8-68.31,333.78-64.28,85.21,3,166.74,20.25,237.82,71.19,61.19,43.85,94.28,104.87,107.43,177.79,11.87,65.86,9,133,16.65,199.24,8.24,71.8,41.63,129.77,91.74,180.11,56.51,56.78,125,95.52,194.91,132.3,61.68,32.47,126.65,59.27,180.6,104.92,24.91,21.08,49.53,42.65,65.28,72.13-15.42,4.25-27.4-6.08-40.67-10.18-112.66-34.78-220.07-11.34-324.26,32-69.58,28.95-131.47,72.69-192.37,116.7-98.39,71.11-195.37,144.16-293.22,216-97.54,71.62-203.13,129-314.1,176.92-53,22.89-108.08,40-162.86,57.9-53.35,17.43-108.05,29.13-163.68,36.27-35.78,4.6-71.67,8.27-107.51,12.36q-54.75-82.86-109.51-165.72l-7.32,4.86c29.87,54.79,67.79,104.56,101.82,156.75Z"/><path class="cls-3" d="M2430.81,2053c35.84-4.09,71.73-7.76,107.51-12.36,55.63-7.14,110.33-18.84,163.68-36.27,54.78-17.89,109.82-35,162.86-57.9,111-47.88,216.56-105.3,314.1-176.92,97.85-71.85,194.83-144.9,293.22-216,60.9-44,122.79-87.75,192.37-116.7,104.19-43.36,211.6-66.8,324.26-32,13.27,4.1,25.25,14.43,40.67,10.18,19.25,16,28.29,38.56,37.83,60.51,40.12,92.35,42.44,187.47,17.63,283.67-12.41,48.14-28.49,95.28-54.77,138.13-7.58-4.43-13.43.29-19.77,3.45-15.81,7.89-31.28,16.78-47.76,23-68.91,25.88-140.56,39.26-213.81,44.72C3635.36,1977,3523,1964,3411,1949.21c-125.72-16.54-250.35-16.44-374.64,12.45-72.06,16.75-142.14,38.94-208.94,70.12-91.81,42.85-174,101.13-252.69,164.58-14.85,12-26.52,27.89-44.52,35.94-26.49-12.87-46.5-34.27-67.67-53.59-42.81-39.06-83.32-80.53-114.39-130.1l67.67.32c3.06,4.75,6.35,9.37,9.12,14.28s6.36,12.25,12.22,7.69c6.27-4.88-2.23-9.41-4.47-14ZM2531,2164.74c-13.24-11.66-25.79-22.85-38.59-33.75-1-.84-5.23,0-5.5.84-.77,2.44-1.46,6.42-.12,7.79q16.89,17.27,34.74,33.57c1.31,1.2,5.81.58,7.48-.81S2530.32,2167.62,2531,2164.74Z"/><path class="cls-4" d="M3937.45,2027c-33.77,38.56-71.54,72.84-111.28,105.13-74.72,60.7-156.3,110.8-242.05,153.84-32.79,16.45-66.69,31.18-101.2,44.5-35.88,13.84-71.58,28.09-108.41,39-172.88,51.13-347,63.56-523.38,17.35-72-18.84-141.1-44.26-206.79-78.79-23.18-12.18-44.63-27.66-66.88-41.63,40.35-33,87-54.57,133.9-76.47,58.06-27.1,119.15-41.58,181.63-51.27,77.74-12.05,155.93-9,233.94-2.43,94.41,7.92,188.6,8.12,282.89-2.34,78.89-8.76,157-21,234.84-37,90.36-18.67,180.85-36.19,268.38-66.15C3920.75,2028.06,3928.43,2022.17,3937.45,2027Z"/><path class="cls-5" d="M3937.45,2027c-9-4.84-16.7,1-24.41,3.69-87.53,30-178,47.48-268.38,66.15-77.79,16.08-155.95,28.27-234.84,37-94.29,10.46-188.48,10.26-282.89,2.34-78-6.54-156.2-9.62-233.94,2.43-62.48,9.69-123.57,24.17-181.63,51.27-46.91,21.9-93.55,43.43-133.9,76.47-16.86-9.84-34.36-18.78-47.27-34.09,18-8.05,29.67-24,44.52-35.94,78.66-63.45,160.88-121.73,252.69-164.58,66.8-31.18,136.88-53.37,208.94-70.12,124.29-28.89,248.92-29,374.64-12.45C3523,1964,3635.36,1977,3748.83,1968.48c73.25-5.46,144.9-18.84,213.81-44.72,16.48-6.18,32-15.07,47.76-23,6.34-3.16,12.19-7.88,19.77-3.45C4005.3,1944.89,3974.75,1988.37,3937.45,2027Z"/><path class="cls-2" d="M3580,926.37c-18.18-58-18.4-107.69.81-156.41,15.63-39.65,67.7-59.44,116.67-22.2a403.94,403.94,0,0,1,71.55,70c38.8,48.68,91.78,69.49,150.26,81.52,30.76,6.32,60,16.74,85.87,35.91,79.3,58.77,33.61,160.78-26.41,190.14-62.9,30.78-124.81,19.38-185.93-2.13-72.93-25.66-132.42-71.13-177.83-133.76C3599.22,967.78,3585.11,944.5,3580,926.37Zm367,2.28c-1,2.33-2.74,4.63-2.18,5.7,1.53,2.95,3.5,6.63,6.25,7.82,26.36,11.41,45.56,30.27,59.31,55.19,1.69,3,5.11,5.72,8.81,3.88,5.48-2.74,3-7.57.85-10.82-16.51-25.12-35.88-47.24-64.55-59.1C3953,930.28,3950.28,929.67,3947,928.65Z"/><path class="cls-6" d="M2430.81,2053l1.86,3.82c2.24,4.63,10.74,9.16,4.47,14-5.86,4.56-9.38-2.66-12.22-7.69s-6.06-9.53-9.12-14.28c-34-52.19-72-102-101.82-156.75l7.32-4.86Q2376.06,1970.18,2430.81,2053Z"/><path class="cls-6" d="M2531,2164.74c-.65,2.88-.43,6.33-2,7.64s-6.17,2-7.48.81q-17.82-16.29-34.74-33.57c-1.34-1.37-.65-5.35.12-7.79.27-.84,4.5-1.68,5.5-.84C2505.18,2141.89,2517.73,2153.08,2531,2164.74Z"/><path class="cls-6" d="M3947,928.65c3.29,1,6,1.63,8.49,2.67,28.67,11.86,48,34,64.55,59.1,2.14,3.25,4.63,8.08-.85,10.82-3.7,1.84-7.12-.83-8.81-3.88-13.75-24.92-32.95-43.78-59.31-55.19-2.75-1.19-4.72-4.87-6.25-7.82C3944.25,933.28,3946,931,3947,928.65Z"/><path class="cls-7" d="M636.43,2334.55s1356.87,37.44,1495.61,0,35.23-55.05-152-57.25-644.13,0-644.13,0,8.81-74.88-69.92-54c0,0,9.91-47.34-34.69-47.34s-47.34,39.09-47.34,39.09-32.48-26.43-68.82,1.65-14.31,55.05-14.31,55.05S372.92,2294.92,636.43,2334.55Z"/><path class="cls-7" d="M1492,2505.5s-231.87,46.9,75.41,109.8,2310,60.58,2384.33-14.32-1114-86.78-1114-86.78S2053.3,2504.18,1492,2505.5Z"/><path class="cls-8" d="M1394.81,1403.87l-26.45,15.85-79.08,47.38-22.23,13.32s43,163.25,131.77,306.53c0,0-12.62-37.56-9.18-74.29,1.37-14.83,5.37-29.53,13.88-41.58,11.36-16,25.74-18.38,39.51-13.63,20.65,7.08,40,30,46,46.73Z"/><path class="cls-9" d="M1289.28,1467.1l-22.23,13.32s43,163.25,131.77,306.53c0,0-12.62-37.56-9.18-74.29Z"/><path class="cls-10" d="M1256,1454.63q-37.07-2.28-66.64,9.39-43.27,17.07-70.61,64l13.59,20.91,159.74,246,8.91,13.71,5.75,8.86,23.56,36.27a45,45,0,0,0,59,15.17c.74-.4,1.46-.8,2.16-1.23a45,45,0,0,0,17.94-56.22l-17.77-41.37-4.08-9.52-6.34-14.71-116.09-270.12Z"/><path class="cls-11" d="M1381.14,1745.86c-15.5,2.63-34.79,7.31-50,15.44-16.08,8.61-29.72,22.41-39.09,33.6l8.91,13.71c8.39-10.6,21.84-25.25,37.5-33.62,14.56-7.79,34.15-12.1,49-14.42Z"/><path class="cls-8" d="M1256,1454.63q-91.26-5.61-137.25,73.38l13.59,20.91c11.2-15.21,31.1-38.06,57.84-52.36,24.66-13.19,54.24-18.6,74.9-20.82Z"/><path class="cls-12" d="M1189.33,1464q-43.27,17.07-70.61,64l13.59,20.91,159.74,246,8.91,13.71,5.75,8.86,23.56,36.27a45,45,0,0,0,59,15.17c.74-.4,1.46-.8,2.16-1.23-27.26-39.09-206.65-298.49-210.14-360.08C1180.38,1492.53,1183.69,1477.82,1189.33,1464Z"/><path class="cls-8" d="M1306.72,1817.44a81.6,81.6,0,0,1,15.94-18,118.25,118.25,0,0,1,21.61-14.54,135.8,135.8,0,0,1,21.19-9.17,120.2,120.2,0,0,1,23.53-5.36c.89-.06,1.74-.21,2.55-.23l17.77,41.33a44.88,44.88,0,0,1-17,55.59,3.39,3.39,0,0,1-.84.55,25.39,25.39,0,0,1-2.28,1.32,38.63,38.63,0,0,1-5.14,2.34,45,45,0,0,1-53.81-17.53Z"/><path class="cls-9" d="M1394.81,1403.87l-26.45,15.85L1443,1657.45c20.65,7.08,40,30,46,46.73Z"/><path class="cls-9" d="M1306.72,1817.44a81.6,81.6,0,0,1,15.94-18,118.25,118.25,0,0,1,21.61-14.54,135.8,135.8,0,0,1,21.19-9.17c-15.74,13.57-30.21,36.26-19.92,59.94,11.33,26,28.74,33.51,38.52,35.6a45,45,0,0,1-53.81-17.53Z"/><path class="cls-13" d="M1782.3,1551.5a35.9,35.9,0,0,1-2.32-2.88Z"/><path class="cls-10" d="M2073.52,2310.67H1838c-15.72-9.62-31.47-20.06-46.91-31.34-7.74-5.65-15.39-11.54-23-17.6q-7.79-6.27-15.39-12.87c-3.6-3.13-7.19-6.32-10.72-9.57l-2.54-2.34-.62-.57c-.35-.34-.72-.67-1.08-1-30.58-28.62-57.94-61.27-78.74-98.3-51.16-90.91-116.56-271.27-171.22-435.87v0c-40.46-121.83-75-235-93.58-297-.32-1.07-.64-2.14-1-3.18-8.68-29-13.61-46-13.61-46q43.59-46.83,99.49-70.71a302.21,302.21,0,0,1,70.64-20.26l0,.05.05.06.56.66.42.5c.48.57,1.11,1.33,1.91,2.27l1,1.16c1,1.23,2.28,2.71,3.7,4.42.66.79,1.35,1.63,2.11,2.52l1.14,1.37c.21.25.42.51.64.76.56.69,1.15,1.41,1.77,2.14l3.9,4.68.87,1c.29.36.58.72.89,1.08l.36.44c.55.65,1.1,1.32,1.66,2l1.73,2.08c.88,1.06,1.79,2.17,2.74,3.3l7.32,8.83h0c0,.07.1.12.15.19l2.81,3.4c1,1.15,1.93,2.32,2.91,3.51s2,2.42,3,3.65l1.53,1.85q3.9,4.71,8,9.76l5.08,6.19,2.39,2.92c1.62,2,3.25,4,4.91,6,8.31,10.16,17.28,21.12,26.77,32.8l8.68,10.68c.71.88,1.42,1.77,2.14,2.65l2.44,3q8.57,10.56,17.55,21.73l4.6,5.71c1.34,1.66,2.7,3.33,4,5L1692,1437.9a.54.54,0,0,0,.09.12l4.81,6,7.31,9.14c1,1.24,2,2.48,3,3.73l6,7.54,3,3.79c3.43,4.35,6.9,8.71,10.4,13.12l7.63,9.63q5.12,6.45,10.26,13l1,1.32q3.93,5,7.87,10c0,.08.11.14.16.21l8.1,10.32.22.29q9,11.49,18.12,23.21l1,1.37q3.81,4.92,7.66,9.85c1.43,1.88,2.89,3.76,4.36,5.64q9.89,12.76,19.76,25.66l10.59,13.85,4.61,6,.69.91q10.57,13.89,21,27.79l5.27,7q7.85,10.44,15.59,20.87l.61.82q4.86,6.52,9.68,13,5.11,6.93,10.16,13.82l1.22,1.67,3.48,4.75q5.21,7.11,10.33,14.18l4.93,6.83q7.39,10.21,14.56,20.3,4.8,6.72,9.5,13.37t9.11,13l.17.25q2.31,3.29,4.57,6.56l2.77,4,4,5.77,2.22,3.22,2.21,3.22q3.29,4.82,6.52,9.58l6.24,9.23,2.05,3.06q3.22,4.83,6.38,9.59c2,3.07,4,6.13,6,9.15.65,1,1.31,2,2,3l3.89,6a0,0,0,0,0,0,0l5.67,8.83q2.8,4.41,5.51,8.72,6.33,10.1,12.15,19.71c.55.93,1.1,1.84,1.65,2.75,1.1,1.81,2.17,3.63,3.23,5.42l1.58,2.68c1.11,1.88,2.21,3.76,3.29,5.62l2.8,4.88q3.69,6.45,7.06,12.63.69,1.23,1.35,2.46c.89,1.63,1.75,3.25,2.59,4.84q2.57,4.8,4.89,9.4c19.52,38.48,31.56,80,38.3,122,.21,1.29.42,2.59.62,3.87.05.37.11.74.17,1.11q.61,4,1.17,8.09c.19,1.45.39,2.91.57,4.37.16,1.26.32,2.52.47,3.78.23,1.81.43,3.6.62,5.39.31,2.75.59,5.51.86,8.27.16,1.66.31,3.31.46,5q1.33,15.48,1.87,30.86C2092.6,2193.22,2083.64,2259.89,2073.52,2310.67Z"/><path class="cls-8" d="M1393.3,1401c-8.69-29-13.62-46-13.62-46q43.59-46.83,99.48-70.71a302.43,302.43,0,0,1,70.65-20.26s12.16,14.46,32.76,39.37c-12.88-.13-54.2,1.86-105.45,29.26C1433.1,1356.27,1405.58,1385.84,1393.3,1401Z"/><path class="cls-11" d="M1737.8,2235.37c43-40,99.61-86.62,158.81-118.28,58.16-31.09,128.42-51.45,186.69-64.35q3.24,19.91,4.92,39.86c-55,12.32-120,31.35-172.84,59.59-53.79,28.75-106.43,71.78-147.23,109.52Q1752.57,2249.17,1737.8,2235.37Z"/><path class="cls-12" d="M2073.52,2310.67h-41.36c-10.34-45-28.64-105.3-60.6-183.78q-7.24-17.76-15.41-36.75c-12.66-29.34-27.08-61-43.52-95q-7.92-16.38-16.47-33.49-4.14-8.27-8.42-16.72-17.51-34.47-37.62-71.93h0q-14.31-26.57-30-54.64l-2.08-3.71q-8.92-15.93-18.33-32.37c-74.11-129.57-170.42-282.58-295.53-462.2q-12.33-17.7-25-35.73a302.21,302.21,0,0,1,70.64-20.26l0,.05.05.06.56.66.42.5c.48.57,1.11,1.33,1.91,2.27l1,1.16c1,1.23,2.28,2.71,3.7,4.42.66.79,1.35,1.63,2.11,2.52l1.14,1.37c.21.25.42.51.64.76.56.69,1.15,1.41,1.77,2.14l3.9,4.68.87,1c.29.36.58.72.89,1.08l.36.44c.55.65,1.1,1.32,1.66,2l1.73,2.08c.88,1.06,1.79,2.17,2.74,3.3l7.31,8.83h0c0,.07.1.12.15.19l2.81,3.4,2.91,3.51c1,1.2,2,2.42,3,3.65l1.53,1.85c2.59,3.15,5.26,6.4,8,9.76l5.08,6.19,2.39,2.92,4.91,6c8.31,10.16,17.28,21.12,26.77,32.8l8.68,10.68c.71.88,1.42,1.77,2.14,2.65l2.44,3q8.53,10.56,17.55,21.73l4.6,5.71c1.34,1.66,2.7,3.33,4,5q6.08,7.59,12.35,15.39a.54.54,0,0,0,.09.12l4.81,6,7.31,9.14c1,1.24,2,2.48,3,3.73,2,2.5,4,5,6,7.54l3,3.79c3.43,4.35,6.9,8.71,10.4,13.12l7.63,9.63,10.26,13,1,1.32c2.61,3.32,5.23,6.67,7.87,10,0,.08.11.14.16.21l7.54,9.64.23.28q9.27,11.83,18.67,23.9l1,1.37q3.81,4.92,7.66,9.85c1.43,1.88,2.89,3.76,4.36,5.64q9.87,12.76,19.76,25.66l10.59,13.85,4.61,6,.69.91q10.55,13.88,21,27.79l5.27,7q7.83,10.44,15.59,20.87l.61.82q4.86,6.52,9.68,13,5.11,6.93,10.16,13.82l1.22,1.67,3.48,4.75,10.33,14.18,4.93,6.83q7.37,10.21,14.56,20.3,4.8,6.72,9.5,13.37t9.11,13l.17.25q2.31,3.29,4.57,6.56l2.77,4,4,5.77,2.22,3.22,2.21,3.22q3.29,4.82,6.52,9.58l6.24,9.23,2.05,3.06q3.22,4.83,6.38,9.59l6,9.15c.65,1,1.31,2,2,3l3.89,6a0,0,0,0,0,0,0l5.67,8.83,5.51,8.72q6.33,10.1,12.15,19.71c.55.93,1.1,1.84,1.65,2.75,1.1,1.81,2.17,3.63,3.23,5.42l1.58,2.68c1.11,1.88,2.21,3.76,3.29,5.62l2.8,4.88q3.69,6.45,7.06,12.63.69,1.23,1.35,2.46c.87,1.63,1.74,3.23,2.59,4.84q2.57,4.8,4.89,9.4c19.52,38.48,31.56,80,38.3,122,.21,1.29.42,2.59.62,3.87.05.37.11.74.17,1.11q.61,4,1.17,8.09c.19,1.45.39,2.91.57,4.37.16,1.26.32,2.52.47,3.78.23,1.81.43,3.6.62,5.39.31,2.75.59,5.51.86,8.27.16,1.66.31,3.31.46,5q1.33,15.48,1.87,30.86C2092.6,2193.22,2083.64,2259.89,2073.52,2310.67Z"/><circle class="cls-8" cx="1791.97" cy="1922.79" r="140.69" transform="translate(-434.73 526.33) rotate(-14.92)"/><path class="cls-14" d="M1693.84,1975.24c-.22-.42-.46-.87-.67-1.3a111.37,111.37,0,0,1,45-148.57c.41-.25.86-.49,1.28-.71a111.31,111.31,0,1,1-45.66,150.58Z"/><path class="cls-15" d="M1756.51,2028.19,1821,1815.43a111.3,111.3,0,0,1,40.37,20.41l-60,197.8A111.17,111.17,0,0,1,1756.51,2028.19Z"/><path class="cls-16" d="M1693.84,1975.24c-.22-.42-.46-.87-.67-1.3l45-148.57c.41-.25.86-.49,1.28-.71a110.56,110.56,0,0,1,28.6-10.57l-56.35,185.82A111.12,111.12,0,0,1,1693.84,1975.24Z"/><path class="cls-17" d="M1711.75,1999.91a111.27,111.27,0,0,0,178.34-129.59q-2.16-4.07-4.61-7.83a111.31,111.31,0,0,1-182.36,121.28,108.3,108.3,0,0,1-13.25-16.81c1,2.35,2.12,4.68,3.3,7,.21.43.45.88.67,1.3A111.12,111.12,0,0,0,1711.75,1999.91Z"/><line class="cls-18" x1="1480.27" y1="1320.34" x2="1480.28" y2="1320.36"/><path class="cls-8" d="M1582.57,1303.48l27.87-13.19,83.32-39.45,23.43-11.09s111.9,126.38,181.72,279.82c0,0-24.23-31.36-56.67-48.9-13.1-7.09-27.55-11.94-42.29-11.54-19.64.55-29.58,11.19-33.28,25.28-5.58,21.11,2.79,49.93,13.31,64.21Z"/><path class="cls-9" d="M1693.76,1250.84l23.43-11.09s111.9,126.38,181.72,279.82c0,0-24.23-31.36-56.67-48.9Z"/><path class="cls-10" d="M1701.89,1216.21q18.69-32.09,44.81-50.2,38.23-26.51,92.44-23.18l9.84,22.91,115.84,269.45,6.45,15,4.18,9.7,17.07,39.73a45,45,0,0,1-20.12,57.46c-.75.4-1.48.76-2.22,1.11a45,45,0,0,1-56.72-16.3l-24.54-37.75-5.65-8.69-8.71-13.43L1714.4,1235.48Z"/><path class="cls-11" d="M1874.56,1482.05c10.8-11.43,25.4-24.87,40.61-33,16.09-8.6,35.14-12.27,49.65-13.85l6.45,15c-13.47,1.09-33.13,4.14-48.78,12.51-14.57,7.78-29,21.67-39.22,32.75Z"/><path class="cls-8" d="M1701.89,1216.21q46-79,137.25-73.38l9.84,22.91c-18.87.87-48.93,4.72-75.67,19-24.66,13.19-45.59,34.78-58.91,50.72Z"/><path class="cls-12" d="M1746.7,1166q38.23-26.51,92.44-23.18l9.84,22.91,115.84,269.45,6.45,15,4.18,9.7,17.07,39.73a45,45,0,0,1-20.12,57.46c-.75.4-1.48.76-2.22,1.11-17.37-44.37-133.47-337.61-182.74-374.73C1775.39,1174.4,1761.31,1169,1746.7,1166Z"/><path class="cls-8" d="M1888.92,1504.17c.53-.66,1.07-1.3,1.65-2a126.15,126.15,0,0,1,36.89-29.15c20.89-11.17,37.28-13.42,48-13.14l17.07,39.73a45,45,0,0,1-20.12,57.46c-1.08.57-2.15,1.1-3.26,1.57a45,45,0,0,1-55.68-16.76Z"/><path class="cls-9" d="M1582.57,1303.48l27.87-13.19,156.23,194.12c-5.58,21.11,2.79,49.93,13.31,64.21Z"/><path class="cls-9" d="M1890.57,1502.21a126.15,126.15,0,0,1,36.89-29.15c20.89-11.17,37.28-13.42,48-13.14l17.07,39.73a45,45,0,0,1-20.12,57.46c-1.08.57-2.15,1.1-3.26,1.57,1.75-2.6,14.06-22.73-4.43-51.49C1946.06,1478.2,1901.27,1491.72,1890.57,1502.21Z"/><path class="cls-8" d="M1640.39,2157.54c-55.85,69-122.34,121.94-166.33,153.13H1406.4c-23.41-40.32-62.49-115.38-86.59-203.07h0q-3.9-14.23-7.25-28.86a615.66,615.66,0,0,1,87.17,3,701.17,701.17,0,0,1,83.66,14C1557.51,2112.7,1607.57,2136.35,1640.39,2157.54Z"/><path class="cls-9" d="M1640.39,2157.54c-55.85,69-122.34,121.94-166.33,153.13h-26.14c19.89-20,48.94-55.94,58-101.94,14.28-72.18-107.83-116.16-186.16-101.13h0q-3.9-14.23-7.25-28.86a615.66,615.66,0,0,1,87.17,3,701.17,701.17,0,0,1,83.66,14C1557.51,2112.7,1607.57,2136.35,1640.39,2157.54Z"/><path class="cls-19" d="M1434.74,1255.74s-4.93-41.57,21.83-64.81,78.2-28.89,67.63-72.56c0,0,61.29,19.72,81-26.07s-23.25-70.45-23.25-70.45,50.72-.7,60.58-37.33-8.45-92.29-55.65-92.29c0,0,17.61-50-21.13-62.69s-52.84,18.31-52.84,18.31-35.23-23.25-78.55,9.16-11.63,78.2,0,84.54c0,0-52.48,35.22-29.94,84.53s39.45,49.31,39.45,49.31-41.56,28.18-24,53.54,27.48,33.11,20.43,55S1429.1,1239.53,1434.74,1255.74Z"/><path class="cls-19" d="M1242.66,2077.1s-26.78-6.91-33.72-30.75,3.63-60-26-63.65c0,0,28.77-36.61,6.12-61.24s-49.45-1.63-49.45-1.63,13.38-34.5-6.35-50.2-58.79-17-71.65,14.92c0,0-25.81-24.24-44.13-1.15s-3.18,40.27-3.18,40.27-23.83,18.12-15.8,55.42,44.69,27.13,51.74,20.83c0,0,7.26,44.19,43.59,41.09s40.93-14.55,40.93-14.55,5.92,35.07,26.24,29.4,27.75-10.43,39.2-.28S1231.21,2076.92,1242.66,2077.1Z"/><rect class="cls-20" x="2218.71" y="1589.68" width="392.72" height="517.01" transform="translate(-534.69 2587.97) rotate(-51.5)"/><line class="cls-21" x1="2267.76" y1="1883.63" x2="2348.88" y2="1781.63"/><line class="cls-21" x1="2294.74" y1="1918.97" x2="2389.39" y2="1799.96"/><line class="cls-21" x1="2277.87" y1="1905.55" x2="2372.52" y2="1786.54"/><line class="cls-21" x1="2309.87" y1="1931" x2="2404.51" y2="1811.99"/><path class="cls-22" d="M2616.55,1852.33c.24,8.06,0,16.26-2.09,24.09a23.5,23.5,0,0,1-2,5.2c-1.3,2.31-2.63,3.45-5.32,2.73-2.9-.78-4.27-3.44-6.83-5-.37-.22-1.09-.53-1.45-.13-1.47,1.6-.89,4.64-.8,6.69.07,1.55.22,3.08.44,4.59-2-2.56-4.54-4.69-7.29-5.35-.31-.08-.79,0-.84.37-.74,5.4.59,11.36,1.51,16.7.22,1.28.47,2.56.72,3.83a5.64,5.64,0,0,0-.89-.44,13.2,13.2,0,0,0-.5-3.73c-1-3.12-3.58-6.77-7-7.45-5.07-1-5.84,4.78-5.48,8.54.1,1,2.92,2.64,2.77,1.13s-.47-5.51,1.19-6.4l4.57.7.9,1.62a9.9,9.9,0,0,1,.76,3.79,14,14,0,0,1-.3,3.16,7.1,7.1,0,0,0-.4,1,.65.65,0,0,0,0,.24,3.24,3.24,0,0,1-.47.76c-2.06,2.31-5.05-1.17-6.35-3.2-.29-.45-2.9-2-2.49-.52a38.4,38.4,0,0,1,1.37,5.24c.32,2.19,1.13,6.29.1,8.41-.44.9-1.18,1.85-2.61,1.08a8.15,8.15,0,0,1-1.28-2,43.17,43.17,0,0,0-3.35-5.58c-.42-.53-1.69-1.7-2.41-1-1.88,1.85-2.5,5.72-3.41,8.12q-1.14,3-2,6c-.61-.57-1.23-1.13-1.86-1.65-5.15-4.24-12.33-7.49-16-13.25-2-3.15-1.67-6.39-.42-9.71.64-1.73,2.85-6.8,5.41-7.71.51.25,1,.3,1.18,0,.06-.1.11-.2.16-.3.59-1.06-1.33-2.2-2.16-2.26-3.25-.2-5.79,5-6.83,7.33-1.51,3.42-2.32,7.2-.71,10.71,4,8.69,14.07,12.21,20.69,18.74-.21.8-.41,1.61-.58,2.43a69.59,69.59,0,0,0-1.67,19c.26,3.67,1.42,8.66,5.29,10.25,4.07,1.67,6.12-2.52,7.1-5.77,2.66-8.81-1.18-18.31-7.11-25.18.58-2.1,1.26-4.16,2-6.22.68-1.8,1.41-5,2.54-7.06,2,3.67,4.63,9.33,8.34,9,4-.32,3.18-7.75,2.1-13,1.51,1.6,3.31,2.71,5.34,2.11,1.79-.54,2.78-2.2,3.26-4.14.45-.62,1.08-.58,1.79-.12q1.24,5.85,2.93,11.59c1.51,5.12,3.06,10.29,5.78,14.92,1,1.75,2.65,4.91,4.9,5.3,5.6,1-3.79-20.67-5-22.91a56,56,0,0,0-6.06-8.76c-.48-2.31-.92-4.62-1.3-6.94a103.07,103.07,0,0,1-1.42-11.61c-.18-4.08,2.48-.5,3.74,1.18a22.11,22.11,0,0,1,3.29,5.74c.32,1,3.21,2.45,2.77,1.13a38.78,38.78,0,0,1-1.76-8.47c-.19-1.89-1-5.88,0-8,2.23,1.88,3.7,4.74,6.76,5.5,3.66.91,6.33-1.73,7.79-4.8,4.19-8.78,4-19.69,3.69-29.17C2619.29,1852.42,2616.5,1850.79,2616.55,1852.33Zm-49,78.24c3.51,5,5.87,11.21,5.28,17.43-.22,2.33-.81,5.93-2.56,7.62-3.82,3.69-4.83-3.71-5-5.71a67.83,67.83,0,0,1,1.68-18.51c.09-.41.19-.81.29-1.22Zm32-12.85a66.75,66.75,0,0,1,4.83,11.86,39.49,39.49,0,0,1,1.5,6.52c.24,1.89.41,2.41-.72.78a42.59,42.59,0,0,1-5-11.26q-2.05-6.4-3.58-13C2598,1914.78,2599.2,1917,2599.56,1917.72Z"/><path class="cls-22" d="M2564.56,1906.4c.87,2.08,2.94,2.7,5,2.4,1.29-.19-.58-2.23-1.47-2.1a5.13,5.13,0,0,1-1.41.15c.08,0,0-.35,0-.41a8.65,8.65,0,0,0-.06-1.13,8,8,0,0,1,.51-3.34c.46-1-1.85-2.57-2.23-1.78A8.65,8.65,0,0,0,2564.56,1906.4Z"/><path d="M2221.4,1778.41a26.73,26.73,0,0,1,6.61,7.78,19.28,19.28,0,0,1,2.39,8.68,22.61,22.61,0,0,1-1.79,9.32,38.46,38.46,0,0,1-6.19,9.93l-3.59,4.34,16.58,13.73a1.44,1.44,0,0,1,.51.86,2.34,2.34,0,0,1-.19,1.29,11.23,11.23,0,0,1-1,1.88,29,29,0,0,1-2,2.67,27.87,27.87,0,0,1-2.23,2.44,10.9,10.9,0,0,1-1.67,1.37,2.23,2.23,0,0,1-1.22.41,1.55,1.55,0,0,1-.92-.36l-46.74-38.7a4.9,4.9,0,0,1-2-3.33,4.7,4.7,0,0,1,1.2-3.37l10.15-12.25q1.51-1.85,3-3.4a45.71,45.71,0,0,1,3.91-3.49,22.89,22.89,0,0,1,5.61-3.31,18.28,18.28,0,0,1,6.53-1.46,16.87,16.87,0,0,1,6.58,1.12A22.7,22.7,0,0,1,2221.4,1778.41Zm-8.39,11.68a12.17,12.17,0,0,0-5.29-2.77,8.68,8.68,0,0,0-4.57.21,10.13,10.13,0,0,0-3.51,2.07,29.41,29.41,0,0,0-2.87,3l-3.72,4.5,17.63,14.6,3.92-4.74a15,15,0,0,0,2.83-4.8,9.47,9.47,0,0,0,.4-4.37,10.76,10.76,0,0,0-1.57-4.08A15.09,15.09,0,0,0,2213,1790.09Z"/><path d="M2283.58,1768a25.21,25.21,0,0,1,2,1.78,8.09,8.09,0,0,1,1.11,1.43,2.29,2.29,0,0,1,.37,1.15,1.46,1.46,0,0,1-.34.91L2267,1797.05a4.28,4.28,0,0,1-2.63,1.58,4.17,4.17,0,0,1-3.29-1.21l-47.19-39.07a1.48,1.48,0,0,1-.5-.86,2.39,2.39,0,0,1,.19-1.3,11.47,11.47,0,0,1,1-1.89,36.94,36.94,0,0,1,4.24-5.12,11.16,11.16,0,0,1,1.66-1.34,2.37,2.37,0,0,1,1.23-.43,1.5,1.5,0,0,1,.94.34l41.8,34.61L2278,1766a1.49,1.49,0,0,1,.8-.52,2,2,0,0,1,1.14.1,7.17,7.17,0,0,1,1.57.79A23.88,23.88,0,0,1,2283.58,1768Z"/><path d="M2324.46,1719.58a18,18,0,0,1,2.79,1.3,1.79,1.79,0,0,1,1,1.36,3.33,3.33,0,0,1-.78,2q-.82,1.21-2.46,3.18c-1.13,1.36-2,2.41-2.7,3.14a9.84,9.84,0,0,1-1.69,1.55,2.12,2.12,0,0,1-1.2.43,3.67,3.67,0,0,1-1.17-.3l-13.34-5.15-16.15,19.51,7.43,11.71a4.29,4.29,0,0,1,.59,1.2,2.26,2.26,0,0,1-.09,1.34,8.18,8.18,0,0,1-1.07,1.9c-.53.75-1.27,1.7-2.23,2.85a33.26,33.26,0,0,1-2.51,2.8,2.85,2.85,0,0,1-1.78,1,2,2,0,0,1-1.54-.8,18,18,0,0,1-1.75-2.46L2253,1711.9a5.61,5.61,0,0,1-.64-1.47,2.64,2.64,0,0,1,.21-1.56,10.25,10.25,0,0,1,1.33-2.18c.65-.86,1.54-2,2.67-3.34,1.3-1.58,2.37-2.82,3.18-3.73a13.27,13.27,0,0,1,2.1-1.95,2.76,2.76,0,0,1,1.59-.58,5.19,5.19,0,0,1,1.69.42Zm-57.85-7.7,0,0,16,25.64,12.21-14.74Z"/><path d="M2366.2,1669.67a5.05,5.05,0,0,1,1.38,1.69,4.29,4.29,0,0,1,.13,3.72,6.77,6.77,0,0,1-1,1.69l-3.72,4.5a11.82,11.82,0,0,1-2.29,2.19,6.24,6.24,0,0,1-2.59,1,11.58,11.58,0,0,1-3.39,0q-1.92-.24-4.77-.9l-35-7.19q-3.09-.68-6.57-1.59c-2.32-.6-4.52-1.26-6.61-1.95l-.06.08q3,2.24,6,4.53c2,1.53,4,3.14,6,4.83l27.18,22.51a1.56,1.56,0,0,1,.54.82,2.18,2.18,0,0,1-.09,1.21,8,8,0,0,1-.87,1.75,25.32,25.32,0,0,1-1.84,2.47,24.12,24.12,0,0,1-2.05,2.22,7.42,7.42,0,0,1-1.54,1.17,1.93,1.93,0,0,1-1.14.27,1.64,1.64,0,0,1-.89-.4l-46.7-38.67a4.56,4.56,0,0,1-1.92-3.45,5.28,5.28,0,0,1,1.31-3.49l4.68-5.66a14.07,14.07,0,0,1,2.39-2.35,6.86,6.86,0,0,1,2.41-1.15,8.5,8.5,0,0,1,3-.17,27.92,27.92,0,0,1,3.86.69l27.37,5.61,4.84,1.06c1.59.35,3.16.71,4.71,1.1l4.57,1.14c1.49.38,3,.77,4.45,1.17l0,0c-1.94-1.47-4-3-6-4.67s-4-3.23-5.88-4.76l-24.37-20.18a1.49,1.49,0,0,1-.52-.84,2.52,2.52,0,0,1,.1-1.27,7,7,0,0,1,.89-1.77,28,28,0,0,1,1.86-2.45,27,27,0,0,1,2-2.21,5.68,5.68,0,0,1,1.52-1.14,2.17,2.17,0,0,1,1.14-.24,1.8,1.8,0,0,1,.89.4Z"/><path class="cls-23" d="M2601.59,1668.37l-2.58,3-30.85-19.9s-12.26,22.2-28.58,30.49-52.4,35.52-52.11,45.54,12.53,29.16,5.27,39.75,20.9,6.57,18.63-11.11.26-29.56,3.58-30.46c2.31-.63,28.88-4.88,47.22-11.41h0l27,21.49c13.82-15.23,21.46-57.13,21.46-57.13Z"/><path class="cls-24" d="M2561.3,1661.65s12.77,27.17,12.79,34.55-11.92,18.08-11.92,18.08l27,21.49s15-25.18,18.72-44.86-41.68-35.41-41.68-35.41Z"/><path class="cls-1" d="M2562.28,1647.65l-8.56,16.79s71.81,53.11,86.89,44.92l8.85-27.55Z"/><path class="cls-23" d="M3109.38,538.2s-35.65-37.11-50.9-47.87c-10.73-7.57-26.85-34.26-33-29.84s14.08,32.18,14.08,40.09c0,0-52.87-44-59.16-38.12s41.41,49.67,41.41,52.13-62.22-37.54-62.71-30.49,51,49.59,51,52-9.48,17.05-7.21,22.27,71,24,71,24Z"/><path class="cls-25" d="M3094.17,522.76s-24.54,30.24-36.76,34.29-39.7-15.64-39.7-15.64-12.26,22.69-2.26,27,28.19,20.82,42.29,11.14,18.2-14.26,27.22-27.21a87.73,87.73,0,0,0,12.25-26.5Z"/><polygon class="cls-1" points="3098.23 521.5 3055.45 572.79 3080.38 589.84 3114.47 536.73 3098.23 521.5"/><path d="M2859.72,2432.82s-31.32,93.1-28.31,117.72-55.42-40.05-55.42-40.05,12.34-75.44,7.31-91.65S2859.72,2432.82,2859.72,2432.82Z"/><path d="M3104.25,2439.55s31.32,93.09,28.31,117.71,55.42-40,55.42-40-12.34-75.45-7.31-91.66S3104.25,2439.55,3104.25,2439.55Z"/><path class="cls-11" d="M3291.23,2620.59s-89.09,16.26-139.62,7.09a58,58,0,0,1-11.36-3.19,35.06,35.06,0,0,1-3.64-1.7c-28.8-15.35-6.8-54.5-18.73-79h0c-4.7-9.61,5.56-26.51,5.53-40.54,8.1,23.4,16.95,29.33,22.79,17.48s3-45.63,30.34-47,34.42,28.44,34.42,28.44c1.94,12.89,15.35,20.92,30.69,30.82h0C3265.94,2548.67,3295.06,2569,3291.23,2620.59Z"/><path class="cls-11" d="M3111.2,2507.19c0-1.1,0-2.18,0-3.29A27.27,27.27,0,0,1,3111.2,2507.19Z"/><path class="cls-26" d="M3175.84,2612.16c-6.09,6-22.85,10.63-39.23,10.63-28.8-15.35-6.8-54.5-18.73-79,.57.66,26,29.23,49.93,4.73C3167.81,2548.56,3188.73,2599.45,3175.84,2612.16Z"/><path class="cls-1" d="M3291.23,2620.59s-89.09,16.26-139.62,7.09a58,58,0,0,1-11.36-3.19,94.24,94.24,0,0,1,1.36-23.68c-8.9,2.81-19.83-35.67-19.83-35.67l-.12-5s10.23,15.44,16.24,18.86a7.08,7.08,0,0,0,3.88,1.07c3.38-.17,5-3.48,5-3.48,7.31-19.52,29.21-49,94.83-43.56h0c14.08,9.07,29.78,19.71,39.74,37.1a76.35,76.35,0,0,1,9.46,29.31A108,108,0,0,1,3291.23,2620.59Z"/><path class="cls-27" d="M3290.85,2599.42c-22.75,8.38-78.56,13.7-101.88,10.56a108.51,108.51,0,0,1-42.53-15.73s86.62-1.13,114.72-13.19a116.81,116.81,0,0,0,20.23-10.95A76.35,76.35,0,0,1,3290.85,2599.42Z"/><path d="M3151.62,2627.67c-39-7.08-29.81-36.62-29.84-62.53,13.87,36.35,31.93,34,93,32.49,39.53-1,61.73-7.14,73.24-11.91,2.91,9.77,4.23,21.21,3.22,34.87C3291.23,2620.59,3202.14,2636.85,3151.62,2627.67Z"/><ellipse cx="3170.66" cy="2509.99" rx="5.51" ry="4.22" transform="translate(-673.1 1253.54) rotate(-20.26)"/><ellipse cx="3176.55" cy="2519.4" rx="5.51" ry="4.22" transform="translate(-675.99 1256.17) rotate(-20.26)"/><ellipse cx="3182.49" cy="2528.91" rx="5.51" ry="4.22" transform="translate(-678.92 1258.81) rotate(-20.26)"/><path class="cls-1" d="M3185,2530.3s26.23-9.1,46-3.09c0,0,6.92-.24-7.28-5s-43.34,3.65-42.95,6.38S3185,2530.3,3185,2530.3Z"/><path class="cls-1" d="M3179.57,2519.88s22.84-8.55,40.12-2.75c0,0,6-.2-6.37-4.74s-37.79,3.29-37.44,5.89S3179.57,2519.88,3179.57,2519.88Z"/><path class="cls-1" d="M3172.33,2511.12s22.85-8.55,40.12-2.75c0,0,6-.2-6.37-4.75s-37.78,3.3-37.43,5.9S3172.33,2511.12,3172.33,2511.12Z"/><path class="cls-11" d="M2672.74,2613.87s89.09,16.25,139.62,7.08a58,58,0,0,0,11.36-3.18,35.08,35.08,0,0,0,3.64-1.71c28.8-15.34,6.8-54.49,18.73-78.95h0c4.7-9.61-5.56-26.51-5.53-40.54-8.1,23.4-17,29.33-22.79,17.48s-3-45.63-30.34-47-34.42,28.45-34.42,28.45c-1.94,12.89-15.35,20.92-30.69,30.81h0C2698,2542,2668.91,2562.26,2672.74,2613.87Z"/><path class="cls-11" d="M2852.77,2500.46c0-1.09,0-2.17,0-3.28A27.08,27.08,0,0,0,2852.77,2500.46Z"/><path class="cls-26" d="M2788.13,2605.43c6.1,6,22.85,10.64,39.23,10.63,28.8-15.34,6.8-54.49,18.73-78.95-.57.65-26,29.23-49.93,4.73C2796.16,2541.84,2775.24,2592.73,2788.13,2605.43Z"/><path class="cls-1" d="M2672.74,2613.87s89.09,16.25,139.62,7.08a58,58,0,0,0,11.36-3.18,94.32,94.32,0,0,0-1.36-23.69c8.9,2.81,19.83-35.67,19.83-35.67l.12-5s-10.23,15.44-16.24,18.86a7.17,7.17,0,0,1-3.88,1.07c-3.38-.18-5-3.48-5-3.48-7.31-19.52-29.21-49-94.83-43.57h0c-14.08,9.08-29.78,19.72-39.74,37.11a76.3,76.3,0,0,0-9.46,29.3A108.15,108.15,0,0,0,2672.74,2613.87Z"/><path class="cls-27" d="M2673.12,2592.69c22.75,8.38,78.56,13.71,101.88,10.57a108.68,108.68,0,0,0,42.53-15.73s-86.62-1.14-114.72-13.2a117.61,117.61,0,0,1-20.23-10.94A76.3,76.3,0,0,0,2673.12,2592.69Z"/><path d="M2812.35,2621c39-7.09,29.81-36.62,29.84-62.53-13.87,36.34-31.93,34-93,32.48-39.52-1-61.73-7.13-73.24-11.9-2.91,9.77-4.23,21.21-3.22,34.86C2672.74,2613.86,2761.83,2630.13,2812.35,2621Z"/><ellipse cx="2793.31" cy="2503.26" rx="4.22" ry="5.51" transform="translate(-522.49 4256.65) rotate(-69.74)"/><ellipse cx="2787.42" cy="2512.67" rx="4.22" ry="5.51" transform="translate(-535.17 4257.27) rotate(-69.74)"/><ellipse cx="2781.48" cy="2522.19" rx="4.22" ry="5.51" transform="translate(-547.98 4257.93) rotate(-69.74)"/><path class="cls-1" d="M2778.93,2523.57s-26.23-9.1-46-3.09c0,0-6.92-.23,7.28-5s43.34,3.65,43,6.39S2778.93,2523.57,2778.93,2523.57Z"/><path class="cls-1" d="M2784.4,2513.16s-22.84-8.55-40.12-2.76c0,0-6-.19,6.37-4.74s37.79,3.29,37.44,5.9S2784.4,2513.16,2784.4,2513.16Z"/><path class="cls-1" d="M2791.64,2504.39s-22.85-8.54-40.12-2.75c0,0-6-.2,6.37-4.74s37.78,3.29,37.43,5.89S2791.64,2504.39,2791.64,2504.39Z"/><path class="cls-8" d="M3209.94,2436.65c-10.66,10.94-26.39,17-43,20.27-37.17,7.22-78.91,0-78.91,0-6.18-85.71-53-308.4-72.46-488.68s-74.23-376.44-89.26-399.42v0c-15-22.68-38.86,457.8-35.33,549.68s-12.38,310.17-12.38,310.17a159.11,159.11,0,0,1-44.11,9.75c-40,3-69-9.75-69-9.75s-1.76-412.69-7.06-450.68-10.61-92.79-7.07-120.19c2.44-18.87-3.1-194.66-6.78-302.16v-.09c-1.66-48.47-2.94-83-2.94-83s26.5-108.69,33.57-116.64c1.76-2,14.59-4.53,33.54-7.3,43.88-6.38,120.55-13.79,168.14-17.26,14.91-1.1,27-1.79,34.27-2,40.5-.88,134.48,216.57,135.2,218.27h0l.07,1.78q0,.25,0,.57l.07,2c0,.6.05,1.26.08,2l0,.55c0,.38,0,.76,0,1.17s0,.82.05,1.24c.34,9,.94,24.15,1.72,43.4.05,1.26.1,2.55.15,3.85,3.5,86.33,10.37,248.79,15.43,323.43,7.07,104.27,19.44,135.2,19.44,207.66S3209.94,2436.65,3209.94,2436.65Z"/><path class="cls-28" d="M3209.94,2436.65c-10.66,10.94-26.39,17-43,20.27-8-89.29-34-368.07-53.28-407.32-23-46.84,24.66-402.47,19.8-435.17-3.59-24.11-65.9,16.54-91.48-6.39-11.49-10.31-1-99.84-23.61-106.23-23.94-6.77-168-8.06-183.89-1s-87.92,114.66-87.92,114.66l-2-88.24s42.13-144.83,57.8-171.42a27.86,27.86,0,0,1,6.37-7.21c24.91-20.57,95.63-26,137.84-31.59,7.64-1,18.12,4.46,30.3,14.33,62.08,50.29,168.5,214.79,169.47,216.31h0l.07,1.78,0,.57.07,2,.08,2,0,.55,0,1.17.05,1.24,1.72,43.4.15,3.85c3.5,86.33,10.37,248.79,15.43,323.43,7.07,104.27,19.44,135.2,19.44,207.66S3209.94,2436.65,3209.94,2436.65Z"/><path d="M2761.35,1474.51s220.59,25.08,290.67-5.9-126-67.87-153.75-59S2747.34,1427.29,2761.35,1474.51Z"/><path class="cls-28" d="M2926.26,1568.85c-15-22.68-38.86,457.8-35.33,549.68s-12.38,310.17-12.38,310.17a159.11,159.11,0,0,1-44.11,9.75s30-372.94,29.09-468.38,14.3-358.67,30.21-387C2909.42,1555.24,2925.91,1567.93,2926.26,1568.85Z"/><path class="cls-29" d="M3084.86,1387.7c-2,16.69-4.91,30.29-9,39.63-2.63,6.08-5.74,10.36-9.37,12.5-48.19,28.53-276.44,16.16-290.18,16.72s50.17-347.22,49.8-400.34c-.3-44.64,29.6-108.73,39.15-128,1.81-3.67,2.89-5.72,2.89-5.72l52.09,14.19s47.56-17.82,50.84-21.43,47.43,44.77,73.77,68.2c16.4,14.6,39.45,176.87,42.89,304.16C3088.8,1325.74,3088.07,1360.75,3084.86,1387.7Z"/><path class="cls-30" d="M3084.86,1387.7a374.8,374.8,0,0,1-9,39.63c-2.63,6.08-5.74,10.36-9.37,12.5-48.19,28.53-276.44,16.16-290.18,16.72s50.17-347.22,49.8-400.34c-.3-44.64,29.6-108.73,39.15-128,1.62-.57,48,13.94,48,13.94s-39.36,39.35-40.82,85.24c-3.65,115.09-35,297.81-28.25,348.53,9.83,73.78,106.62,19.58,123.94-14.74s7-261.66,7-261.66l-2.3-58.76a130.18,130.18,0,0,0-31.27-79.63l-20.5-23.89s77.53,4.9,86.39,27,60,237.53,77.7,310.32q1.5,6.2,2.56,13C3092.3,1316.56,3090.82,1352.89,3084.86,1387.7Z"/><path class="cls-31" d="M2960.36,846.61c-2.09,9-2.91,19.46-3,29.82-.29,27.37,4.43,54.32,4.43,54.32s-98.59,16-88.56,10c6.51-3.86,6.29-36.58,5.34-58.93-.5-12-1.22-20.93-1.22-20.93S2967.93,813.68,2960.36,846.61Z"/><path class="cls-25" d="M2960.36,846.61c-2.09,9-2.91,19.46-3,29.82-35.63,14.59-78.79,5.44-78.79,5.44-.5-12-1.22-20.93-1.22-20.93S2967.93,813.68,2960.36,846.61Z"/><path class="cls-23" d="M3069.45,776.19c-19.91,20-37.44,11.94-37.44,11.94s-10,28.78-30.92,49.35-54.62,43.35-119.6,38.1c-24.08-2-41.86-11.47-54.33-23.75-21.16-20.84-27-49.61-22.67-62.7,7-20.78,7-68,6.07-140.27S2846.83,569,2846.83,569s90.87,8.24,136.08,12.54l8.4.8c41.09,3.95,49.52,126.16,69.56,129.41S3089.37,756.22,3069.45,776.19Z"/><path class="cls-24" d="M3040.58,744.94s-40.41-29-61.28-66.43c-14.4-25.8,5-54.68-24.58-63.12-13.94-4-56.38-10.55-86.39,13.08-31.68,25-63.84,160.66-41.14,223.37h0c-21.16-20.84-27-49.61-22.67-62.7,7-20.78,7-68,6.07-140.27S2846.83,569,2846.83,569s90.87,8.24,136.08,12.54c11.36,17.73,17,36,15.8,45.36C2997.18,639.2,3040.58,744.94,3040.58,744.94Z"/><path class="cls-32" d="M2981.55,593.23S2964,613.48,2927.93,598s-70.64-2.06-113.17,19.45,6.23-125.31,65.4-122S2977.09,550.77,2981.55,593.23Z"/><path class="cls-33" d="M2974.11,598.82s-19.25,6.95-42.43-22.08-83.21-14.39-123.75,13.11c0,0,17.9-78.35,49.53-91.22s74.84-16.56,96.47,18.55,27.62,76.05,27.62,76.05Z"/><path class="cls-34" d="M2981.55,593.23c-.93-4.51-125.37-150.68-201,4.07,0,0,24.69-86.79,72.4-99.2s95.31-9.69,107.63,20.61,34.18,70.25,31.5,81.25S2981.55,593.23,2981.55,593.23Z"/><path class="cls-35" d="M3021.18,559.92c.93,49.77-39.63,33.3-39.63,33.3s-1.52-2.79-4.31-7.4c-8.63-14.28-29.42-46-54.92-66.49v0c-20.25-16.25-43.46-25.4-65.9-13.1-53.7,29.43,19.57,120.59-49.56,193.68t0,0a160.26,160.26,0,0,1-30,24.39c.27-1,10.85-42.55-11.46-103.76-22.58-62,58.25-143.63,127.11-138.4,43.78,3.33,83.53,13.74,106.9,33.68h0a64.55,64.55,0,0,1,15.07,18.2A55.72,55.72,0,0,1,3021.18,559.92Z"/><path class="cls-34" d="M3025.92,562.24c.93,49.77-44.37,31-44.37,31s-.51-8.06-.7-17.89c.36-26.79,19.47-37.23,33.66-41.29C3018.66,541.7,3025.75,552.62,3025.92,562.24Z"/><path class="cls-35" d="M3094.16,673.91c-3.36,7.34-6.52,13.42-9.41,18.44-10.23,17.75-17.06,22.18-17.06,22.18-29.08-6.09-27.11,30.41-27.11,30.41s-9.52-10.08-20.85-24.55h0c-18.11-23.15-40.83-57.53-36.59-79.84,6.88-36.27-3.19-26.84-1.58-47.32s16.16-26.94,16.16-26.94,15.76-10.2,46-6.33C3084.31,565.14,3109.38,640.57,3094.16,673.91Z"/><path class="cls-34" d="M3084.75,692.35c-10.23,17.75-17.06,22.18-17.06,22.18-29.08-6.09-27.11,30.41-27.11,30.41s-9.52-10.08-20.85-24.55h0C3011.69,668.59,3084.75,692.35,3084.75,692.35Z"/><path class="cls-14" d="M2922.31,519.31c-20.25-16.25-43.46-25.4-65.9-13.1-53.7,29.43,19.57,120.59-49.56,193.68,41.69-48.16-2.38-167.53,40-195.19C2888.58,477.4,2921.45,518.23,2922.31,519.31Z"/><path d="M2848.29,714a5.94,5.94,0,0,0-6.05-4.61c-3,.24-6.53,3.08-7.32,14.31-1.23,17.28,11.34,11.52,13.32,1.64A25.74,25.74,0,0,0,2848.29,714Z"/><path d="M2924.82,717.49a5.94,5.94,0,0,0-6.05-4.61c-3,.24-6.52,3.08-7.32,14.32-1.23,17.28,11.34,11.51,13.32,1.63A25.74,25.74,0,0,0,2924.82,717.49Z"/><path class="cls-25" d="M2875.66,721.69s-25.83,46.69-20.37,53.63,27.34,6.7,27.34,6.7-18.83-1.89-18.87-15.31S2875.66,721.69,2875.66,721.69Z"/><path class="cls-36" d="M2915.73,963.46s-8.72,125.15-11.26,247-6.84,273.57-1.89,287l26.4,22.37,22.94-22.44c5.2-12.84-18-529.22-21-550.4C2930.88,947,2916.1,958,2915.73,963.46Z"/><path class="cls-37" d="M2908.41,934.57s-2.26,20.69,3.86,26.78,20.49,1,22.61-.66,5.88-8.41,2.12-25.69l-15.87,2.21Z"/><path class="cls-38" d="M2859.61,670.3a43.74,43.74,0,0,1-6.58,9.79,55.14,55.14,0,0,1-8.65,8.06,39.08,39.08,0,0,1-10.56,5.72,23.58,23.58,0,0,1-6,1.25,14.76,14.76,0,0,1-6-.72,34.27,34.27,0,0,0,10.39-4.12,99.82,99.82,0,0,0,9.18-6.14c3-2.22,5.94-4.53,8.93-6.88S2856.34,672.56,2859.61,670.3Z"/><path class="cls-38" d="M2953.67,690.87a25.38,25.38,0,0,1-12,1.22,36.58,36.58,0,0,1-11.69-3.42c-.92-.45-1.79-1-2.68-1.47l-1.32-.78-1.24-.88c-.82-.61-1.66-1.18-2.44-1.83s-1.5-1.36-2.23-2.05l-1.09-1-1-1.14c-.65-.77-1.28-1.55-1.9-2.33a24.72,24.72,0,0,1-1.64-2.52c-.51-.86-1-1.73-1.45-2.62,1.74,1.07,3.25,2.28,4.82,3.39.8.54,1.6,1.08,2.37,1.63l1.15.83,1.2.75c.79.51,1.58,1,2.35,1.54l2.41,1.4c.4.23.79.48,1.19.72l1.23.63c.82.42,1.62.89,2.45,1.28a75.83,75.83,0,0,0,21.46,6.7Z"/><path class="cls-25" d="M2845.1,827.32s32-28.64,77.54-15.88C2922.64,811.44,2884.54,805.34,2845.1,827.32Z"/><circle class="cls-1" cx="2840.57" cy="715.84" r="2.47"/><circle class="cls-1" cx="2917.29" cy="720.62" r="2.47"/><path class="cls-1" d="M2958.13,899.83l-36.28,37s33.13,19,36.28,37.24l27.74-61.48Z"/><path class="cls-1" d="M2879,907.69l42.84,29.15s-40.52,24-42.84,33.79L2862.42,917Z"/><path class="cls-8" d="M3154.57,1048.83l3.27-9.35h0s217.56-221,197.88-304.73C3339.37,665.15,3111,524.94,3111,524.94l-38.67,52,13.14,19.78,155.37,148.24-80.46,90c-18,19.12-33.79,36-41.26,41.39-15.33,11.07-85.93,46.93-121.86,37.26h0c-13.3-3.59-22.09-5.92-22.09-5.92s16.74,364.54,26.49,445.78v0c1,8.66,2,14.08,2.86,15.51,8.86,14.76,57.05,222.31,57.05,222.31s94.43-3.2,131.37-16.84C3193,1574.48,3129.9,1276.34,3154.57,1048.83Z"/><path class="cls-8" d="M2821.11,1328.44c-29.51,151.24-105.74,329.77-105.74,329.77l-4.67-79.68c-.3.13-57.4,120.12-57.79,120.25-10.59,3.27-93.94-53.36-93.94-53.36s95.8-235.48,111.15-316c18.6-97.6,28.53-309.57,50.16-344S2862.42,917,2862.42,917,2850.62,1177.2,2821.11,1328.44Z"/><path class="cls-39" d="M2868.83,913.42s-26.93,395.7-56.14,454.79c0,0,4-61.25-29.2-143.79,0,0,0-8.12,11.06-31s30.71-47.44,28.77-53.35-38.36-35.92-36.88-41.82,66.39-181.57,72.3-184.84S2868.83,913.42,2868.83,913.42Z"/><path class="cls-39" d="M3045.38,1189c-1,3.94-43.68,164.5-43.68,164.5v0c-9.75-81.24-26.49-445.78-26.49-445.78s2.77-3.41,22.09,5.92h0c19.31,9.32,55,182.45,55,186.38s-24.59,36.43-22.63,40.1S3046.37,1185.07,3045.38,1189Z"/><path class="cls-28" d="M2710.7,1578.53s27.9-316.08,47.62-495.1c0,0-2.87-25.3-13.79,37.7-11.31,65.18-37.36,472.47-123.26,563.79l31.64,13.86Z"/><polygon class="cls-36" points="2433.36 2021.11 2415.29 1949.41 2449.47 1953.69 2438.71 1855.71 2481.61 1855.71 2444.07 1773.95 2450.89 1770.81 2493.32 1863.22 2447.09 1863.22 2457.97 1962.32 2425.25 1958.23 2440.64 2019.27 2433.36 2021.11"/><polygon class="cls-36" points="2467.16 1769.49 2436.01 1747.41 2432.46 1785.42 2467.16 1769.49"/></svg>