<svg id="Mỗi_hình_1_layer_riêng" data-name="Mỗi hình 1 layer riêng" xmlns="http://www.w3.org/2000/svg" viewBox="0 0 4680 3120"><defs><style>.cls-1,.cls-27,.cls-28,.cls-29{fill:#fff;}.cls-2{fill:#f3f3f4;}.cls-3{fill:#ebecee;}.cls-4{fill:#d3d7db;}.cls-5{fill:#e0e2e5;}.cls-6{fill:#fefefe;}.cls-25,.cls-7{fill:#3d4f53;}.cls-7{opacity:0.09;}.cls-8{fill:#b51a1a;}.cls-9{fill:#960c0c;}.cls-10{fill:#ffc5b8;}.cls-11,.cls-21{fill:#e98970;}.cls-12{fill:#2b363c;}.cls-13{fill:#1c2426;}.cls-14{fill:#33231c;}.cls-15{opacity:0.61;}.cls-16{opacity:0.21;}.cls-17{fill:#4c2409;}.cls-18{fill:#6d3713;}.cls-19{fill:#87461b;}.cls-20{fill:#3d0b01;}.cls-21{opacity:0.56;}.cls-22{fill:#231f20;}.cls-23{fill:#dbdbdb;}.cls-24{fill:#000f11;opacity:0.13;}.cls-26{fill:#ffc606;}.cls-27{opacity:0.4;}.cls-28{opacity:0.23;}.cls-29{opacity:0.2;}</style></defs><title>09</title><rect class="cls-1" width="4680" height="3120"/><path class="cls-2" d="M1743.14,1900.42c-15.43-47.05-27.09-94.8-33.48-144.13-5.86-45.22-8.81-90.43-7-135.78q6-147.94,64.46-284.37c27.71-64.93,65.14-123.84,109.48-178,50.47-61.62,108.74-115.57,173.25-162.8,89-65.12,184.72-116.73,290.09-149.74,50.67-15.88,102.41-26,155.41-31.76,97.51-10.64,191.69,1.82,283.3,35.08,67.3,24.43,128,59.36,171.55,118.46,37.53,50.87,48.17,108.19,39.79,169.85-7.58,55.69-27.21,108.57-38.3,163.48-12,59.49-.34,114.45,26.65,167.64,30.45,60,75.15,108.69,121.45,156.17,40.87,41.91,85.83,80.15,117.11,130.58,14.45,23.3,28.53,46.9,33.47,74.53-13.42-.6-20.31-12-29.85-18.66-81-57-172.87-66-267.34-58.39-63.08,5.11-123.85,24-183.9,43.42-97,31.32-193.4,64.57-290.18,96.63-96.47,32-195.7,50.48-296.75,60-48.29,4.55-96.7,4-145.09,4.08-47.14.1-93.86-4.71-140.16-13.41-29.77-5.59-59.39-11.95-89.08-18q-22.29-80.37-44.57-160.75l-7.11,2c9.67,51.5,27.08,101.09,40.75,151.6Z"/><path class="cls-3" d="M1808.05,1925.36c29.69,6,59.31,12.38,89.08,18,46.3,8.7,93,13.51,140.16,13.41,48.39-.1,96.8.47,145.09-4.08,101-9.52,200.28-28,296.75-60,96.78-32.06,193.17-65.31,290.18-96.63,60.05-19.39,120.82-38.31,183.9-43.42,94.47-7.66,186.34,1.42,267.34,58.39,9.54,6.71,16.43,18.06,29.85,18.66,11.24,17.78,12.62,38.13,14.55,58.14,8.14,84.17-14.63,160.76-59.37,231.19-22.38,35.24-47.43,68.73-79.53,96.16-4.9-5.5-10.8-3.25-16.68-2.36-14.67,2.2-29.33,5.3-44.1,6-61.75,2.83-122.45-5-182.39-19.64C2790,2176.5,2703.68,2137,2618,2096.23c-96.15-45.77-195.74-78-302.51-87.06-61.91-5.28-123.64-5.7-185.08,1.91-84.45,10.46-165.21,35.72-244.49,66-15,5.72-28.41,15.41-44.87,17.18-17.83-17.13-28.27-39.41-40.18-60.33-24.09-42.29-45.72-85.91-57.7-133.55l54,17.78c1.22,4.58,2.65,9.12,3.59,13.76s1.91,11.44,7.77,9.31c6.28-2.28.66-8.1.06-12.37C1808.38,1927.72,1808.21,1926.54,1808.05,1925.36Zm51.08,115.18c-7.55-12.75-14.67-24.94-22.09-37-.57-.93-4.17-1.35-4.6-.76-1.25,1.76-2.83,4.76-2.12,6.2q9,18.17,19.07,35.82c.73,1.29,4.49,2,6.18,1.28S1857.87,2042.67,1859.13,2040.54Z"/><path class="cls-4" d="M3018.41,2294.72c-37,22.06-76,39.67-116.12,55.17-75.42,29.14-153.56,48-233.21,60.22-30.45,4.65-61.35,7.64-92.37,9.34-32.25,1.77-64.46,3.91-96.7,3.07-151.35-3.92-293.66-39.08-422.61-121.67-52.6-33.68-101.26-71.9-144.8-116.49-15.36-15.74-28.49-33.66-42.64-50.58,40.78-16,83.62-21.07,126.77-26.41,53.4-6.62,105.95-2.37,158.37,6.07,65.23,10.5,126.89,33.21,187.52,58.64,73.37,30.77,148.57,55.33,226.61,71.38,65.29,13.44,130.89,23.93,197.19,31.23,77,8.48,153.85,17.93,231.54,16.65C3004.79,2291.23,3012.46,2288.52,3018.41,2294.72Z"/><path class="cls-5" d="M3018.41,2294.72c-5.95-6.2-13.62-3.49-20.45-3.38-77.69,1.28-154.52-8.17-231.54-16.65-66.3-7.3-131.9-17.79-197.19-31.23-78-16.05-153.24-40.61-226.61-71.38-60.63-25.43-122.29-48.14-187.52-58.64-52.42-8.44-105-12.69-158.37-6.07-43.15,5.34-86,10.46-126.77,26.41-10.92-12.22-22.59-23.9-28.94-39.48,16.46-1.77,29.91-11.46,44.87-17.18,79.28-30.32,160-55.58,244.49-66,61.44-7.61,123.17-7.19,185.08-1.91,106.77,9.11,206.36,41.29,302.51,87.06,85.71,40.8,172.07,80.27,264.91,102.89,59.94,14.61,120.64,22.47,182.39,19.64,14.77-.67,29.43-3.77,44.1-6,5.88-.89,11.78-3.14,16.68,2.36C3093.88,2246.69,3058.22,2273.51,3018.41,2294.72Z"/><path class="cls-2" d="M3017.83,1322.87c.5-51,13.19-90.8,41.16-124.75,22.75-27.62,69.48-29.95,99,12.48a338.7,338.7,0,0,1,39,74.49c18.39,48.94,55.32,79.29,98.93,104,22.93,13,43.59,28.91,59.3,50.92,48.13,67.49-14.79,137.15-70.33,145.07-58.23,8.3-104.73-16.84-148-49.86-51.62-39.38-87.37-91.11-107.42-152.9C3022.49,1360.94,3017.26,1338.69,3017.83,1322.87Zm292.63,96.86c-1.37,1.62-3.39,3-3.22,4,.46,2.75,1.08,6.21,3,7.87,18.1,15.94,28.55,36,33.09,59.44.56,2.88,2.6,5.9,6,5.39,5.09-.77,4.35-5.28,3.48-8.43-6.68-24.33-16.43-47-36.26-63.93C3314.81,1422.58,3312.82,1421.4,3310.46,1419.73Z"/><path class="cls-6" d="M1808.05,1925.36c.16,1.18.33,2.36.49,3.54.6,4.27,6.22,10.09-.06,12.37-5.86,2.13-6.8-4.55-7.77-9.31s-2.37-9.18-3.59-13.76c-13.67-50.51-31.08-100.1-40.75-151.6l7.11-2Q1785.77,1845,1808.05,1925.36Z"/><path class="cls-6" d="M1859.13,2040.54c-1.26,2.13-2,4.94-3.56,5.58s-5.45,0-6.18-1.28q-10-17.64-19.07-35.82c-.71-1.44.87-4.44,2.12-6.2.43-.59,4-.17,4.6.76C1844.46,2015.6,1851.58,2027.79,1859.13,2040.54Z"/><path class="cls-6" d="M3310.46,1419.73c2.36,1.67,4.35,2.85,6.09,4.33,19.83,16.91,29.58,39.6,36.26,63.93.87,3.15,1.61,7.66-3.48,8.43-3.43.51-5.47-2.51-6-5.39-4.54-23.46-15-43.5-33.09-59.44-1.89-1.66-2.51-5.12-3-7.87C3307.07,1422.72,3309.09,1421.35,3310.46,1419.73Z"/><path class="cls-7" d="M1692.21,2602.5s-182,36.81,59.2,86.18,1813,47.55,1871.37-11.24-874.33-68.11-874.33-68.11S2132.75,2601.47,1692.21,2602.5Z"/><path class="cls-8" d="M2537.76,1704.69c-19.92,61.71-43.37,115.22-69,161.63-54.73,99-119.47,165.65-181.25,210.52-121.35,88.15-231.24,92.26-231.24,92.26,0-162.55-217.39-207.73-305.51-296.64v0q-2.07-2.09-4-4.2c-85.3-91.73-17.88-208.19-17.88-208.19,24.87,17.72,52.83,27.91,82.64,31.85,113.62,15,254-60.54,352.11-154.19,123.82-118.21,299.92-162.45,299.92-162.45S2683.6,1252.82,2537.76,1704.69Z"/><path class="cls-9" d="M2537.76,1704.69c-19.92,61.71-43.37,115.22-69,161.63-54.73,99-119.47,165.65-181.25,210.52-11.24-65.22,82.07-504.44-75.71-439.12-318.33,131.76-399.9,54.76-400.33,54.18,113.62,15,254-60.54,352.11-154.19,123.82-118.21,299.92-162.45,299.92-162.45S2683.6,1252.82,2537.76,1704.69Z"/><path class="cls-10" d="M2833.48,1051.6s27.91-30.6,61.15-44.33a88.75,88.75,0,0,1,18.43-5.53c40.66-7.2,42.42-10.25,42.62-15.4s-44.58,2.83-46.69,1.84,59.63-19.58,57.92-27.46-61.38,13.55-64.45,7.61,64.67-30.49,60.88-38.11-44.69,8.66-44.69,8.66,26.83-17.49,27.39-23.34-17-.09-33.9,9c-6.6,3.55-16.78,7.46-26.72,10.91h0c-15.44,5.35-30.29,9.56-30.29,9.56s-2.62.43.74-7.5c2.63-6.2,6.23-23.82,4-34.19-.6-2.91-1.65-5.24-3.3-6.6-7.56-6.24-7.88,4.32-9.41,11.22s-21.81,43.46-19.77,54.13-2,30.29-2,30.29l4,29.29Z"/><path class="cls-11" d="M2851.69,949.6c8.41,3.4,32.95-13.63,33.72-14.17-15.44,5.35-30.29,9.56-30.29,9.56s-2.62.43.74-7.5c2.63-6.2,6.23-23.82,4-34.19C2859.52,904.32,2843.25,946.19,2851.69,949.6Z"/><path class="cls-11" d="M2833.48,1051.6s27.91-30.6,61.15-44.33v0s-26,4.34-36.41-3.59-32.8-11.32-32.8-11.32-.91,16.19-3,30.49Z"/><path class="cls-11" d="M2918.65,938.88s-24.46,11.4-24.81,12.38S2891.19,955.61,2918.65,938.88Z"/><path class="cls-10" d="M2066.32,1166.09s-29.06-29.5-62.81-42a88.63,88.63,0,0,0-18.62-4.82c-40.9-5.64-42.78-8.62-43.18-13.76s44.66,1.12,46.73.06-60.34-17.29-58.94-25.23,61.86,11.2,64.71,5.14-65.79-28-62.3-35.75,45,6.94,45,6.94-27.48-16.45-28.26-22.27,17-.75,34.21,7.67c6.73,3.29,17.05,6.81,27.12,9.88h0c15.64,4.74,30.63,8.39,30.63,8.39s2.64.33-1-7.47c-2.87-6.1-7.14-23.56-5.36-34,.49-2.93,1.45-5.29,3-6.72,7.32-6.52,8,4,9.83,10.85s23.46,42.59,21.83,53.33,3.16,30.2,3.16,30.2l-2.85,29.42Z"/><path class="cls-11" d="M2044.22,1064.86c-8.27,3.72-33.45-12.36-34.24-12.86,15.64,4.74,30.63,8.39,30.63,8.39s2.64.33-1-7.47c-2.87-6.1-7.14-23.56-5.36-34C2034.66,1019.91,2052.53,1061.13,2044.22,1064.86Z"/><path class="cls-11" d="M2066.32,1166.09s-29.06-29.5-62.81-42h0s26.13,3.33,36.25-5,32.35-12.57,32.35-12.57,1.53,16.14,4.13,30.35Z"/><path class="cls-11" d="M1976.9,1056.71s24.88,10.45,25.27,11.43S2005,1072.38,1976.9,1056.71Z"/><path class="cls-1" d="M2022.84,1148.57l-7.33-14.92s28.27-11.3,62.76-22.2l6.32,12.62S2040.67,1157.61,2022.84,1148.57Z"/><path class="cls-1" d="M2806.51,1014.32l9.13-22.87s51.77,30.32,69.28,27.46l-9.68,21.64S2815.28,1033,2806.51,1014.32Z"/><path d="M2305.71,2524.74s-26.88,79.88-24.3,101-47.55-34.36-47.55-34.36,10.59-64.73,6.27-78.65S2305.71,2524.74,2305.71,2524.74Z"/><path d="M2732.43,2507.59s2.76,80.48,17.23,92.16-73.19,10.9-73.19,10.9-5.76-92-9.24-95.41S2732.43,2507.59,2732.43,2507.59Z"/><path class="cls-12" d="M2222.82,2530.12s9.37.74,20.95,3c3.31.64,6.79,1.38,10.28,2.27,15.77,4,74.29,11.07,74.29,11.07s8.31-28.79,17.68-69.39,27.56-120.47,48-159.14,29.16-75.2,30.27-110.74,84.3-271.64,106.85-284.19a3,3,0,0,1,2-.35c23.72,3.91,77.18,276.16,75.63,345.93-1.59,71.81,22.74,186,29,205.95s8.47,58.85,8.47,58.85c2.77-.9,17.72.06,34.1.58,19.45.63,40.92.64,46.35-3.8,10-8.16,32.45-18.88,32.45-18.88s-25.67-123.64-31.88-163.2-10.62-87.72-4.87-129.88-9-55.22-15.62-87S2682,1828.6,2682,1828.6,2467.75,1677,2390.36,1789c-7.5,10.85-13.71,24.17-18.32,40.33-52.2,183.12-36.22,271-67.87,348C2269.8,2260.92,2222.82,2530.12,2222.82,2530.12Z"/><path class="cls-13" d="M2222.82,2530.12s9.37.74,20.95,3c9.7-42.44,70.12-305.14,86.79-336.18,18.15-33.76,36.89-232.27,48.69-275.94s103.11-45.11,119.6-46.94c9.88-1.1,109.39-4.38,129-.61,25.91,5,57.85,7.81,57.85,7.81s-3-56.17-21.95-69.2c-47.65-32.82-152.72-85.39-221.19-89.49-7.5,10.85-65.87,90.61-70.48,106.77-52.2,183.12-36.22,271-67.87,348C2269.8,2260.92,2222.82,2530.12,2222.82,2530.12Z"/><path class="cls-13" d="M2533.14,1922.61c23.72,3.91,77.18,276.16,75.63,345.93-1.59,71.81,22.74,186,29,205.95s8.47,58.85,8.47,58.85c2.77-.9,17.72.06,34.1.58-10.7-77.37-43.7-313-54.6-353.07-13.08-48.13-25.83-192.55-46.29-239.11C2559.29,1895.77,2533.8,1921.92,2533.14,1922.61Z"/><path class="cls-14" d="M2659.82,2588.76c0,2.93.25,12.12.61,22.24.59,15.85,1.37,34,1.37,34s-15.53,9.42,53.32,13.45c49.09,2.87,88.33,3.34,106.24-.66,7.22-1.6,11-3.93,10.51-7.12,0-.35-.09-.74-.13-1.16-.54-5.64,0-16.68.71-27.13.9-12.83,2.12-24.78,2.12-24.78s-32.61-14-56.37-27.84-38.79-19.64-41.91,2.47-46.57,20.17-60.13,6.85S2659.93,2581.24,2659.82,2588.76Z"/><path class="cls-15" d="M2715.12,2658.48c49.09,2.87,88.33,3.34,106.24-.66a112.07,112.07,0,0,0,10.38-8.28c-.54-5.64,0-16.68.71-27.13-6-8.49,2.12-24.78,2.12-24.78s-11.55-2.53-31,27.68c-11.73,18.23-143.16-14.31-143.16-14.31.59,15.85,1.37,34,1.37,34S2646.27,2654.45,2715.12,2658.48Z"/><path d="M2785.41,2584.69a5.47,5.47,0,1,1-5.32,5.61A5.48,5.48,0,0,1,2785.41,2584.69Z"/><path d="M2798.55,2595a5.58,5.58,0,1,1-5.42,5.73A5.58,5.58,0,0,1,2798.55,2595Z"/><path d="M2771.55,2576.77a5.28,5.28,0,1,1-5.14,5.41A5.27,5.27,0,0,1,2771.55,2576.77Z"/><path d="M2751.1,2563.38a7.12,7.12,0,1,1-6.93,7.31A7.13,7.13,0,0,1,2751.1,2563.38Z"/><path class="cls-1" d="M2751.36,2573.14a2.65,2.65,0,0,1-1.51-4.86c17.32-11.27,20.37-9.41,21.52-8.7a12.71,12.71,0,0,1,5,5.73,4.79,4.79,0,0,1-.31,3.17s-1.31-.58-2.56-1.27c-.67-.36-1.24-.84-1.76-1.08-1.49-.67-1.24-1.88-2.75-1.84s-10.07,4.42-16.21,8.42A2.66,2.66,0,0,1,2751.36,2573.14Z"/><path class="cls-1" d="M2771.78,2584.71a2.59,2.59,0,0,1-1.44-.37,2.65,2.65,0,0,1-.9-3.63c9.07-15.08,12-14.66,13.35-14.46,4.1.59,5.7,5.83,5.87,6.38a7,7,0,0,1,.16,2.86s-3.89-1.29-4.31-2.69c-.25-.78-1.63-.66-2.34-.49s-5.36,6.4-8.2,11.13A2.62,2.62,0,0,1,2771.78,2584.71Z"/><path class="cls-1" d="M2785.62,2592.79a2.6,2.6,0,0,1-1.89-.73,2.63,2.63,0,0,1-.09-3.73h0c.06-.07,6.15-6.52,6.93-12.88a2.64,2.64,0,0,1,5.25.64c-1,8.12-8.06,15.57-8.36,15.89A2.66,2.66,0,0,1,2785.62,2592.79Z"/><path class="cls-1" d="M2798.76,2602.72a2.65,2.65,0,0,1-2.37-3.94c.17-.31,3.81-7.17.12-18.4a2.64,2.64,0,1,1,5-1.65c4.47,13.62-.34,22.29-.55,22.65A2.63,2.63,0,0,1,2798.76,2602.72Z"/><path class="cls-14" d="M2145.27,2680.08s76.44,14,119.8,6.08a49.13,49.13,0,0,0,9.75-2.73,30,30,0,0,0,3.12-1.46c24.71-13.17,5.84-46.76,16.07-67.75h0c4-8.24-4.77-22.74-4.75-34.79-6.95,20.08-14.54,25.17-19.55,15s-2.57-39.16-26-40.35-29.53,24.41-29.53,24.41c-1.67,11.06-13.17,18-26.33,26.44h0C2167,2618.37,2142,2635.81,2145.27,2680.08Z"/><path class="cls-14" d="M2299.75,2582.77c0-.94,0-1.86,0-2.81A21.68,21.68,0,0,0,2299.75,2582.77Z"/><path class="cls-15" d="M2244.27,2672.85c5.24,5.15,19.62,9.12,33.67,9.12,24.71-13.17,5.84-46.76,16.07-67.75-.49.56-22.32,25.08-42.85,4.06C2251.16,2618.28,2233.21,2661.94,2244.27,2672.85Z"/><path class="cls-1" d="M2145.27,2680.08s76.44,14,119.8,6.08a49.13,49.13,0,0,0,9.75-2.73,81.39,81.39,0,0,0-1.17-20.32c7.63,2.41,17-30.61,17-30.61l.11-4.3s-8.78,13.25-13.94,16.18a6.11,6.11,0,0,1-3.33.92c-2.9-.15-4.32-3-4.32-3-6.26-16.75-25.06-42-81.36-37.38h0c-12.08,7.79-25.56,16.92-34.11,31.84a65.55,65.55,0,0,0-8.11,25.15A92.46,92.46,0,0,0,2145.27,2680.08Z"/><path class="cls-16" d="M2145.59,2661.92c19.52,7.19,67.41,11.76,87.42,9.06a93.29,93.29,0,0,0,36.5-13.49s-74.33-1-98.45-11.33a101,101,0,0,1-17.36-9.39A65.55,65.55,0,0,0,2145.59,2661.92Z"/><path class="cls-1" d="M2661.35,2634.3l.45,10.73s6,12.18,14.45,13.23c5.37.66,64.33,2.87,106.66,3.7,24.38.49,43.24.51,43.19-.47a1.48,1.48,0,0,0,0-.32c19.15.67,46.67,1.64,48.32,1.9,2.32.36,18.45-4.37,18.89-29a66.25,66.25,0,0,0-.27-7c-2.93-32.3-35-36.58-58.42-29.44-12.44,3.78-19.22,21.19-22.87,36.74-.38,1.58-4.48,16.89-18.22,17.05C2779,2651.6,2661.35,2634.3,2661.35,2634.3Z"/><path class="cls-16" d="M2719.41,2652c28.46,7.68,106.74,10.52,106.69,9.54a1.48,1.48,0,0,0,0-.32c19.15.67,46.67,1.64,48.32,1.9,2.32.36,18.45-4.37,18.89-29,0,0-39.86,25.46-101.44,20.87C2780,2654.06,2738.13,2651.49,2719.41,2652Z"/><path d="M2890.78,2648.21s-2.45,16.75-116.43,8.17S2661.8,2645,2661.8,2645s-19.33,7.48-.67,15.82c16.72,7.47,209.95,22.07,237,4.3,0,0,6.1-3.79,6.76-8.73S2899.22,2644.78,2890.78,2648.21Z"/><path d="M2265.06,2686.16c33.48-6.08,25.58-31.42,25.61-53.65-11.9,31.18-27.4,29.2-79.79,27.87-33.92-.86-53-6.12-62.86-10.21-2.49,8.38-3.62,18.19-2.75,29.91C2145.27,2680.08,2221.71,2694,2265.06,2686.16Z"/><ellipse cx="2248.72" cy="2585.18" rx="3.62" ry="4.73" transform="translate(-955.3 3799.32) rotate(-69.74)"/><ellipse cx="2243.67" cy="2593.25" rx="3.62" ry="4.73" transform="translate(-966.18 3799.85) rotate(-69.74)"/><ellipse cx="2238.57" cy="2601.42" rx="3.62" ry="4.73" transform="translate(-977.17 3800.41) rotate(-69.74)"/><path class="cls-1" d="M2236.38,2602.6s-22.51-7.8-39.48-2.65c0,0-5.93-.2,6.25-4.25s37.19,3.13,36.85,5.48S2236.38,2602.6,2236.38,2602.6Z"/><path class="cls-1" d="M2241.08,2593.67s-19.61-7.34-34.43-2.36c0,0-5.17-.17,5.47-4.07s32.42,2.82,32.12,5.05S2241.08,2593.67,2241.08,2593.67Z"/><path class="cls-1" d="M2247.29,2586.15s-19.61-7.34-34.43-2.36c0,0-5.18-.17,5.47-4.07s32.42,2.82,32.12,5.06S2247.29,2586.15,2247.29,2586.15Z"/><circle class="cls-13" cx="2570.61" cy="1768.39" r="5.68"/><path class="cls-10" d="M2551.09,1325.58c1,28.4,4.19,71.65,4.19,71.65s-67.09-10.78-58.08-28.8c4.94-9.88,4.43-26.56,3-40-1.16-11.07-2.93-19.9-2.74-20.79,0,0,55.53-18.1,53.69-4.31C2550.69,1307,2550.75,1315.34,2551.09,1325.58Z"/><path class="cls-11" d="M2551.18,1303.37c-.49,3.65-.43,12-.09,22.21,0,0-36.28,17.75-50.86,2.89-1.16-11.07-2.93-19.9-2.74-20.79C2497.49,1307.68,2553,1289.58,2551.18,1303.37Z"/><path class="cls-17" d="M2431.26,1131.39s-66.56,46.85-19,119.89S2496.4,1308,2496.4,1308Z"/><path class="cls-18" d="M2482.45,1092.2s-28.52,4.14-59.35,50.63-18.77,99.4,5.06,115.7S2482.45,1092.2,2482.45,1092.2Z"/><path class="cls-19" d="M2566.88,1119.24s25.76-5.49,39.3,6.92-11.95,106.64-11.95,106.64S2550.19,1134.08,2566.88,1119.24Z"/><path class="cls-20" d="M2563.77,1136.66s20.71-3,29.73,13.17,5.49,51.39,5.49,51.39l-3.25,41.32S2543.25,1159.61,2563.77,1136.66Z"/><path class="cls-10" d="M2592.93,1304.18c-6.82,8.74-17.21,16.18-32.2,19.39-40.41,8.63-63.45-2.93-78.31-14.14s-23.49-28.48-23.49-28.48-10.36,6.48-24.52-4.43-12.22-37.55.1-41.23c8.35-2.5,8.88-38.82,16.26-63.85,3.52-12,8.61-21.32,16.85-23.22l5.21-1.18a463.7,463.7,0,0,1,51.91-8.76s2.3-.35,6-.53c8.89-.44,25.88.07,38.89,8.54,8.54,5.56,15.36,14.54,17.06,28.93,5.38,45.48,15.13,57.61,17.69,71.27C2606.55,1258,2604.53,1289.34,2592.93,1304.18Z"/><path class="cls-21" d="M2569.9,1146.88s-29.74-8.81-48.17,14.63-32.33,52.38-43.55,71.09-3.35,64.72,4.24,76.83c-14.86-11.21-23.49-28.48-23.49-28.48s-10.36,6.48-24.52-4.43-12.22-37.55.1-41.23c8.35-2.5,8.88-38.82,16.26-63.85,3.84-5.34,7.37-9.36,10.27-11.45,9-6.48,42.18-18.59,69.72-22.24,18.62-2.47,34.66-1.08,38.89,8.54C2569.74,1146.49,2569.83,1146.68,2569.9,1146.88Z"/><path class="cls-17" d="M2569.89,1146.88s-18.74-39.44-68.73-4.22c0,0-5.17-40.22,13.24-51.85S2573,1094.74,2569.89,1146.88Z"/><path class="cls-20" d="M2569.89,1146.88s-29.43-16.59-50,8.69-57.31,39.88-57.31,39.88S2530.68,1062.17,2569.89,1146.88Z"/><path class="cls-17" d="M2467.07,1207s-9.55,29.31-3.64,48.91-36.08-53.9-39.09-.39c0,0-10.79-9.69-14.35-22.28S2467.07,1207,2467.07,1207Z"/><path class="cls-19" d="M2569.89,1146.88s16.06-64.62-50.71-68.74-81.46,105.94-103.45,135.61-31.82,28.15-31.82,28.15,49.18,3.28,77.1-11.16,43-57.83,50.85-97.93S2563.66,1078.54,2569.89,1146.88Z"/><path d="M2566.06,1213.28a3.77,3.77,0,0,1,3-3.76c1.9-.32,4.48.89,6.7,7.68,3.41,10.44-5.21,8.82-7.94,3A16.24,16.24,0,0,1,2566.06,1213.28Z"/><path d="M2519.53,1227.19a3.77,3.77,0,0,1,3-3.77c1.9-.31,4.49.9,6.7,7.69,3.41,10.44-5.21,8.82-7.94,3.05A16.22,16.22,0,0,1,2519.53,1227.19Z"/><path class="cls-11" d="M2550.41,1222.22s23.06,24.76,20.76,29.86-15.78,8.32-15.78,8.32,11.29-4.05,9.25-12.31S2550.41,1222.22,2550.41,1222.22Z"/><path class="cls-22" d="M2580,1191.51c-2.61-.89-5-1.68-7.32-2.3a35.86,35.86,0,0,0-6.85-1.17,10.49,10.49,0,0,0-1.68-.06c-.56,0-1.13,0-1.7,0s-1.12.14-1.7.17a4.13,4.13,0,0,0-.86.11l-.86.16a35.21,35.21,0,0,0-3.57.77c-1.24.28-2.42.77-3.84,1a19.65,19.65,0,0,1,1.22-1.66,9.39,9.39,0,0,1,1.43-1.52,15,15,0,0,1,3.49-2.35,16.35,16.35,0,0,1,4.07-1.41,17.95,17.95,0,0,1,12.42,2.33A15.34,15.34,0,0,1,2580,1191.51Z"/><path class="cls-22" d="M2522.77,1200.08c-2.53,1.05-4.79,2-7,3.11a58.74,58.74,0,0,0-6.2,3.44,61.64,61.64,0,0,0-5.77,4.12c-1,.7-1.87,1.56-2.89,2.34s-1.92,1.69-3.09,2.49a17,17,0,0,1,.44-2,11.66,11.66,0,0,1,.66-1.94,19.28,19.28,0,0,1,2-3.57,21.16,21.16,0,0,1,13.7-8.62A15.38,15.38,0,0,1,2522.77,1200.08Z"/><path class="cls-11" d="M2526.74,1276.92s42.59,22.65,65.05-10.74C2591.79,1266.18,2567.37,1285.94,2526.74,1276.92Z"/><circle class="cls-1" cx="2571.1" cy="1213.24" r="1.56"/><circle class="cls-1" cx="2524.64" cy="1227.96" r="1.56"/><path class="cls-12" d="M2456.57,1365s-101.06-3-168.67-5.54-70.63-6.31-70.63-6.31L2089,1122.51s-58.19-1.85-69.31,31.35c0,0,97.09,266.89,137.94,284.11s201.09,45.66,205.54,52.44,12.09,164,3.23,204.79-35.72,147.39-35.72,147.39,101.37,35.93,229.25,14l11.14-24.06,5,22s97.06-.84,126.87-32.94c0,0-29.23-127.68-29.88-167.45s-.12-186.31-.12-186.31,181.26-363.3,210.16-433.11c0,0-23.77-3.89-75.68-32.37,0,0-178.83,344.42-215.41,359.72S2562,1441.51,2456.57,1365Z"/><path class="cls-23" d="M2554.54,1621.73s-9.22-31-20.9-66.65c-8.72-26.62-18.82-55.8-27.44-76.45-20.16-48.28-15.46-73.63-15.46-73.63-.49-3.77-2.27-24.64,7.36-21.67s34.45,5.34,34.45,5.34,40.76-11.33,43.44-4.3c1.54,4.06-5.82,82.32-12.34,147.88C2558.87,1580.42,2554.54,1621.73,2554.54,1621.73Z"/><path class="cls-24" d="M2497.89,1427.65s9.84,5.3,13.75,1.57,12.31-26.32,21.14-27.46,33.87,11.34,33.87,11.34,9.71-25.9,3.28-28.49-37.38,4.07-37.38,4.07-40.31.88-42.22,6.61S2497.89,1427.65,2497.89,1427.65Z"/><path class="cls-8" d="M2524.77,1398.11s4.53,11.26,6.93,13.1,10.22.48,12.09-.7,8.95-17.25,7.07-19-18.31-2.79-18.31-2.79-9,5.24-9.23,6.07S2524.77,1398.11,2524.77,1398.11Z"/><path class="cls-8" d="M2554.54,1621.73s-9.22-31-20.9-66.65c-2.45-64.31-1.94-143.87-1.94-143.87s3.72-2,12.09-.7c4.52.71,13,63.71,19.86,121.74C2558.87,1580.42,2554.54,1621.73,2554.54,1621.73Z"/><path class="cls-13" d="M2580,1473.48l9.89-7.66-1.51-102c-2.81,1.59-23,4.06-23,4.06L2555,1618.57l-.42,3.16-.21-.08L2479.61,1368c-.79-2.57-12.63-2.54-23-3.06-7.44-.37-10.3.09-10.3.09l31.93,113.51,25.61,13s-12,32.74-12.16,33.77,55.25,87.26,63.15,99.57l13.85,212.87,2.44-5.26-13.83-211.84h0l32.11-120.37Z"/><path class="cls-1" d="M2498.54,1361.32s17.17,26.35,34,27.36c0,0,11.26-2.47,20.38-26.59,0,0,.84-4.64,4.68-1.65s16.46,4.22,16.46,4.22-7.66,42.53-6,47.83c0,0-13.55-21.52-35.57-23.81,0,0-12.5,12.32-22.54,35.54,0,0-32.7-57.9-28.47-58.35S2496.26,1358.09,2498.54,1361.32Z"/><path class="cls-25" d="M2487.85,1360.93l66.7,260.8,10-261.79s18.4,3.87,21,2.26l1.31,101-13.63,7.81,11.4,27.8-30.13,123s-58.59-99.35-58.48-100.39,11.55-33.84,11.55-33.84l-23.6-12.81L2456.57,1365s-1.47-3.52,5.41-3.21C2471.62,1362.21,2487.13,1358.37,2487.85,1360.93Z"/><path class="cls-1" d="M1719.45,1020.36h0a40.07,40.07,0,0,0-40.07-40.07h0a40.07,40.07,0,0,0,40.07-40.07h0a40.07,40.07,0,0,0,40.07,40.07h0A40.07,40.07,0,0,0,1719.45,1020.36Z"/><path class="cls-1" d="M3109.18,848.89h0a44.12,44.12,0,0,0-44.12-44.12h0a44.12,44.12,0,0,0,44.12-44.12h0a44.12,44.12,0,0,0,44.12,44.12h0A44.13,44.13,0,0,0,3109.18,848.89Z"/><path class="cls-8" d="M2470.52,1361.41s-82.77-15.81-72.23,1.77,134.26,25.5,134.26,25.5S2473.5,1375.28,2470.52,1361.41Z"/><path class="cls-8" d="M2564.58,1359.94s45.7-21.29,35.16-3.71-66.51,32.45-66.51,32.45S2554.19,1375.3,2564.58,1359.94Z"/><path class="cls-8" d="M2532.55,1388.68s-52.65-3.29-63.51,37.37c0,0,15.14-4.82,25.23-8.41S2514.42,1397.16,2532.55,1388.68Z"/><path class="cls-8" d="M2532.55,1388.68s22.74-2.07,34.72,17.19,7.86,41,7.86,41-21.71-5.5-19.85-32.56C2556.59,1395.14,2532.55,1388.68,2532.55,1388.68Z"/><circle class="cls-13" cx="2547.65" cy="1703.35" r="4.2"/><circle class="cls-13" cx="2543.45" cy="1641.92" r="4.2"/><circle class="cls-13" cx="2549.49" cy="1789.17" r="4.2"/><path class="cls-26" d="M2836,647.57H2592.63a14.38,14.38,0,0,1-4.26-.68,15.29,15.29,0,0,1-3.76-1.85,14.82,14.82,0,0,1-3.35-3.12l-.07-.07a14,14,0,0,1-2.23-4.21l-75.21-231.47a14.09,14.09,0,0,0-13.66-9.93,12.46,12.46,0,0,0-3.21.47,14.93,14.93,0,0,0-2.32.75,13.86,13.86,0,0,0-3.11,1.7,12.55,12.55,0,0,0-2.77,2.64l0,0a14.94,14.94,0,0,0-2.23,4.34l-18,55.3-57.24,176.17a1.4,1.4,0,0,1-.09.17,13.78,13.78,0,0,1-2.11,4l-.09.1a14.82,14.82,0,0,1-7.08,5,14.33,14.33,0,0,1-4.3.69H2144.17a14.77,14.77,0,0,0-3.71.5c-.16,0-.32.07-.47.12a14.49,14.49,0,0,0-10,16.24,13.93,13.93,0,0,0,5.75,9.14l0,0,109.62,79.64,87.25,63.39a13.76,13.76,0,0,1,3.37,3.53,1.19,1.19,0,0,0,.08.16,15.14,15.14,0,0,1,1.89,4.25.22.22,0,0,1,0,.08,15.17,15.17,0,0,1,.51,3.92,14.34,14.34,0,0,1-.64,4.13l-75.21,231.46a15,15,0,0,0-.7,4.18c0,.08,0,.17,0,.25-.14,11.07,12.86,18.89,22.83,11.64l196.9-143.05a14.34,14.34,0,0,1,16.89,0l196.9,143.05a16,16,0,0,0,2.28,1.37c.19.09.39.14.58.23a14.28,14.28,0,0,0,1.82.67l.45.1a13.52,13.52,0,0,0,2.05.35h.11c9.41.76,18.24-8.3,14.83-18.8l-75.21-231.46a14.29,14.29,0,0,1-.65-4.12,15.54,15.54,0,0,1,.52-4h0a15,15,0,0,1,1.89-4.27,1.19,1.19,0,0,0,.08-.16,13.55,13.55,0,0,1,3.38-3.55l24.77-18h0l172.11-125a15.52,15.52,0,0,0,2.08-1.84c.17-.18.31-.37.46-.55s.32-.37.47-.56.49-.65.71-1c.12-.19.23-.38.34-.58.22-.37.44-.74.62-1.12,0-.09.06-.18.1-.26s.11-.31.17-.46l.12-.31a14.42,14.42,0,0,0,.6-2.18c0-.08,0-.16.05-.23A14.36,14.36,0,0,0,2836,647.57Z"/><path class="cls-26" d="M2041.16,665.83a11.77,11.77,0,0,0-15.28-9.67h0L1835.94,717a11.64,11.64,0,0,1-3.49.53,12.22,12.22,0,0,1-6.79-2.1l-.07,0a11.43,11.43,0,0,1-2.79-2.72l-24.38-33.86-92.16-128a11.56,11.56,0,0,0-13.14-4.33,10.19,10.19,0,0,0-2.39,1.17,11.41,11.41,0,0,0-1.62,1.16,11.78,11.78,0,0,0-2,2.1,10.34,10.34,0,0,0-1.5,2.76s0,0,0,0a12.14,12.14,0,0,0-.66,3.94l-.2,47.65-.65,151.79s0,.1,0,.15a11.38,11.38,0,0,1-.64,3.65.93.93,0,0,0-.05.1,12.11,12.11,0,0,1-4.28,5.65,11.53,11.53,0,0,1-3.19,1.61L1486,829.05a12,12,0,0,0-2.77,1.32,3.7,3.7,0,0,0-.33.21c-7.62,5.14-6.66,17.68,3,20.87h0l105.45,34.75,83.94,27.67a11.28,11.28,0,0,1,3.51,1.92s.06.07.1.1l.07.06a12.37,12.37,0,0,1,2.47,2.79s0,0,0,0a12.09,12.09,0,0,1,1.38,2.93,11.28,11.28,0,0,1,.53,3.39l-.85,199.43a12.14,12.14,0,0,0,.5,3.43c0,.07,0,.14,0,.2,2.66,8.68,14.75,11.53,20.72,3.38L1821.7,970.72a11.73,11.73,0,0,1,13.18-4.22l189.4,62.43a12.13,12.13,0,0,0,2.13.5l.51,0a12,12,0,0,0,1.58.07l.38,0a10.42,10.42,0,0,0,1.69-.24l.08,0c7.54-1.76,12.16-11,6.88-18.37L1921,849a11.58,11.58,0,0,1-1.54-3.06,12.11,12.11,0,0,1-.58-3.21h0a12.24,12.24,0,0,1,.4-3.81c0-.05,0-.1,0-.15a11.08,11.08,0,0,1,1.75-3.61L2039,674.34a12.43,12.43,0,0,0,1.17-2c.08-.18.14-.36.22-.55a5.25,5.25,0,0,0,.22-.55,8.76,8.76,0,0,0,.31-.95c0-.18.08-.36.12-.54a9.35,9.35,0,0,0,.2-1,1.77,1.77,0,0,0,0-.23c0-.13,0-.26,0-.39s0-.19,0-.28a11.37,11.37,0,0,0-.07-1.85C2041.17,666,2041.17,665.89,2041.16,665.83Z"/><path class="cls-26" d="M1404.84,1086.43a9.39,9.39,0,0,1-1.67-2.17,9.81,9.81,0,0,1-1-2.44h0a1.55,1.55,0,0,1,0-.21,9.73,9.73,0,0,1-.22-2.85.48.48,0,0,0,0-.12,8.88,8.88,0,0,1,.83-3.1L1471.06,931a9.74,9.74,0,0,0,.61-1.71c0-.15.06-.31.1-.46l.09-.47c0-.27.08-.53.1-.79s0-.3,0-.45,0-.56,0-.84l0-.18c0-.11,0-.21,0-.32l0-.22a8.87,8.87,0,0,0-.34-1.44l0-.15A9.43,9.43,0,0,0,1458,918.7l-140.18,76.78a9.18,9.18,0,0,1-2.67.95,9.65,9.65,0,0,1-5.66-.62l-.07,0a9,9,0,0,1-2.61-1.72L1190.46,884.48a9.25,9.25,0,0,0-11-1.41,8.21,8.21,0,0,0-1.71,1.28,10.07,10.07,0,0,0-1.09,1.17,9,9,0,0,0-1.26,2,8.31,8.31,0,0,0-.76,2.4v0a9.69,9.69,0,0,0-.09,1.33,9.32,9.32,0,0,0,.18,1.87l7.09,37.52,18.76,99.19,3.85,20.34h0a.48.48,0,0,0,0,.12,9,9,0,0,1,0,3l0,.09a9.54,9.54,0,0,1-.91,2.81,9.72,9.72,0,0,1-1.59,2.28,9.49,9.49,0,0,1-2.26,1.75L1059.49,1137a9.6,9.6,0,0,0-2,1.46l-.24.22a9.44,9.44,0,0,0,5.55,16h0l88.27,11.3,70.25,9a8.86,8.86,0,0,1,3.06,1l.09.06a9.77,9.77,0,0,1,2.43,1.85l0,0a10,10,0,0,1,1.54,2.1,9.8,9.8,0,0,1,.93,2.58l29.7,157a9.72,9.72,0,0,0,.91,2.63,1,1,0,0,1,.07.15,9.45,9.45,0,0,0,16.82-.5l68.29-144.52A9.46,9.46,0,0,1,1355,1192l158.54,20.29a10.27,10.27,0,0,0,1.74.06c.14,0,.27,0,.41,0a10.33,10.33,0,0,0,1.26-.19c.1,0,.19-.06.29-.09a7.84,7.84,0,0,0,1.29-.44l.07,0a9.46,9.46,0,0,0,2.61-15.5Z"/><path class="cls-26" d="M3360.41,888.6a8.86,8.86,0,0,0,2.81-15.6l-.25-.17-.57-.36a8.4,8.4,0,0,0-1.48-.7l-141.14-50.64a9.09,9.09,0,0,1-2.35-1.29,9.13,9.13,0,0,1-3.07-4.36s0-.05,0-.08a8.42,8.42,0,0,1-.39-2.76s0-.07,0-.11l3.46-114.08,1.09-35.8v-.29a9,9,0,0,0-.39-2.7v0a7.6,7.6,0,0,0-1.06-2.11,8.68,8.68,0,0,0-1.45-1.63,8.79,8.79,0,0,0-1.19-.92,7.84,7.84,0,0,0-1.76-.94,8.69,8.69,0,0,0-10,2.92l-91.78,118.58a8.48,8.48,0,0,1-2.17,2l-.05,0a8.94,8.94,0,0,1-2.6,1.12,9.54,9.54,0,0,1-2.56.29,9.05,9.05,0,0,1-2.61-.49l-141.14-50.64a8.84,8.84,0,0,0-11.73,6.86.78.78,0,0,0,0,.14,8.06,8.06,0,0,0-.11,1.39,1.48,1.48,0,0,0,0,.21c0,.1,0,.2,0,.3v.17c0,.26.08.52.13.78a3,3,0,0,0,.08.41,6.44,6.44,0,0,0,.2.72c.05.14.1.28.16.42s.09.28.15.42a9.54,9.54,0,0,0,.82,1.49L3033,863.89l.8,1.17a8.7,8.7,0,0,1,1.22,2.76s0,.08,0,.11a9.24,9.24,0,0,1,.21,2.87h0a9,9,0,0,1-.53,2.4,8.58,8.58,0,0,1-1.23,2.26l-91.77,118.58a8.87,8.87,0,0,0,4.69,14l.06,0a8.74,8.74,0,0,0,1.26.23,2.85,2.85,0,0,0,.29,0,7.89,7.89,0,0,0,1.19,0h.38a9.36,9.36,0,0,0,1.61-.32l143.95-42a8.84,8.84,0,0,1,9.8,3.51l84.42,123.93a8.86,8.86,0,0,0,15.66-2,.83.83,0,0,0,0-.15,8.75,8.75,0,0,0,.46-2.57l4.55-149.87a8.94,8.94,0,0,1,.49-2.54,9.2,9.2,0,0,1,1.11-2.16s0,0,0,0a9.27,9.27,0,0,1,2-2.07.6.6,0,0,1,.08-.08,8.4,8.4,0,0,1,2.69-1.35l63.79-18.6,80.14-23.38Z"/><path class="cls-26" d="M3528.82,1078.61l-.11-.1a4.57,4.57,0,0,0-.92-.68l-65.65-36a4.49,4.49,0,0,1-1.06-.82,4.35,4.35,0,0,1-.74-1.07,4.29,4.29,0,0,1-.43-1.31s0,0,0,0a4.39,4.39,0,0,1,0-1.4v0h0l10.59-56,3.32-17.57a4.48,4.48,0,0,0,0-1.5h0a3.83,3.83,0,0,0-.36-1.13,4.17,4.17,0,0,0-.59-.91,4.43,4.43,0,0,0-.51-.55,4.18,4.18,0,0,0-.8-.6,4.33,4.33,0,0,0-5.15.66L3412,1010.91a4.1,4.1,0,0,1-1.23.81h0a4.54,4.54,0,0,1-1.36.35,4.66,4.66,0,0,1-1.29-.06,4.47,4.47,0,0,1-1.25-.45l-65.64-36h0a4.42,4.42,0,0,0-6.32,2.47.19.19,0,0,0,0,.07,3.06,3.06,0,0,0-.16.68s0,.07,0,.1a.77.77,0,0,1,0,.15s0,0,0,.08,0,.26,0,.4a1.34,1.34,0,0,0,0,.2c0,.13,0,.25,0,.38a2.25,2.25,0,0,0,.05.22,1.55,1.55,0,0,0,0,.21,4,4,0,0,0,.29.8l32,67.68a4.23,4.23,0,0,1,.39,1.45v.06a4.92,4.92,0,0,1-.12,1.43h0a4.34,4.34,0,0,1-.44,1.15,4.41,4.41,0,0,1-.78,1l-54.48,51.33a4.43,4.43,0,0,0,1.22,7.26h0a5.29,5.29,0,0,0,.6.21l.14,0a5.58,5.58,0,0,0,.59.09l.19,0a5.67,5.67,0,0,0,.82,0l74.24-9.5a4.45,4.45,0,0,1,4.56,2.49l32,67.68a4.42,4.42,0,0,0,7.88.23l0-.07a4.26,4.26,0,0,0,.43-1.23l13.91-73.54a4.17,4.17,0,0,1,.44-1.21,4.63,4.63,0,0,1,.71-1l0,0a4.42,4.42,0,0,1,1.14-.87l0,0a4.12,4.12,0,0,1,1.43-.45l32.9-4.21,41.33-5.29h0A4.43,4.43,0,0,0,3528.82,1078.61Z"/><path class="cls-1" d="M2383.91,929.84h0a58.68,58.68,0,0,0-58.68-58.68h0a58.69,58.69,0,0,0,58.68-58.69h0a58.69,58.69,0,0,0,58.68,58.69h0A58.68,58.68,0,0,0,2383.91,929.84Z"/><path class="cls-27" d="M2850.17,664.49c0,.07,0,.15-.05.23a14.42,14.42,0,0,1-.6,2.18l-.12.31c-.06.15-.11.31-.17.46s-.06.17-.1.26c-.18.38-.4.75-.62,1.12-.11.2-.22.39-.34.58-.22.34-.46.67-.71,1s-.31.37-.47.56-.29.37-.46.55a15.52,15.52,0,0,1-2.08,1.84l-172.11,125h0c-178.87,8.72-381-60.33-542.36-134.19a14.49,14.49,0,0,1,10-16.24c.15-.05.31-.08.47-.12a14.77,14.77,0,0,1,3.71-.5h243.37a14.33,14.33,0,0,0,4.3-.69,14.82,14.82,0,0,0,7.08-5l.09-.1a13.78,13.78,0,0,0,2.11-4,1.4,1.4,0,0,0,.09-.17l57.24-176.17,18-55.3a14.94,14.94,0,0,1,2.23-4.34l0,0a12.55,12.55,0,0,1,2.77-2.64,13.86,13.86,0,0,1,3.11-1.7,14.93,14.93,0,0,1,2.32-.75,12.46,12.46,0,0,1,3.21-.47,14.09,14.09,0,0,1,13.66,9.93L2579,637.64a14,14,0,0,0,2.23,4.21l.07.07a14.82,14.82,0,0,0,3.35,3.12,15.29,15.29,0,0,0,3.76,1.85,14.38,14.38,0,0,0,4.26.68H2836A14.36,14.36,0,0,1,2850.17,664.49Z"/><path class="cls-28" d="M3362.4,872.47C3215.05,910.63,3108,895.3,3033,863.89L2949.4,741.13a9.54,9.54,0,0,1-.82-1.49c-.06-.14-.1-.28-.15-.42s-.11-.28-.16-.42a6.44,6.44,0,0,1-.2-.72,3,3,0,0,1-.08-.41c0-.26-.1-.52-.13-.78v-.17c0-.1,0-.2,0-.3a1.48,1.48,0,0,1,0-.21,8.06,8.06,0,0,1,.11-1.39.78.78,0,0,1,0-.14,8.84,8.84,0,0,1,11.73-6.86l141.14,50.64a9.05,9.05,0,0,0,2.61.49,9.54,9.54,0,0,0,2.56-.29,8.94,8.94,0,0,0,2.6-1.12l.05,0a8.48,8.48,0,0,0,2.17-2L3202.62,657a8.69,8.69,0,0,1,10-2.92,7.84,7.84,0,0,1,1.76.94,8.79,8.79,0,0,1,1.19.92,8.68,8.68,0,0,1,1.45,1.63,7.6,7.6,0,0,1,1.06,2.11v0a9,9,0,0,1,.39,2.7v.29l-1.09,35.8-3.46,114.08s0,.07,0,.11a8.42,8.42,0,0,0,.39,2.76s0,.05,0,.08a9.13,9.13,0,0,0,3.07,4.36,9.09,9.09,0,0,0,2.35,1.29l141.14,50.64A8.4,8.4,0,0,1,3362.4,872.47Z"/><path class="cls-27" d="M1472,927.13c0,.15,0,.3,0,.45s-.06.52-.1.79l-.09.47c0,.15,0,.31-.1.46a9.74,9.74,0,0,1-.61,1.71l-68.28,144.52a8.88,8.88,0,0,0-.83,3.1.48.48,0,0,1,0,.12,9.73,9.73,0,0,0,.22,2.85c-84.13,12.33-150.45-12.64-201.6-51.79l-18.76-99.19-7.09-37.52a9.32,9.32,0,0,1-.18-1.87,9.69,9.69,0,0,1,.09-1.33v0a8.31,8.31,0,0,1,.76-2.4,9,9,0,0,1,1.26-2,10.07,10.07,0,0,1,1.09-1.17,8.21,8.21,0,0,1,1.71-1.28,9.25,9.25,0,0,1,11,1.41L1306.8,994.07a9,9,0,0,0,2.61,1.72l.07,0a9.65,9.65,0,0,0,5.66.62,9.18,9.18,0,0,0,2.67-.95L1458,918.7a9.43,9.43,0,0,1,13.49,5.28l0,.15a8.87,8.87,0,0,1,.34,1.44l0,.22c0,.11,0,.21,0,.32l0,.18C1472,926.57,1472,926.85,1472,927.13Z"/><path class="cls-29" d="M1798.42,678.79c-21.74,75-58.26,162.05-119.46,237.17l-.07-.06s-.06-.07-.1-.1a11.28,11.28,0,0,0-3.51-1.92l-83.94-27.67-105.45-34.75h0c-9.67-3.19-10.63-15.73-3-20.87a3.7,3.7,0,0,1,.33-.21,12,12,0,0,1,2.77-1.32l189.93-60.82a11.53,11.53,0,0,0,3.19-1.61,12.11,12.11,0,0,0,4.28-5.65.93.93,0,0,1,.05-.1,11.38,11.38,0,0,0,.64-3.65c0-.05,0-.1,0-.15l.65-151.79.2-47.65a12.14,12.14,0,0,1,.66-3.94s0,0,0,0a10.34,10.34,0,0,1,1.5-2.76,11.78,11.78,0,0,1,2-2.1,11.41,11.41,0,0,1,1.62-1.16,10.19,10.19,0,0,1,2.39-1.17,11.56,11.56,0,0,1,13.14,4.33Z"/></svg>