<svg id="Mỗi_hình_1_layer_riêng" data-name="Mỗi hình 1 layer riêng" xmlns="http://www.w3.org/2000/svg" viewBox="0 0 4680 3120"><defs><style>.cls-1,.cls-22{fill:#fff;}.cls-2{fill:#f3f3f4;}.cls-3{fill:#fefefe;}.cls-4{fill:#ebecee;}.cls-5{fill:#d3d7db;}.cls-6{fill:#e0e2e5;}.cls-7{fill:#ffc5b8;}.cls-13,.cls-8{fill:#e98970;}.cls-9{fill:#dbdbdb;}.cls-10{fill:#b51a1a;}.cls-11{fill:#2b363c;}.cls-12,.cls-29{fill:#1c2426;}.cls-13{opacity:0.56;}.cls-14{fill:#3d0b01;}.cls-15{fill:#4c2409;}.cls-16{fill:#6d3713;}.cls-17{fill:#87461b;}.cls-18{fill:#a34926;}.cls-19{fill:#231f20;}.cls-20{fill:#3d4f53;}.cls-21{fill:#ca2722;}.cls-22{stroke:#000;stroke-miterlimit:10;stroke-width:2px;}.cls-23{fill:#cf4a58;}.cls-24{fill:#ffc606;}.cls-25{fill:#d4e6ff;}.cls-26{fill:#efefef;}.cls-27{fill:#ccc;}.cls-28{fill:#ffbda9;}.cls-29{opacity:0.5;}.cls-30{fill:#e8e8e8;}</style></defs><title>10</title><rect class="cls-1" width="4680" height="3120"/><path class="cls-2" d="M3337.81,915.4A427.66,427.66,0,0,0,3266,837.52c-50.23-42.58-70.54-99.25-81.38-161.46-5.69-32.72-15.78-64-35.22-91.93-59.59-85.72-168.9-40.68-201.86,21.83-34.56,65.51-24.48,131.33-3.7,196.64,24.79,77.92,71,142.27,135.73,192.28,22.44,17.33,46.6,33,65.61,39,60.73,21.06,113.26,22.89,165.39,4.14C3353,1022.78,3375.61,968.37,3337.81,915.4ZM3148.46,647.91c-3.07-1.7-6.89-3.91-8.07-6.85-11.22-28.24-30.55-49.14-56.45-64.48-3.18-1.88-5.89-5.58-3.81-9.43,3.06-5.71,8.09-2.92,11.46-.56,26,18.26,48.79,39.45,60.42,70.14,1,2.69,1.58,5.56,2.54,9C3152.06,646.73,3149.57,648.54,3148.46,647.91Z"/><path class="cls-2" d="M3605.68,1518.64c-.4-90.19-16.07-177-67.65-253.72-44.4-66.09-107.85-103-184.52-119.26-69.25-14.66-140.3-13.82-210.12-24-75.64-11-135.85-48.16-187.47-102.75-58.22-61.56-97-135.25-133.64-210.3-32.35-66.24-58.6-135.8-105.14-194.28-21.48-27-43.5-53.74-74.17-71.33-16.31-20.87-39.85-31.15-62.76-41.93-96.35-45.37-196.83-50.87-299.34-27.73-51.29,11.59-101.63,27.08-147.78,53.49-51.06,24.77-98,55.68-140,93.87C1951.2,655.2,1913.74,694,1878.34,735c-66.57,77.07-122.15,161.71-170.38,251-18.45,34.14-35.11,69.51-50.29,105.57-1.24,2.93-2.47,5.88-3.71,8.81-14.59,34.53-29.28,69-41,104.55a1255.81,1255.81,0,0,0-33.72,122.5c-31.15,141.39-34.87,284.55-1.38,430.28l1.65,7.1c12.83,54.36,29.27,107.32,50.27,158.67q11.45,28,24.77,55.37c7.55,15.5,16.47,30.32,25.51,45.08,5.5,9,11,17.91,16.35,27,9.87,18.15,18.76,36.93,34.54,51.07,11.6,25.85,30.84,46.25,49.08,67.05,1.81,2.06,3.62,4.13,5.4,6.21,39.93,46.51,82.47,90.67,133.88,125.1q36.93,28.7,75.9,54.09a915.09,915.09,0,0,0,80.79,46.79c51.14,26.14,103.51,48.82,158,65.89q178,55.7,364.56,44.26c88.76-5.31,174.51-24.68,257.51-54.29q16.93-6,33.62-12.62,47.64-18.75,93.34-41.7,52.3-26.21,102.07-57.55,18.33-11.47,36.26-23.61c.44-.28.87-.58,1.29-.86q22.5-15.26,44.35-31.22a1303.89,1303.89,0,0,0,148-125.64,1147.1,1147.1,0,0,0,108.32-123.57c40.33-53.35,74.26-110.42,103.62-170.81C3581,1758.35,3606.23,1641.37,3605.68,1518.64Z"/><path class="cls-3" d="M3154.55,645.79c-1-3.51-1.53-6.37-2.55-9.06-11.62-30.69-34.39-51.88-60.41-70.14-3.37-2.36-8.4-5.15-11.47.56-2.07,3.85.65,7.55,3.82,9.43,25.9,15.34,45.23,36.24,56.45,64.48,1.17,2.94,5,5.15,8.06,6.86C3149.57,648.54,3152.05,646.73,3154.55,645.79Z"/><path class="cls-4" d="M3293.05,2160.64c-68.48-10.17-135.7-26-201.11-48.76-67.17-23.42-134.67-45.9-199.56-75.44-135.77-61.8-264.68-135.23-383.29-226-119-91.07-236.9-183.59-356.59-273.74-74.07-55.81-149.38-111.29-234.53-148.73-108.94-47.88-221.11-77.89-338.7-60.56-31.15,141.39-34.87,284.55-1.38,430.28l1.65,7.1c12.83,54.36,29.27,107.32,50.27,158.67q11.45,28,24.77,55.37c7.55,15.5,16.47,30.32,25.51,45.08A1087.47,1087.47,0,0,0,1801,2042c139.82,13.22,278.75-.07,417.41-15.53,155.54-17.34,309.34-14.16,462,24.53,88.52,22.42,174.46,51.53,256.14,91.64,82.41,40.47,158.26,91.09,230.56,146.88a1303.89,1303.89,0,0,0,148-125.64Q3304.08,2162.27,3293.05,2160.64Z"/><path class="cls-5" d="M3085.18,2345.16q-49.77,31.28-102.07,57.55-45.68,22.92-93.34,41.7-16.7,6.59-33.62,12.62c-83,29.61-168.75,49-257.51,54.29q-186.63,11.16-364.56-44.26c-54.54-17.07-106.91-39.75-158-65.89a915.09,915.09,0,0,1-80.79-46.79q-39.08-25.3-75.9-54.09c-51.41-34.43-93.95-78.59-133.88-125.1-1.78-2.08-3.59-4.15-5.4-6.21,48.58,12,97.47,22.81,146.32,33.93q143.4,32.61,288.9,51.44c116.1,15.21,232.35,17.27,349,9.8,96.43-6.17,193-8.06,288.64,8.72,76.87,13.48,151.89,32.84,222.88,67.71Z"/><path class="cls-6" d="M3167.08,2289.47q-21.82,16-44.35,31.22c-.42.28-.85.58-1.29.86q-18,12.13-36.26,23.61l-9.33-4.58c-71-34.87-146-54.23-222.88-67.71-95.64-16.78-192.21-14.89-288.64-8.72-116.7,7.47-232.95,5.41-349-9.8q-145.71-19.11-288.9-51.44c-48.85-11.12-97.74-21.95-146.32-33.93-18.24-20.8-37.48-41.2-49.08-67.05-15.78-14.14-24.67-32.92-34.54-51.07-5.31-9-10.85-18-16.35-27A1087.47,1087.47,0,0,0,1801,2042c139.82,13.22,278.75-.07,417.41-15.53,155.54-17.34,309.34-14.16,462,24.53,88.52,22.42,174.46,51.53,256.14,91.64C3018.93,2183.06,3094.78,2233.68,3167.08,2289.47Z"/><path class="cls-7" d="M3321.08,1609.13s1.56-38.66-8.77-63.91,12.24-60.9,14.54-80-12.32-112.89,1.15-118.63,58.23,19.64,46.49,57.4c-10.8,34.75,0,53.2,0,53.2s72.14-57.79,106.58-45.16,25.26,42,25.26,42,29.85,3.87,33.3,37.17c0,0,20.66,27.55,11.48,56.25,0,0,13.77,18.37-3.45,40.19s-61.23,37.33-86.44,26.42c0,0-12.29,23.9-33.72,55.66C3407.64,1699.21,3321.08,1609.13,3321.08,1609.13Z"/><path class="cls-8" d="M3483.61,1617.63s-19.76-11.37-5.6-28.21c0,0-34.06,6.12-36.74-23.16,0,0-23.72-7.65-23-31.38,0,0-29.85-13.39-18.37-37.5s68.89-68.88,68.89-68.88-38.27,18.11-67.26,57.65c-28.56,39,42.64,92.11,59.35,121.45,2.25,4-9.69,22.12-17.54,30.42-10.41,11.33-12.7,18.54-25.07,14.73-13.27-4.08-97.17-52.29-97.17-52.29l-.06,8.67s101.57,66.71,106.42,60.65S3483.61,1617.63,3483.61,1617.63Z"/><path class="cls-8" d="M3441.26,1566.11q8.16-1.66,16.09-4c5.3-1.49,10.5-3.23,15.63-5.12a162.4,162.4,0,0,0,15-6.48,124.7,124.7,0,0,0,14.11-8,91.8,91.8,0,0,0,23.54-21.86c6.49-8.63,10.91-18.72,13.84-29.44l.29,0a76,76,0,0,1-12.19,30.73c-.39.57-.75,1.17-1.17,1.72l-1.27,1.65c-.87,1.08-1.66,2.23-2.62,3.24l-2.77,3.12-3,2.93a100.76,100.76,0,0,1-13,10.36,131.14,131.14,0,0,1-30,14.23,161.83,161.83,0,0,1-16,4.43,140,140,0,0,1-16.41,2.72Z"/><path class="cls-8" d="M3418.27,1534.74c4.91-1.94,9.73-4,14.47-6.22s9.41-4.53,14-7,9.05-5.08,13.36-8a132.16,132.16,0,0,0,12.55-9,116.36,116.36,0,0,0,11.4-10.33,104.34,104.34,0,0,0,9.73-11.86l2.1-3.22c.36-.53.67-1.1,1-1.66l1-1.67,1-1.67.84-1.73c.55-1.17,1.16-2.31,1.66-3.5a93.39,93.39,0,0,0,4.91-14.83l.3,0a76.49,76.49,0,0,1-3.73,15.34,78,78,0,0,1-7,14.16,94.28,94.28,0,0,1-9.65,12.51,115.64,115.64,0,0,1-11.59,10.76,148.85,148.85,0,0,1-26.74,16.76q-7.08,3.51-14.46,6.36a153.83,153.83,0,0,1-15,5Z"/><path class="cls-8" d="M3374.49,1457.2,3380,1453c11.69,22.14,32.68,107.44,14.31,141.37C3394.33,1594.33,3408.94,1535,3374.49,1457.2Z"/><path class="cls-1" d="M3282.46,1652l25.25-52.81s73.48,59.7,141.22,62l-39,79.22S3258.35,1668.06,3282.46,1652Z"/><path class="cls-8" d="M3478,1589.27a89.33,89.33,0,0,0,11.14-.91,93,93,0,0,0,10.81-2.11,87,87,0,0,0,10.35-3.39,72.28,72.28,0,0,0,9.74-4.72,66,66,0,0,0,9-6,79.38,79.38,0,0,0,8.12-7.25,126.21,126.21,0,0,0,13.8-17.41l.27.13a84.68,84.68,0,0,1-12.31,18.84,68.36,68.36,0,0,1-8.09,7.87,65.07,65.07,0,0,1-9.27,6.45,70,70,0,0,1-21.11,7.82,74,74,0,0,1-11.2,1.39,63.36,63.36,0,0,1-11.27-.38Z"/><path class="cls-9" d="M2637.66,1387.53s-60.66,7.29-81.63,56.66,49,625.7,163.26,582.07S2896.06,1533,2822.84,1476,2699.47,1358.94,2637.66,1387.53Z"/><path class="cls-10" d="M2639.76,1458.07c-1.11,4.66,3.34,371.3,48.09,594.66s44-213.55,44-213.55l-63.32-385.09Z"/><path class="cls-11" d="M3448.93,1714s-35.3,89.37-84,190.51a0,0,0,0,1,0,0v0a.23.23,0,0,0-.06.12c-60.27,125.2-141,268.37-200.68,282.34-106.36,24.88-145.82-121.95-146.94-126.19a.38.38,0,0,1,0-.1v98.73c0,82.67,66.59,500.56,66.59,500.56h-895.5s82.66-305.39,107.91-417.89S2271,1792.05,2271,1792.05s0,0,0,0c-3.51,4.89-228.32,316.89-358.18,326-130.88,9.2,268.65-608.47,310.74-659.76s173.76-70.41,221.21-84.18,56-31,56-31c64.44,74.6,218,672.39,218,672.39-.77-117.09,35.67-689.38,35.67-689.38,10.68,9.9,128.89,44.93,194.16,61.77s207.21,444.69,207.21,444.69c22.19-68.89,111.73-204.36,111.73-204.36C3347.9,1694.08,3448.93,1714,3448.93,1714Z"/><path class="cls-12" d="M2718.75,2015.55s16.07,571,23,644.45h-38.37s17.89-597,0-624.55-151-175.66-151-226.17,18.31-135.15,12.57-140.48-93-12.18-96.44-43.77-18.88-252.33-18.88-252.33l35-18.45,228.17,644.08Z"/><path class="cls-12" d="M2789.93,1343.14l-71.18,672.41.66,23.36c26.44-61,88.87-231,91.18-245.71,3.45-21.81-32.14-108.74-20.66-124.4s60.85-71.92,62-81.1-45.55-241.09-45.55-241.09Z"/><path class="cls-7" d="M2723.21,1162.68c-4.32,17.52-6.23,37.75-6.76,57.88-1.39,53.21,7,105.74,7,105.74s-49,87.17-98.65,93c-38.86,4.54-82.45-71.13-73.82-76,12.79-7.31,13.33-70.94,12.14-114.4-.62-23.25-1.74-40.72-1.74-40.72S2738.9,1098.89,2723.21,1162.68Z"/><path class="cls-8" d="M2717.09,1262.24s-49,73-79.9,72.76-74-53.81-74-53.81l-7.16,79.86s8.73,74.85,96.13,33,66.06-114.49,66.06-114.49Z"/><path class="cls-8" d="M2723.21,1162.68c-4.32,17.52-6.23,37.75-6.76,57.88-69.7,27.3-153.34,8.25-153.34,8.25-.62-23.25-1.74-40.72-1.74-40.72S2738.9,1098.89,2723.21,1162.68Z"/><path class="cls-7" d="M2917.21,997.17c-34.39,42.68-69.93,30.77-69.93,30.77s-13.36,57.68-49.67,101.75-96.69,95-223.39,98.22c-47,1.18-83.3-13.59-109.91-34.76-45.2-36-62.5-90.37-56.72-116.57,9.21-41.62-.53-133-17.06-272.45s53.74-161.89,53.74-161.89,177.38-2.72,265.67-3.69c5.9-.08,11.37-.12,16.4-.18,80.26-.79,121.64,233.76,161,235.93S2951.62,954.46,2917.21,997.17Z"/><path class="cls-13" d="M2855,942.67s-84.08-47.84-132.11-115.85c-33.12-46.93-1.55-106.74-60.47-117-27.77-4.84-111.18-8.83-164.34,43-56.13,54.76-90.46,323.72-33.69,440.3h-.05c-45.2-36-62.5-90.37-56.72-116.57,9.21-41.62-.53-133-17.06-272.45s53.74-161.89,53.74-161.89,177.38-2.72,265.67-3.69c25.59,32,40.16,66.19,39.85,84.47C2749.37,747.15,2855,942.67,2855,942.67Z"/><path class="cls-14" d="M2709.7,661.47S2680,704.23,2607,681.78s-137,10.53-214.8,60.84-13.68-243.55,101.41-249.23S2692.37,580.29,2709.7,661.47Z"/><path class="cls-15" d="M2696.47,673.8s-35.79,17.4-86.57-34-163.83-10.73-236.57,50.75c0,0,18.53-155.15,77.05-186.53s141.3-47.39,190.32,16.06,69,141.36,69,141.36Z"/><path class="cls-16" d="M2709.7,661.47C2707,653,2436.39,395.89,2322,710.59c0,0,29.92-172.86,119.61-206.64s182.3-38.31,212.33,17.74,80.49,128.8,77.57,150.63S2709.7,661.47,2709.7,661.47Z"/><path class="cls-17" d="M2779.49,588.94c12,96-69.78,72.52-69.78,72.52s-3.52-5.08-9.84-13.42c-19.62-25.83-66.33-82.92-119.84-117.28a0,0,0,0,0,0,0c-42.49-27.27-89.24-40.18-130.11-11.8-97.78,67.92,62.6,229.14-56,384.62a.22.22,0,0,0-.06.07c-13.67,17.9-31,35.71-52.91,53.31.31-2,12.25-84.5-43.44-198.25C2241.06,643.47,2380.58,469,2514.78,465c85.33-2.56,164.31,9.41,213.6,43.17l0,0c13.24,9.07,24.35,19.71,32.88,32.09A108.39,108.39,0,0,1,2779.49,588.94Z"/><path class="cls-16" d="M2789.13,592.45c12,96-79.42,69-79.42,69s-2.65-15.48-5-34.45c-4.82-51.87,30-76,56.6-86.74C2770.87,554.23,2786.82,573.89,2789.13,592.45Z"/><path class="cls-17" d="M2944,794.34c-5,14.88-9.85,27.29-14.42,37.58-16.12,36.43-28.42,46.4-28.42,46.4-57.48-5.8-46.18,64.35-46.18,64.35s-20.47-17.53-45.35-43.18v0c-39.77-41-90.75-102.84-87.13-146.83,5.86-71.55-11.68-51.25-12.77-91.17s25.71-55.4,25.71-55.4,28.39-23,87.61-21.69C2902.62,586.07,2966.58,726.76,2944,794.34Z"/><path class="cls-16" d="M2929.57,831.92c-16.12,36.43-28.42,46.4-28.42,46.4-57.48-5.8-46.18,64.35-46.18,64.35s-20.47-17.53-45.35-43.18v0C2783.45,801,2929.57,831.92,2929.57,831.92Z"/><path class="cls-18" d="M2580,530.72c-42.49-27.27-89.24-40.18-130.11-11.8-97.78,67.92,62.6,229.14-56,384.62,70.71-101.66-39-323.39,37.16-385.57C2506.19,456.61,2578.12,528.81,2580,530.72Z"/><path d="M2476.85,922.3c-1.91-5.19-7.21-8.69-12.64-7.67-5.82,1.09-12,7.3-11.22,29.18,1.18,33.66,24.29,19.93,26.09.43C2480,934,2478.51,926.78,2476.85,922.3Z"/><path d="M2625.54,913.37c-1.92-5.19-7.21-8.7-12.65-7.67-5.81,1.09-12,7.3-11.21,29.18,1.18,33.66,24.29,19.93,26.09.43C2628.72,925,2627.19,917.85,2625.54,913.37Z"/><path class="cls-8" d="M2531.34,931.58S2491,1027.15,2503,1039.44s54.23,7.34,54.23,7.34-36.8.22-39.64-25.72C2514.77,995.31,2531.34,931.58,2531.34,931.58Z"/><path class="cls-19" d="M2414.39,877.27a119,119,0,0,1,18.17-13.47,132.27,132.27,0,0,1,20.28-10.21,109.39,109.39,0,0,1,10.84-3.63,79.78,79.78,0,0,1,11.29-2.17,51.69,51.69,0,0,1,11.53,0,32,32,0,0,1,10.95,3.22,44.45,44.45,0,0,0-11-.77,65.61,65.61,0,0,0-10.81,1.44c-3.57.78-7.09,1.74-10.57,2.84s-6.93,2.38-10.35,3.73c-6.83,2.71-13.56,5.76-20.23,9S2421.12,873.86,2414.39,877.27Z"/><path class="cls-19" d="M2594.16,849a47,47,0,0,1,9.55-6.36,71.11,71.11,0,0,1,10.68-4.39,78.42,78.42,0,0,1,22.87-3.57,84.55,84.55,0,0,1,22.91,3,83.31,83.31,0,0,1,21.07,8.94,215.38,215.38,0,0,0-21.92-5.1,125.58,125.58,0,0,0-22-1.86,110.89,110.89,0,0,0-21.91,2.36,104.29,104.29,0,0,0-10.74,2.85A84.71,84.71,0,0,0,2594.16,849Z"/><path class="cls-8" d="M2639.73,1065.34s-59.93,58.11-149.42,36.83C2490.31,1102.17,2564.81,1111.09,2639.73,1065.34Z"/><circle class="cls-1" cx="2462.3" cy="927.48" r="4.79"/><circle class="cls-1" cx="2611.63" cy="920.96" r="4.79"/><path class="cls-1" d="M2562.61,1306.8s57.55,65.08,75,84.19c0,0,55.39-46.37,81.63-99,0,0,3.28-5.9,6.73,2.14s30.23,40.18,62.76,54-25.64,124-25.64,124-77.68-87.5-125.48-81.13c0,0-25.3,0-46.73,35.21s-45.16,72-45.16,72l-56.86-133.63s34.05-35.46,48.82-51.22C2556,1293.79,2558.32,1302.2,2562.61,1306.8Z"/><path class="cls-20" d="M2500.76,1343.14s-36.12,19.91-44.16,20.68,12.25,266.35,23,271,98,17.22,99.12,27.55-26,148.87-19.13,159.58,159.2,193.65,159.2,193.65S2583.57,1461.38,2500.76,1343.14Z"/><path class="cls-20" d="M2754.41,1326.16l-35.66,689.39s70-190.2,86.1-225.79c0,0-34.44-120.7-29.85-118.91s65.44-76.27,66.59-85.45-45-247.22-45-247.22S2753.15,1312.23,2754.41,1326.16Z"/><path class="cls-12" d="M3364.88,1904.66c-60.27,125.2-141,268.37-200.68,282.34-106.36,24.88-145.82-121.95-146.94-126.19a.38.38,0,0,1,0-.1c-12.64-138.93-5.61-430.53-5.61-430.53,27.55-58.57-7,399.53,107.78,490.23C3207.69,2190.13,3360.64,1912.4,3364.88,1904.66Z"/><path class="cls-12" d="M2296.25,2242.11c25.27-112.53-25.25-450.06-25.25-450.06s61.23-102.56,60.47-85.72,48.89,411.1,56.53,490.71,2.4,463,2.4,463H2188.34S2271,2354.61,2296.25,2242.11Z"/><path class="cls-21" d="M2614.44,1429.17c.13.78,11.3,29.55,18.36,33.81s27.85,1.38,39.83-5.53S2683,1408,2683,1408s-20.36-24.9-45.32-17S2610.32,1404.74,2614.44,1429.17Z"/><path class="cls-20" d="M2500.76,1343.14s-36.12,19.91-44.16,20.68,12.25,266.35,23,271,98,17.22,99.12,27.55-26,148.87-19.13,159.58,159.2,193.65,159.2,193.65S2583.57,1461.38,2500.76,1343.14Z"/><path class="cls-20" d="M2754.41,1326.16l-35.66,689.39s70-190.2,86.1-225.79c0,0-34.44-120.7-29.85-118.91s65.44-76.27,66.59-85.45-45-247.22-45-247.22S2753.15,1312.23,2754.41,1326.16Z"/><circle class="cls-12" cx="2673.97" cy="2068.74" r="20.28"/><circle class="cls-12" cx="2673.97" cy="2289.17" r="20.28"/><circle class="cls-12" cx="2673.97" cy="2509.61" r="20.28"/><rect class="cls-17" x="1937.29" y="2632.45" width="1250" height="27.55" rx="8.25"/><rect class="cls-17" x="3243.12" y="2632.45" width="456.6" height="27.55" rx="8.25"/><rect class="cls-17" x="1429.95" y="2632.45" width="456.6" height="27.55" rx="8.25"/><rect class="cls-22" x="980.28" y="753.99" width="1158.28" height="1671.75"/><path class="cls-23" d="M1172.36,1946.83l-35,60.63a11,11,0,0,0,12.82,16.09c67.44-20.88,248.77-71.93,409.22-71.93s341.78,51.05,409.23,71.93a11,11,0,0,0,12.82-16.09l-35-60.63a11.07,11.07,0,0,1,4.36-15.27l67.83-36.34a11,11,0,0,0-2.46-20.44c-77.07-19.75-301.14-73.51-456.79-73.51s-379.72,53.76-456.79,73.51a11,11,0,0,0-2.46,20.44l67.83,36.34A11.06,11.06,0,0,1,1172.36,1946.83Z"/><path class="cls-24" d="M1345.78,2078.75l.09-.16a.08.08,0,0,0,0,0l0-.07,0,0c0-.11.06-.21.09-.32v0a2.09,2.09,0,0,0-2.06-2.46h-35.43a2.17,2.17,0,0,1-.62-.1,2,2,0,0,1-.55-.27,2,2,0,0,1-.48-.45h0a2.25,2.25,0,0,1-.33-.61l-11-33.7a2,2,0,0,0-2-1.44,1.82,1.82,0,0,0-.46.06l-.34.11h0a2,2,0,0,0-.45.25,1.89,1.89,0,0,0-.41.39h0a2.1,2.1,0,0,0-.33.63l-2.61,8.05-8.33,25.65h0l0,0a1.88,1.88,0,0,1-.3.58l0,0a1.88,1.88,0,0,1-.48.45,2,2,0,0,1-.55.27,2.17,2.17,0,0,1-.62.1h-35.43a1.91,1.91,0,0,0-.54.08h-.07a2.1,2.1,0,0,0-.62,3.7h0l16,11.59,12.7,9.23a2,2,0,0,1,.49.52s0,0,0,0a2,2,0,0,1,.28.62h0a1.82,1.82,0,0,1,.07.57,2.08,2.08,0,0,1-.09.6l-11,33.7a2.15,2.15,0,0,0-.1.6v0a2.09,2.09,0,0,0,3.32,1.69l28.66-20.82a2.08,2.08,0,0,1,1.23-.4,2,2,0,0,1,1.23.4l28.67,20.82a1.61,1.61,0,0,0,.33.2l.08,0a1.43,1.43,0,0,0,.27.09l.06,0,.3.05h0a2.1,2.1,0,0,0,2.16-2.73l-11-33.7a2.09,2.09,0,0,1-.1-.6,2.18,2.18,0,0,1,.08-.57h0a2.29,2.29,0,0,1,.27-.62s0,0,0,0a2,2,0,0,1,.49-.52l28.66-20.82.3-.27.07-.08.07-.08.1-.15A.56.56,0,0,0,1345.78,2078.75Z"/><path class="cls-24" d="M1475,2078.75l.09-.16s0,0,0,0a.19.19,0,0,0,0-.07l0,0a1.92,1.92,0,0,0,.09-.32v0a2.09,2.09,0,0,0-2.06-2.46h-35.43a2.06,2.06,0,0,1-.62-.1,1.88,1.88,0,0,1-.55-.27,1.91,1.91,0,0,1-.49-.45h0a2,2,0,0,1-.32-.61l-11-33.7a2,2,0,0,0-2-1.44,1.84,1.84,0,0,0-.47.06l-.34.11h0a2.23,2.23,0,0,0-.45.25,1.84,1.84,0,0,0-.4.39h0a2.33,2.33,0,0,0-.32.63l-2.62,8.05-8.33,25.65h0s0,0,0,0a1.9,1.9,0,0,1-.31.58s0,0,0,0a2.27,2.27,0,0,1-.48.45,2.34,2.34,0,0,1-.55.27,2.19,2.19,0,0,1-.63.1h-35.43a1.91,1.91,0,0,0-.54.08h-.07a2.1,2.1,0,0,0-.62,3.7h0l16,11.59,12.71,9.23a2.2,2.2,0,0,1,.49.52,0,0,0,0,0,0,0,2.29,2.29,0,0,1,.27.62h0a2.18,2.18,0,0,1,.08.57,2.08,2.08,0,0,1-.09.6l-11,33.7a1.84,1.84,0,0,0-.1.6.08.08,0,0,0,0,0,2.1,2.1,0,0,0,3.33,1.69l28.66-20.82a2.09,2.09,0,0,1,2.46,0l28.66,20.82a1.94,1.94,0,0,0,.33.2l.09,0a1.34,1.34,0,0,0,.26.09l.07,0,.3.05h0a2.09,2.09,0,0,0,2.16-2.73l-11-33.7a2.08,2.08,0,0,1-.09-.6,2.17,2.17,0,0,1,.07-.57h0a2.31,2.31,0,0,1,.28-.62v0a2,2,0,0,1,.49-.52l28.66-20.82a2.86,2.86,0,0,0,.31-.27l.06-.08.07-.08.11-.15Z"/><path class="cls-24" d="M1604.23,2078.75l.09-.16a.08.08,0,0,0,0,0l0-.07,0,0a1.87,1.87,0,0,0,.08-.32v0a2.09,2.09,0,0,0-2.06-2.46H1567a2.17,2.17,0,0,1-.62-.1,2,2,0,0,1-.55-.27,1.87,1.87,0,0,1-.48-.45h0a2.25,2.25,0,0,1-.33-.61l-11-33.7a2,2,0,0,0-2-1.44,1.82,1.82,0,0,0-.46.06l-.34.11h0a2,2,0,0,0-.45.25,1.89,1.89,0,0,0-.41.39h0a2.1,2.1,0,0,0-.33.63l-2.61,8.05-8.33,25.65h0l0,0a1.88,1.88,0,0,1-.3.58l0,0a1.88,1.88,0,0,1-.48.45,2,2,0,0,1-.55.27,2.17,2.17,0,0,1-.62.1H1501.7a1.91,1.91,0,0,0-.54.08h-.07a2.09,2.09,0,0,0-.62,3.7h0l16,11.59,12.7,9.23a2,2,0,0,1,.49.52s0,0,0,0a2,2,0,0,1,.28.62h0a1.82,1.82,0,0,1,.07.57,2.08,2.08,0,0,1-.09.6l-11,33.7a2.15,2.15,0,0,0-.1.6v0a2.09,2.09,0,0,0,3.32,1.69l28.66-20.82a2.08,2.08,0,0,1,1.23-.4,2,2,0,0,1,1.23.4L1582,2138.6a1.61,1.61,0,0,0,.33.2l.08,0a1.43,1.43,0,0,0,.27.09l.06,0,.3.05h0a2.1,2.1,0,0,0,2.16-2.73l-11-33.7a2.09,2.09,0,0,1-.1-.6,2.18,2.18,0,0,1,.08-.57h0a2.29,2.29,0,0,1,.27-.62s0,0,0,0a2,2,0,0,1,.49-.52l28.66-20.82.3-.27.07-.08.07-.08.1-.15A.56.56,0,0,0,1604.23,2078.75Z"/><path class="cls-24" d="M1733.45,2078.75a.65.65,0,0,0,.09-.16s0,0,0,0a.19.19,0,0,0,0-.07l0,0a1.92,1.92,0,0,0,.09-.32v0a2.1,2.1,0,0,0-2.07-2.46h-35.42a2.06,2.06,0,0,1-.62-.1,1.88,1.88,0,0,1-.55-.27,1.91,1.91,0,0,1-.49-.45h0a2,2,0,0,1-.32-.61l-11-33.7a2,2,0,0,0-2-1.44,1.84,1.84,0,0,0-.47.06l-.34.11h0a2,2,0,0,0-.45.25,1.84,1.84,0,0,0-.4.39h0a2.33,2.33,0,0,0-.32.63l-2.62,8.05-8.33,25.65h0s0,0,0,0a1.9,1.9,0,0,1-.31.58v0a2.27,2.27,0,0,1-.48.45,2.34,2.34,0,0,1-.55.27,2.19,2.19,0,0,1-.63.1h-35.43a1.91,1.91,0,0,0-.54.08h-.07a2.1,2.1,0,0,0-.62,3.7h0l16,11.59,12.71,9.23a2.2,2.2,0,0,1,.49.52,0,0,0,0,0,0,0,2.29,2.29,0,0,1,.27.62h0a2.18,2.18,0,0,1,.08.57,2.09,2.09,0,0,1-.1.6l-10.94,33.7a2.18,2.18,0,0,0-.11.6v0a2.1,2.1,0,0,0,3.33,1.69l28.66-20.82a2.09,2.09,0,0,1,2.46,0l28.66,20.82a1.94,1.94,0,0,0,.33.2l.09,0a1.14,1.14,0,0,0,.26.09l.07,0,.3.05h0a2.09,2.09,0,0,0,2.16-2.73l-11-33.7a2.08,2.08,0,0,1-.09-.6,2.17,2.17,0,0,1,.07-.57h0a2.31,2.31,0,0,1,.28-.62v0a2,2,0,0,1,.49-.52l28.66-20.82a2.86,2.86,0,0,0,.31-.27l.06-.08.07-.08.11-.15A.59.59,0,0,0,1733.45,2078.75Z"/><path class="cls-24" d="M1862.53,2079l.1-.15a.56.56,0,0,0,0-.08l.09-.16a.08.08,0,0,0,0,0l0-.07,0,0c0-.11.06-.21.08-.32v0a2.09,2.09,0,0,0-2.06-2.46h-35.43a2.17,2.17,0,0,1-.62-.1,2,2,0,0,1-.55-.27,1.87,1.87,0,0,1-.48-.45h0a2,2,0,0,1-.33-.61l-11-33.7a2,2,0,0,0-2-1.44,1.76,1.76,0,0,0-.46.06l-.34.11h0a2,2,0,0,0-.45.25,1.89,1.89,0,0,0-.41.39h0a2.1,2.1,0,0,0-.33.63l-2.61,8.05-8.33,25.65h0l0,0a1.88,1.88,0,0,1-.3.58l0,0a2.06,2.06,0,0,1-.48.45,2.1,2.1,0,0,1-1.17.37h-35.43a1.85,1.85,0,0,0-.54.08h-.07a2.09,2.09,0,0,0-.62,3.7h0l16,11.59,12.7,9.23a2,2,0,0,1,.49.52s0,0,0,0a2,2,0,0,1,.28.62h0a2.17,2.17,0,0,1,.07.57,2.08,2.08,0,0,1-.09.6l-10.95,33.7a2.15,2.15,0,0,0-.1.6v0a2.09,2.09,0,0,0,3.32,1.69l28.66-20.82a2.08,2.08,0,0,1,1.23-.4,2.05,2.05,0,0,1,1.23.4l28.67,20.82a1.61,1.61,0,0,0,.33.2l.08,0a1.43,1.43,0,0,0,.27.09l.06,0,.3.05h0a2.09,2.09,0,0,0,2.15-2.73l-10.94-33.7a2.09,2.09,0,0,1-.1-.6,2.18,2.18,0,0,1,.08-.57h0a2.29,2.29,0,0,1,.27-.62s0,0,0,0a1.86,1.86,0,0,1,.49-.52l28.66-20.82.3-.27.07-.08Z"/><path class="cls-1" d="M1342.18,1924c-18.07,3.13-21.47-10.18-22.35-15.21l-3.3-19.06c-.87-5-2.14-18.7,15.93-21.83s21.47,10.17,22.34,15.2l3.3,19.06C1359,1907.23,1360.24,1920.91,1342.18,1924Zm-7.45-43c-5.64,1-5.4,4.62-4.39,10.49l1.91,11c1,5.87,2,9.38,7.65,8.41s5.41-4.63,4.39-10.5l-1.9-11C1341.37,1883.59,1340.37,1880.07,1334.73,1881.05Z"/><path class="cls-1" d="M1362.06,1864.42l32.91-4.83a2.05,2.05,0,0,1,2.63,2l1.26,8.57a2.08,2.08,0,0,1-2,2.63l-19.29,2.83a2.09,2.09,0,0,0-2,2.63l.36,2.45a2.11,2.11,0,0,0,2.63,2l12.63-1.85a2.05,2.05,0,0,1,2.63,2l1.26,8.57a2.09,2.09,0,0,1-2,2.64l-12.63,1.85a2.08,2.08,0,0,0-2,2.63l2.29,15.61a2.09,2.09,0,0,1-2,2.64l-9,1.32a2.11,2.11,0,0,1-2.63-2l-7.18-49A2.07,2.07,0,0,1,1362.06,1864.42Z"/><path class="cls-1" d="M1444.26,1905.87l-3.72-36a2.05,2.05,0,0,0-2.55-2.07l-10.77,1.11a2.12,2.12,0,0,1-2.55-2.07l-.89-8.61a2.09,2.09,0,0,1,2.07-2.55l39.4-4.07a2,2,0,0,1,2.54,2.07l.89,8.61a2.08,2.08,0,0,1-2.07,2.55l-10.77,1.11a2.09,2.09,0,0,0-2.07,2.55l3.72,36a2.08,2.08,0,0,1-2.07,2.55l-8.61.89A2.12,2.12,0,0,1,1444.26,1905.87Z"/><path class="cls-1" d="M1475.83,1850.7l8.64-.61a2.11,2.11,0,0,1,2.48,2.15l1.37,19.29a2.12,2.12,0,0,0,2.48,2.15l7.41-.53a2.08,2.08,0,0,0,2.15-2.48l-1.37-19.29a2.13,2.13,0,0,1,2.15-2.48l8.64-.61a2.05,2.05,0,0,1,2.48,2.15l3.52,49.39a2.08,2.08,0,0,1-2.16,2.47l-8.64.62a2.12,2.12,0,0,1-2.48-2.15l-.86-12.19a2,2,0,0,0-2.48-2.15l-7.41.52a2.08,2.08,0,0,0-2.15,2.48l.86,12.2a2.08,2.08,0,0,1-2.15,2.48l-8.64.61a2.12,2.12,0,0,1-2.48-2.15l-3.51-49.39A2.05,2.05,0,0,1,1475.83,1850.7Z"/><path class="cls-1" d="M1523.51,1847.56l32.47-1.21a2.05,2.05,0,0,1,2.41,2.23l.32,8.66a2.09,2.09,0,0,1-2.23,2.41l-18.71.69a2.09,2.09,0,0,0-2.24,2.41l.09,2.47a2.13,2.13,0,0,0,2.41,2.24l12-.45a2.05,2.05,0,0,1,2.41,2.23l.32,8.66a2.09,2.09,0,0,1-2.23,2.41l-12,.44a2.09,2.09,0,0,0-2.23,2.41l.09,2.47a2.13,2.13,0,0,0,2.41,2.24l18.71-.7a2,2,0,0,1,2.4,2.23l.33,8.66a2.06,2.06,0,0,1-2.24,2.41l-32.47,1.21a2.12,2.12,0,0,1-2.4-2.24l-1.84-49.48A2.08,2.08,0,0,1,1523.51,1847.56Z"/><path class="cls-1" d="M1592.47,1845.88l16,.45a2.37,2.37,0,0,1,2.42,2.15l4.86,22.66c.13.78.75.8.93,0l6.12-22.35a2.36,2.36,0,0,1,2.53-2l16,.45a2.05,2.05,0,0,1,2.25,2.39l-1.39,49.48a2.09,2.09,0,0,1-2.38,2.26l-8.66-.25a2.12,2.12,0,0,1-2.26-2.38l.86-30.47a.43.43,0,0,0-.85-.1l-8.37,30.64a2.38,2.38,0,0,1-2.61,1.94l-5.1-.14a2.4,2.4,0,0,1-2.5-2.08l-6.63-31.06a.43.43,0,0,0-.85,0L1602,1898a2.09,2.09,0,0,1-2.38,2.26L1591,1900a2.09,2.09,0,0,1-2.26-2.39l1.39-49.49A2.05,2.05,0,0,1,1592.47,1845.88Z"/><path class="cls-1" d="M1667.63,1904.92c-18.28-1.5-18.24-15.23-17.82-20.32l1.58-19.28c.41-5.09,2.61-18.65,20.89-17.15s18.23,15.23,17.82,20.32l-1.58,19.28C1688.1,1892.86,1685.9,1906.42,1667.63,1904.92Zm3.56-43.49c-5.71-.47-6.39,3.13-6.87,9.06l-.91,11.11c-.49,5.93-.4,9.59,5.3,10.06s6.39-3.13,6.88-9.07l.91-11.1C1677,1865.55,1676.9,1861.9,1671.19,1861.43Z"/><path class="cls-1" d="M1703,1852.4l11.26,1.54a2.68,2.68,0,0,1,2.45,2.13l6.92,27c.22.73.85.66,1-.11l3.4-24.76a2.08,2.08,0,0,1,2.61-2l8.59,1.18a2,2,0,0,1,2,2.61L1734.4,1909a2.09,2.09,0,0,1-2.62,2l-11.26-1.54a2.66,2.66,0,0,1-2.44-2.13l-6.93-27c-.21-.73-.85-.66-1,.11l-3.4,24.76a2.08,2.08,0,0,1-2.61,2l-8.58-1.18a2.11,2.11,0,0,1-2-2.61l6.72-49.06A2.08,2.08,0,0,1,1703,1852.4Z"/><path class="cls-1" d="M1753.49,1912.67l7.16-35.49a2.06,2.06,0,0,0-1.82-2.74l-10.62-2.14a2.11,2.11,0,0,1-1.81-2.73l1.71-8.5a2.08,2.08,0,0,1,2.74-1.81l38.82,7.83a2,2,0,0,1,1.82,2.73l-1.71,8.49a2.08,2.08,0,0,1-2.74,1.82l-10.61-2.14a2.09,2.09,0,0,0-2.74,1.82l-7.16,35.49a2.07,2.07,0,0,1-2.73,1.81l-8.49-1.71A2.11,2.11,0,0,1,1753.49,1912.67Z"/><path class="cls-1" d="M1801.5,1870l8.35,2.3a2.11,2.11,0,0,1,1.62,2.85l-5.14,18.65a2.11,2.11,0,0,0,1.62,2.85l7.16,2A2.07,2.07,0,0,0,1818,1897l5.14-18.65a2.13,2.13,0,0,1,2.86-1.62l8.35,2.31a2,2,0,0,1,1.62,2.85l-13.17,47.72a2.07,2.07,0,0,1-2.85,1.62l-8.35-2.3a2.11,2.11,0,0,1-1.62-2.85l3.25-11.79a2,2,0,0,0-1.62-2.85l-7.16-2a2.07,2.07,0,0,0-2.85,1.62l-3.26,11.78a2.08,2.08,0,0,1-2.85,1.62l-8.35-2.31a2.11,2.11,0,0,1-1.62-2.85l13.17-47.72A2,2,0,0,1,1801.5,1870Z"/><polygon class="cls-25" points="1572.65 1281.28 1569.99 1316.13 1554.75 1515.67 1539.52 1316.13 1536.86 1281.28 1572.65 1281.28"/><polygon class="cls-25" points="1554.75 1515.67 1464.32 1316.13 1448.53 1281.28 1489.09 1281.28 1498.85 1316.13 1554.75 1515.67"/><polygon class="cls-25" points="1554.75 1515.67 1359.45 1316.13 1325.34 1281.28 1386.58 1281.28 1411.58 1316.13 1554.75 1515.67"/><polygon class="cls-25" points="1554.75 1515.67 1342.47 1413.87 1302.95 1394.9 1302.95 1343.62 1342.47 1370.63 1554.75 1515.67"/><polygon class="cls-25" points="1554.75 1515.67 1342.47 1494.73 1302.95 1490.83 1302.95 1451.24 1342.47 1461.35 1554.75 1515.67"/><polygon class="cls-25" points="1554.75 1515.67 1342.47 1569.98 1302.95 1580.09 1302.95 1540.5 1342.47 1536.61 1554.75 1515.67"/><polygon class="cls-25" points="1554.75 1515.67 1342.47 1660.7 1302.95 1687.7 1302.95 1636.43 1342.47 1617.47 1554.75 1515.67"/><polygon class="cls-25" points="1554.75 1515.67 1424.37 1697.4 1399.36 1732.25 1342.77 1732.25 1376.88 1697.4 1554.75 1515.67"/><polygon class="cls-25" points="1554.75 1515.67 1503.84 1697.4 1494.08 1732.25 1456.6 1732.25 1472.39 1697.4 1554.75 1515.67"/><polygon class="cls-25" points="1571.29 1732.25 1538.21 1732.25 1540.88 1697.4 1554.75 1515.67 1568.62 1697.4 1571.29 1732.25"/><polygon class="cls-25" points="1652.9 1732.25 1615.42 1732.25 1605.66 1697.4 1554.75 1515.67 1637.11 1697.4 1652.9 1732.25"/><polygon class="cls-25" points="1766.72 1732.25 1710.14 1732.25 1685.14 1697.4 1554.75 1515.67 1732.62 1697.4 1766.72 1732.25"/><polygon class="cls-25" points="1814.47 1640.22 1814.47 1693.11 1774.95 1666.11 1554.75 1515.67 1774.95 1621.26 1814.47 1640.22"/><polygon class="cls-25" points="1814.47 1541.28 1814.47 1582.12 1774.95 1572 1554.75 1515.67 1774.95 1537.39 1814.47 1541.28"/><polygon class="cls-25" points="1814.47 1449.21 1814.47 1490.05 1774.95 1493.95 1554.75 1515.67 1774.95 1459.32 1814.47 1449.21"/><polygon class="cls-25" points="1814.47 1338.21 1814.47 1391.12 1774.95 1410.07 1554.75 1515.67 1774.95 1365.22 1814.47 1338.21"/><polygon class="cls-25" points="1784.15 1281.28 1750.05 1316.13 1554.75 1515.67 1697.91 1316.13 1722.91 1281.28 1784.15 1281.28"/><polygon class="cls-25" points="1660.96 1281.28 1645.17 1316.13 1554.75 1515.67 1610.64 1316.13 1620.41 1281.28 1660.96 1281.28"/><path class="cls-26" d="M1652.25,1732.25H1492.11c.08-.59.16-1.19.25-1.79.84-6,1.63-11.73,2.3-17,1.83-14.15,2.94-25,2.89-30.55-.16-24.51,14.43-58.54,21.8-74.15.92-1.93,1.73-3.6,2.37-4.91.08-.16.15-.31.22-.44v0c1-1.91,1.54-3,1.58-3.07l6.14,1.67,26,7.08.51-.18,1.21-.46h0c4.28-1.62,15.59-6,23-9.17,3.51-1.53,6.14-2.8,6.69-3.41.33-.37,1.32.11,2.8,1.23,1,.75,2.23,1.78,3.65,3.06,5.57,5,14,13.49,22.37,21.81,5.92,5.87,11.83,11.65,16.75,16,5.42,4.83,12,35.75,17.28,75.5C1650.74,1719.56,1651.51,1725.83,1652.25,1732.25Z"/><path class="cls-27" d="M1551.37,1612.49l0,0c-.16.16-1.36,1.38-3.16,3.48-6.64,7.72-21.33,27.22-22,49.15-.47,14.68-1.67,31.17-3.23,48.36-.58,6.18-1.19,12.45-1.83,18.75h-29c.08-.59.16-1.19.25-1.79.84-6,1.63-11.73,2.3-17,1.83-14.15,2.94-25,2.89-30.55-.16-24.51,14.43-58.54,21.8-74.15.92-1.93,1.73-3.6,2.37-4.91a1.61,1.61,0,0,1,.37,0c.26,0,.66.13,1.16.25,1.33.32,3.43.9,5.89,1.61,5.15,1.48,11.89,3.54,16.6,5,.87.28,1.67.53,2.38.74Z"/><path class="cls-27" d="M1636.86,1732.25h-46.42c-.26-8.34-.52-14.91-.67-18.75-.11-2.46-.17-3.82-.17-3.82l-1.43-36.28a80.37,80.37,0,0,0-19.31-49.19l-2.54-3h0l-4-4.61-.64-.75-5.49-6.39,0,0h0l.87.06h0c1.57.12,5,.41,9.31.92h0a187.11,187.11,0,0,1,20.77,3.63h0c1.18.29,2.33.6,3.47.91,9,2.54,16.81,6.14,18.84,11.17,2.8,7,12.49,45.49,22.73,87.34.3,1.21.59,2.43.89,3.66C1634.41,1722.16,1635.64,1727.21,1636.86,1732.25Z"/><path class="cls-28" d="M1580.43,1553.51a89.74,89.74,0,0,0-1.87,18.42,209.13,209.13,0,0,0,2.74,33.55s-60.88,9.86-54.7,6.2c4-2.38,3.89-22.59,3.31-36.39-.31-7.38-.76-12.92-.76-12.92S1585.11,1533.18,1580.43,1553.51Z"/><path class="cls-8" d="M1580.43,1553.51a89.74,89.74,0,0,0-1.87,18.42c-22,9-48.65,3.36-48.65,3.36-.31-7.38-.76-12.92-.76-12.92S1585.11,1533.18,1580.43,1553.51Z"/><path class="cls-7" d="M1647.8,1510c-12.29,12.32-23.12,7.37-23.12,7.37s-6.15,17.77-19.1,30.47-33.73,26.78-73.85,23.54c-14.88-1.21-25.85-7.09-33.55-14.67-13.07-12.87-16.71-30.64-14-38.72,4.31-12.84,4.3-42,3.75-86.63s22.4-49.33,22.4-49.33,56.12,5.09,84,7.75l5.19.49c25.37,2.44,30.58,77.91,43,79.92S1660.1,1497.69,1647.8,1510Z"/><path class="cls-13" d="M1630,1490.73s-25-17.93-37.84-41c-8.89-15.93,3.09-33.76-15.18-39-8.61-2.45-34.82-6.51-53.35,8.08-19.57,15.42-39.43,99.22-25.41,137.94h0c-13.07-12.87-16.71-30.64-14-38.72,4.31-12.84,4.3-42,3.75-86.63s22.4-49.33,22.4-49.33,56.12,5.09,84,7.75c7,11,10.47,22.25,9.76,28C1603.17,1425.43,1630,1490.73,1630,1490.73Z"/><path class="cls-14" d="M1593.52,1397s-10.83,12.5-33.12,3-43.62-1.27-69.88,12,3.85-77.38,40.38-75.32S1590.77,1370.81,1593.52,1397Z"/><path class="cls-15" d="M1588.92,1400.49s-11.88,4.29-26.2-13.64-51.39-8.88-76.42,8.1c0,0,11-48.38,30.59-56.33s46.22-10.23,59.57,11.45,17.06,47,17.06,47Z"/><path class="cls-16" d="M1593.52,1397c-.57-2.79-77.42-93-124.1,2.51,0,0,15.25-53.6,44.71-61.26s58.86-6,66.47,12.73,21.11,43.38,19.45,50.18S1593.52,1397,1593.52,1397Z"/><path class="cls-17" d="M1618,1376.47c.58,30.73-24.47,20.56-24.47,20.56s-.94-1.72-2.66-4.57c-5.33-8.81-18.17-28.41-33.92-41.06h0c-12.5-10-26.83-15.69-40.69-8.09-33.17,18.17,12.08,74.47-30.6,119.6l0,0a99.42,99.42,0,0,1-18.5,15.07c.16-.64,6.7-26.28-7.08-64.08-13.94-38.28,36-88.7,78.5-85.47,27,2,51.58,8.48,66,20.8h0a39.67,39.67,0,0,1,9.3,11.23A34.5,34.5,0,0,1,1618,1376.47Z"/><path class="cls-16" d="M1620.92,1377.9c.58,30.74-27.4,19.13-27.4,19.13s-.32-5-.43-11c.22-16.54,12-23,20.78-25.5C1616.43,1365.22,1620.81,1372,1620.92,1377.9Z"/><path class="cls-17" d="M1663.06,1446.86c-2.07,4.53-4,8.29-5.81,11.39-6.32,11-10.54,13.7-10.54,13.7-18-3.76-16.74,18.78-16.74,18.78s-5.88-6.23-12.87-15.16h0c-11.18-14.3-25.21-35.53-22.59-49.3,4.25-22.4-2-16.58-1-29.23s10-16.63,10-16.63,9.73-6.3,28.4-3.92C1657,1379.69,1672.46,1426.27,1663.06,1446.86Z"/><path class="cls-16" d="M1657.25,1458.25c-6.32,11-10.54,13.7-10.54,13.7-18-3.76-16.74,18.78-16.74,18.78s-5.88-6.23-12.87-15.16h0C1612.13,1443.58,1657.25,1458.25,1657.25,1458.25Z"/><path class="cls-18" d="M1556.93,1351.39c-12.5-10-26.83-15.69-40.69-8.09-33.17,18.17,12.08,74.47-30.6,119.6,25.74-29.74-1.48-103.45,24.66-120.54C1536.11,1325.5,1556.41,1350.72,1556.93,1351.39Z"/><path d="M1511.22,1471.61a3.66,3.66,0,0,0-3.73-2.84c-1.88.15-4,1.9-4.52,8.84-.76,10.67,7,7.11,8.22,1A15.66,15.66,0,0,0,1511.22,1471.61Z"/><path d="M1558.49,1473.78a3.67,3.67,0,0,0-3.74-2.85c-1.87.15-4,1.9-4.52,8.84-.76,10.67,7,7.11,8.22,1A15.8,15.8,0,0,0,1558.49,1473.78Z"/><path class="cls-8" d="M1528.12,1476.37s-15.94,28.83-12.57,33.12,16.88,4.14,16.88,4.14-11.63-1.17-11.65-9.46S1528.12,1476.37,1528.12,1476.37Z"/><path class="cls-10" d="M1568.26,1732.25h-21c.24-6.37.5-12.65.76-18.75,2.12-48.78,4.77-87.15,4.83-87.82h0c.2-2.9,6.92-8.29,8.84-9.78l.51-.39c0,.26.08.64.13,1.14.16,1.59.34,4.37.59,8.19h0c1,15.74,2.66,49,4.47,88.67C1567.7,1719.61,1568,1725.88,1568.26,1732.25Z"/><path class="cls-21" d="M1548.35,1607.84s-1.39,12.77,2.39,16.53,12.65.62,14-.4,3.63-5.2,1.31-15.87l-9.8,1.36Z"/><path class="cls-19" d="M1492.76,1453.81a21,21,0,0,1,6.17-4.24,27.48,27.48,0,0,1,7.08-2.2,21.45,21.45,0,0,1,7.62,0,13.89,13.89,0,0,1,3.71,1.3,8.25,8.25,0,0,1,3,2.55,28.29,28.29,0,0,0-6.91.08c-2.18.25-4.36.61-6.58,1s-4.46.73-6.78,1A49.83,49.83,0,0,1,1492.76,1453.81Z"/><path class="cls-19" d="M1548.09,1449.85a13.61,13.61,0,0,1,6.93-3.32,20,20,0,0,1,7.75.06,21.55,21.55,0,0,1,3.71,1.15c.59.26,1.19.49,1.76.79s1.11.64,1.65,1a11.39,11.39,0,0,1,1.56,1.12q.75.61,1.44,1.26a12.44,12.44,0,0,1,1.28,1.43,16,16,0,0,1,1.13,1.57,32.54,32.54,0,0,1-3.65-.88c-.58-.15-1.16-.3-1.71-.46-.29-.08-.56-.17-.83-.26s-.57-.12-.85-.2c-.55-.14-1.1-.29-1.63-.46l-1.64-.39c-.27-.06-.53-.15-.8-.22l-.81-.16c-.54-.12-1.07-.27-1.61-.37-2.16-.44-4.32-.78-6.55-1S1550.68,1450,1548.09,1449.85Z"/><path class="cls-8" d="M1556.3,1523.79s-19.48,18-47.73,10.56C1508.57,1534.35,1532.16,1537.75,1556.3,1523.79Z"/><circle class="cls-1" cx="1506.45" cy="1472.76" r="1.52"/><circle class="cls-1" cx="1553.84" cy="1475.71" r="1.52"/><path class="cls-1" d="M1579.06,1586.38l-22.41,22.86s20.46,11.75,22.41,23l17.13-38Z"/><path class="cls-1" d="M1530.2,1591.23l26.45,18s-25,14.79-26.45,20.87L1520,1597Z"/><path class="cls-11" d="M1727.42,1732.25h-130.7c-.34-6.27-.69-12.53-1-18.75-2.08-38.83-3.89-75.62-5-98.51-.14-2.81-.26-5.41-.38-7.78h0c-.18-4.09-.34-7.48-.47-10.08-.17-3.8-.27-5.88-.27-5.88h0c.33.09,5.67,1.5,13.62,3.65,11.1,3,27.29,7.38,42.07,11.52s28.15,8,33.64,10c7.28,2.65,25.2,48.32,42.07,97.06C1723.18,1719.73,1725.33,1726,1727.42,1732.25Z"/><path class="cls-11" d="M1520,1597s-.19,4.26-.6,11.8c-1,19.14-3.39,59.41-7.36,104.7q-.81,9.26-1.72,18.75h-95c.61-6.37,1.27-12.65,2-18.75,4-35.49,9.1-65,14.9-74.28,11.41-18.16,67.34-36.1,83.44-40.94C1518.36,1597.45,1520,1597,1520,1597Z"/><path class="cls-20" d="M1523.91,1594.77s-.14,2-.39,5.59c-.08,1.11-.18,2.38-.27,3.79q-.11,1.32-.21,2.82h0c-1.44,19.87-4.63,61.55-8.93,106.52q-.87,9.32-1.84,18.75H1494c-.46-.54-1-1.14-1.65-1.79-4.61-4.79-12.63-12.07-16.74-17-1.75-2.08-2.8-3.72-2.59-4.57.82-3.29,33.47-91.75,42.58-110.65,1-2.07,1.7-3.3,2.07-3.51A5.71,5.71,0,0,1,1523.91,1594.77Z"/><path class="cls-20" d="M1637.2,1710a11.41,11.41,0,0,1-1.72,3.52c-.63,1.06-1.43,2.32-2.3,3.66-3.27,5.07-7.64,11.52-9.32,15.09h-27.14c-.34-6.27-.69-12.53-1-18.75-2.08-38.83-3.89-75.62-5-98.51-.14-2.81-.26-5.41-.38-7.78h0c-.18-4.09-.34-7.48-.47-10.08-.17-3.8-.27-5.88-.27-5.88s1.71-2.11,13.64,3.65c1.8.86,3.83,4,6,8.78a169.93,169.93,0,0,1,6.68,18.32C1626.43,1655.56,1637.2,1708.28,1637.2,1710Z"/><path class="cls-12" d="M1440.55,1732.25h-4.88c0-7,0-13.33.11-18.75.14-13.11.57-20.76,2.47-18.4,0,0,.81,7.15,1.49,18.4C1440.08,1718.91,1440.37,1725.27,1440.55,1732.25Z"/><path class="cls-29" d="M1690.64,1732.25H1676c-.35-6.8-.7-13.14-1-18.75-.85-15.13-1.45-25.07-1.45-25.07.41-2,1-2.86,1.67-2.86,2.48,0,6.57,11.36,10.92,27.93C1687.61,1719.22,1689.13,1725.55,1690.64,1732.25Z"/><path class="cls-12" d="M1676,1732.25h-15.82c.27-6.64.6-13,1-18.75,2-26.41,6-42,14-27.93-.69,0-1.26.91-1.67,2.86,0,0,.6,9.94,1.45,25.07C1675.27,1719.11,1675.62,1725.45,1676,1732.25Z"/><path class="cls-10" d="M1303,1281.28v451h511.52v-451ZM1793.2,1713.5h-469V1300h469Z"/><path class="cls-10" d="M1177.06,1086.92h28.71q13.61,0,20.61,2.11a20.47,20.47,0,0,1,11.32,8.58q4.3,6.45,4.3,20.8,0,9.71-3,13.52c-2,2.56-6,4.51-12,5.88q10,2.25,13.54,7.49t3.55,16v10.26q0,11.22-2.56,16.62a13.86,13.86,0,0,1-8.17,7.39q-5.61,2-23,2h-33.29Zm28.78,18.93v24.61c1.23,0,2.19-.07,2.87-.07q4.24,0,5.4-2.08t1.16-11.93c0-3.46-.31-5.89-1-7.28a4.57,4.57,0,0,0-2.5-2.63A22.05,22.05,0,0,0,1205.84,1105.85Zm0,41.84v31c4.06-.13,6.64-.77,7.76-1.91s1.67-3.94,1.67-8.41V1158q0-7.11-1.5-8.61C1212.77,1148.39,1210.12,1147.82,1205.84,1147.69Z"/><path class="cls-10" d="M1254.38,1086.92h48v22.14h-19.2v21h18v21.06h-18v24.33h21.12v22.15h-49.9Z"/><path class="cls-10" d="M1373.53,1120.41H1346.8v-8.2q0-5.74-1-7.32a3.78,3.78,0,0,0-3.42-1.57,4.36,4.36,0,0,0-3.93,2.12c-.88,1.42-1.33,3.56-1.33,6.43q0,5.55,1.5,8.35t8.13,6.77q19.21,11.4,24.21,18.72t5,23.58q0,11.82-2.77,17.43t-10.7,9.4a42.28,42.28,0,0,1-18.45,3.79q-11.57,0-19.73-4.37t-10.69-11.14q-2.53-6.78-2.53-19.21v-7.25h26.72v13.47c0,4.15.38,6.81,1.13,8s2.09,1.77,4,1.77a4.67,4.67,0,0,0,4.27-2.25q1.41-2.27,1.41-6.7,0-9.78-2.67-12.78t-13.47-10q-10.73-7.11-14.22-10.33a24.09,24.09,0,0,1-5.77-8.88c-1.53-3.78-2.29-8.62-2.29-14.49q0-12.72,3.24-18.6a21.88,21.88,0,0,1,10.5-9.19q7.24-3.32,17.5-3.32,11.2,0,19.1,3.62t10.46,9.13q2.57,5.51,2.57,18.7Z"/><path class="cls-10" d="M1442.91,1086.92v22.14h-17.09v88.53H1397v-88.53h-17v-22.14Z"/><path class="cls-10" d="M1582.5,1086.92l-12.81,110.67h-35.93q-4.93-25.5-8.72-58-1.71,14-8,58h-35.73l-12.88-110.67h28l3,38.61,2.94,37.33q1.59-29,8-75.94h29.88q.6,4.85,3.14,36.5l3.18,42.11q2.46-40.18,8-78.61Z"/><path class="cls-10" d="M1653.94,1151.72q0,16.68-.79,23.62a26.44,26.44,0,0,1-16.1,21.5,40.67,40.67,0,0,1-16.4,3.07,41.66,41.66,0,0,1-16-2.9,26.64,26.64,0,0,1-16.51-21.36q-.81-6.84-.82-23.93v-18.93q0-16.68.79-23.62a26.44,26.44,0,0,1,16.1-21.5,40.68,40.68,0,0,1,16.41-3.08,41.65,41.65,0,0,1,16,2.91,26.6,26.6,0,0,1,16.51,21.36q.81,6.84.82,23.93Zm-28.78-36.37q0-7.72-.86-9.87a3.4,3.4,0,0,0-3.52-2.16,3.92,3.92,0,0,0-3.45,1.75q-1.2,1.74-1.2,10.28V1167q0,9.65.79,11.9t3.66,2.25a3.54,3.54,0,0,0,3.76-2.59q.81-2.61.82-12.38Z"/><path class="cls-10" d="M1664.67,1086.92H1685q20.37,0,27.58,1.57a19,19,0,0,1,11.76,8q4.55,6.46,4.55,20.61,0,12.91-3.22,17.36c-2.14,3-6.35,4.74-12.64,5.34q8.54,2.12,11.48,5.67a17,17,0,0,1,3.66,6.53q.72,3,.72,16.37v29.19H1702.2v-36.78q0-8.88-1.4-11c-.94-1.42-3.39-2.12-7.35-2.12v49.9h-28.78Zm28.78,18.93v24.61q4.85,0,6.8-1.33t2-8.65v-6.08q0-5.26-1.88-6.91T1693.45,1105.85Z"/><path class="cls-10" d="M1808.67,1086.92l-16.51,50,18.08,60.7H1780.5l-11.65-47.44v47.44h-28.78V1086.92h28.78v43l12.82-43Z"/><path class="cls-10" d="M1815.2,1086.92h48v22.14H1844v21h18v21.06h-18v24.33h21.12v22.15h-49.9Z"/><path class="cls-10" d="M1873.37,1086.92h20.37q20.37,0,27.58,1.57a19,19,0,0,1,11.76,8q4.55,6.46,4.55,20.61,0,12.91-3.21,17.36t-12.65,5.34q8.54,2.12,11.48,5.67a17,17,0,0,1,3.66,6.53q.72,3,.72,16.37v29.19H1910.9v-36.78q0-8.88-1.4-11c-.94-1.42-3.39-2.12-7.35-2.12v49.9h-28.78Zm28.78,18.93v24.61q4.85,0,6.8-1.33t2-8.65v-6.08q0-5.26-1.88-6.91T1902.15,1105.85Z"/><path class="cls-7" d="M1559.77,756.79s-4.68-71.29,20.29-81.18,34.35,68.69,42.15,78Z"/><path class="cls-30" d="M1264,753.23s10.84,33.56,49.51,73.26c36,36.91,93.75,40.8,148.23,34.6,29.75-3.38,70.86-22.62,71.82-35.08s0-72.78,0-72.78S1264,748.58,1264,753.23Z"/><path class="cls-7" d="M1522.07,830.77c0-1.56-3.12-58.8-3.64-76s-9.37-34.87-30.7-35.39-26,3.12-26,3.12-4.69-20.29-29.14-23.93-45.79,21.33-45.79,21.33-12.49-22.06-29.67-21.7-31.74,12.86-36.94,24.82c0,0-10.93-15.09-21.86-13.53l-10.92,1.57s-13,8.84-17.7,17.17a50.82,50.82,0,0,0-5.72,16.65s8.85,7.28,16.13,32.78,38.51,15.09,41.63,5.73c0,0,10.93,49.43,32.26,62.44s35.91.52,39-6.77,5.72-24.45,5.72-24.45,9.89,39.55,30.19,40.07,25-4.17,30.18-13.53,3.64-26.54,3.64-26.54,7.28,14.05,29.14,18.73S1522.07,830.77,1522.07,830.77Z"/><path class="cls-8" d="M1461.91,722.53a196.19,196.19,0,0,1,2.91,23c.36,3.83.46,7.67.7,11.5s.21,7.68.31,11.51,0,7.68-.06,11.52-.17,7.68-.44,11.52a198.52,198.52,0,0,1-2.38,23.06h-.4l-.72-46-.32-46.05Z"/><path class="cls-8" d="M1387,719.91a227.53,227.53,0,0,1,5,23.49c.72,3.92,1.21,7.86,1.82,11.8l1.5,11.82c.37,4,.85,7.9,1.2,11.86s.72,7.91,1,11.87c.12,2,.29,4,.4,6s.2,4,.34,5.95.17,4,.3,6c.06,1,.1,2,.17,3l.26,3-.38.13-.78-2.9c-.22-1-.4-1.95-.6-2.93-.42-2-.72-3.92-1.06-5.88q-1-5.9-1.76-11.82c-1.1-7.89-2.08-15.79-3-23.69q-2.61-23.75-4.76-47.53Z"/><path class="cls-8" d="M1320.37,723.06a105.33,105.33,0,0,1,2.45,15.09c.49,5,.83,10,.94,15s0,10-.19,15a106.14,106.14,0,0,1-1.64,15.2l-.4,0c-.47-5-.88-10-1.13-15.07s-.5-10.06-.64-15.09-.15-10.08-.13-15.12.11-10.07.34-15.1Z"/></svg>