<svg id="Mỗi_hình_1_layer_riêng" data-name="Mỗi hình 1 layer riêng" xmlns="http://www.w3.org/2000/svg" viewBox="0 0 4680 3120"><defs><style>.cls-1{fill:#fff;}.cls-2{fill:#f3f3f4;}.cls-3{fill:#fefefe;}.cls-4{fill:#ebecee;}.cls-5{fill:#d3d7db;}.cls-6{fill:#e0e2e5;}.cls-32,.cls-7{fill:#3d4f53;}.cls-7{opacity:0.09;}.cls-8{fill:#ffd454;}.cls-9{fill:#fdc33d;}.cls-10{fill:#87461b;}.cls-11{fill:#3d0b01;}.cls-12{fill:#f8bd36;}.cls-13,.cls-31{fill:#231f20;}.cls-13{opacity:0.15;}.cls-14{fill:#ffc606;}.cls-15{fill:#ef9f00;opacity:0.49;}.cls-16,.cls-18{fill:#ffeaa9;}.cls-17{fill:#ffce43;}.cls-18{opacity:0.45;}.cls-19{fill:#ffc5b8;}.cls-20,.cls-27,.cls-35{fill:#e98970;}.cls-21{fill:#2b363c;}.cls-22{fill:#1c2426;}.cls-23{fill:#33231c;}.cls-24{opacity:0.61;}.cls-25{opacity:0.21;}.cls-26{fill:#cecece;}.cls-27,.cls-34{opacity:0.56;}.cls-28{fill:#4c2409;}.cls-29{fill:#6d3713;}.cls-30{fill:#a34926;}.cls-33{fill:#b51a1a;}.cls-35{opacity:0.75;}.cls-36{fill:#ca2722;}</style></defs><title>08</title><rect class="cls-1" width="4680" height="3120"/><path class="cls-2" d="M3186.11,871.9a386.62,386.62,0,0,0-64.91-70.45c-45.43-38.5-63.8-89.76-73.61-146-5.15-29.6-14.27-57.85-31.85-83.15-53.9-77.53-152.77-36.79-182.58,19.75-31.26,59.25-22.14,118.78-3.35,177.85,22.42,70.48,64.19,128.68,122.76,173.91,20.3,15.68,42.16,29.84,59.34,35.29,54.94,19.06,102.45,20.71,149.6,3.75C3199.86,969,3220.3,919.81,3186.11,871.9ZM3014.85,630c-2.78-1.54-6.24-3.54-7.3-6.2-10.15-25.53-27.63-44.44-51.05-58.31-2.88-1.71-5.33-5.05-3.46-8.54,2.78-5.16,7.33-2.63,10.37-.5,23.54,16.51,44.13,35.68,54.65,63.44.92,2.43,1.43,5,2.3,8.18C3018.1,628.89,3015.86,630.53,3014.85,630Z"/><path class="cls-2" d="M3428.4,1417.51c-.37-81.57-14.54-160-61.2-229.48-40.16-59.77-97.54-93.19-166.89-107.87-62.63-13.26-126.89-12.5-190-21.69-68.41-10-122.87-43.56-169.56-92.93C2788,909.86,2753,843.21,2719.82,775.33c-29.25-59.92-53-122.83-95.09-175.73-19.43-24.44-39.35-48.6-67.08-64.51-14.75-18.88-36.05-28.17-56.77-37.92-87.15-41-178-46-270.74-25.08-46.4,10.47-91.92,24.49-133.67,48.38-46.18,22.4-88.63,50.35-126.66,84.9-37.85,31.19-71.73,66.3-103.75,103.36-60.21,69.71-110.48,146.26-154.11,227-16.69,30.87-31.75,62.86-45.48,95.48l-3.36,8c-13.2,31.23-26.48,62.41-37,94.57a1133.93,1133.93,0,0,0-30.51,110.79c-28.17,127.89-31.53,257.37-1.24,389.18.49,2.14,1,4.29,1.49,6.42a963.07,963.07,0,0,0,45.47,143.52q10.35,25.33,22.4,50.08c6.83,14,14.9,27.42,23.08,40.77,5,8.1,10,16.19,14.79,24.37,8.92,16.42,17,33.41,31.23,46.2,10.5,23.37,27.9,41.83,44.4,60.64,1.63,1.87,3.27,3.74,4.88,5.62,36.12,42.06,74.59,82,121.09,113.14q33.4,26,68.65,48.93a827.24,827.24,0,0,0,73.08,42.32c46.25,23.65,93.61,44.16,143,59.6q161,50.37,329.73,40c80.28-4.8,157.84-22.33,232.91-49.11q15.32-5.46,30.41-11.41,43.1-16.95,84.43-37.72,47.31-23.7,92.32-52.05,16.56-10.38,32.79-21.36c.39-.25.79-.52,1.17-.78q20.36-13.79,40.11-28.23a1178.85,1178.85,0,0,0,133.89-113.64,1039.94,1039.94,0,0,0,98-111.76c36.47-48.26,67.16-99.88,93.71-154.49C3406.11,1634.32,3428.89,1528.52,3428.4,1417.51Z"/><path class="cls-3" d="M3020.36,628c-.88-3.17-1.38-5.76-2.3-8.19-10.52-27.76-31.11-46.93-54.65-63.44-3-2.14-7.59-4.66-10.37.5-1.87,3.49.58,6.83,3.46,8.54,23.42,13.87,40.9,32.77,51.05,58.31,1.06,2.67,4.52,4.66,7.29,6.21C3015.86,630.53,3018.1,628.89,3020.36,628Z"/><path class="cls-4" d="M3145.63,1998.18c-61.94-9.19-122.74-23.47-181.9-44.1-60.75-21.18-121.81-41.51-180.5-68.22-122.8-55.91-239.39-122.32-346.68-204.42-107.64-82.37-214.27-166-322.52-247.59-67-50.48-135.11-100.66-212.13-134.52-98.53-43.31-200-70.45-306.35-54.78-28.17,127.89-31.53,257.37-1.24,389.18.49,2.14,1,4.29,1.49,6.42a963.07,963.07,0,0,0,45.47,143.52q10.35,25.33,22.4,50.08c6.83,14,14.9,27.42,23.08,40.77a981.39,981.39,0,0,0,109.32,16.31c126.46,12,252.12-.06,377.53-14,140.69-15.68,279.8-12.81,417.88,22.18,80.07,20.29,157.8,46.61,231.68,82.89,74.54,36.61,143.13,82.39,208.53,132.85a1178.85,1178.85,0,0,0,133.89-113.64Q3155.59,1999.66,3145.63,1998.18Z"/><path class="cls-5" d="M2957.62,2165.08q-45,28.29-92.32,52.05-41.33,20.73-84.43,37.72-15.1,6-30.41,11.41c-75.07,26.78-152.63,44.31-232.91,49.11q-168.8,10.1-329.73-40c-49.34-15.44-96.7-36-143-59.6a827.24,827.24,0,0,1-73.08-42.32q-35.34-22.87-68.65-48.93c-46.5-31.14-85-71.08-121.09-113.14-1.61-1.88-3.25-3.75-4.88-5.62,43.94,10.84,88.16,20.64,132.34,30.69q129.71,29.49,261.3,46.52c105,13.76,210.16,15.63,315.71,8.87,87.22-5.58,174.56-7.29,261.07,7.88,69.52,12.2,137.38,29.71,201.59,61.24Z"/><path class="cls-6" d="M3031.69,2114.71q-19.74,14.45-40.11,28.23c-.38.26-.78.53-1.17.78q-16.23,11-32.79,21.36l-8.44-4.15c-64.21-31.53-132.07-49-201.59-61.24-86.51-15.17-173.85-13.46-261.07-7.88-105.55,6.76-210.7,4.89-315.71-8.87q-131.79-17.28-261.3-46.52c-44.18-10.05-88.4-19.85-132.34-30.69-16.5-18.81-33.9-37.27-44.4-60.64-14.27-12.79-22.31-29.78-31.23-46.2-4.81-8.18-9.82-16.27-14.79-24.37a981.39,981.39,0,0,0,109.32,16.31c126.46,12,252.12-.06,377.53-14,140.69-15.68,279.8-12.81,417.88,22.18,80.07,20.29,157.8,46.61,231.68,82.89C2897.7,2018.47,2966.29,2064.25,3031.69,2114.71Z"/><path class="cls-7" d="M1174.89,2508.68s-227.09,45.94,73.87,107.54,2262.44,59.33,2335.22-14-1091-85-1091-85S1724.63,2507.39,1174.89,2508.68Z"/><path class="cls-8" d="M2031.27,988.9c3.81,5.68,7.78,11.57,11.63,17.43l-37.29,48.82-9.38,12.3h0l-17.66,23.14-19.11,25-31.4-24,19.11-25,17.66-23.14h0l9.39-12.29h0l40-52.36,5.58-7.31,2.43-3.17c-.49.7-1.28,1.82-2.36,3.27C2023.22,976.91,2027.14,982.78,2031.27,988.9Z"/><path class="cls-9" d="M2151.76,863.8l-15.29,20-11.91,15.59-21.9,28.68-3.75,4.89h0l-2.81,3.68-1.84,2.41h0l-4.67,6.13a11.37,11.37,0,0,1-8.39.85c-5.24,14.38-16,14.56-16,14.56-3.13,5.14-8.36,6.87-19.34,5.57-.51-.07-1-.17-1.58-.29-4.28-1-9.52-4.21-14.35-7.72l12.49-16.34,14.62-19.14,11.87-15.55,9.33-12.21,26.95-35.29,14-18.35,1.13-1.48,6.29,4.8Z"/><rect class="cls-10" x="1813.25" y="1041.65" width="252.88" height="134.55" transform="translate(1071.22 -949.68) rotate(37.37)"/><rect class="cls-11" x="1761.96" y="1142.99" width="286.93" height="21.62" transform="translate(1091.42 -919.67) rotate(37.37)"/><rect class="cls-1" x="1864.24" y="1071.97" width="158.02" height="64.6" transform="translate(1069.12 -952.8) rotate(37.37)"/><rect class="cls-12" x="1921.9" y="1041.53" width="126.53" height="15.48" transform="translate(1044.34 -989.53) rotate(37.37)"/><path class="cls-8" d="M2022.82,967.54l-.54.7.51-.73Z"/><path class="cls-9" d="M2081.19,946.06c-5.9,15-16,14.56-16,14.56-3.13,5.14-8.36,6.87-19.34,5.57-.51-.07-1-.17-1.58-.29-4.28-1-9.52-4.21-14.35-7.72l-7.14,9.36-.54.7a.47.47,0,0,1-.06.09c-.49.7-1.28,1.82-2.36,3.27-1.43,1.91-3.34,4.4-5.65,7.21-14.61,17.79-45.09,48.48-69.26,30l29.27,22.35h0l15.64,11.94,15.75,12,29.07,22.2c-22.44-17.35-4.93-51.31,8.29-70.92.36-.54.72-1.08,1.07-1.59L2061.5,982l28.08-36.77A11.37,11.37,0,0,1,2081.19,946.06Z"/><path class="cls-9" d="M2465.47,806.76s-94.95,122.25-236.3,79.41a245.82,245.82,0,0,1-36.68-14.51l25.24-25.78s21.88,16.31,57.13,21.27c38.88,5.52,94-2.74,154-61.8,0,0,13.06-12.24-3.59-26.82l-39.37-30.06,15.89-22.42,63.54,48.53S2478,790.39,2465.47,806.76Z"/><path class="cls-13" d="M2217.73,845.88s21.88,16.31,57.13,21.27a248.09,248.09,0,0,1-45.69,19,245.82,245.82,0,0,1-36.68-14.51Z"/><path class="cls-13" d="M2423.15,742.34c-5.48,6.26-11.69,13.15-18.51,20.41l-18.71-14.28,15.89-22.42Z"/><path class="cls-9" d="M2105.56,805.27a239.5,239.5,0,0,1-29-40.51c-68.84-122,19.74-239.93,19.74-239.93,12.5-16.37,31.07-8.36,31.07-8.36L2190.94,565l-17.44,21.22-39.37-30.06c-18.45-12.23-26.82,3.59-26.82,3.59-37.43,66.71-35.44,118.54-23.1,154.49,13.54,39.52,39.58,59.9,39.58,59.9Z"/><path class="cls-13" d="M2190.94,565l-17.44,21.22-24.19-18.46c5.21-8.5,10.22-16.31,14.82-23.24Z"/><path class="cls-13" d="M2105.56,805.27a239.5,239.5,0,0,1-29-40.51,260.11,260.11,0,0,1,7.62-50.52c13.54,39.52,39.58,59.9,39.58,59.9Z"/><path class="cls-14" d="M2147.89,883.58l-6.48.36a32.66,32.66,0,0,1-22.43-7.33l-3.87-3.17a32.64,32.64,0,0,1-11-17.42l-1.8-7.26c-61.59-126.65,99-330.81,99-330.81C2211.53,504.5,2230,513,2230,513l208.16,159s13.1,15.57,2.83,29C2441,701,2286.28,909.67,2147.89,883.58Z"/><path class="cls-15" d="M2420.81,726.05s-184.48-139.68-263.2-143.4l34.88-52.94L2432,711.25Z"/><path class="cls-1" d="M2232.35,831.77c24.66-29.41,23.26-41.11-7.67-63.83,30.93,22.72,43.41,21.21,68.08-8.18-24.67,29.39-23.27,41.1,7.66,63.82C2269.49,800.86,2257,802.36,2232.35,831.77Z"/><ellipse class="cls-16" cx="2224.68" cy="808.66" rx="27.66" ry="5.62" transform="translate(-80.62 271.32) rotate(-6.86)"/><rect class="cls-17" x="2295.61" y="437.71" width="60.33" height="331.38" rx="18.15" transform="translate(434.59 2085.54) rotate(-52.63)"/><path class="cls-16" d="M2440.3,675.66c-18.66-1.83-23.27,1.94-25.15,20.59,1.88-18.65-1.89-23.25-20.55-25.08,18.66,1.83,23.28-1.94,25.16-20.6C2417.88,669.23,2421.64,673.83,2440.3,675.66Z"/><path class="cls-16" d="M2405.39,640.44c-4.35,6.46-3.88,8.89,2.56,13.26-6.44-4.37-8.87-3.9-13.22,2.55,4.35-6.45,3.88-8.88-2.56-13.25C2398.61,647.37,2401,646.9,2405.39,640.44Z"/><path class="cls-18" d="M2263.71,594S2094.1,731.74,2132,881.63c0,0-56.27-110.46,32.31-246.37,0,0,31.52-46.57,61.91-69.94Z"/><path class="cls-15" d="M2010.19,983.55s30.91,9.49,36.73,17.52l26.75-35.5-2.13-5.94-42.4-1Z"/><path class="cls-19" d="M2118.78,966.62c-.84,3.09-1.63,19.46-2,21.92-1.32,7.9-1.58,19.72-1.6,26.61h0c0,3.35,0,5.54,0,5.54s-15.93,17.19-29.91,26.67h0c-6.34,4.3-12.27,7-16.12,5.81-1.94-.59-3.34-2.18-4-5.07a60.13,60.13,0,0,0-4.39-11.65h0c-4.26-8.87-10.78-19.4-17.75-30l-.07-.1,1.14-1.49L2061.5,982l28.08-36.77a11.37,11.37,0,0,1-8.39.85c-5.24,14.38-16,14.56-16,14.56-3.13,5.14-8.36,6.87-19.34,5.57-.51-.07-1-.17-1.58-.29-4.28-1-9.52-4.21-14.35-7.72l-7.14,9.36-.54.7a.47.47,0,0,1-.06.09c-.49.7-1.28,1.82-2.36,3.27a.86.86,0,0,0-.07-.1c-2.4-3.8-4.51-7.31-6.19-10.41-12.17-22.36,12.15-33,12.15-33-2.35-23.92,16.09-20,16.09-20,4.41-19.11,18-10.2,18-10.2s1.74-4.16,7.83-5.87c3.3-.93,7,.45,10.56,2.87.82.55,1.62,1.15,2.42,1.8l.12.1a3.3,3.3,0,0,1,.35.28c.4.35,1,.9,1.85,1.63l.43.39.44.42a87.36,87.36,0,0,1,10.51,12.51s3.79,4.56,4.35,5.44a19.14,19.14,0,0,0,1.66,1.38h0c4.88,3.57,5.53-.94,4.7-16.28-1.13-20.78,13.1-17.82,13.1-17.82,3.12,3.78,5.14,8.85,6.35,14.61C2130.1,925.73,2118.78,966.62,2118.78,966.62Z"/><path class="cls-1" d="M2065.63,1061.28l-9.68-24.21s33.73-2.64,62.36-24.21l6.67,21.57Z"/><path class="cls-20" d="M2015.56,946.06a19.08,19.08,0,0,1,4.5,2,30.51,30.51,0,0,1,3.8,2.73,29.36,29.36,0,0,1,3.33,3.27,19.17,19.17,0,0,1,2.77,4.09,14.73,14.73,0,0,1-4.72-1.62,21.57,21.57,0,0,1-4-2.69,22.09,22.09,0,0,1-3.31-3.45A15.07,15.07,0,0,1,2015.56,946.06Z"/><path class="cls-20" d="M2094.87,933.44a102.74,102.74,0,0,1-9.86-7.77c-3.13-2.75-6.14-5.62-9.06-8.57s-5.74-6-8.45-9.18a102.59,102.59,0,0,1-7.63-10,101.32,101.32,0,0,1,9.87,7.77c3.13,2.75,6.14,5.61,9.06,8.57s5.73,6,8.44,9.18A102.59,102.59,0,0,1,2094.87,933.44Z"/><path class="cls-20" d="M2041.84,908.14a124.45,124.45,0,0,1,10.92,8.35q5.22,4.43,10.14,9.18t9.55,9.79a122.28,122.28,0,0,1,8.73,10.6,118.59,118.59,0,0,1-10.93-8.36q-5.23-4.41-10.13-9.16t-9.53-9.79A121.45,121.45,0,0,1,2041.84,908.14Z"/><path class="cls-20" d="M2065.1,960.78a64.09,64.09,0,0,1-11.56-6.08,102.79,102.79,0,0,1-10.34-7.54,105.6,105.6,0,0,1-9.39-8.7,64,64,0,0,1-8.19-10.16l.25-.31q5,4,10,8l9.91,8.07,9.83,8.17q4.93,4.07,9.79,8.22Z"/><path class="cls-19" d="M2580.16,1127.47a119.71,119.71,0,0,0-6.25,24.24,282.26,282.26,0,0,0-3.18,45.39s-25.94,34.24-47.38,33.81c-16.8-.33-30.94-35.06-27-36.65,5.86-2.37,9.8-29.41,11.82-48,1.09-9.93,1.63-17.43,1.63-17.43S2590.54,1101.24,2580.16,1127.47Z"/><path class="cls-20" d="M2571.76,1169.48s-25.08,28.21-38.23,26.3-28.35-27.2-28.35-27.2l-7.7,33.57s-2.48,27.56,37.14,14.84,36.61-40.08,36.61-40.08Z"/><path d="M2726.92,2435.94s30.06,89.36,27.17,113,53.19-38.44,53.19-38.44-11.84-72.41-7-88S2726.92,2435.94,2726.92,2435.94Z"/><path d="M2249.59,2416.77s-3.09,90-19.28,103.09,81.87,12.18,81.87,12.18,6.45-102.95,10.34-106.72S2249.59,2416.77,2249.59,2416.77Z"/><path class="cls-21" d="M2819.63,2442s-10.48.84-23.43,3.32c-3.7.71-7.6,1.54-11.5,2.53-17.64,4.47-83.1,12.39-83.1,12.39s-9.3-32.2-19.77-77.62-30.83-134.76-53.7-178-32.62-84.11-33.86-123.87-94.3-303.85-119.52-317.89a3.32,3.32,0,0,0-2.23-.4c-26.55,4.38-86.34,308.92-84.61,387,1.77,80.33-25.43,208.07-32.47,230.38s-9.47,65.83-9.47,65.83c-3.11-1-19.83.06-38.15.64-21.76.71-45.77.72-51.85-4.24-11.18-9.13-36.3-21.13-36.3-21.13s28.72-138.29,35.66-182.56,11.88-98.11,5.46-145.27,10.08-61.78,17.47-97.38,27.7-338.38,27.7-338.38,239.7-169.61,326.27-44.33c8.38,12.13,15.33,27,20.49,45.11,58.39,204.84,40.51,303.14,75.92,389.28C2767.09,2140.84,2819.63,2442,2819.63,2442Z"/><path class="cls-22" d="M2819.63,2442s-10.48.84-23.43,3.32c-10.85-47.48-78.44-341.34-97.09-376.05-20.29-37.77-37.36-188.52-50.56-237.37-7.69-28.45-48.65-15.15-72.54-22.62-17.14-5.36,8.45-69.25-26.59-84.52-19.79-8.62-132.66-19.67-138.6,1.54-6.37,22.74-7.7,39.13-20.65,47.19-12.72,7.91-85.24,3.91-92.48,1.56l15.59-155.91s212,.21,318.95-6.18c8.38,12.13,15.33,27,20.49,45.11,58.39,204.84,40.51,303.14,75.92,389.28C2767.09,2140.84,2819.63,2442,2819.63,2442Z"/><path class="cls-22" d="M2472.52,1762.4c-26.55,4.38-86.34,308.92-84.61,387,1.77,80.33-25.43,208.07-32.47,230.38s-9.47,65.83-9.47,65.83c-3.11-1-19.83.06-38.15.64,12-86.54,48.88-350.06,61.08-394.94,14.62-53.83,28.89-215.38,51.78-267.47C2443.26,1732.38,2471.78,1761.64,2472.52,1762.4Z"/><path class="cls-23" d="M2330.81,2507.56c0,3.27-.28,13.55-.69,24.87-.66,17.74-1.53,38.07-1.53,38.07S2346,2581,2269,2585.55c-54.92,3.21-98.81,3.73-118.84-.74-8.08-1.8-12.27-4.4-11.76-8,.06-.39.1-.82.14-1.29.61-6.31,0-18.66-.79-30.35-1-14.35-2.36-27.72-2.36-27.72s36.47-15.68,63-31.14,43.4-22,46.89,2.76,52.09,22.56,67.26,7.67S2330.68,2499.15,2330.81,2507.56Z"/><path class="cls-24" d="M2269,2585.55c-54.92,3.21-98.81,3.73-118.84-.74a127.9,127.9,0,0,1-11.62-9.26c.61-6.31,0-18.66-.79-30.35,6.76-9.5-2.36-27.72-2.36-27.72s12.91-2.83,34.64,31c13.12,20.39,160.14-16,160.14-16-.66,17.74-1.53,38.07-1.53,38.07S2346,2581,2269,2585.55Z"/><path d="M2190.33,2503a6.12,6.12,0,1,0,6,6.28A6.12,6.12,0,0,0,2190.33,2503Z"/><path d="M2175.62,2514.54a6.24,6.24,0,1,0,6.07,6.4A6.24,6.24,0,0,0,2175.62,2514.54Z"/><path d="M2205.83,2494.15a5.9,5.9,0,1,0,5.74,6A5.9,5.9,0,0,0,2205.83,2494.15Z"/><path d="M2228.7,2479.17a8,8,0,1,0,7.75,8.17A8,8,0,0,0,2228.7,2479.17Z"/><path class="cls-1" d="M2228.41,2490.08a3,3,0,0,0,1.69-5.43c-19.37-12.61-22.79-10.52-24.08-9.74a14.16,14.16,0,0,0-5.53,6.42,5.39,5.39,0,0,0,.35,3.55s1.47-.66,2.86-1.42c.75-.41,1.39-.95,2-1.22,1.66-.75,1.39-2.1,3.08-2s11.26,4.95,18.13,9.42A3,3,0,0,0,2228.41,2490.08Z"/><path class="cls-1" d="M2205.57,2503a2.95,2.95,0,0,0,2.61-4.48c-10.14-16.86-13.38-16.4-14.93-16.17-4.58.66-6.37,6.52-6.56,7.14a7.83,7.83,0,0,0-.18,3.2s4.34-1.45,4.82-3c.28-.88,1.82-.74,2.62-.55s6,7.15,9.17,12.44A3,3,0,0,0,2205.57,2503Z"/><path class="cls-1" d="M2190.08,2512.07a3,3,0,0,0,2.22-5h0c-.07-.08-6.88-7.3-7.76-14.41a3,3,0,1,0-5.86.72c1.12,9.08,9,17.42,9.35,17.77A3,3,0,0,0,2190.08,2512.07Z"/><path class="cls-1" d="M2175.39,2523.17a3,3,0,0,0,2.65-4.4c-.19-.35-4.26-8-.14-20.59a3,3,0,1,0-5.61-1.84c-5,15.23.38,24.93.61,25.34A3,3,0,0,0,2175.39,2523.17Z"/><path class="cls-23" d="M2906.39,2609.71s-85.52,15.61-134,6.8a55,55,0,0,1-10.91-3.05,35.3,35.3,0,0,1-3.49-1.64c-27.65-14.73-6.53-52.3-18-75.78h0c-4.51-9.23,5.33-25.45,5.31-38.91,7.77,22.46,16.27,28.15,21.87,16.78s2.88-43.8,29.13-45.13,33,27.3,33,27.3c1.87,12.37,14.74,20.08,29.46,29.58h0C2882.11,2540.68,2910.06,2560.18,2906.39,2609.71Z"/><path class="cls-23" d="M2733.58,2500.86c0-1.05,0-2.08,0-3.15A23.39,23.39,0,0,1,2733.58,2500.86Z"/><path class="cls-24" d="M2795.63,2601.62c-5.85,5.76-21.93,10.21-37.65,10.2-27.65-14.73-6.53-52.3-18-75.78.55.63,25,28.06,47.93,4.54C2787.93,2540.58,2808,2589.42,2795.63,2601.62Z"/><path class="cls-1" d="M2906.39,2609.71s-85.52,15.61-134,6.8a55,55,0,0,1-10.91-3.05,91.14,91.14,0,0,1,1.3-22.73c-8.53,2.69-19-34.24-19-34.24l-.13-4.82s9.83,14.82,15.6,18.11a6.9,6.9,0,0,0,3.72,1c3.24-.16,4.83-3.34,4.83-3.34,7-18.74,28-47,91-41.81h0c13.51,8.71,28.58,18.92,38.15,35.61a73.25,73.25,0,0,1,9.07,28.13A104.1,104.1,0,0,1,2906.39,2609.71Z"/><path class="cls-25" d="M2906,2589.39c-21.83,8-75.4,13.16-97.79,10.14a104.23,104.23,0,0,1-40.82-15.1s83.14-1.09,110.12-12.66a113.4,113.4,0,0,0,19.42-10.51A73.25,73.25,0,0,1,2906,2589.39Z"/><path class="cls-1" d="M2329.1,2558.5l-.51,12s-6.69,13.63-16.16,14.8c-6,.74-72,3.21-119.31,4.14-27.27.55-48.37.57-48.31-.52a1.91,1.91,0,0,1,.05-.36c-21.42.74-52.21,1.83-54.05,2.12-2.6.41-20.63-4.89-21.13-32.43a77.19,77.19,0,0,1,.3-7.84c3.28-36.13,39.11-40.92,65.36-32.93,13.9,4.23,21.49,23.7,25.57,41.1.43,1.77,5,18.89,20.39,19.07C2197.52,2577.85,2329.1,2558.5,2329.1,2558.5Z"/><path class="cls-25" d="M2264.15,2578.24c-31.84,8.6-119.4,11.77-119.34,10.68a1.91,1.91,0,0,1,.05-.36c-21.42.74-52.21,1.83-54.05,2.12-2.6.41-20.63-4.89-21.13-32.43,0,0,44.59,28.48,113.47,23.35C2196.41,2580.61,2243.21,2577.73,2264.15,2578.24Z"/><path d="M2072.46,2574.06s2.73,18.74,130.24,9.14,125.89-12.7,125.89-12.7,21.62,8.37.75,17.69c-18.7,8.36-234.85,24.69-265.16,4.82,0,0-6.83-4.24-7.56-9.76S2063,2570.22,2072.46,2574.06Z"/><path d="M2772.38,2616.51c-37.44-6.8-28.61-35.15-28.64-60,13.31,34.89,30.65,32.66,89.25,31.18,38-1,59.25-6.85,70.31-11.42,2.79,9.37,4.06,20.35,3.08,33.46C2906.38,2609.71,2820.87,2625.32,2772.38,2616.51Z"/><ellipse cx="2790.66" cy="2503.55" rx="5.29" ry="4.05" transform="translate(-694.39 1121.53) rotate(-20.26)"/><ellipse cx="2796.32" cy="2512.58" rx="5.29" ry="4.05" transform="translate(-697.17 1124.05) rotate(-20.26)"/><ellipse cx="2802.01" cy="2521.72" rx="5.29" ry="4.05" transform="translate(-699.98 1126.58) rotate(-20.26)"/><path class="cls-1" d="M2804.46,2523s25.18-8.73,44.16-3c0,0,6.64-.23-7-4.76s-41.59,3.5-41.22,6.13S2804.46,2523,2804.46,2523Z"/><path class="cls-1" d="M2799.21,2513.05s21.93-8.21,38.51-2.64c0,0,5.79-.19-6.12-4.56s-36.26,3.16-35.93,5.66S2799.21,2513.05,2799.21,2513.05Z"/><path d="M2355,1628.58s201.66-7.64,229-3.19-56.19-88.92-81.85-84.22S2349.26,1579.59,2355,1628.58Z"/><path class="cls-1" d="M2792.27,2504.64s21.92-8.21,38.5-2.64c0,0,5.8-.19-6.11-4.56s-36.27,3.16-35.93,5.66S2792.27,2504.64,2792.27,2504.64Z"/><path class="cls-1" d="M2595.26,1608.22c-8.84,1.12-204.5,5-253.18-13-6.31-2.33-10.16-5-10.8-8.16-2-9.63,12.63-58.85,33-119,37.18-109.53,93.64-255.26,104.32-264,16.53-13.57,44.1-4,58.52,6l.1-.06c.32-.19,1.39-.81,3-1.65,5.79-3.07,18.35-8.94,24.49-6a27.87,27.87,0,0,1,5.4,4.2c12.57,11.61,37.44,41.6,37.44,41.6S2605.25,1606.94,2595.26,1608.22Z"/><path class="cls-26" d="M2597.57,1248.16s-24.87-30-37.44-41.6c-12.64-5.2-24.49-.9-29.89,1.75a31,31,0,0,0-3,1.65l-.1.06c-31.47-40.18-102,5.66-109.56,10.43-4.86,3.08-31.72,132.28-53.28,247.63-9,48.21-17.09,94-22.25,127.14,48.68,18,244.34,14.12,253.18,13C2605.25,1606.94,2597.57,1248.16,2597.57,1248.16Zm-123.23,355.17c-14.37-.25-30.31.78-46.41-2.75-31-6.78,28.62-348.18,33.61-358.57s18.66-23,32.87-28.94,25.83,22.08,25.83,22.08c.18-4.12,3.52-10.58,5.7-16.05-7.28,53.35-44.42,325.68-50.73,368A76.24,76.24,0,0,0,2474.34,1603.33Zm70.64-49.82c-1.81,23.41-10,46.48-42.9,49.11,7.66-80.94,34.07-359.73,34.56-364.92.57-6.08,11.17-8.63,26.3,6.64S2548,1515.21,2545,1553.51Z"/><path class="cls-20" d="M2580.16,1127.47a119.71,119.71,0,0,0-6.25,24.24c-31.24,7.56-65.72-5.42-65.72-5.42,1.09-9.93,1.63-17.43,1.63-17.43S2590.54,1101.24,2580.16,1127.47Z"/><path class="cls-19" d="M2672.33,1068.34c-17.11,16.16-31.54,9-31.54,9s-9,23.76-27.05,40.4-46.68,34.8-100.77,28.78c-20-2.23-34.65-10.62-44.74-21.18-17.14-17.93-21.33-42.09-17.35-52.9,6.34-17.17,7.51-56.6,8.6-116.92s32.28-65.75,32.28-65.75S2567.39,899,2605,903.7c2.52.3,4.85.6,7,.87,34.2,4.34,38.16,106.54,54.79,109.76S2689.46,1052.17,2672.33,1068.34Z"/><path class="cls-27" d="M2649,1041.53s-33-25.25-49.46-57c-11.37-21.9,5.55-45.5-18.92-53.3-11.54-3.67-46.79-10.22-72.43,8.75-27.07,20-57.33,132.47-40,185.37h0c-17.14-17.93-21.33-42.09-17.35-52.9,6.34-17.17,7.51-56.6,8.6-116.92s32.28-65.75,32.28-65.75S2567.39,899,2605,903.7c9,15.08,13.24,30.49,12,38.25C2615.47,952.2,2649,1041.53,2649,1041.53Z"/><path class="cls-11" d="M2603.58,913.43s-15.14,16.46-44.87,2.67-58.9-3.5-94.93,13.38,8.35-104.42,57.65-100.14S2600.93,877.88,2603.58,913.43Z"/><path class="cls-28" d="M2597.23,917.91s-16.24,5.32-34.85-19.49-69.08-14.1-103.61,7.82c0,0,16.91-64.93,43.64-74.88s62.87-11.94,80,17.91,21.13,64.16,21.13,64.16Z"/><path class="cls-29" d="M2603.58,913.43c-.66-3.78-100.83-128.9-167.8-1.66,0,0,22.79-71.81,62.91-81s79.8-5.69,89.31,19.9,26.75,59.49,24.24,68.61S2603.58,913.43,2603.58,913.43Z"/><path class="cls-10" d="M2637.5,886.63c-.48,41.56-33.92,26.8-33.92,26.8s-1.2-2.37-3.4-6.28c-6.85-12.14-23.4-39.15-44.16-56.88l0,0c-16.48-14.07-35.62-22.29-54.66-12.59-45.56,23.21,13.29,101.14-46.24,160.39l0,0a133.85,133.85,0,0,1-25.62,19.6c.25-.85,10.13-35.23-6.94-86.87-17.29-52.3,52.23-118.41,109.56-112.31,36.46,3.88,69.36,13.57,88.37,30.8h0a53.67,53.67,0,0,1,12.12,15.57A46.55,46.55,0,0,1,2637.5,886.63Z"/><path class="cls-29" d="M2641.39,888.69c-.47,41.56-37.81,24.74-37.81,24.74s-.22-6.74-.13-14.95c1-22.35,17.19-30.58,29.13-33.61C2635.85,871.37,2641.49,880.66,2641.39,888.69Z"/><path class="cls-10" d="M2695.53,983.6c-3,6-5.78,11-8.32,15.15-9,14.56-14.79,18.09-14.79,18.09-24.12-5.82-23.4,24.69-23.4,24.69s-7.69-8.65-16.78-21h0c-14.54-19.78-32.63-49-28.53-67.55,6.66-30.1-2-22.48-.13-39.53s14.17-22.08,14.17-22.08,13.41-8.12,38.54-4.13C2690.05,892.58,2709.08,956.16,2695.53,983.6Z"/><path class="cls-29" d="M2687.21,998.75c-9,14.56-14.79,18.09-14.79,18.09-24.12-5.82-23.4,24.69-23.4,24.69s-7.69-8.65-16.78-21h0C2626.84,977.09,2687.21,998.75,2687.21,998.75Z"/><path class="cls-30" d="M2556,850.25c-16.48-14.07-35.62-22.29-54.66-12.59-45.56,23.21,13.29,101.14-46.24,160.39,36-39.14,2.23-139.87,38.25-161.89C2528.91,814.42,2555.32,849.33,2556,850.25Z"/><path d="M2489.33,1010.86a5,5,0,0,0-4.94-4c-2.53.13-5.52,2.41-6.47,11.76-1.45,14.39,9.18,9.9,11.08,1.7A21.49,21.49,0,0,0,2489.33,1010.86Z"/><path d="M2553.11,1015.71a5,5,0,0,0-4.93-4c-2.54.13-5.53,2.41-6.47,11.76-1.46,14.39,9.17,9.9,11.07,1.7A21.33,21.33,0,0,0,2553.11,1015.71Z"/><path class="cls-20" d="M2512,1018s-22.72,38.31-18.34,44.24,22.65,6.28,22.65,6.28-15.67-2-15.37-13.25S2512,1018,2512,1018Z"/><path class="cls-31" d="M2467.75,994.29a33.43,33.43,0,0,1,5.61-8.19,42.8,42.8,0,0,1,7.48-6.52,31.61,31.61,0,0,1,9.12-4.37,19.54,19.54,0,0,1,5.12-.73,11.82,11.82,0,0,1,5,1,31,31,0,0,0-8.68,3.38c-2.66,1.46-5.21,3.12-7.76,4.85l-7.7,5.33C2473.33,990.84,2470.68,992.63,2467.75,994.29Z"/><path class="cls-31" d="M2545,980.85a20,20,0,0,1,10-1.47,29,29,0,0,1,9.91,2.68,30.7,30.7,0,0,1,4.44,2.6c.69.51,1.4,1,2.06,1.53s1.26,1.15,1.87,1.73c.31.29.61.59.91.89s.56.64.83,1c.54.65,1.06,1.32,1.57,2a18.89,18.89,0,0,1,1.34,2.15,25.19,25.19,0,0,1,1.16,2.25c-1.53-.81-2.85-1.77-4.2-2.64-.7-.42-1.37-.84-2-1.27l-1-.66-1-.59c-.67-.39-1.33-.8-2-1.22l-2-1.11c-.34-.18-.66-.38-1-.57l-1-.5c-.68-.34-1.35-.72-2-1a72.51,72.51,0,0,0-8.52-3.36A74.27,74.27,0,0,0,2545,980.85Z"/><path class="cls-20" d="M2548.46,1085.78s-24.46,26.21-63.3,19C2485.16,1104.77,2517.31,1107,2548.46,1085.78Z"/><circle class="cls-1" cx="2482.84" cy="1012.21" r="2.06"/><circle class="cls-1" cx="2546.75" cy="1018.13" r="2.06"/><path class="cls-21" d="M2686.31,1226.52c-11.34-15.41-35.44-31.39-87.31-43-2.26-.51-4.58-1-6.94-1.5,0,0-14.75,94.84-21.27,220.18-6.28,120.6-4.95,269.46,24.47,389.25,0,0,58.28-7.21,78.65-8.06s42.83-8.48,42.83-8.48-10-77.61-20.79-122.78-12.71-56-12.71-56,125.32-106.89,127.22-136.15S2698.22,1242.72,2686.31,1226.52Zm-10.07,264.65-11.45-95.42s35.25,46.78,45.42,54.42C2710.21,1450.17,2693.67,1474.84,2676.24,1491.17Z"/><path class="cls-21" d="M2484.33,1176.91s-44,96.6-70.11,200.73q-3.31,13.24-6.22,26.59c-24.6,113.66-27.21,352.06-27.21,352.06s-105.11-2.6-131.41-9.39c0,0,36.09-148.82,50.89-188.3,11.45-30.54,31-220.74,31-220.74s-124-4.32-148.06-8.67c-61.07-11-70.48-89.29-85.24-130.41-24.21-67.43-33.22-118-39.16-143.73,0,0,42.13-28.27,72.77-22.23,0,0,65.66,199.58,87.89,204.53,23.54,5.23,175.53-38.92,187.62-45.08,9-4.59,54.84-11.93,71.32-14.47C2482.11,1177.23,2484.33,1176.91,2484.33,1176.91Z"/><path class="cls-1" d="M2527.15,1210c-25.7-17-71.26,15.67-71.26,15.67l21.45-44.42,27.25-9.37C2503.2,1180.29,2526.44,1209.13,2527.15,1210Z"/><path class="cls-1" d="M2527.17,1210a12.58,12.58,0,0,1,3.3-1.57A21.74,21.74,0,0,1,2527.17,1210Z"/><path class="cls-1" d="M2603.51,1223.46,2584.57,1239l-12.88,9.18c-17.21-42-34.25-42-41.22-39.71,12.51-7.07,40.76-31.54,40.76-31.54l20,10.37,4.39,4.9C2597.82,1200.1,2601.64,1213.24,2603.51,1223.46Z"/><path class="cls-32" d="M2610.08,1292.69c.64,5.08-39.29,109.49-39.29,109.49,3.43-66,9.14-123.51,13.78-163.2a246.14,246.14,0,0,0,1.12-49.77c-.19-3.5-.85-10.6-.85-10.6a86,86,0,0,1,12.3,2.54c.58.18,1.21,1,1.86,2.35a58.52,58.52,0,0,1,3.2,9.45c2.17,7.93,4.4,18.76,6.27,29,2.53,13.74,4.39,26.38,4.58,29.41.42,7.21-17,22.9-17,22.9S2609.44,1287.6,2610.08,1292.69Z"/><path class="cls-32" d="M2489.21,1174.68s-48.85,98.83-75,203c0,0-4.53-79.23-5.17-82.41s18.45-21,18.45-21-4.44-15.9-7.63-22.9c-3-6.67,53.54-68.7,58.88-74.53a1.57,1.57,0,0,1,1-.51C2483,1175.92,2489.21,1174.68,2489.21,1174.68Z"/><path class="cls-33" d="M2518.77,1230.92s-22.56,104.34-39.53,206.68-39,229.57-36.47,241.44l19.51,22.06,22-16.12c5.94-10.18,49.2-447.89,49.2-466.11C2533.53,1218.87,2519.75,1226.34,2518.77,1230.92Z"/><path class="cls-22" d="M2629.16,1350.58s31.17,37.53,35.63,45.17l11.45,95.42-91,99.66s67.22-84.82,48.35-156.07C2625,1402.2,2605,1333.4,2629.16,1350.58Z"/><path class="cls-22" d="M2683.24,1596.13s-39.45,45.59-41.57,46-28.41,0-28.41,0L2576,1679.08l2.44,20.32s9.36,3.83,30.57,0,80.15-76.11,80.15-76.11Z"/><path class="cls-19" d="M2641.67,1642.15s-35.76,41.42-40,44c-2,1.18-4.7,1.27-7.11,1h0a28,28,0,0,1-5.12-1s-10.91,2.83-19.12-4.81c0,0-8.22,5.38-13.6,1.42s-5.37-11.6-4-16.4,7.17-26.45,7.35-27.12h0c-.47.19-15.62,6.22-20.07,7.62,0,0-11.87,30.25-22.05,33.37a36.63,36.63,0,0,1-3.88,1c-8,1.54-13-.84-8.56-9.18,5.09-9.6,14.14-39.3,21.49-41.84s46.37-26.58,46.37-26.58,3.08-1.53,10.18,0C2593.78,1605.67,2612.24,1614.05,2641.67,1642.15Z"/><path class="cls-27" d="M2560.11,1639.18h0c-.47.19-15.62,6.22-20.07,7.62,0,0-11.87,30.25-22.05,33.37a36.63,36.63,0,0,1-3.88,1c6.29-3.55,19.85-30.66,20.56-36.1s24.74-15.35,26.72-14.77S2560.11,1639.18,2560.11,1639.18Z"/><g class="cls-34"><path class="cls-20" d="M2570.31,1681.3a44.91,44.91,0,0,1,2-6.9q1.23-3.35,2.76-6.54t3.34-6.27a44.81,44.81,0,0,1,4.11-5.89,45.33,45.33,0,0,1-2,6.91c-.82,2.23-1.75,4.4-2.77,6.54s-2.13,4.22-3.34,6.26A44.81,44.81,0,0,1,2570.31,1681.3Z"/></g><g class="cls-34"><path class="cls-20" d="M2589.43,1686.11a43,43,0,0,1,2.63-6.75,71.07,71.07,0,0,1,3.44-6.3,65.27,65.27,0,0,1,4.07-5.91,32.36,32.36,0,0,1,5-5.28c-.91,2.28-1.93,4.43-3,6.55s-2.27,4.19-3.51,6.21-2.56,4-4,5.94A49.44,49.44,0,0,1,2589.43,1686.11Z"/></g><path class="cls-35" d="M2641.67,1642.15s-35.76,41.42-40,44c-2,1.18-4.7,1.27-7.11,1h0s28.3-23.5,30.8-37.35-41.77-46.26-41.77-46.26C2593.78,1605.67,2612.24,1614.05,2641.67,1642.15Z"/><path class="cls-22" d="M2710.21,1450.17a56,56,0,0,1,39.61-17.1s-31.38-8.63-43.94,13.12Z"/><path class="cls-36" d="M2516.11,1205.7s-4.42,17.15,0,23,17.14,3.33,19.12,2.2S2540,1223,2539,1208a14.55,14.55,0,0,0-11.81,2S2520,1203.67,2516.11,1205.7Z"/><path class="cls-1" d="M2650.11,1633.64s-23.21-38.29-64.84-42.81l-15.42,10.71s33.51,3.72,71.82,40.61Z"/><path class="cls-22" d="M2331.28,1337.86s8.44-38.81-4.92-35.63-133.09,24.42-180.1,7.76c0,0,2.76,18.91,72.65,22.55S2331.28,1337.86,2331.28,1337.86Z"/><path class="cls-20" d="M2103.26,925a52.05,52.05,0,0,0-2.83-6c4.43,12.27-5.08,13.78-6.15,13.91h0l-.12-.15.06.16.39,1.63a10.35,10.35,0,0,1-.31,4.6h0a10.9,10.9,0,0,1-4.31,5.93l-.14.1-.22.1c-.65.91-8.39.85-8.39.85-3.14,11.89-16,14.56-16,14.56-4.31,6.31-13.85,8.45-23.94,4.27s-13.5-10-13.5-10l-7.1-1.91s5.51,7.31,22.21,14.21c13.47,5.56,21.11,0,23.56-2.35a7.85,7.85,0,0,1,2.95-1.84c8.64-2.78-7.91,19-7.91,19,8.91,11.62,19.21,32.57,19.67,33.48-.29-1.39-9.17-39.24,2.67-57l2.42-4.23c.41-.59,1-1.62,1.79-2.81,0,0,6.27-7.73,7.71-12a5.23,5.23,0,0,0,.34-2.78c-.11-1.4-.26-2.55,1.84-3.23a4.25,4.25,0,0,0,1-.45h0a10.54,10.54,0,0,0,3.75-4.89A5.73,5.73,0,0,0,2103.26,925Z"/></svg>