<svg id="Mỗi_hình_1_layer_riêng" data-name="Mỗi hình 1 layer riêng" xmlns="http://www.w3.org/2000/svg" xmlns:xlink="http://www.w3.org/1999/xlink" viewBox="0 0 4680 3120"><defs><style>.cls-1{fill:#ffc5b8;}.cls-2{fill:#fff;}.cls-27,.cls-3{fill:#3d4f53;}.cls-3{opacity:0.09;}.cls-4{fill:#f3f3f4;}.cls-5{fill:#fefefe;}.cls-6{fill:#ebecee;}.cls-7{fill:#d3d7db;}.cls-8{fill:#e0e2e5;}.cls-17,.cls-30,.cls-9{fill:#e98970;}.cls-10{fill:#ed442e;}.cls-11{fill:#b51a1a;}.cls-12{fill:#33231c;}.cls-13{opacity:0.61;}.cls-14{opacity:0.21;}.cls-15{fill:#2b363c;}.cls-16,.cls-25,.cls-33,.cls-34{fill:#1c2426;}.cls-17,.cls-28{opacity:0.56;}.cls-18{fill:#3d0b01;}.cls-19{fill:#4c2409;}.cls-20{fill:#6d3713;}.cls-21{fill:#87461b;}.cls-22{fill:#a34926;}.cls-23{fill:#231f20;}.cls-24{fill:#dbdbdb;}.cls-25{opacity:0.38;}.cls-26{fill:#ca2722;}.cls-29{clip-path:url(#clip-path);}.cls-30{opacity:0.17;}.cls-31{fill:#f37110;}.cls-32{fill:#aaa;}.cls-33{opacity:0.57;}.cls-34{opacity:0.67;}.cls-35{fill:#121a1c;}.cls-36{fill:none;stroke:#231f20;stroke-miterlimit:10;}</style><clipPath id="clip-path"><path class="cls-1" d="M2759.27,1222.78s11.23,52.62-1.92,86.63,56.15,23.1,63.53,11.55,15.72-43.44,15.72-43.44-37.54-40.63-32.41-95.49S2759.27,1222.78,2759.27,1222.78Z"/></clipPath></defs><title>07</title><rect class="cls-2" width="4680" height="3120"/><path class="cls-3" d="M1209.38,2495.69c-61.66.24-123,7.89-181.29,23.36-86.82,23-158.45,61,50,103.74,340.33,69.73,2573.69,34.57,2656-48.46s-1233.79-96.2-1233.79-96.2S1816,2493.32,1209.38,2495.69Z"/><path class="cls-4" d="M2808.07,871.13a386.14,386.14,0,0,0-64.79-70.31c-45.34-38.43-63.68-89.6-73.47-145.77-5.14-29.53-14.24-57.74-31.79-83-53.8-77.38-152.49-36.72-182.24,19.71-31.2,59.14-22.1,118.56-3.34,177.53,22.38,70.34,64.06,128.44,122.53,173.58,20.26,15.65,42.08,29.78,59.23,35.23,54.83,19,102.25,20.67,149.32,3.74C2821.8,968.08,2842.2,919,2808.07,871.13ZM2637.13,629.65c-2.77-1.54-6.22-3.54-7.28-6.19-10.13-25.49-27.59-44.36-51-58.21-2.88-1.7-5.32-5-3.45-8.52,2.77-5.15,7.31-2.63,10.35-.5,23.49,16.49,44.05,35.61,54.54,63.32.92,2.43,1.43,5,2.3,8.17C2640.38,628.58,2638.14,630.21,2637.13,629.65Z"/><path class="cls-4" d="M3049.91,1415.73c-.37-81.42-14.51-159.74-61.08-229-40.09-59.66-97.37-93-166.58-107.67-62.52-13.23-126.66-12.48-189.7-21.65-68.29-9.93-122.64-43.48-169.25-92.76-52.56-55.58-87.55-122.1-120.65-189.86-29.2-59.8-52.9-122.59-94.91-175.4-19.4-24.39-39.28-48.51-67-64.39-14.73-18.84-36-28.12-56.66-37.85-87-41-177.7-45.93-270.25-25-46.3,10.46-91.74,24.45-133.41,48.3C1674.37,542.72,1632,570.62,1594,605.1c-37.78,31.13-71.6,66.18-103.56,103.17-60.1,69.58-110.27,146-153.82,226.58-16.65,30.82-31.69,62.75-45.4,95.31-1.11,2.65-2.23,5.31-3.35,8-13.17,31.17-26.43,62.29-37,94.39a1132.43,1132.43,0,0,0-30.45,110.58c-28.12,127.65-31.48,256.9-1.24,388.46.49,2.13,1,4.28,1.49,6.41a959.44,959.44,0,0,0,45.38,143.25q10.34,25.29,22.36,50c6.82,14,14.87,27.37,23,40.69,5,8.09,10,16.17,14.76,24.33,8.9,16.38,16.93,33.35,31.17,46.11,10.48,23.33,27.85,41.75,44.32,60.53,1.63,1.86,3.26,3.73,4.87,5.61,36.05,42,74.46,81.85,120.87,112.93q33.33,25.92,68.52,48.84a825.53,825.53,0,0,0,72.94,42.24c46.16,23.6,93.44,44.08,142.68,59.48q160.68,50.28,329.12,40c80.14-4.79,157.55-22.28,232.49-49q15.28-5.44,30.34-11.39,43-16.93,84.27-37.65,47.24-23.65,92.15-51.95,16.55-10.36,32.74-21.32l1.16-.78q20.32-13.77,40-28.18a1177.39,1177.39,0,0,0,133.64-113.43,1035,1035,0,0,0,97.78-111.56c36.42-48.16,67-99.69,93.55-154.2C3027.66,1632.14,3050.41,1526.54,3049.91,1415.73Z"/><path class="cls-5" d="M2642.63,627.73c-.88-3.16-1.38-5.75-2.3-8.18-10.49-27.71-31-46.84-54.54-63.32-3-2.13-7.58-4.65-10.35.5-1.87,3.48.58,6.82,3.45,8.52,23.38,13.85,40.82,32.71,51,58.21,1.06,2.66,4.52,4.65,7.28,6.19C2638.14,630.21,2640.38,628.58,2642.63,627.73Z"/><path class="cls-6" d="M2767.66,1995.33c-61.82-9.18-122.5-23.44-181.56-44-60.63-21.15-121.58-41.44-180.16-68.1-122.57-55.8-239-122.09-346-204C1952.47,1597,1846,1513.43,1738,1432c-66.87-50.38-134.87-100.47-211.74-134.27-98.35-43.23-199.62-70.32-305.78-54.68-28.12,127.65-31.48,256.9-1.24,388.46.49,2.13,1,4.28,1.49,6.41a959.44,959.44,0,0,0,45.38,143.25q10.34,25.29,22.36,50c6.82,14,14.87,27.37,23,40.69a977.46,977.46,0,0,0,109.12,16.28c126.22,11.94,251.65-.06,376.83-14,140.42-15.66,279.27-12.79,417.1,22.14,79.92,20.25,157.51,46.52,231.24,82.73,74.41,36.54,142.87,82.24,208.15,132.61a1177.39,1177.39,0,0,0,133.64-113.43Q2777.62,1996.8,2767.66,1995.33Z"/><path class="cls-7" d="M2580,2161.92q-44.92,28.23-92.15,51.95-41.23,20.68-84.27,37.65-15.06,5.94-30.34,11.39c-74.94,26.73-152.35,44.22-232.49,49q-168.48,10.08-329.12-40c-49.24-15.4-96.52-35.88-142.68-59.48a825.53,825.53,0,0,1-72.94-42.24q-35.28-22.84-68.52-48.84c-46.41-31.08-84.82-71-120.87-112.93-1.61-1.88-3.24-3.75-4.87-5.61,43.85,10.82,88,20.6,132.09,30.63q129.47,29.44,260.82,46.44c104.82,13.73,209.76,15.6,315.12,8.85,87.06-5.57,174.24-7.28,260.58,7.87,69.4,12.17,137.13,29.65,201.22,61.13C2574.39,2159.16,2577.2,2160.53,2580,2161.92Z"/><path class="cls-8" d="M2653.94,2111.64q-19.7,14.42-40,28.18l-1.16.78q-16.22,11-32.74,21.32c-2.8-1.39-5.61-2.76-8.42-4.14-64.09-31.48-131.82-49-201.22-61.13-86.34-15.15-173.52-13.44-260.58-7.87-105.36,6.75-210.3,4.88-315.12-8.85q-131.55-17.25-260.82-46.44c-44.1-10-88.24-19.81-132.09-30.63-16.47-18.78-33.84-37.2-44.32-60.53-14.24-12.76-22.27-29.73-31.17-46.11-4.8-8.16-9.8-16.24-14.76-24.33a977.46,977.46,0,0,0,109.12,16.28c126.22,11.94,251.65-.06,376.83-14,140.42-15.66,279.27-12.79,417.1,22.14,79.92,20.25,157.51,46.52,231.24,82.73C2520.2,2015.57,2588.66,2061.27,2653.94,2111.64Z"/><path class="cls-1" d="M2524.25,1853s-2.54,1.49-5.21-2.27,4.46-9.31,4.46-9.31c-4.47-1.38-2.81-6.83-2.81-6.83,4.14-7.12,18.57-15.11,30.17-24.48,14.45-11.68,27.12-22.95,27.12-22.95s-3.38-4.09-18.5-1.6-17.49-3.19-17.49-3.19c7.09-15.78,12.49-7.14,25.72-11.93,11.44-4.15,36-12.07,50.72-12.16h0a25.73,25.73,0,0,1,6.08.59c12.79,3.08,29.18-4.16,29.18-4.16l14.87,21.76c-1.58.54-4.14,8-12.83,16.93h0c-35.16,30.14-60.58,47.37-67.4,49.66-7.08,2.37-47,33.61-45.62,26.66,1.33-6.78,16.47-18.66,17.19-19.22-1,.41-28.12,12.28-32.71,11.53C2521.19,1861,2524.25,1853,2524.25,1853Z"/><path class="cls-9" d="M2618.44,1758.26h0c2.29,0,7.64-5.48,8.84-6.79,4.14-4.52,15.59-19.08,15.59-19.08l28.34,41.3c-1.58.54-10.66,15.27-12.2,15.87-2.86-4.53-9.31-6.69-18.18-14.57A196.73,196.73,0,0,0,2618.44,1758.26Z"/><path class="cls-9" d="M2559.9,1850.38l9.43-6.51,9.54-6.35.12.16a26.22,26.22,0,0,1-4,4.31c-.7.67-1.47,1.23-2.21,1.85s-1.55,1.12-2.32,1.68-1.6,1-2.42,1.54-1.65,1-2.53,1.37a25.84,25.84,0,0,1-5.49,2.12Z"/><path class="cls-9" d="M2524.16,1852.8l25.66-13.91c4.29-2.31,8.57-4.62,12.81-7,2.12-1.19,4.25-2.37,6.35-3.6s4.2-2.43,6.23-3.76l.23.32a59.53,59.53,0,0,1-11.25,9.81,125.29,125.29,0,0,1-12.46,7.73,130,130,0,0,1-13.23,6.27,78.38,78.38,0,0,1-14.16,4.48Z"/><path class="cls-9" d="M2523.39,1841.23q5.93-3.93,11.94-7.71t12.08-7.51c4.07-2.43,8.15-4.84,12.29-7.16a112,112,0,0,1,12.72-6.4l.14.37c-3.76,3.12-7.43,6-11.3,8.79s-7.74,5.39-11.78,7.82-8.19,4.71-12.46,6.79a83.13,83.13,0,0,1-13.41,5.35Z"/><path class="cls-10" d="M1967.51,1270q-.84-2.22-1.79-4.44c-.07-.18-.16-.38-.24-.57a394.91,394.91,0,0,1-13.26,193c4.85,8.89,10.2,19.24,15.9,30.68,19.48,39.05,43.13,90.81,65.41,141,.83,1.9,1.67,3.79,2.5,5.67l4.39,9.94c.92,2.09,1.84,4.19,2.76,6.27s1.87,4.26,2.81,6.39l2.78,6.35c5.54,12.64,10.89,25,16,36.67l1.76,4.08q4.77,11,9.15,21.25c.54,1.23,1.07,2.47,1.59,3.69q3.95,9.21,7.5,17.54c.3.69.59,1.38.89,2.06.92,2.16,1.81,4.27,2.69,6.32l3.11,7.3c.6,1.43,1.19,2.82,1.77,4.18q1.51,3.56,2.89,6.82l.4.93c.35.81.68,1.61,1,2.38.51,1.23,1,2.41,1.48,3.55q1.38,3.23,2.54,6c.41,1,.79,1.86,1.15,2.73l.46,1.09c.16.35.3.69.44,1s.29.68.42,1l2.4,5.7c.56,1.36,1,2.37,1.24,3,.07.14.11.26.16.36l.15.37q3.51-.72,6.9-1.57l2.47-.63q2.61-.69,5.14-1.44l1.52-.47h0a1.39,1.39,0,0,0,.19-.06l.35-.1c1.26-.39,2.49-.79,3.71-1.2l.94-.32c.63-.22,1.27-.43,1.89-.66.88-.3,1.74-.62,2.61-.94.43-.15.84-.3,1.25-.47s1.05-.39,1.57-.6,1-.38,1.5-.59q2.1-.84,4.14-1.71a180.09,180.09,0,0,0,21.53-11l1.16-.7,1.11-.68,1.09-.68.64-.4.16-.11c4.89-3.11,8.62-5.85,11.09-7.76l0,0c2.26-1.74,3.42-2.79,3.42-2.79C2140.44,1655.9,1967.51,1270,1967.51,1270Z"/><path class="cls-10" d="M2461.77,1588.05l-434.08-575.14c-2.88-4.19-6.09-8.16-9.16-12.21l-14.3-19-.3.61a557.82,557.82,0,0,0-102.46-97h0q-19.8-14.46-41.15-27.3c-2-1.2-4-2.38-6-3.57q-13.53-7.87-27.66-15.07h0c-3.55-1.81-7.13-3.57-10.73-5.31l-2.61-1.25,0,0q-9.4-4.46-18.89-8.54l-1.46-.64h0l-2.82-1.19h0a4.16,4.16,0,0,0-.54-.23h0q-9.54-4-19.16-7.63h0c-47,7.74-94,46.11-90.25,88.1a196.24,196.24,0,0,1-1.41,48.82q13.07,3.55,26,8,3.15,1.1,6.29,2.25c.75.27,1.51.54,2.25.84h0a6.24,6.24,0,0,1,.72.27q6.64,2.46,13.23,5.23,10,4.15,19.93,8.93a394.36,394.36,0,0,1,145,119.16,399.83,399.83,0,0,1,73.4,168.83c.08.19.17.39.24.57q.94,2.22,1.79,4.44s172.93,386,214.88,497.41c0,0-1.16,1.05-3.42,2.79l0,0c-2.47,1.91-6.2,4.65-11.09,7.76l-.16.11-.64.4c-.35.23-.71.45-1.09.68l-1.11.68-1.16.7a180.09,180.09,0,0,1-21.53,11q-2,.87-4.14,1.71c-.49.21-1,.4-1.5.59s-1.05.4-1.57.6-.82.32-1.25.47c-.87.32-1.73.64-2.61.94-.62.23-1.26.44-1.89.66l-.94.32c-1.22.41-2.45.81-3.71,1.2l-.35.1a1.39,1.39,0,0,1-.19.06h0l-1.52.47q-2.53.75-5.14,1.44l-2.47.63q-3.39.86-6.9,1.57l-.15-.37c-.05-.1-.09-.22-.16-.36-.26-.61-.68-1.62-1.24-3l-2.4-5.7c-.13-.32-.28-.65-.42-1s-.28-.68-.44-1l-.46-1.09c-.36-.87-.74-1.78-1.15-2.73q-1.16-2.79-2.54-6c-.48-1.14-1-2.32-1.48-3.55-.34-.77-.67-1.57-1-2.38l-.4-.93q-1.38-3.27-2.89-6.82c-.58-1.36-1.17-2.75-1.77-4.18l-3.11-7.3c-.88-2-1.77-4.16-2.69-6.32-.3-.68-.59-1.37-.89-2.06q-3.54-8.31-7.5-17.54c-.52-1.22-1.05-2.46-1.59-3.69q-4.36-10.2-9.15-21.25l-1.76-4.08c-5.07-11.72-10.42-24-16-36.67l-2.78-6.35q-1.41-3.19-2.81-6.39c-.92-2.08-1.84-4.18-2.76-6.27l-4.39-9.94c-.83-1.88-1.67-3.77-2.5-5.67-22.28-50.21-45.93-102-65.41-141-5.7-11.44-11-21.79-15.9-30.68a397.42,397.42,0,0,1-19.74,49.06q-1.26,2.6-2.53,5.17h0q-6.39,12.83-13.62,25a395,395,0,0,1-67.21,84.83c-1.57,1.5-3.15,3-4.74,4.45a392.42,392.42,0,0,1-76.06,55.06q-7,3.88-14.11,7.47a401.27,401.27,0,0,1-48.3,20.53q-10.82,3.78-21.71,6.91-6.66,1.92-13.35,3.59c-1.5.37-3,.75-4.51,1.11-1.17.28-2.35.56-3.54.82a5.07,5.07,0,0,1-.56.13l-1,.23c-1,.23-2,.46-3,.67a1.38,1.38,0,0,1-.2,0c-1.3.3-2.62.57-3.92.83l-3.35.68c-1.12.23-2.23.44-3.36.65-.84.16-1.7.33-2.55.47l-2.3.41-1.86.32c-.92.17-1.83.32-2.75.46-.76.13-1.51.25-2.27.36s-1.69.28-2.54.4c-1.12.17-2.26.34-3.4.49l-.88.13-.47.07c-1.72.24-3.45.47-5.17.68l-2.69.32-2.7.31-.24,0c-1.6.18-3.21.35-4.81.51l-2.6.24-3.71.33-3.72.28c-.82.07-1.63.12-2.45.16q-14.7,1-29.41.84h0a398.09,398.09,0,0,1-285.46-125.23h0q-3.15-3.36-6.19-6.77-58.71-22.45-117.6-44.4c-36.95-13.72-74.14-27.3-111.91-38.6.6,1.75,1.23,3.5,1.85,5.24,47.51,132.62,145.15,247.34,282.08,313.27a549.19,549.19,0,0,0,155.92,48.18,564.66,564.66,0,0,0,77.3,6.37l-.27.58,24.2-.65c2.5-.07,5-.1,7.52-.16s4.76-.12,7.14-.25l111.35-3,39.52-1.06,140.72-3.79,42.9-1.15h0l85.11-2.28,96.94-2.61,17.35-.46,15.62-.43,17.91-.48,17.5-.46,15.95-.44,90.43-2.43,11.46-.3,56.68-1.53,302.91-8.13Zm-1093-762.3a.22.22,0,0,0,0,.06h0c.84-.11,7.94-1.23,6.14-9.7q-5.67,2.16-11.29,4.48c-5.51,2.26-11,4.62-16.46,7.06q-10.08,4.51-20,9.44-8.9,4.39-17.61,9.12c4.87,3.79,10.64,7.61,15.18,8.73a12.38,12.38,0,0,0,1.39.25c9.67,1.15,14.28-.37,17-4.9,0,0,9.45-.17,14.06-12.83a10.1,10.1,0,0,0,7.6-.85l.12-.07a9.56,9.56,0,0,0,4.08-9.3l-.35-1.42a1.27,1.27,0,0,0,0-.14l0,0Z"/><path class="cls-11" d="M1936.73,1497.8l154.45,378.71,81.68-2.2L1957.34,1441S1957.15,1458.4,1936.73,1497.8Z"/><path d="M2105.44,2354.85s57.35,69.47,53.89,90,69.4-45.13,69.4-45.13-63.41-81.39-63-86.8S2105.44,2354.85,2105.44,2354.85Z"/><path class="cls-12" d="M2231.2,2381.87a152,152,0,0,1,12,22.73c6.78,16.41,14.45,35.26,14.45,35.26s20.18,2.36-48,38.51c-48.61,25.77-88.31,44.51-108.4,48.78-8.09,1.72-13,1.1-14-2.35-.11-.39-.25-.8-.4-1.25-2.08-6-7.75-17-13.35-27.26-6.89-12.64-13.69-24.24-13.69-24.24s26.66-29.43,44.39-54.56,30.33-38,43.79-17,56.31-3.86,62.8-24.11C2215.1,2362.88,2225.89,2373.9,2231.2,2381.87Z"/><path class="cls-13" d="M2209.64,2478.37c-48.61,25.77-88.31,44.51-108.4,48.78a128.28,128.28,0,0,1-14.41-3.6c-2.08-6-7.75-17-13.35-27.26,2.2-11.46-13.69-24.24-13.69-24.24s10.57-7.94,44.4,13.75c20.42,13.09,139-81.2,139-81.2,6.78,16.41,14.45,35.26,14.45,35.26S2277.81,2442.22,2209.64,2478.37Z"/><path d="M2103.78,2436a6.11,6.11,0,1,0,8,3.23A6.12,6.12,0,0,0,2103.78,2436Z"/><path d="M2095.21,2452.62a6.24,6.24,0,1,0,8.18,3.3A6.24,6.24,0,0,0,2095.21,2452.62Z"/><path d="M2114.2,2421.5a5.9,5.9,0,1,0,7.74,3.12A5.91,5.91,0,0,0,2114.2,2421.5Z"/><path d="M2128.77,2398.36a8,8,0,1,0,10.45,4.21A8,8,0,0,0,2128.77,2398.36Z"/><path class="cls-2" d="M2134,2413a3,3,0,0,0-.71-5.65c-22.87-3.41-25.11-.09-26,1.16a14.25,14.25,0,0,0-2.36,8.14,5.34,5.34,0,0,0,1.79,3.08s1.06-1.21,2-2.48c.51-.69.86-1.44,1.28-1.92,1.2-1.38.39-2.49,2-3.16s12.3-.18,20.4,1A3,3,0,0,0,2134,2413Z"/><path class="cls-2" d="M2117.66,2429.69a3,3,0,0,0,1.29-1.05,3,3,0,0,0-.78-4.11c-16.24-11.12-19-9.35-20.31-8.5-3.89,2.5-3.08,8.58-3,9.22a7.61,7.61,0,0,0,1.17,3s3.34-3.13,3.12-4.75c-.11-.9,1.35-1.43,2.16-1.58s8.42,4,13.52,7.5A2.94,2.94,0,0,0,2117.66,2429.69Z"/><path class="cls-2" d="M2107.34,2444.35a3,3,0,0,0-.07-5.46h0c-.09,0-9.29-3.77-13.05-9.88a3,3,0,1,0-5,3.1c4.8,7.79,15.45,12.09,15.9,12.27A2.92,2.92,0,0,0,2107.34,2444.35Z"/><path class="cls-2" d="M2098.59,2460.56a3,3,0,0,0,.58-5.11c-.32-.24-7.21-5.52-8.69-18.66a3,3,0,1,0-5.88.66c1.8,15.93,10.73,22.52,11.11,22.79A2.94,2.94,0,0,0,2098.59,2460.56Z"/><path class="cls-2" d="M2253.09,2428.74l4.54,11.12s-.42,15.18-8.54,20.19c-5.16,3.17-64.12,32.86-106.8,53.41-24.58,11.85-43.75,20.65-44.16,19.63a1.75,1.75,0,0,1-.09-.35c-19.18,9.59-46.73,23.38-48.29,24.42-2.19,1.45-20.8,4.14-32.71-20.7a73.79,73.79,0,0,1-3-7.26c-12.06-34.22,18.54-53.49,45.73-57.15,14.41-1.94,29.42,12.62,40.37,26.74,1.12,1.44,12.42,15.1,26.47,8.87C2141.47,2501.09,2253.09,2428.74,2253.09,2428.74Z"/><path class="cls-14" d="M2202.24,2473.72c-25.39,21.07-103.7,60.39-104.11,59.37a1.75,1.75,0,0,1-.09-.35c-19.18,9.59-46.73,23.38-48.29,24.42-2.19,1.45-20.8,4.14-32.71-20.7,0,0,52.41,7.35,112.92-26C2141.61,2504.06,2183,2482,2202.24,2473.72Z"/><path d="M2026.15,2549.68s10.28,15.91,122.26-45.88,109.22-63.94,109.22-63.94,23.14-1.38,8,15.78c-13.53,15.38-203.33,120.18-239.17,114.72,0,0-8-1-10.94-5.73S2016,2550.11,2026.15,2549.68Z"/><path d="M1602.48,2423s-10,89.53-27.13,101.32,80.7,18.44,80.7,18.44,14.34-102.18,18.51-105.64S1602.48,2423,1602.48,2423Z"/><path class="cls-12" d="M1678.06,2516.61c-.37,3.25-2,13.41-3.83,24.59-2.91,17.52-6.35,37.57-6.35,37.57s15.89,12.67-61.08,7.37c-54.89-3.78-98.51-8.83-117.81-15.81-7.79-2.8-11.62-5.92-10.66-9.39.11-.38.21-.81.31-1.27,1.4-6.18,2.39-18.51,3.06-30.2.82-14.37,1.17-27.81,1.17-27.81s38.18-10.93,66.5-22.9,45.84-16.29,46.17,8.69,48.82,29,65.75,16.13S1679,2508.25,1678.06,2516.61Z"/><path class="cls-13" d="M1606.8,2586.14c-54.89-3.78-98.51-8.83-117.81-15.81a125,125,0,0,1-10.35-10.66c1.4-6.18,2.39-18.51,3.06-30.2,7.92-8.58,1.17-27.81,1.17-27.81s13.17-1.16,30.45,35.12c10.43,21.9,160.91,4.42,160.91,4.42-2.91,17.52-6.35,37.57-6.35,37.57S1683.77,2591.44,1606.8,2586.14Z"/><path d="M1539.27,2494.28a6.11,6.11,0,1,0,5.1,7A6.1,6.1,0,0,0,1539.27,2494.28Z"/><path d="M1523.21,2503.86a6.24,6.24,0,1,0,5.21,7.12A6.23,6.23,0,0,0,1523.21,2503.86Z"/><path d="M1555.77,2487.46a5.9,5.9,0,1,0,4.93,6.73A5.9,5.9,0,0,0,1555.77,2487.46Z"/><path d="M1580.36,2475.5a8,8,0,1,0,6.65,9.09A8,8,0,0,0,1580.36,2475.5Z"/><path class="cls-2" d="M1578.69,2486.29a3,3,0,0,0,2.36-5.18c-17.62-15-21.27-13.33-22.65-12.71a14.17,14.17,0,0,0-6.3,5.66,5.37,5.37,0,0,0-.11,3.56s1.54-.46,3-1c.8-.31,1.5-.77,2.11-.95,1.75-.54,1.64-1.92,3.32-1.66s10.54,6.34,16.79,11.65A3,3,0,0,0,1578.69,2486.29Z"/><path class="cls-2" d="M1554.38,2496.24a3,3,0,0,0,3.17-4.12c-7.93-18-11.2-18-12.77-17.94-4.63.07-7.15,5.67-7.41,6.25a7.71,7.71,0,0,0-.58,3.16s4.49-.89,5.16-2.38c.38-.83,1.9-.5,2.66-.21s5,7.85,7.53,13.51A3,3,0,0,0,1554.38,2496.24Z"/><path class="cls-2" d="M1537.88,2503.24a3,3,0,0,0,2.83-4.68h0c-.06-.08-5.9-8.1-5.87-15.27a3,3,0,0,0-5.91,0c0,9.15,6.73,18.42,7,18.81A2.93,2.93,0,0,0,1537.88,2503.24Z"/><path class="cls-2" d="M1521.89,2512.39a3,3,0,0,0,3.19-4c-.15-.38-3.22-8.5,2.47-20.45a3,3,0,1,0-5.34-2.54c-6.89,14.48-2.78,24.79-2.6,25.22A3,3,0,0,0,1521.89,2512.39Z"/><path class="cls-2" d="M1669.9,2566.94l-2,11.83s-8.37,12.68-17.91,12.64c-6,0-71.8-5.95-118.9-11-27.13-2.91-48.06-5.56-47.87-6.64a1.7,1.7,0,0,1,.11-.35c-21.35-2-52-4.81-53.9-4.75-2.63.08-19.85-7.47-16.85-34.85a75.49,75.49,0,0,1,1.3-7.75c7.83-35.42,44-35.63,69-24.38,13.26,6,18.32,26.24,20.16,44,.2,1.81,2.58,19.38,17.81,21.51C1536.9,2569.44,1669.9,2566.94,1669.9,2566.94Z"/><path class="cls-14" d="M1603,2578.29c-32.69,4.48-120-3.47-119.77-4.55a1.7,1.7,0,0,1,.11-.35c-21.35-2-52-4.81-53.9-4.75-2.63.08-19.85-7.47-16.85-34.85,0,0,40.63,33.91,109.61,37.55C1535.46,2572,1582.25,2575.12,1603,2578.29Z"/><path d="M1413.31,2549.82s.34,18.94,128.06,25.59,126.51,3.36,126.51,3.36,20.39,11.05-1.5,17.66c-19.61,5.91-236.13-5.29-263.68-28.86,0,0-6.24-5.07-6.27-10.64S1404.43,2544.81,1413.31,2549.82Z"/><path class="cls-15" d="M1849.11,1622c-1.57,1.5-3.15,3-4.74,4.45a392.42,392.42,0,0,1-76.06,55.06q-7,3.88-14.11,7.47a401.27,401.27,0,0,1-48.3,20.53q-10.82,3.78-21.71,6.91-6.66,1.92-13.35,3.59a396.51,396.51,0,0,1-68.11,11c-.82.07-1.63.12-2.45.16,1-50.72,1.94-85.94,1.94-85.94a142.71,142.71,0,0,1,26.27,1.81,178.73,178.73,0,0,1,23.85,5.3c-4.63-16.41-8.67-31.32-11.69-42.68-3.6-13.53-5.75-22-5.75-22l12.7,2,28.77,4.62,93.4,15,69.11,11.1Z"/><path class="cls-15" d="M2174.28,2312.48s-1.77,21.05-14.17,35.38a37.77,37.77,0,0,1-11.14,8.91c-13.64,7.08-28.8,13.14-42.32,14.37,0,0-225.74-223.2-250.59-252.58-13.2-15.6-43.43-98.15-70.36-159.4-5.91-13.42-15.58-38.43-27.45-66-10.73,45.77-25.39,121-22.56,189.35,4.36,105.7-55.33,385-55.33,385a171.12,171.12,0,0,1-45.92-3l0,0a133.61,133.61,0,0,1-21.42-6.18h0a100.66,100.66,0,0,1-20.61-10.67s25.49-302.59,12.43-359.61c-5.61-24.43-6.88-109.28-6.49-198.27,2.38,0,4.76-.12,7.14-.25l111.35-3,39.52-1.06,140.72-3.79,42.9-1.15h0c.13,1,.28,2,.42,3,.45,3.29.91,6.55,1.38,9.8.26,1.84.51,3.66.77,5.48,1.8,12.46,3.61,24.62,5.42,36.3q.24,1.46.45,2.88c.06.35.11.7.17,1,.25,1.57.49,3.13.74,4.68q.67,4.23,1.36,8.39.43,2.76.9,5.48c.47,2.86,1,5.68,1.42,8.46.25,1.47.5,2.91.76,4.35.31,1.86.64,3.71,1,5.54.36,2,.72,4,1.08,6,.31,1.7.62,3.38.93,5,.22,1.19.44,2.37.67,3.54.12.62.23,1.23.35,1.85,1.27,6.54,2.52,12.68,3.76,18.32q.18.84.36,1.65c1.08,4.88,2.16,9.38,3.22,13.45.11.45.23.9.35,1.34s.23.87.35,1.31c.35,1.29.69,2.54,1,3.73l.06.25.59,2c.16.52.32,1,.48,1.53.3,1,.62,1.91.92,2.81.12.33.23.65.33,1l.34.93c.56,1.52,1.11,2.89,1.66,4.1.1.24.21.47.31.7a18,18,0,0,0,2.85,4.57C2019.52,2097.22,2174.28,2312.48,2174.28,2312.48Z"/><path class="cls-16" d="M1844.37,1626.47a392.42,392.42,0,0,1-76.06,55.06q-7,3.88-14.11,7.47c-.1-3.4-.14-6.33-.14-8.67,0-21.75-13.23-29.95-24.77-22.92s-39.66-13.16-46.2-13.16c-3.69,0-1.12,38,1.1,72.19q-6.66,1.92-13.35,3.59a396.51,396.51,0,0,1-68.11,11c4.72-15.82,15.2-50.62,25.76-84,4.16-13.09,8.32-26,12.16-37.38,2.48-7.39,4.83-14.16,6.95-20,.64-1.77,1.26-3.46,1.86-5.05,5-13.24,16-20.82,29.38-25.1,29.77-9.52,71.41-2.82,85.44-6,1.56-.35,3.78.29,6.57,1.78,13.62,7.31,40.64,34.85,68,65.12Z"/><path class="cls-16" d="M2174.28,2312.48s-1.77,21.05-14.17,35.38c0,0-179.79-192.39-211.42-234.21-29.11-38.5-41.64-162.1-51.67-231.93l42.9-1.15c.14,1,.29,2,.43,3,.45,3.29.91,6.55,1.38,9.8.26,1.84.51,3.66.77,5.48,1.8,12.46,3.61,24.62,5.42,36.3q.24,1.46.45,2.88c.06.35.11.7.17,1,.25,1.57.49,3.13.74,4.68q.67,4.23,1.36,8.39.43,2.76.9,5.48c.47,2.86,1,5.68,1.42,8.46.25,1.46.5,2.9.76,4.35.31,1.86.64,3.71,1,5.54.36,2,.72,4,1.08,6,.31,1.7.62,3.38.93,5,.22,1.19.44,2.37.67,3.54.12.62.23,1.23.35,1.85,1.27,6.54,2.52,12.68,3.76,18.32q.18.84.36,1.65c1.08,4.88,2.16,9.38,3.22,13.45.11.45.23.9.35,1.34s.23.87.35,1.31c.35,1.29.7,2.54,1,3.73l.06.25.59,2c.16.52.32,1,.48,1.53.3,1,.62,1.91.92,2.81.12.33.23.65.33,1l.34.93c.56,1.52,1.11,2.89,1.66,4.1.1.24.21.48.31.7a18,18,0,0,0,2.85,4.57C2019.52,2097.22,2174.28,2312.48,2174.28,2312.48Z"/><path class="cls-10" d="M1680,902.59a196.24,196.24,0,0,1-1.41,48.82,397.5,397.5,0,0,0-461.62,211c-71.8,149.1-41.84,321.29,62.2,437.54q-58.71-22.45-117.6-44.4c-36.95-13.72-74.14-27.3-111.91-38.6-46.5-133.93-42.08-285.57,24.29-423.41a553.07,553.07,0,0,1,224.67-241.25q5.46-3.12,11-6.11c4.87,3.79,10.64,7.61,15.18,8.73a12.38,12.38,0,0,0,1.39.25c9.67,1.15,14.28-.37,17-4.9,0,0,9.45-.17,14.06-12.83a10.1,10.1,0,0,0,7.6-.85l.12-.07a9.56,9.56,0,0,0,4.08-9.3l-.35-1.42a1.27,1.27,0,0,0,0-.14l0,0,0,0a.22.22,0,0,0,0,.06h0c.84-.11,7.94-1.23,6.14-9.7.15-.07.32-.13.48-.19q10.59-4.06,21.36-7.71a554,554,0,0,1,373.45,6.28C1723.32,822.23,1676.23,860.6,1680,902.59Z"/><path class="cls-1" d="M1375.47,815.92c-.16.06-.33.12-.48.19,1.8,8.47-5.3,9.59-6.14,9.7h0a.22.22,0,0,1,0-.06l0,0,0,0a1.27,1.27,0,0,1,0,.14l.35,1.42a9.56,9.56,0,0,1-4.08,9.3l-.12.07a10.1,10.1,0,0,1-7.6.85c-4.61,12.66-14.06,12.83-14.06,12.83-2.76,4.53-7.37,6.05-17,4.9a12.38,12.38,0,0,1-1.39-.25c-4.54-1.12-10.31-4.94-15.18-8.73q-5.52,3-11,6.11c-.32-.54-.62-1.09-.91-1.62-10.72-19.7,10.71-29,10.71-29-2.07-21.09,14.18-17.63,14.18-17.63,3.88-16.85,15.89-9,15.89-9s1.54-3.66,6.91-5.17c3.57-1,7.68,1.06,11.43,4.11l.11.09.31.25c.35.31.92.79,1.63,1.44l.38.35.38.36a76.9,76.9,0,0,1,9.27,11s3.34,4,3.83,4.8c5.64,5.09,6.44,1.82,5.62-13.13-1-18.3,11.55-15.7,11.55-15.7,4.76,5.77,6.61,14.89,6.89,24.74Q1386.08,811.84,1375.47,815.92Z"/><path class="cls-9" d="M1299.47,837.46a10.35,10.35,0,0,1,3.51,1.12,14.15,14.15,0,0,1,5,4.32,10.54,10.54,0,0,1,1.62,3.31,8.94,8.94,0,0,1-3.62-.88,12,12,0,0,1-2.87-1.86,12.12,12.12,0,0,1-2.26-2.57A9.2,9.2,0,0,1,1299.47,837.46Z"/><path class="cls-9" d="M1338.52,795.05a76.11,76.11,0,0,1,8.67,6.56c2.72,2.34,5.34,4.8,7.85,7.35s4.94,5.19,7.25,7.95a75.07,75.07,0,0,1,6.42,8.77,77.18,77.18,0,0,1-8.66-6.56q-4.1-3.52-7.85-7.36t-7.24-8A76.27,76.27,0,0,1,1338.52,795.05Z"/><path class="cls-9" d="M1368.84,825.81l-1,1.19c-.19.22-.29.32-.29.32a3.58,3.58,0,0,1,.25-.35l1-1.22,1-1.19c.19-.22.29-.32.29-.32s-.08.12-.26.35Z"/><path class="cls-9" d="M1369.36,826.33a12.24,12.24,0,0,1-1.24,1c-.26.16-.4.21-.44.17s0-.18.17-.43a7,7,0,0,1,2.25-2.2c.25-.16.39-.21.44-.17s0,.19-.18.43A11.93,11.93,0,0,1,1369.36,826.33Z"/><path class="cls-9" d="M1322.63,804a95.7,95.7,0,0,1,9.75,7.23q4.65,3.86,9,8.05t8.38,8.66a94.35,94.35,0,0,1,7.56,9.48,96.75,96.75,0,0,1-9.77-7.23q-4.63-3.87-9-8.05t-8.36-8.65A99.11,99.11,0,0,1,1322.63,804Z"/><path class="cls-9" d="M1308.45,821.67a85,85,0,0,1,9.7,5.94q4.62,3.24,9,6.83c2.9,2.38,5.72,4.87,8.43,7.48a84,84,0,0,1,7.7,8.37,84.28,84.28,0,0,1-9.71-5.95q-4.62-3.23-9-6.82c-2.9-2.39-5.71-4.87-8.42-7.49A84,84,0,0,1,1308.45,821.67Z"/><path class="cls-1" d="M1807.59,1125.21a120.47,120.47,0,0,0-4.75,24.81,284.25,284.25,0,0,0-.32,45.93s-24,36.13-45.58,37.06c-16.94.74-33.4-33.35-29.51-35.2,5.76-2.76,8-30.25,8.86-49.07.47-10.08.53-17.66.53-17.66S1816.39,1098.13,1807.59,1125.21Z"/><path class="cls-9" d="M1801.8,1168.05s-23.48,30-36.84,28.93-30.29-25.6-30.29-25.6l-5.62,34.3s-.75,27.93,38.35,12.59,34.34-42.7,34.34-42.7Z"/><path class="cls-9" d="M1807.59,1125.21a120.47,120.47,0,0,0-4.75,24.81c-31,9.59-66.55-1.28-66.55-1.28.47-10.08.53-17.66.53-17.66S1816.39,1098.13,1807.59,1125.21Z"/><path class="cls-1" d="M1894.11,1095c-20.52,12-33.07,1.65-33.07,1.65s-14.33,21.29-35.85,33.52-53.85,23.52-105.64,5.22c-19.2-6.78-31.63-18.38-39.13-31.07-12.75-21.54-11.34-46.25-4.94-56,10.16-15.43,20.34-53.92,35.22-113s46.79-57.24,46.79-57.24,72.24,26.33,108.14,39.59l6.67,2.46c32.62,12.09,13.11,113.46,28.73,120.43S1914.65,1083,1894.11,1095Z"/><path class="cls-17" d="M1877.34,1063.31s-26.65-32.38-35.59-67.34c-6.15-24.13,15.88-43.46-6.39-56.73-10.5-6.25-43.65-20.76-73.2-8-31.2,13.49-86.68,117.09-81.72,173.07h0c-12.75-21.54-11.34-46.25-4.94-56,10.16-15.43,20.34-53.92,35.22-113s46.79-57.24,46.79-57.24,72.24,26.33,108.14,39.59c5.42,16.89,6,33,3.08,40.36C1864.81,967.81,1877.34,1063.31,1877.34,1063.31Z"/><path class="cls-18" d="M1862,927s-18.65,12.71-44.71-7.65-57.1-16.92-96.39-8.58S1753,810,1800.49,825.51,1867.53,891.43,1862,927Z"/><path class="cls-19" d="M1854.73,929.93s-17.18,1.51-29.8-27.15-64.68-29.67-103.64-16c0,0,31.49-60,60-63.61s64.54,2.66,74.58,35.93S1862,927,1862,927Z"/><path class="cls-20" d="M1862,927c.22-3.87-69.6-149.8-164.57-40.06,0,0,38.85-65.37,80.39-65.18s79.74,12.68,83.23,40,12.68,64.6,8.12,73S1862,927,1862,927Z"/><path class="cls-21" d="M1901.55,908.08h0c0,.11-.06.2-.08.31-3.79,15.44-10.37,21.85-17.09,23.84-5.05,1.52-10.17.53-14.23-1-.42-.15-.81-.32-1.21-.48h0a39,39,0,0,1-6.23-3.31l-.7-.5v0h0v0a.35.35,0,0,1,0-.06c0-.11-.09-.33-.15-.61a.14.14,0,0,1,0-.06h0c-.29-1.07-.86-3.23-1.72-6.17-.43-1.44-.91-3.07-1.48-4.87-4.7-15-14.3-41.32-28.91-61.15v0c-13-17.61-29.93-30.07-50.87-24.9-.69.18-1.36.35-2,.56-.27.08-.53.15-.78.24l-.68.23q-.49.17-1,.36c-.27.09-.52.2-.77.3-.44.17-.85.36-1.27.56s-.66.3-1,.47a28.49,28.49,0,0,0-3.61,2.12l-.76.55c-.65.47-1.27,1-1.86,1.48-.33.29-.66.58-1,.88a2.2,2.2,0,0,0-.31.3c-.33.32-.64.63-1,1-.13.13-.26.27-.38.41-.36.39-.7.78-1,1.2s-.64.79-1,1.2l-.08.11c-.36.48-.7,1-1,1.47s-.63,1-.94,1.47l0,.1c-.23.38-.46.77-.68,1.17a4.83,4.83,0,0,0-.3.55c-.27.48-.52,1-.78,1.47s-.55,1.13-.81,1.71c-.51,1.14-1,2.31-1.45,3.52a.52.52,0,0,0-.06.15c-.22.58-.42,1.17-.63,1.77-.44,1.26-.86,2.55-1.24,3.88s-.69,2.47-1,3.74c-.23.89-.45,1.8-.65,2.71-.14.56-.27,1.12-.39,1.69,0,.23-.11.46-.15.69-.1.46-.2.93-.31,1.42-.57,2.74-1.1,5.57-1.62,8.47-.15.88-.3,1.75-.47,2.65,0,.15-.05.31-.07.46a.14.14,0,0,0,0,.09c-.66,3.82-1.33,7.74-2,11.73-.17.93-.34,1.86-.52,2.81q-.52,2.81-1.09,5.66c-.17.76-.32,1.53-.48,2.29-.07.32-.15.65-.21,1q-.32,1.47-.66,2.94c-.19.79-.37,1.58-.56,2.38s-.46,1.85-.7,2.77c0,.15-.08.31-.11.46-.32,1.17-.63,2.34-1,3.51-.18.62-.35,1.22-.54,1.83q-.8,2.75-1.74,5.46c-.2.6-.4,1.18-.61,1.77-.68,1.9-1.4,3.81-2.19,5.69-.4.95-.79,1.89-1.22,2.82a4.91,4.91,0,0,1-.25.57c-.26.59-.54,1.18-.81,1.76s-.55,1.14-.84,1.71a1.3,1.3,0,0,1-.08.17c-.27.55-.56,1.1-.84,1.65-.61,1.17-1.25,2.34-1.92,3.49s-1.32,2.27-2,3.4c-.41.63-.81,1.27-1.23,1.89s-.71,1-1.07,1.57-.57.81-.87,1.21-.39.57-.61.86-.62.85-.95,1.27l-1.28,1.65c-.44.55-.88,1.09-1.34,1.63s-.81.95-1.21,1.42q-2.19,2.52-4.63,4.93l-.34.33c-.75.73-1.52,1.46-2.31,2.17l-1.14,1c-.11.11-.23.2-.34.3l-1,.9a99.27,99.27,0,0,1-8,6.14.65.65,0,0,1-.15.1c-.58.41-1.17.81-1.78,1.19-.78.53-1.58,1-2.39,1.54l0,0a135.33,135.33,0,0,1-29.67,13.4c.3-.5,7.78-13.92,11.66-38.17a196.24,196.24,0,0,0,1.41-48.82c-3.8-42,43.29-80.36,90.25-88.1h0c15-2.48,29.89-1.83,43.16,2.79,34.94,12.16,65.07,29.22,79.81,50.51h0a54.54,54.54,0,0,1,8.19,17.47h0c.06.2.1.4.15.61A46.94,46.94,0,0,1,1901.55,908.08Z"/><path class="cls-20" d="M1904.83,911.31C1894.85,952.06,1862,927,1862,927s1.32-6.68,3.29-14.73c6.07-21.75,23.9-26.12,36.33-26.37C1903.35,893,1906.76,903.44,1904.83,911.31Z"/><path class="cls-21" d="M1936.32,1017c-4.32,5.25-8.21,9.53-11.65,13-12.16,12.26-18.69,14.39-18.69,14.39-22.37-11.24-28.64,18.92-28.64,18.92s-5.58-10.27-11.69-24.5h0c-9.76-22.77-20.84-55.68-12.58-72.93,13.44-28.07,3.2-22.56,8.93-38.89s19-18.46,19-18.46,15-4.91,38.83,4.76C1951.77,926.28,1955.91,993.14,1936.32,1017Z"/><path class="cls-20" d="M1924.67,1030c-12.16,12.26-18.69,14.39-18.69,14.39-22.37-11.24-28.64,18.92-28.64,18.92s-5.58-10.27-11.69-24.5h0C1870.28,994.88,1924.67,1030,1924.67,1030Z"/><path class="cls-22" d="M1829.69,854c-13-17.61-29.92-30.07-50.86-24.9-50.09,12.39-10.08,102.47-82.16,147.08,44.35-30.23,34.21-137,74.66-150.38C1811.27,812.56,1829.23,852.92,1829.69,854Z"/><path d="M1727.38,996.59a5,5,0,0,0-3.94-5.06c-2.52-.46-6,1.1-9,10.08-4.73,13.81,6.75,11.83,10.5,4.21A21.81,21.81,0,0,0,1727.38,996.59Z"/><path d="M1789,1016a5,5,0,0,0-3.93-5.06c-2.52-.45-6,1.11-9,10.08-4.73,13.82,6.75,11.83,10.49,4.21A21.51,21.51,0,0,0,1789,1016Z"/><path class="cls-9" d="M1748,1008.77s-31.12,32.46-28.16,39.3,20.82,11.35,20.82,11.35-14.93-5.6-12.07-16.54S1748,1008.77,1748,1008.77Z"/><path class="cls-23" d="M1713,962.53a33.68,33.68,0,0,1,9.81-2,43.62,43.62,0,0,1,10,.49,32.14,32.14,0,0,1,9.68,3.2,19.59,19.59,0,0,1,4.24,3,12,12,0,0,1,3,4.23,31.32,31.32,0,0,0-8.68-3.64c-3-.8-6-1.38-9-1.91l-9.33-1.51C1719.45,963.91,1716.27,963.37,1713,962.53Z"/><path class="cls-23" d="M1789,979.84a20.38,20.38,0,0,1,10.2.87,30,30,0,0,1,9.12,4.91c.67.54,1.3,1.14,2,1.71l.94.89c.29.32.59.64.87,1,.56.65,1.15,1.28,1.67,2s1,1.41,1.45,2.13l.69,1.08.59,1.14c.39.77.75,1.54,1.1,2.31a20.3,20.3,0,0,1,.83,2.42c.24.82.46,1.64.63,2.47-1.32-1.15-2.39-2.39-3.52-3.55-.59-.58-1.16-1.15-1.7-1.73l-.82-.87-.87-.81c-.57-.55-1.13-1.1-1.67-1.66l-1.73-1.55c-.29-.26-.57-.53-.85-.8l-.9-.73c-.59-.48-1.16-1-1.77-1.47a71.26,71.26,0,0,0-7.61-5.25A75.29,75.29,0,0,0,1789,979.84Z"/><path class="cls-9" d="M1763.29,1086.6s-31.91,5-64-11.88C1699.34,1074.72,1726.49,1099.48,1763.29,1086.6Z"/><circle class="cls-2" cx="1720.69" cy="996.44" r="2.08"/><circle class="cls-2" cx="1782.16" cy="1016.89" r="2.08"/><path d="M1666.1,1610.54l119.6-1s-2.74-25.63-6.72-27.12S1663.92,1556.31,1666.1,1610.54Z"/><path class="cls-24" d="M1666.1,1593.5s113.07,1.68,128.18-6.16,28.4-385.1,28.4-385.1l-52.35,7.21-12,.39s-44.29-45.11-53-24.46S1666.1,1593.5,1666.1,1593.5Z"/><path class="cls-15" d="M1716.47,1167.53s0,.1,0,.15a1.8,1.8,0,0,1,0,.22l-1,8.73c-.08.71-.16,1.46-.26,2.24l-.14,1.2,0,.32q-.33,2.8-.7,6.08h0c-.66,5.62-1.42,12.2-2.28,19.53-1.21,10.47-2.6,22.46-4.1,35.28-1.33,11.37-2.73,23.39-4.15,35.58l-3.62,31.12c-.41,3.47-.8,6.93-1.21,10.35l-7.21,61.88v.07l-.2,1.74-3.57,30.67-1.36,27.74h0l-3.68,74.86v.06c-1.52,14.26-2.86,29.12-4.05,44.13-.71,9-1.37,18-2,26.94-.16,2.39-.31,4.78-.47,7.15,0,.23,0,.45,0,.68-.35,5.42-.68,10.83-1,16.19-2.43,42.1-3.8,81.76-4.54,109.57-1.5.37-3,.75-4.51,1.11-1.17.28-2.35.56-3.54.82a5.07,5.07,0,0,1-.56.13l-1,.23-3,.67a1.38,1.38,0,0,1-.2,0c-1.3.3-2.62.57-3.92.83l-3.35.68c-1.12.23-2.23.44-3.36.65-.84.16-1.7.33-2.55.47s-1.53.28-2.3.41l-1.86.32c-.92.17-1.83.32-2.75.46-.76.13-1.51.25-2.27.36s-1.69.28-2.54.4c-1.12.17-2.26.34-3.4.49l-.88.13-.47.07c-1.72.24-3.45.47-5.17.68l-2.69.32-2.7.31-.24,0c-1.6.18-3.21.35-4.81.51l-2.6.24-3.71.33-3.72.28c-.82.07-1.63.12-2.45.16q-14.7,1-29.41.84h0a287.35,287.35,0,0,0-49.63-10.5c.75-6.94,1.74-14.69,3-23.12.21-1.39.42-2.8.62-4.22,20-134.07,91.73-427.7,92.22-438.12h0a.31.31,0,0,0,0-.09l0-.07h0a.15.15,0,0,0-.06-.1c-3.29-5.84-101.72-36.39-116.34-42-2.54-.63-6.35-1.65-11-3.07h0c-6.13-1.89-13.71-4.46-21.8-7.79l-.33-.13c-2.09-.87-4.22-1.79-6.37-2.77l-.07,0a166.77,166.77,0,0,1-20.47-10.94,11.36,11.36,0,0,1-1.07-.77h0c-18.76-14.84-56.56-116-81.14-186.29a399,399,0,0,1,70.12-36.16l70.85,145.1c52,5.14,114.13,33.92,152.32,39.27,33.32,4.67,50,9.93,58,13.42C1715,1166,1716.47,1167.53,1716.47,1167.53Z"/><path class="cls-25" d="M1704.91,1234.33c.74,4.66,3,11.57,11.77,6.16s21.81-22.77,29.09-14.18a56.55,56.55,0,0,1,9.89,16.15l-31.88,397.37s12.66-4.91,19-12,27.9-390.33,27.9-390.33-.28-6,3.39-1.74,8.64,22.26,14.61,19.78,24-13.69,24-13.69l25.16-38.66-67.52,6.26-12,.39-9.27-3-38.75-.9Z"/><path class="cls-2" d="M1712.06,1167.47s12.69.75,15.67,0,13.93,27.86,30.85,42.29c0,0,28.61-3,49.75-29.35,0,0,1-4.48,4.48-2s13.19,8,13.19,8-31.72,52.74-38.19,58.21c0,0-20.28-34.83-29.23-34.83,0,0-30.6,10-39.56,21.89C1719,1231.65,1713.55,1177.92,1712.06,1167.47Z"/><path class="cls-11" d="M1752.25,1229s-16.37,92.49-27.9,183-26.69,203.15-24.06,213.51l17.89,18.74,18.85-14.9c4.89-9.15,28.4-395.46,27.8-411.47C1764.83,1217.88,1753,1224.9,1752.25,1229Z"/><path class="cls-26" d="M1749.07,1206.87s-3.31,15.23.77,20.24,15.18,2.37,16.88,1.3,5-5.8,3.61-19l-12,.39Z"/><path class="cls-16" d="M1711.94,1167.67s-2.75-4.14-6.18-3.14-32.53,68.77-41.73,83.7-16.17,32.34-13.68,34.08,32.09,34.33,27.61,38.56-25.87,33.09-24.38,39.06,28.43,82.91,28.43,82.91l1.17-28.24Z"/><path class="cls-27" d="M1716.68,1165.77s-2.74-4.14-6.18-3.14-32.52,68.78-41.73,83.7-16.17,32.34-13.68,34.08,32.09,34.34,27.61,38.56-25.87,33.09-24.38,39.06,28.43,82.92,28.43,82.92l1.18-28.25Z"/><path class="cls-1" d="M2123.55,1794.7s6.31,16.2-1.18,37.46-2.82,29.33-.83,39.56-3.19,25.42,2.24,25.33,16.91-17.5,15.86-26.24,2.63-14.08,6.08-10.74,36.18,63.46,42.07,63.36,8.45-8.75,8.45-8.75,5.57,8.06,11.18,5,1.61-11.8,1.61-11.8,10.21,1,11.88-7.22-16-24.86-18.73-36.37-6.19-17.55-4.41-19.4,24.82,21.32,31.07,16.23-9.49-12.29-14.86-21.94-18.78-25.72-26.82-32.6-29.65-47-29.65-47Z"/><g class="cls-28"><path class="cls-9" d="M2196.24,1914.68a105.51,105.51,0,0,1-7.91-9.77,101.11,101.11,0,0,1-6.84-10.61c-1-2-1.78-3.83-2.69-5.69s-1.78-3.75-2.62-5.65c-1.75-3.78-3.44-7.6-4.9-11.55a109.85,109.85,0,0,1,7,10.46c1.1,1.78,2.08,3.63,3.1,5.47.49.93,1,1.87,1.43,2.83s.84,1.8,1.35,2.72c.94,1.79,2,3.58,3,5.36s2.1,3.57,3.12,5.39C2192.36,1907.25,2194.4,1910.89,2196.24,1914.68Z"/></g><g class="cls-28"><path class="cls-9" d="M2209,1907.9c-2.46-3.78-5-7.49-7.28-11.32-1.2-1.89-2.32-3.83-3.47-5.75l-3.35-5.82q-3.3-5.84-6.32-11.85c-2-4-4-8.06-5.62-12.26,2.76,3.58,5.26,7.31,7.66,11.1s4.7,7.63,6.89,11.55l3.21,5.9c1,2,2.08,4,3,6A90.86,90.86,0,0,1,2209,1907.9Z"/></g><path class="cls-17" d="M2125.93,1807.52s16.92-3.46,28-8.26,23.68-5.19,23.68-5.19L2160.16,1766l-36.61,28.7Z"/><path class="cls-15" d="M2182.39,1767.36s-28.26,25.37-74.45,34.9c0,0-85.9-205.59-139.82-313.68-5.7-11.44-11-21.79-15.9-30.68-10.43-19.12-18.56-31.55-23-33.68l.73,87.91h0q-6.39,12.83-13.62,25a395,395,0,0,1-67.21,84.83c-1.57,1.5-3.15,3-4.74,4.45a392.42,392.42,0,0,1-76.06,55.06l1.46-72.25,1.08-54,1.85-92.2,1.37-15.67a50.77,50.77,0,0,0,5.09,1.69l9-49.81,43.65-217.75s65.85,19,98.68,40.62a90.29,90.29,0,0,1,21.8,20.1,101.57,101.57,0,0,1,13.22,22.7c.08.19.17.39.24.57q.94,2.22,1.79,4.44S2140.44,1655.9,2182.39,1767.36Z"/><path class="cls-16" d="M1617,1256c0-5.27-141.53-48.08-156-56l-21.62-11.75,65.87,17.71s54.93,15.27,81.8,11.91,34.76.16,36.18,3.08C1623.24,1221,1623.75,1234.13,1617,1256Z"/><path class="cls-16" d="M1822.17,1182.45l-48.1,265-1.14,13s50-64.47,49.24-67.71-7.47-59.45-5.73-61.69,33.71-35,34.83-40-15.07-108.11-15.07-108.11-1.39-.1-5.68-2S1822.35,1175.42,1822.17,1182.45Z"/><path class="cls-27" d="M1817.79,1179.16l-43.72,268.24,5.1,1.68s39.36-56.47,38.62-59.7-7.47-59.46-5.72-61.7,33.7-35,34.82-40-15.11-106.13-15.11-106.13.37-3-3.92-4.86S1818,1172.13,1817.79,1179.16Z"/><path class="cls-16" d="M1929.94,1512.14q-6.39,12.83-13.62,25c-5-72.66-8.39-137.29-5-138.6,7.83-3,17.88,25.63,17.88,25.63Z"/><path class="cls-9" d="M1375.47,815.92c-.16.06-.33.12-.48.19a18.35,18.35,0,0,0-.73-2.55C1374.38,813.78,1374.91,814.8,1375.47,815.92Z"/><path class="cls-16" d="M1735.69,2082.54c4.36,105.7-55.33,385-55.33,385a171.12,171.12,0,0,1-45.92-3l0,0a133.61,133.61,0,0,1-21.42-6.18h0c86-43.53,93.23-433.18,100-476.11,2.63-16.7,3.45-55.25,3.81-95.68l39.52-1.06c1.24,4.84,2,7.68,2,7.68C1747.52,1939,1732.86,2014.15,1735.69,2082.54Z"/><path class="cls-1" d="M3185.07,2005.85s11.93,30,32.32,45,80.79,33.26,115.49,84.79,102.42,215,102.42,215,54.14,49.33,51.24,74.35-27.43,53.14-27.43,53.14-21.51-53.36-47.94-86.23-35.94-74.5-80.53-119.51-149.08-139-184.29-149.43-74-95.12-74-95.12S3171.52,1992.77,3185.07,2005.85Z"/><path class="cls-9" d="M3435.3,2350.68s47.17,92.35,22.38,125.43c0,0,37.05-26.6,22.49-55S3435.3,2350.68,3435.3,2350.68Z"/><path class="cls-9" d="M3072.34,2027.88l23.31,42.87s62.36-49.39,107.51-34L3181.08,1999S3070.68,1977.83,3072.34,2027.88Z"/><path class="cls-1" d="M3024.23,2030.09s-11.65,63-7.25,88,21.68,89,11.24,150.22-60.38,217.15-60.38,217.15-8.35,80.57-27.71,96.69-65,13-65,13,43.19-54.44,46.74-96.47,8.9-84.62,7.68-148,4.48-197.59-13.81-229.42-.37-129.56-.37-129.56S3023.46,2011.26,3024.23,2030.09Z"/><path class="cls-9" d="M2967.84,2485.42s-42.93,105.86-85.87,101.28c0,0,60.7,11.27,69.75-19.33S2967.84,2485.42,2967.84,2485.42Z"/><path class="cls-9" d="M2909.24,2041.9l-1.26,14.51s86.37-7.58,108.43,34.72l6.84-55.43S2942.57,2004.53,2909.24,2041.9Z"/><path class="cls-12" d="M2968,2488.62c-16.09,35-36.73,82.85-51.08,93.46-9.15,6.76-29.09,5.2-35,4.62a19.4,19.4,0,0,0-12.68,3.4,65.3,65.3,0,0,0-5.62,4.25l-.09.07c-24.8,17.1-20.92,22.21-19.78,23.12a.73.73,0,0,0,.5.15c3.83-.1,58.13,3.28,77.47-1.81,12.4-3.26,23.69-15.31,37.54-50.39h0l3.92,51.54h8.89l3.09-98.3h0l.45-1.51C2980,2502.72,2968.18,2488.29,2968,2488.62Z"/><path class="cls-12" d="M3435.3,2350.68c19.26,33.39,40.39,73.74,40.74,91.59.22,11.37-12.59,26.73-16.47,31.2a19.35,19.35,0,0,0-4.57,12.3,67.47,67.47,0,0,0,.22,7s0,.08,0,.12c-.41,30.12,6,29.91,7.41,29.51a.79.79,0,0,0,.41-.32c2.13-3.18,36.31-45.52,43.35-64.24,4.51-12,1.22-28.18-19.38-59.77h0l44.3,26.63,5.15-7.26-78.39-59.39h0l-1-1.24C3447.82,2344.9,3435.11,2350.36,3435.3,2350.68Z"/><path class="cls-15" d="M2870.92,1764.56s12.25,137.94,17.64,276.8c0,0,178.28,32.18,335.53-54.26,0,0-51.49-343-84.6-347.61S2870.92,1764.56,2870.92,1764.56Z"/><path class="cls-16" d="M3163.58,1685.41s-75.18,67.19-154.67,99.38c-76.49,31-132.84,43.64-132.84,43.64l-5.15-63.87,282.5-107.09Z"/><path class="cls-21" d="M3066.33,1314.86c-35.64-18.46-75.29-58.47-107.25-100,14.86,13.74,30.89,26,46.93,33.83,59,28.76,86.63,58.67,86.63,58.67s-12.84-22.63-75.08-62.41c-47-30-98.49-97.52-121-128.85-28.93-47.56-73.63-108.41-130.25-121.45-22.21-5.12-50.82-1.47-71.57,15.43,0,0-33.8,1.5-46.2,45.56S2660,1122.9,2660,1122.9s-2.66-39.51,26.69-51.46c0,0,32.3,34.65,112.41,45.78,0,0,11.87-21.15,29.09-8.87s-7,46.08-7,46.08l-104.39,76.37,6.2,102.46L2879,1572.62s220.75-146.74,231.66-171.13S3119.59,1342.46,3066.33,1314.86Z"/><path class="cls-20" d="M2839.48,1154.92s30.12,83.65,144.46,141.14,116.45,117.16,116.45,117.16L3024,1472.9l-175.3-220.31-27.52-98.16Z"/><path class="cls-20" d="M2832.79,1113.7s19.21,18.6,6.69,41.22A65.05,65.05,0,0,1,2829,1165l-6.53-10.93S2846.22,1149.76,2832.79,1113.7Z"/><path class="cls-18" d="M2801.85,1106.22a219.12,219.12,0,0,0,10.7,26.32c8.4,17.34,23.67,46.8,48.11,87.35,41.81,69.35,249.31,127.06,190.59,212.73s-227.08,125.13-227.08,125.13-114.56-150.53-79.8-351.34C2772.88,1041.68,2794.87,1085.25,2801.85,1106.22Z"/><path class="cls-1" d="M2759.27,1222.78s11.23,52.62-1.92,86.63,56.15,23.1,63.53,11.55,15.72-43.44,15.72-43.44-37.54-40.63-32.41-95.49S2759.27,1222.78,2759.27,1222.78Z"/><g class="cls-29"><path class="cls-9" d="M2804.73,1206.84s-11.34,26.1-42.14,36.58l-3.32-20.64,45.46-25Z"/></g><path class="cls-1" d="M2655.9,1092.55l-5.08,11.19s21.5,42.35,19.25,50,1,27,8.35,39.47,26,52.94,58.71,46.2,63.21-31.12,74.76-52.3,9.31-32.73,9.31-32.73,19.57-3.85,16.36-27-23.1-32.4-38.5-10.26l-12.52-31.77-98.5-36.26-12.53,13.68A112.62,112.62,0,0,0,2655.9,1092.55Z"/><circle class="cls-30" cx="2754.98" cy="1154.72" r="16.61"/><ellipse class="cls-30" cx="2679.79" cy="1167.06" rx="11.79" ry="9.85" transform="translate(1197.28 3686.08) rotate(-83.06)"/><path class="cls-17" d="M2821.2,1154.43s-13.59,31.75-49.39,71.29C2771.81,1225.72,2819.35,1202.6,2821.2,1154.43Z"/><path class="cls-17" d="M2652.51,1107.15s12-32.73,36-55.07c0,0,46.85,20.86,94.65,35.78a51.81,51.81,0,0,1,5.78,11.39c2.53,7,10.11,18,10.11,18l-12.52-31.77s-83.1-30.8-98.5-36.26c0,0-33.05,32.73-37.22,54.55Z"/><path class="cls-31" d="M2829,1225.17a39.1,39.1,0,1,1,39.11-39.1A39.14,39.14,0,0,1,2829,1225.17Zm0-75.41a36.31,36.31,0,1,0,36.31,36.31A36.35,36.35,0,0,0,2829,1149.76Z"/><path class="cls-17" d="M2827.84,1147.69s-29.42,9.65-29.42,38.2a23.83,23.83,0,0,0,4.17,14.39l-2,2.32s-13.1-23.28,4.23-43.18C2804.84,1159.42,2821.47,1144.47,2827.84,1147.69Z"/><path class="cls-1" d="M2822.62,1150.32s2.2-.54.5-2.92l12.07-3.44a18.4,18.4,0,0,1-8.55,8.36C2820.34,1155.4,2822.62,1150.32,2822.62,1150.32Z"/><path class="cls-17" d="M2807.61,1122.56c-.23.22,8-19.35,20-11.12s5.46,28.66,5.46,28.66S2831.57,1100.53,2807.61,1122.56Z"/><path class="cls-17" d="M2653.75,1104s21.93,31.77,23.93,47.84-5.41,40.26,42.42,86.86c0,0-18.9-1.47-39-40.75,0,0-11.15-18.92-11.46-33s2.31-11.5-1.21-21.08-16.3-37.37-16.3-37.37Z"/><path class="cls-20" d="M2688,1049.19s-5.95-22,6.74-39.14c0,0-11.59.9-19.46,6.87s4.44,41.07,4.44,41.07Z"/><path class="cls-20" d="M2790.54,1086.52,2821.2,1105s-7.47-2.63-17.49,6.59C2803.71,1111.58,2794.21,1091.84,2790.54,1086.52Z"/><path class="cls-1" d="M2543.77,1896.67s-2.55,1.49-5.22-2.26,4.46-9.32,4.46-9.32c-4.46-1.38-2.81-6.83-2.81-6.83,4.15-7.12,18.58-15.1,30.17-24.48,14.45-11.68,27.12-23,27.12-23s-3.38-4.09-18.49-1.6-17.5-3.18-17.5-3.18c7.1-15.79,12.49-7.15,25.73-11.94,11.44-4.14,36-12.07,50.71-12.16h0a25.68,25.68,0,0,1,6.08.59c12.79,3.08,29.19-4.15,29.19-4.15l14.87,21.75c-1.58.54-4.14,8-12.84,16.93h0c-35.15,30.14-60.58,47.37-67.4,49.66-7.07,2.37-47,33.61-45.62,26.67s16.48-18.67,17.19-19.23c-1,.41-28.12,12.28-32.71,11.54C2540.7,1904.74,2543.77,1896.67,2543.77,1896.67Z"/><path class="cls-9" d="M2638,1802h0c2.3,0,7.64-5.48,8.84-6.79,4.14-4.51,15.59-19.07,15.59-19.07l28.34,41.29c-1.58.54-10.65,15.27-12.2,15.87-2.86-4.53-9.31-6.69-18.17-14.57A198.76,198.76,0,0,0,2638,1802Z"/><path class="cls-9" d="M2579.41,1894.08l9.43-6.52,9.55-6.35.11.17a26.58,26.58,0,0,1-4,4.31c-.71.66-1.48,1.23-2.22,1.84s-1.54,1.12-2.32,1.69-1.6,1-2.42,1.53-1.65,1-2.53,1.37a25.32,25.32,0,0,1-5.49,2.12Z"/><path class="cls-9" d="M2543.67,1896.49l25.67-13.91c4.28-2.31,8.56-4.62,12.81-7,2.12-1.18,4.24-2.37,6.34-3.6s4.21-2.43,6.23-3.76l.23.33a59.52,59.52,0,0,1-11.25,9.8,121.69,121.69,0,0,1-12.46,7.73,129,129,0,0,1-13.23,6.27,79.1,79.1,0,0,1-14.15,4.49Z"/><path class="cls-9" d="M2542.9,1884.92q5.92-3.93,11.95-7.71t12.07-7.51c4.07-2.43,8.16-4.83,12.29-7.16a112,112,0,0,1,12.72-6.4l.15.37c-3.77,3.12-7.44,6-11.3,8.79s-7.75,5.39-11.79,7.82-8.18,4.71-12.46,6.79a82.22,82.22,0,0,1-13.41,5.35Z"/><path class="cls-15" d="M3090.29,1711.68c-102.62,41.45-188.28,67.59-188.28,67.59l-6.22-11.49-2.29,11.49s-18.85,10.11-50.13,6.89c0,0,2.8-84.3-1-128.7-1.06-12.6-2.66-22-5-25.33-10.58-15.17-14.71-23.45-14.71-23.45a.11.11,0,0,0,0,0l-.06.12a.31.31,0,0,1-.05.1c-4.37,8.53-60.76,134.78-133.23,219.49,0,0-12.78-4.62-47.27-36.36l10-18.26s-23.16-8.52-30.06-25.53c0,0,60.42-129.94,61.35-158.45s19.31-214.72,56.55-265.07,69.9-82.08,90.13-79.32c0,0,68.51,26.9,107.13,71.73s62.07,100.7,106.9,195.88c0,0,25.2,23,75.87,71,49.82,47.22,49.67,65.8,49.67,65.8S3152.55,1686.53,3090.29,1711.68Z"/><path class="cls-24" d="M2735.45,1406.23c-1,7.22-1.91,13-2.64,16.56-1.85,9,2,22.17,7.21,34.64a268.55,268.55,0,0,0,17.84,34.44s33-110.7,44.45-159.35c2.6-11.07,4.09-18.93,3.81-21.54-1.47-13.62-35-26.61-37.06-27.4a.24.24,0,0,1-.1,0h-.06a49.25,49.25,0,0,0-7.39,1.67,23.77,23.77,0,0,0-8.18,4.06c-2.42,2.07-6.1,26.8-9.79,54.73Z"/><path class="cls-32" d="M2743.54,1344c6-25.86,13.86-52,18-58.79l7.27-1.64.18,0a.24.24,0,0,0,.1,0c2,1,31.93,15.84,31.74,23.74a26.35,26.35,0,0,1-4.66,14s-20.64-36-31.69-22.93-24.23,184.81-3.83,146.88c16.77-31.18,33.71-92.71,41.69-112.78-11.42,48.65-44.45,159.35-44.45,159.35a268.55,268.55,0,0,1-17.84-34.44,399.46,399.46,0,0,1-4.57-51.2Z"/><path class="cls-2" d="M2813.74,1240.21s-19.67,26.92-44.78,43.32l-5.23-14.89-14.52,28.78v23.93s12.05-33.13,19.75-37.82c0,0,19.08,11.21,30.46,36,0,0,19.82-48.87,22.8-59.58S2816,1234.55,2813.74,1240.21Z"/><path class="cls-16" d="M2757.86,1538.34v.06c-.06.38-.35,2.37-1.21,6.06-1.52,6.67-4.83,18.88-11.66,37.09-11,29.43-92.89,192.26-92.89,192.26-7.66,0-21.2-13.13-21.2-13.13s15.23-.18,51.1-71.07c20.37-40.27,35.46-79.51,43.53-111.5,10.32-43.38-.53-52.72-7.56-88.35v0c-.36-1.82-.7-3.7-1-5.66-.21-1.19-.39-2.36-.58-3.5,0-.07,0-.14,0-.19s0-.23-.06-.39c-5.59-35.63-.66-46.78-.25-47.64l0,0s.46,24.18,4.14,46.15a68.47,68.47,0,0,0,17,35c11,10.39,16.52,17.93,19,21.83a27,27,0,0,1,1.66,2.89A.6.6,0,0,0,2757.86,1538.34Z"/><path class="cls-33" d="M2913.27,1438.55c-5.06,23.46-14.26,146.23-36.33,179.33s-34.54,39.59-34.54,39.59h0c-1.06-12.6-2.66-22-5-25.33-10.58-15.17-14.71-23.45-14.71-23.45s17.92-30.41,33.56-63.74,53.34-120.17,53.34-120.17S2918.33,1415.1,2913.27,1438.55Z"/><path class="cls-34" d="M2757.86,1538.33s28-69,54.71-155.87c0,0-2.3-4.6-6.9,7.36s-42.76,101.61-55.63,112.65l-12.88,11S2756.13,1531.32,2757.86,1538.33Z"/><path class="cls-27" d="M2817.63,1233s-21.85,88.24-35,135.18c-13.79,49.43-32.19,96-24.82,123.67l42.76-71.82s-2.3-27.38-2.76-38.47c0,0,14.71-10.64,21.61-14.31,0,0,30.81-115.86,25.29-119.54S2817.63,1233,2817.63,1233Z"/><path class="cls-27" d="M2760.61,1269.81s-25.74,174.28-14.25,198.17,11.5,25.75,11.5,25.75l-41.85-68,15.64-33.1L2716,1370.05S2725.67,1336,2760.61,1269.81Z"/><path class="cls-16" d="M2895.79,1767.78s-18.85-149.9-48-195.16c0,0,22.26,67.79,25,90.32s21.32,113.15,21.32,113.15Z"/><path class="cls-35" d="M2914.42,1424.11s-59.34,175.31-86.58,193.51l-5.15-8.94S2911.26,1415.74,2914.42,1424.11Z"/><path class="cls-35" d="M2757.86,1538.34v.06l-1.21,6.06s-30.86-25.47-38.68-54.7v0a51.6,51.6,0,0,1-1.62-9.16c0-.07,0-.14,0-.19s0-.23-.06-.39c-.65-4.67-4.92-36.44-.25-47.64l0,0s.46,24.18,4.14,46.15a68.47,68.47,0,0,0,17,35c11,10.39,16.52,17.93,19,21.83.55,1,1.09,1.93,1.66,2.89A.6.6,0,0,0,2757.86,1538.34Z"/><path d="M2683.8,1141.51a4.13,4.13,0,0,0-4.85-2.12c-2,.67-3.9,3.16-2.59,10.89,2,11.88,9.57,5.91,9.28-1.09A17.93,17.93,0,0,0,2683.8,1141.51Z"/><path d="M2743,1132.77a4.13,4.13,0,0,0-4.85-2.12c-2,.67-3.9,3.16-2.58,10.89,2,11.88,9.56,5.91,9.27-1.09A17.79,17.79,0,0,0,2743,1132.77Z"/><path class="cls-9" d="M2704.47,1143.71s-9.76,35.82-4.93,39.61,19.59,0,19.59,0-13,1.83-15.28-7.24S2704.47,1143.71,2704.47,1143.71Z"/><path class="cls-23" d="M2661.77,1128.06a15.91,15.91,0,0,1,1.13-4.37c.27-.71.64-1.38,1-2.07s.79-1.31,1.22-2a18.77,18.77,0,0,1,7-6.13,14.84,14.84,0,0,1,2.16-.94,11.12,11.12,0,0,1,2.24-.68c.77-.16,1.53-.33,2.29-.45s1.55-.08,2.32-.09l1.15,0c.38,0,.76.07,1.14.13l2.26.3a36.37,36.37,0,0,1,4.3,1.34c-1.52.13-3,.06-4.42.13l-2.14.2-1.06.07c-.35,0-.69.13-1,.19-.69.14-1.37.26-2.06.37l-2,.58c-.32.11-.67.16-1,.3l-.94.4a11.18,11.18,0,0,0-1.86.85,24.32,24.32,0,0,0-6.55,4.93A38.15,38.15,0,0,0,2661.77,1128.06Z"/><path class="cls-23" d="M2721,1110.77a22.92,22.92,0,0,1,8.46-5,23.32,23.32,0,0,1,10-1.22A21.06,21.06,0,0,1,2749,1108a22.29,22.29,0,0,1,6.76,7.19,48,48,0,0,0-7.93-5.17,27,27,0,0,0-8.66-2.51,31.62,31.62,0,0,0-9.08.49A50.5,50.5,0,0,0,2721,1110.77Z"/><path class="cls-9" d="M2739.94,1191.46a76.09,76.09,0,0,1-41.63,13.54S2722.33,1210.91,2739.94,1191.46Z"/><circle class="cls-2" cx="2679.79" cy="1145.54" r="1.72"/><circle class="cls-2" cx="2738.38" cy="1136.13" r="1.72"/><circle class="cls-2" cx="2765.12" cy="1146.42" r="1.72"/><path class="cls-36" d="M2673.93,1140.44s4.5-6.94,11.29-1.34"/><path class="cls-36" d="M2733.08,1131.59s4.5-6.95,11.29-1.34"/></svg>