<svg id="Mỗi_hình_1_layer_riêng" data-name="Mỗi hình 1 layer riêng" xmlns="http://www.w3.org/2000/svg" viewBox="0 0 4680 3120"><defs><style>.cls-1{fill:#fff;}.cls-2{fill:#f3f3f4;}.cls-3{fill:#ebecee;}.cls-4{fill:#d3d7db;}.cls-5{fill:#e0e2e5;}.cls-6{fill:#fefefe;}.cls-7{fill:#fbbeac;}.cls-10,.cls-12,.cls-13,.cls-14,.cls-15,.cls-8{fill:#ef927f;}.cls-9{fill:#33231c;}.cls-10{opacity:0.47;}.cls-11{fill:#ffccc0;}.cls-12{opacity:0.76;}.cls-13{opacity:0.26;}.cls-14,.cls-30{opacity:0.56;}.cls-15{opacity:0.66;}.cls-16{fill:#ffad9f;}.cls-17,.cls-21,.cls-22,.cls-38{fill:#3d4f53;}.cls-17{opacity:0.09;}.cls-18{fill:#1c2426;}.cls-19{fill:#b51a1a;}.cls-20{fill:#2b363c;}.cls-21{opacity:0.43;}.cls-22{opacity:0.35;}.cls-23{fill:#7a2123;}.cls-24,.cls-30{fill:#e98970;}.cls-25{opacity:0.61;}.cls-26{opacity:0.21;}.cls-27{fill:#ffc5b8;}.cls-28{fill:#161f21;}.cls-29{fill:#141c1e;}.cls-31{fill:#3d0b01;}.cls-32{fill:#4c2409;}.cls-33{fill:#6d3713;}.cls-34{fill:#87461b;}.cls-35{fill:#a34926;}.cls-36{fill:#231f20;}.cls-37{fill:#dbdbdb;}</style></defs><title>02</title><rect class="cls-1" width="4680" height="3120"/><path class="cls-2" d="M2975.22,2001c36.52-41.94,69.43-86.26,97.58-134.5,25.81-44.23,48.6-89.73,66.5-137.45q58.41-155.68,57.48-322.38c-.33-79.28-13.33-156.59-35.57-232-25.32-85.79-62-167.06-108.17-244.09C2989.42,824.37,2912.88,729.16,2818.27,649c-45.49-38.55-94.62-71.59-146.93-100.72-96.25-53.59-199.13-81.81-308.44-87.4-80.31-4.11-158.32,5.54-229.23,47.65-61,36.26-97.08,90.92-115.33,158.37-16.48,60.93-19.26,124.22-31.77,185.88C1973,919.56,1937,971.33,1885.8,1014.59c-57.7,48.78-125.21,79.64-193.85,108.55-60.59,25.51-123.8,45.44-178.19,84-25.12,17.8-50,36.07-67.18,62.5,14.15,5.24,26.24-3.5,39-6.27,108.68-23.58,207.71,7.14,302.11,56.31,63,32.84,117.65,78.95,171.32,125.23,86.7,74.77,171.92,151.26,258,226.69,85.86,75.19,180.44,137.68,280.84,191.66,48,25.79,98.32,46.34,148.34,67.58,48.73,20.69,99.18,36.11,150.87,47.32,33.25,7.21,66.68,13.57,100,20.31q58.14-73.44,116.3-146.86l6.49,5.16c-32.5,49.06-72.16,92.76-108.36,139.06Z"/><path class="cls-3" d="M2897.18,1998.44c-33.35-6.74-66.78-13.1-100-20.31-51.69-11.21-102.14-26.63-150.87-47.32-50-21.24-100.36-41.79-148.34-67.58-100.4-54-195-116.47-280.84-191.66-86.13-75.43-171.35-151.92-258-226.69-53.67-46.28-108.28-92.39-171.32-125.23-94.4-49.17-193.43-79.89-302.11-56.31-12.8,2.77-24.89,11.51-39,6.27-19.38,13.49-29.7,33.94-40.44,53.8-45.17,83.54-55.05,172.73-39.52,265.13,7.77,46.24,19.07,91.83,40.3,134.23,7.48-3.56,12.59,1.35,18.29,4.83,14.22,8.69,28,18.3,43,25.44,62.66,29.9,128.9,48.26,197.3,59.32,105.93,17.13,212.53,14,319,9.22,119.47-5.37,236.57,4.81,351,42,66.36,21.56,130.42,48.09,190.66,82.79,82.81,47.69,155.35,109.11,224.14,175.09,13,12.45,22.66,28.35,38.92,37.37,25.93-9.94,46.46-28.43,67.92-44.88,43.39-33.24,84.81-68.93,118-113l-63.61-5.17c-3.26,4.21-6.72,8.28-9.72,12.67s-7,11-12.1,6.24c-5.51-5.1,2.85-8.67,5.33-12.83C2895.8,2000.73,2896.49,1999.59,2897.18,1998.44ZM2794,2095.3c13.37-9.89,26.07-19.39,39-28.59,1-.71,4.91.42,5.09,1.23.53,2.36.86,6.15-.51,7.33q-17.26,14.85-35.37,28.74c-1.32,1-5.5.07-6.95-1.37S2794.4,2098.05,2794,2095.3Z"/><path class="cls-4" d="M1483.55,1852.1c28.62,39,61.33,74.24,96.06,107.79,65.31,63.08,137.91,116.76,215,164.13,29.48,18.12,60.14,34.7,91.5,50,32.59,15.91,65,32.18,98.71,45.4,158.32,62,320.91,87.79,490.4,58.64,69.13-11.89,136.16-30.18,200.69-57.31,22.76-9.57,44.17-22.38,66.2-33.71-35.23-34.31-77.32-58.31-119.63-82.68-52.37-30.17-108.59-48.72-166.52-62.88-72.07-17.61-145.79-21-219.63-21.2-89.35-.2-177.87-7.63-265.63-25.09q-110.13-21.92-217.67-53.79c-83.4-24.86-167-48.64-246.84-83.87C1499.16,1854.44,1492.42,1848.28,1483.55,1852.1Z"/><path class="cls-5" d="M1483.55,1852.1c8.87-3.82,15.61,2.34,22.64,5.44,79.83,35.23,163.44,59,246.84,83.87q107.68,32.1,217.67,53.79c87.76,17.46,176.28,24.89,265.63,25.09,73.84.16,147.56,3.59,219.63,21.2,57.93,14.16,114.15,32.71,166.52,62.88,42.31,24.37,84.4,48.37,119.63,82.68,16.64-7.88,33.81-14.87,47.18-28.21-16.26-9-25.94-24.92-38.92-37.37-68.79-66-141.33-127.4-224.14-175.09-60.24-34.7-124.3-61.23-190.66-82.79-114.45-37.2-231.55-47.38-351-42-106.49,4.79-213.09,7.91-319-9.22-68.4-11.06-134.64-29.42-197.3-59.32-15-7.14-28.8-16.75-43-25.44-5.7-3.48-10.81-8.39-18.29-4.83C1426.44,1769.45,1451.63,1812.77,1483.55,1852.1Z"/><path class="cls-2" d="M1908.51,846.79c21.77-53,26-99.7,11.89-147-11.48-38.51-58.81-61.33-107.84-30.3a381.21,381.21,0,0,0-72.9,60c-40.39,42.61-91.85,57.88-147.78,64.44-29.41,3.46-57.73,10.88-83.59,26.81-79.27,48.8-44.59,148.35,9.43,180.8,56.61,34,115.71,28.3,174.89,13,70.59-18.21,130.18-56.13,177.91-111.3C1887.07,884.15,1902.2,863.41,1908.51,846.79Zm-345.07-27.55c.71,2.27,2.2,4.57,1.59,5.54-1.67,2.64-3.83,5.94-6.51,6.84-25.69,8.59-45.25,24.76-60.2,47.06-1.83,2.73-5.26,5-8.58,2.93-4.93-3-2.2-7.36.07-10.24,17.54-22.26,37.53-41.48,65.44-50.31C1557.69,820.29,1560.27,819.93,1563.44,819.24Z"/><path class="cls-6" d="M2897.18,1998.44c-.69,1.15-1.38,2.29-2.06,3.44-2.48,4.16-10.84,7.73-5.33,12.83,5.13,4.76,9-1.74,12.1-6.24s6.46-8.46,9.72-12.67c36.2-46.3,75.86-90,108.36-139.06l-6.49-5.16Q2955.33,1925,2897.18,1998.44Z"/><path class="cls-6" d="M2794,2095.3c.37,2.75-.12,6,1.25,7.34s5.63,2.38,6.95,1.37q18.08-13.87,35.37-28.74c1.37-1.18,1-5,.51-7.33-.18-.81-4.09-1.94-5.09-1.23C2820.1,2075.91,2807.4,2085.41,2794,2095.3Z"/><path class="cls-6" d="M1563.44,819.24c-3.17.69-5.75,1-8.19,1.82-27.91,8.83-47.9,28.05-65.44,50.31-2.27,2.88-5,7.22-.07,10.24,3.32,2,6.75-.2,8.58-2.93,15-22.3,34.51-38.47,60.2-47.06,2.68-.9,4.84-4.2,6.51-6.84C1565.64,823.81,1564.15,821.51,1563.44,819.24Z"/><path class="cls-7" d="M1997.87,1454.19c-3.92-1.22-8.57-3-13.79-5-25.33-9.78-63.33-24.84-88.28-5.16-6.72-2.28-12.63-3.14-17.78-7.13h0c-36.17-16-36.79-38.75-36.79-38.75s42.72-59.38,39.57-78.37c11.08-6.34,30.07,15.79,30.07,27.65,17.4,5.56,42.72,15,45.1,28.48s.78,22.94.78,22.94S1995.49,1414.64,1997.87,1454.19Z"/><path class="cls-8" d="M1853.78,1388s30.52,1.61,66.73,25.71c12.08,8,58.09,33.35,58.09,33.35s-50-18.59-67.6-8.41Z"/><path class="cls-9" d="M1774.76,1415.42c2.37,0,32.44-36.39,64.08-30.85s67.26,22.94,73.59,43.51,0,41.15,0,41.15Z"/><path class="cls-8" d="M1892.77,1435.6s-55.92-47.62-139.25-25.55-149.79,111.5-154.42,187c-.32,39.49,2.61,49.94,2.61,49.94s-37.73,28.1-29.55,46.46c11.13,25,305.93,19.63,325.53,12C1942.75,1687.89,1980.1,1506.45,1892.77,1435.6Z"/><path class="cls-7" d="M1885.52,1449.45c19.78,25.31,41.46,55.63,43,92s4.83,117.6-54.1,147.78c-11.28,5.79-175.29,20.86-206.94-6-46.48-24.88-20.83-89.59-12.75-107.18,16.53-36,31.54-64.06,58.14-93.4,14.55-16.06,29-33.56,52.23-44C1817.5,1415.05,1865.74,1424.13,1885.52,1449.45Z"/><path class="cls-10" d="M1842.7,1426.45s96.52,89.3,44.63,203.79c-38,83.75-158.84,67.52-158.84,67.52s131.56,17.93,164.13-7.23,40.77-98.33,40.77-98.33-.41-84.69-9-100.58-43.71-53-43.71-53S1852.59,1427.64,1842.7,1426.45Z"/><path class="cls-1" d="M1829.62,1563.9c-5.6-6.23-6.57-7.91-18.54-12.33l.22-22.4a14,14,0,0,1,3.43,9.35l18.57-3a32.44,32.44,0,0,0-21.81-25.3l.12-11.88s-8.52-.51-8.95-.09c-.16.16-.24,3.83-.27,9.82a45.62,45.62,0,0,0-8.77-.4l.1-9.51s-8.52-.51-9-.08c-.17.16-.25,4.37-.27,11.15a37,37,0,0,0-21.41,16.7c-5.35,9.45-2.17,21.32,9.06,29.24a54.74,54.74,0,0,0,12.69,6.74c.11,10,.22,20.08.33,29.12-5-4.14-8.83-10.17-11.34-17-3.92,1-16.38,8.26-16.38,8.26s5.66,25.06,27.34,30.51l.67.16c.1,7.69.17,12.45.17,12.45l6.82.07.11-11.1a50.5,50.5,0,0,0,10.81.54c.09,6.63.15,10.67.15,10.67l6.81.07.12-11.86a33.91,33.91,0,0,0,12.27-6C1834.9,1598.43,1842.3,1578,1829.62,1563.9ZM1800,1523.41c.86.15,1.66.33,2.42.54,0,7.41.1,15.89.18,24.74-3.24-1-6.42-1.88-9.35-2.77l.23-22.9A26.57,26.57,0,0,1,1800,1523.41Zm-20.8,10.5a13.34,13.34,0,0,1,5.34-8c0,5.21.07,10.9.12,16.83C1780.5,1540.65,1778.18,1538,1779.19,1533.91Zm13.56,61.54.31-31.06a74.71,74.71,0,0,1,9.72,2.79c.12,10.39.24,20.6.35,29.51A23.52,23.52,0,0,1,1792.75,1595.45Zm17.9-1.38.22-21.66C1818.09,1579.61,1817.35,1589.39,1810.65,1594.07Z"/><path class="cls-7" d="M1990.92,1597.31a29.5,29.5,0,0,1-3.33.62c-9.59,1.35-31.72,2.71-48.14,10.12-7,3.18-13,7.47-16.53,13.35-.26.41-.48.83-.7,1.26l-.2.37a40.73,40.73,0,0,1-5,1.76h0c-15.47,4.46-37.74,3-51.68,1.42-7.73-.89-12.9-1.81-12.9-1.81-.36-1.38-3.63-8.64-8.84-17.79-8.72-15.3-22.88-35.9-38-43.19a9.89,9.89,0,0,1-2.09-4.67c-1.58-11.16,20-21.67,35-15.16,17.1,7.41,23.83,6.07,32,3.7s18.39-21.75,33.86-16.13,31.24,28.17,31.24,28.17,33.33-.13,46.24,13.18S1999.86,1594.89,1990.92,1597.31Z"/><path class="cls-8" d="M1939.45,1608.05c-7,3.18-13,7.47-16.53,13.35-.26.41-.48.83-.7,1.26-1.65.72-3.39,1.43-5.2,2.13h0c-15.47,4.46-37.74,3-51.68,1.42-7.73-.89-12.9-1.81-12.9-1.81-.36-1.38-3.63-8.64-8.84-17.79,0,0,11.74-20.8,36.88-22.87S1933.71,1594.6,1939.45,1608.05Z"/><path class="cls-9" d="M1839.35,1650.23s-9.56-21.6,12.66-41.29,60.38-15.11,72.83,8.61,8.24,33.92,8.24,33.92Z"/><path class="cls-7" d="M2081.46,1908.88c-7.33,18-45.55,38.36-93,51.86-36.19,10.32-77.74,16.65-115,15-86.1-3.88-131.11-15.5-142.46-41.88a31.64,31.64,0,0,1-2.35-10.87c-1.17-21.78,13.86-53.06,26.75-76.82,3.36-6.17-4.13-44.52-3.81-53.15.7-19.92,4-39.49,10.42-57.65,16.27-45.92,49.11-82,87.29-98.83,3.06-1.36,6.18-2.59,9.33-3.68a119.63,119.63,0,0,1,15.91-4.4A107.86,107.86,0,0,1,1953,1642c29.69,17.78,58.52,48.59,70.33,88,8.82,29.42,15.67,65.33,13.93,96.16C2037.26,1826.17,2094.38,1877,2081.46,1908.88Z"/><path class="cls-10" d="M2084.27,1908.71c-7.33,18-45.55,38.36-93,51.86-36.19,10.32-77.74,16.65-115,15-86.1-3.88-131.12-15.5-142.47-41.88a32.11,32.11,0,0,1-2.35-10.86c65,59,166.07,29.52,192.46,6.71,52.23-45.14-52.06-273-62.47-296.85a119.21,119.21,0,0,1,15.91-4.4,107.89,107.89,0,0,1,78.44,13.52c29.7,17.78,58.53,48.6,70.33,88,8.83,29.42,15.68,65.33,13.94,96.16C2040.07,1826,2097.18,1876.87,2084.27,1908.71Z"/><path class="cls-8" d="M2081.46,1908.88c-7.33,18-45.55,38.36-93,51.86,5.28-17.58,12.18-43.64,8.48-57.36-6.12-22.73-17.09-38.05-27-47.91-13-12.92-21-30.92-22.86-50.07a505,505,0,0,0-10.54-63.1c-13.45-50.86-37.48-87.76-62-113.85A107.86,107.86,0,0,1,1953,1642c29.69,17.78,58.52,48.59,70.33,88,8.82,29.42,15.67,65.33,13.93,96.16C2037.26,1826.17,2094.38,1877,2081.46,1908.88Z"/><path class="cls-1" d="M1929.21,1799.12c-5.92-6.36-7-8.1-19-12.06l-1.46-24.26a16.38,16.38,0,0,1,4,9.89l17.87-4.52s-3.4-19.73-23.16-25.86l-.77-12.87s-8.34,0-8.73.53c-.14.18,0,4.15.48,10.64a40.46,40.46,0,0,0-8.58.18l-.62-10.3s-8.33,0-8.72.53c-.16.19.08,4.75.57,12.09a37.28,37.28,0,0,0-19.61,19.57c-4.51,10.6-.52,23.23,11,31a51.63,51.63,0,0,0,12.87,6.41c.86,10.87,1.72,21.73,2.51,31.5-5.17-4.13-9.37-10.39-12.33-17.56-3.74,1.36-15.34,10.07-15.34,10.07s7.4,26.74,28.93,31.13l.67.13c.67,8.31,1.1,13.46,1.1,13.46l6.64-.4-.72-12a44.12,44.12,0,0,0,10.58-.17c.58,7.18.94,11.54.94,11.54l6.65-.4-.77-12.84a32,32,0,0,0,11.49-7.4C1936.94,1836.13,1942.62,1813.52,1929.21,1799.12Zm-31.92-41.77c.85.11,1.65.25,2.41.42.59,8,1.29,17.19,2,26.76-3.23-.84-6.4-1.58-9.32-2.34l-1.5-24.81A23.9,23.9,0,0,1,1897.29,1757.35Zm-19.48,12.82a14.61,14.61,0,0,1,4.61-9.05c.42,5.64.88,11.8,1.38,18.22C1879.6,1777.37,1877.13,1774.67,1877.81,1770.17Zm17.83,65.66-2-33.64a67.67,67.67,0,0,1,9.69,2.35c.89,11.24,1.78,22.29,2.55,31.92A20.79,20.79,0,0,1,1895.64,1835.83Zm17.34-2.73-1.41-23.46C1919.15,1816.93,1919.16,1827.57,1913,1833.1Z"/><path class="cls-1" d="M1780.22,1740.61c-7.41,20.85-13.75,62.5-8.57,74.69,1.75,4.12,11.26-2.36,11.5-9.47,1.92-58.43,38.41-116.37,55.84-140.07,10.2-13.85-1.65-16.22-14.62-3.22C1798.72,1688.26,1790.37,1712.08,1780.22,1740.61Z"/><path class="cls-7" d="M1751.44,1587.79a30.54,30.54,0,0,1-3.38-.1c-9.66-.71-31.57-4.06-49.19-.29-7.55,1.62-14.31,4.55-19,9.55-.35.35-.65.71-1,1.08l-.27.33a42.93,42.93,0,0,1-5.26.66h0c-16.07,1.09-37.53-5-50.81-9.54-7.37-2.5-12.23-4.49-12.23-4.49-.06-1.43-1.72-9.22-4.88-19.26-5.29-16.8-14.77-39.93-28-50.26a9.73,9.73,0,0,1-1.06-5c.81-11.25,24.11-17,37.4-7.42,15.15,10.86,22,11,30.53,10.39s22.57-17.37,36.51-8.6S1705.4,1539,1705.4,1539s32.6,6.93,42.41,22.66S1760.7,1587.31,1751.44,1587.79Z"/><path class="cls-8" d="M1698.87,1587.4c-7.55,1.62-14.31,4.55-19,9.55-.35.35-.65.71-1,1.08-1.77.36-3.62.69-5.53,1h0c-16.07,1.09-37.53-5-50.81-9.54-7.37-2.5-12.23-4.49-12.23-4.49-.06-1.43-1.72-9.22-4.88-19.26,0,0,15.88-17.85,40.88-14.56S1696.1,1573,1698.87,1587.4Z"/><path class="cls-9" d="M1592.12,1607.46s-4.78-23.14,21.1-37.68,62.21-2,69.36,23.81.88,34.9.88,34.9Z"/><path class="cls-7" d="M1774.06,1911.46c-11,16.08-52.64,27.86-101.85,31-37.56,2.44-79.51-.16-115.58-9.67-83.33-22-124.87-42.88-130.38-71.06a31.9,31.9,0,0,1,0-11.12c3.47-21.53,24.78-48.93,42.4-69.42,4.58-5.32,5.38-44.39,7.52-52.76,4.89-19.32,12.24-37.76,22.37-54.14,25.62-41.44,65.33-69.73,106.21-78.13,3.29-.69,6.6-1.23,9.91-1.63a118.36,118.36,0,0,1,16.48-.93,107.87,107.87,0,0,1,73.81,29.8c25.26,23.66,46.92,59.87,50.12,100.92,2.4,30.62,1.51,67.17-6.72,96.93C1748.34,1821.27,1793.41,1883.07,1774.06,1911.46Z"/><path class="cls-10" d="M1776.83,1911.88c-11,16.09-52.63,27.87-101.84,31-37.56,2.43-79.51-.16-115.58-9.67-83.33-22-124.87-42.88-130.39-71.06a31.92,31.92,0,0,1,0-11.12c51,71.45,156.08,64,186.68,47.27,60.6-33.08,6.86-277.85,1.73-303.35a116.85,116.85,0,0,1,16.48-.93,107.78,107.78,0,0,1,73.81,29.8c25.26,23.65,46.92,59.87,50.12,100.91,2.4,30.63,1.5,67.18-6.72,96.94C1751.12,1821.7,1796.19,1883.5,1776.83,1911.88Z"/><path class="cls-8" d="M1774.06,1911.46c-11,16.08-52.64,27.86-101.85,31,8.87-16.06,21.13-40.08,20.42-54.26-1.18-23.51-8.66-40.81-16.27-52.55-10-15.37-13.95-34.65-11.76-53.76a504.86,504.86,0,0,0,3.05-63.91c-2.4-52.55-18.08-93.7-36.52-124.38a107.87,107.87,0,0,1,73.81,29.8c25.26,23.66,46.92,59.87,50.12,100.92,2.4,30.62,1.51,67.17-6.72,96.93C1748.34,1821.27,1793.41,1883.07,1774.06,1911.46Z"/><path class="cls-1" d="M1648.45,1772c-4.44-7.46-5.12-9.4-16-15.8l3.7-24a16.33,16.33,0,0,1,1.86,10.52l18.43-.63s.85-20-17.17-30.18l2-12.74s-8.16-1.73-8.64-1.33c-.18.14-.83,4.07-1.79,10.5a40.29,40.29,0,0,0-8.42-1.64l1.57-10.19s-8.15-1.73-8.63-1.33c-.2.15-.93,4.66-2,11.94a37.29,37.29,0,0,0-23.3,15c-6.65,9.41-5.42,22.6,4.22,32.66a51.08,51.08,0,0,0,11.22,9c-1.46,10.8-2.91,21.6-4.21,31.32-4.18-5.13-7-12.14-8.34-19.77-3.94.54-17.12,6.6-17.12,6.6s1.58,27.7,21.69,36.54l.62.27c-1.09,8.26-1.77,13.39-1.77,13.39l6.59,1,1.83-11.9a44.45,44.45,0,0,0,10.38,2.08c-.95,7.13-1.52,11.47-1.52,11.47l6.58,1,2-12.71a32.08,32.08,0,0,0,12.8-4.8C1648.19,1809.79,1658.52,1788.9,1648.45,1772Zm-22.35-47.57a23.42,23.42,0,0,1,2.25.92c-1.11,8-2.37,17.08-3.67,26.59-3-1.52-5.92-2.9-8.61-4.27l3.78-24.56A23.65,23.65,0,0,1,1626.1,1724.41Zm-21.76,8.41a14.68,14.68,0,0,1,6.42-7.87c-.78,5.6-1.63,11.71-2.5,18.09C1604.56,1740.23,1602.73,1737.08,1604.34,1732.82Zm3.54,68,5.13-33.31a67.44,67.44,0,0,1,9,4.34c-1.51,11.18-3,22.16-4.26,31.74A20.8,20.8,0,0,1,1607.88,1800.77Zm17.53,1,3.58-23.23C1634.86,1787.26,1632.62,1797.66,1625.41,1801.76Z"/><path class="cls-1" d="M1515.21,1683.29c-11.66,18.81-26.66,58.18-24.17,71.19.84,4.4,11.51.08,13.24-6.83,14.23-56.7,62.15-105.62,84.2-125.09,12.89-11.38,1.82-16.21-13.61-6.24C1544.36,1636,1531.16,1657.55,1515.21,1683.29Z"/><path class="cls-11" d="M1548.53,1768.06a29.27,29.27,0,0,1-3.25,1c-9.41,2.3-31.29,5.86-46.88,14.88-6.68,3.87-12.21,8.74-15.11,14.94-.22.43-.4.87-.58,1.32l-.15.39a43.41,43.41,0,0,1-4.8,2.25h0c-15,6-37.24,6.8-51.27,6.59-7.78-.11-13-.51-13-.51-.5-1.34-4.48-8.23-10.58-16.81-10.21-14.35-26.35-33.43-42.14-39.17a10,10,0,0,1-2.55-4.43c-2.69-11,17.72-23.56,33.29-18.6,17.76,5.67,24.33,3.66,32.24.48s16.12-23.48,32.08-19.43,33.9,24.89,33.9,24.89,33.15-3.46,47.32,8.49S1557.18,1764.76,1548.53,1768.06Z"/><path class="cls-12" d="M1498.4,1783.9c-6.68,3.87-12.21,8.74-15.11,14.94-.22.43-.4.87-.58,1.32q-2.36,1.32-5,2.64h0c-15,6-37.24,6.8-51.27,6.59-7.78-.11-13-.51-13-.51-.5-1.34-4.48-8.23-10.58-16.81,0,0,9.6-21.87,34.4-26.45S1491.34,1771.1,1498.4,1783.9Z"/><path class="cls-9" d="M1403,1835.89s-11.68-20.54,8.46-42.35,58.56-21.08,73.32,1.28,11.59,32.92,11.59,32.92Z"/><path class="cls-11" d="M1669.8,2069c-5.48,18.68-41.48,42.73-87.32,60.91-35,13.89-75.67,24.35-112.92,26.42-86,4.76-132-2.29-145.93-27.4a31.58,31.58,0,0,1-3.43-10.58c-3.34-21.55,8.48-54.18,18.93-79.1,2.72-6.48-8.56-43.89-9.11-52.51-1.3-19.89,0-39.69,4.59-58.39,11.6-47.32,40.66-86.47,77-107.07,2.9-1.66,5.89-3.2,8.91-4.6a118.68,118.68,0,0,1,15.39-6,107.88,107.88,0,0,1,79.4,5.59c31.32,14.72,63.09,42.49,78.79,80.55,11.72,28.4,22.13,63.44,23.48,94.28C1617.54,1991.12,1679.46,2036,1669.8,2069Z"/><path class="cls-13" d="M1672.58,2068.53c-5.49,18.69-41.48,42.73-87.32,60.91-35,13.89-75.68,24.35-112.92,26.42-86.06,4.76-132-2.29-145.94-27.4a32.05,32.05,0,0,1-3.43-10.57c70.54,52.24,168.19,12.74,192.15-12.58,47.45-50.15-79.12-266.42-91.86-289.1a117.58,117.58,0,0,1,15.39-6,107.8,107.8,0,0,1,79.39,5.6c31.33,14.71,63.1,42.48,78.79,80.54,11.72,28.4,22.14,63.44,23.49,94.28C1620.32,1990.67,1682.24,2035.57,1672.58,2068.53Z"/><path class="cls-14" d="M1669.8,2069c-5.48,18.68-41.48,42.73-87.32,60.91,3.49-18,7.75-44.64,2.7-57.92-8.37-22-20.81-36.14-31.68-45-14.22-11.55-23.94-28.66-27.75-47.52a503.56,503.56,0,0,0-16.8-61.73c-18.48-49.25-46.07-83.56-73.08-107.06a107.88,107.88,0,0,1,79.4,5.59c31.32,14.72,63.09,42.49,78.79,80.55,11.72,28.4,22.13,63.44,23.48,94.28C1617.54,1991.12,1679.46,2036,1669.8,2069Z"/><path class="cls-1" d="M1507.33,1975c-6.53-5.74-7.77-7.37-20.11-10.1l-3.88-24a16.32,16.32,0,0,1,5,9.43l17.33-6.28s-5.35-19.29-25.63-23.41L1478,1908s-8.29.87-8.62,1.4c-.13.19.46,4.13,1.53,10.54a40.29,40.29,0,0,0-8.51,1l-1.65-10.19s-8.29.88-8.63,1.4c-.13.21.56,4.72,1.78,12a37.26,37.26,0,0,0-17.55,21.43c-3.43,11,1.81,23.16,14.07,29.75a51.69,51.69,0,0,0,13.45,5.1c1.94,10.72,3.89,21.44,5.65,31.08-5.56-3.59-10.37-9.4-14-16.24-3.58,1.73-14.25,11.56-14.25,11.56s10,25.86,31.9,28.07l.67.07c1.51,8.2,2.45,13.28,2.45,13.28l6.57-1.06-1.92-11.89a44.67,44.67,0,0,0,10.5-1.22c1.3,7.07,2.1,11.38,2.1,11.38l6.57-1.07-2-12.7a31.85,31.85,0,0,0,10.69-8.51C1518.73,2011.07,1522.12,1988,1507.33,1975Zm-35.93-38.37a23.1,23.1,0,0,1,2.43.18c1.39,7.91,3,17,4.7,26.42-3.3-.52-6.52-.93-9.51-1.39l-4-24.54A24,24,0,0,1,1471.4,1936.66Zm-18.1,14.71a14.64,14.64,0,0,1,3.68-9.47c1,5.57,2.06,11.65,3.19,18C1455.79,1958.35,1453.08,1955.92,1453.3,1951.37Zm24.31,63.54-5.38-33.26a66.55,66.55,0,0,1,9.87,1.36c2,11.1,4,22,5.73,31.5A20.72,20.72,0,0,1,1477.61,2014.91Zm17-4.46-3.75-23.19C1499.11,1993.75,1500.18,2004.33,1494.59,2010.45Z"/><path class="cls-1" d="M1353.24,1931.73c-5.28,21.48-7.42,63.56-1,75.17,2.15,3.92,11-3.48,10.49-10.58-3.94-58.33,26.57-119.63,41.54-144.94,8.75-14.81-3.27-16-14.87-1.74C1366.41,1877.8,1360.48,1902.33,1353.24,1931.73Z"/><path class="cls-11" d="M1897,1792.39a30.54,30.54,0,0,1-3.38-.1c-9.66-.71-31.57-4.06-49.19-.29-7.55,1.62-14.31,4.55-19,9.55-.34.35-.65.71-1,1.08l-.27.33a42.93,42.93,0,0,1-5.26.66h0c-16.07,1.09-37.53-5-50.81-9.54-7.37-2.5-12.23-4.5-12.23-4.5-.06-1.42-1.72-9.21-4.88-19.25-5.29-16.8-14.77-39.93-28-50.26a9.85,9.85,0,0,1-1.07-5c.82-11.25,24.12-17,37.41-7.42,15.15,10.86,22,11,30.52,10.39s22.58-17.37,36.51-8.6,24.58,34.13,24.58,34.13,32.6,6.93,42.4,22.66S1906.24,1791.91,1897,1792.39Z"/><path class="cls-8" d="M1844.42,1792c-7.55,1.62-14.31,4.55-19,9.55-.34.35-.65.71-1,1.08-1.77.36-3.62.69-5.53,1h0c-16.07,1.09-37.53-5-50.81-9.54-7.37-2.5-12.23-4.5-12.23-4.5-.06-1.42-1.72-9.21-4.88-19.25,0,0,15.87-17.85,40.88-14.56S1841.65,1777.64,1844.42,1792Z"/><path class="cls-9" d="M1737.66,1812.06s-4.78-23.14,21.11-37.69,62.21-2,69.36,23.82.88,34.9.88,34.9Z"/><path class="cls-11" d="M1919.6,2116.06c-11,16.08-52.63,27.86-101.84,31-37.56,2.44-79.51-.16-115.58-9.67-83.33-22-124.87-42.88-130.39-71.06a31.92,31.92,0,0,1,0-11.12c3.47-21.53,24.77-48.93,42.4-69.42,4.58-5.32,5.38-44.39,7.51-52.76,4.9-19.32,12.25-37.76,22.38-54.14,25.61-41.44,65.33-69.73,106.21-78.13,3.28-.69,6.59-1.23,9.91-1.63a118.36,118.36,0,0,1,16.48-.93,107.83,107.83,0,0,1,73.81,29.8c25.26,23.66,46.92,59.87,50.12,100.91,2.4,30.63,1.5,67.18-6.72,96.94C1893.89,2025.87,1939,2087.67,1919.6,2116.06Z"/><path class="cls-13" d="M1922.38,2116.48c-11,16.09-52.63,27.87-101.85,31-37.55,2.43-79.5-.16-115.57-9.67-83.33-22-124.87-42.88-130.39-71.06a31.92,31.92,0,0,1,0-11.12c51,71.45,156.07,64,186.68,47.27,60.6-33.08,6.86-277.85,1.72-303.35a117,117,0,0,1,16.48-.93,107.76,107.76,0,0,1,73.81,29.8c25.26,23.65,46.93,59.87,50.13,100.91,2.4,30.63,1.5,67.18-6.72,96.94C1896.67,2026.3,1941.74,2088.1,1922.38,2116.48Z"/><path class="cls-15" d="M1919.6,2116.06c-11,16.08-52.63,27.86-101.84,31,8.87-16.06,21.13-40.08,20.42-54.27-1.18-23.5-8.66-40.8-16.28-52.54-10-15.37-13.94-34.65-11.75-53.76a504.86,504.86,0,0,0,3-63.91c-2.4-52.55-18.08-93.7-36.52-124.38a107.83,107.83,0,0,1,73.81,29.8c25.26,23.66,46.92,59.87,50.12,100.91,2.4,30.63,1.5,67.18-6.72,96.94C1893.89,2025.87,1939,2087.67,1919.6,2116.06Z"/><path class="cls-1" d="M1794,1976.58c-4.44-7.46-5.12-9.4-16-15.8l3.71-24a16.32,16.32,0,0,1,1.86,10.52l18.42-.63s.86-20-17.16-30.18l2-12.74s-8.16-1.73-8.64-1.33c-.18.14-.83,4.07-1.79,10.5a40.29,40.29,0,0,0-8.42-1.64l1.57-10.19s-8.15-1.73-8.64-1.33c-.19.15-.92,4.65-2,11.94a37.29,37.29,0,0,0-23.3,15c-6.65,9.41-5.42,22.6,4.21,32.65a51.33,51.33,0,0,0,11.22,9c-1.46,10.8-2.9,21.6-4.2,31.32-4.18-5.13-7-12.14-8.34-19.77-3.94.54-17.12,6.6-17.12,6.6s1.57,27.7,21.69,36.54l.62.27c-1.09,8.26-1.77,13.39-1.77,13.39l6.58,1,1.84-11.9a44.37,44.37,0,0,0,10.37,2.08c-.94,7.13-1.51,11.47-1.51,11.47l6.58,1,2-12.71a32.08,32.08,0,0,0,12.8-4.8C1793.73,2014.39,1804.07,1993.5,1794,1976.58ZM1771.64,1929a22.61,22.61,0,0,1,2.26.92c-1.12,8-2.37,17.08-3.67,26.59-3-1.52-5.92-2.9-8.62-4.27l3.79-24.56A23.49,23.49,0,0,1,1771.64,1929Zm-21.75,8.41a14.63,14.63,0,0,1,6.42-7.87c-.79,5.6-1.63,11.71-2.51,18.09C1750.11,1944.83,1748.28,1941.68,1749.89,1937.42Zm3.54,67.95,5.13-33.31a67.9,67.9,0,0,1,9,4.34c-1.5,11.18-3,22.16-4.25,31.74A20.76,20.76,0,0,1,1753.43,2005.37Zm17.53,1,3.58-23.23C1780.4,1991.86,1778.17,2002.26,1771,2006.36Z"/><path class="cls-1" d="M1660.75,1887.89c-11.65,18.81-26.65,58.18-24.16,71.19.84,4.4,11.5.07,13.24-6.83,14.23-56.7,62.15-105.62,84.2-125.09,12.89-11.38,1.81-16.21-13.61-6.24C1689.91,1840.64,1676.71,1862.15,1660.75,1887.89Z"/><path class="cls-11" d="M2283.76,1896.67c-3.92-1.21-8.57-3-13.79-5-25.33-9.78-63.33-24.84-88.28-5.16-6.71-2.28-12.62-3.14-17.78-7.13h0c-36.17-16-36.79-38.75-36.79-38.75s42.72-59.38,39.57-78.37c11.08-6.34,30.07,15.78,30.07,27.65,17.4,5.56,42.73,15,45.1,28.47s.78,23,.78,23S2281.38,1857.13,2283.76,1896.67Z"/><path class="cls-8" d="M2139.67,1830.47s30.52,1.61,66.73,25.7c12.08,8,58.09,33.36,58.09,33.36s-50-18.59-67.6-8.42Z"/><path class="cls-9" d="M2060.65,1857.91c2.37,0,32.44-36.39,64.08-30.86s67.26,23,73.59,43.52,0,41.14,0,41.14Z"/><path class="cls-16" d="M2178.66,1878.09s-55.91-47.62-139.25-25.55-149.78,111.5-154.42,187c-.32,39.49,2.61,49.94,2.61,49.94s-37.73,28.09-29.55,46.46c11.13,25,305.94,19.63,325.53,12C2228.64,2130.38,2266,1948.94,2178.66,1878.09Z"/><path class="cls-11" d="M2171.42,1891.93c19.78,25.32,41.45,55.64,43,92s4.83,117.59-54.09,147.78c-11.29,5.78-175.3,20.86-207-6-46.48-24.88-20.83-89.59-12.75-107.19,16.53-36,31.54-64,58.14-93.39,14.56-16.06,29-33.56,52.23-44C2103.39,1857.54,2151.64,1866.61,2171.42,1891.93Z"/><path class="cls-13" d="M2128.59,1868.94s96.52,89.3,44.63,203.79c-38,83.75-158.84,67.52-158.84,67.52s131.56,17.93,164.13-7.24,40.77-98.33,40.77-98.33-.41-84.68-9-100.58-43.71-53-43.71-53S2138.48,1870.13,2128.59,1868.94Z"/><path class="cls-1" d="M2115.51,2006.39c-5.6-6.23-6.57-7.91-18.54-12.33l.22-22.4a14,14,0,0,1,3.44,9.35l18.56-3a32.43,32.43,0,0,0-21.81-25.3l.12-11.88s-8.52-.51-8.95-.09c-.16.16-.24,3.83-.27,9.82a45.62,45.62,0,0,0-8.77-.4l.1-9.51s-8.52-.51-9-.09c-.17.17-.25,4.37-.27,11.16a37,37,0,0,0-21.41,16.7c-5.35,9.44-2.17,21.32,9.07,29.24a54.42,54.42,0,0,0,12.68,6.73c.11,10,.22,20.09.34,29.12-5-4.13-8.84-10.16-11.35-17-3.92,1-16.38,8.25-16.38,8.25s5.67,25.07,27.34,30.52l.67.16c.1,7.68.17,12.45.17,12.45l6.82.06.11-11.09a50.5,50.5,0,0,0,10.81.54c.09,6.63.15,10.67.15,10.67l6.82.06.11-11.85a34.1,34.1,0,0,0,12.27-6.05C2120.79,2040.91,2128.19,2020.51,2115.51,2006.39Zm-29.63-40.5c.86.16,1.66.34,2.42.55,0,7.4.1,15.89.19,24.73-3.24-1-6.43-1.87-9.36-2.76l.23-22.91A27.59,27.59,0,0,1,2085.88,1965.89Zm-20.8,10.51a13.36,13.36,0,0,1,5.34-8c0,5.22.07,10.91.12,16.84C2066.39,1983.13,2064.07,1980.5,2065.08,1976.4Zm13.56,61.53.31-31a74.72,74.72,0,0,1,9.72,2.78c.12,10.4.24,20.61.35,29.52A23.38,23.38,0,0,1,2078.64,2037.93Zm17.9-1.37.22-21.66C2104,2022.1,2103.24,2031.88,2096.54,2036.56Z"/><path class="cls-17" d="M1574.44,2475.67c-45.36.12-188.74,9.25-231.26,18.88-67.25,15.22-171.63,68.11-18.2,117.47,250.51,80.6,2046.41,54.58,2106.74-40.19S2524,2458.75,2524,2458.75,2020.63,2474.44,1574.44,2475.67Z"/><polygon points="2295.13 2354.36 2156.23 2397.74 2169.83 2438.21 2315.2 2387.38 2295.13 2354.36"/><path class="cls-18" d="M2491,1771.23q-3.56,5.55-7.26,11.62c-54.07,88.77-126.22,259-151.72,557.58l-29.15,8.42s33-391.23,159.94-586.65q4.26-6.5,8.61-12.71A51.39,51.39,0,0,0,2491,1771.23Z"/><rect x="2037.08" y="2302.88" width="102.96" height="75.11" transform="translate(4177.13 4680.87) rotate(180)"/><rect x="1396.02" y="2302.88" width="102.96" height="75.11" transform="translate(2895 4680.87) rotate(180)"/><path class="cls-19" d="M1346.63,2133.75s9.75,133.34,27.27,139.74c0,0,28.34,7.87,48,6.4h783.83s34.44-9.6,38.63-49.7-5.66-98.9-5.66-98.9Z"/><rect class="cls-18" x="1339.36" y="2285.6" width="871.95" height="28.28" transform="translate(3550.68 4599.49) rotate(180)"/><circle class="cls-20" cx="2083.38" cy="2452.78" r="112.35"/><circle class="cls-1" cx="2083.38" cy="2452.78" r="83.86"/><circle class="cls-21" cx="2083.38" cy="2452.78" r="41.77"/><circle class="cls-9" cx="2083.38" cy="2452.78" r="22.12"/><circle class="cls-20" cx="1447.5" cy="2452.78" r="112.35"/><circle class="cls-1" cx="1447.5" cy="2452.78" r="83.86"/><circle class="cls-22" cx="1447.5" cy="2452.78" r="41.77"/><circle class="cls-9" cx="1447.5" cy="2452.78" r="22.12"/><circle class="cls-20" cx="2302.88" cy="2368.92" r="44.03"/><path class="cls-23" d="M2284.44,2078.83c-29.14,23.31-32.57,57-32.57,57v99.88a51.14,51.14,0,0,1-51,51H1346.65a51.15,51.15,0,0,1-51-51v-99.88c0-34.32-43.71-57-43.71-57ZM1408,2271.47h783.85s43.87,4.21,43.87-38.2v-80.62H1447.5s-72.2-2.92-73.17,30.11,0,46.62,0,46.62S1373.36,2271.47,1408,2271.47Z"/><circle class="cls-1" cx="2302.88" cy="2368.92" r="24.61"/><path class="cls-18" d="M2518.69,1649.11a77.07,77.07,0,1,0,77.08,77.06A77.07,77.07,0,0,0,2518.69,1649.11Zm0,128.32a51.25,51.25,0,1,1,51.25-51.26A51,51,0,0,1,2518.7,1777.43Z"/><path class="cls-24" d="M2607.77,1687.46s-6,45.94-17.19,52.58-27.3-8.09-26.51-8.49S2607.84,1671.78,2607.77,1687.46Z"/><path d="M2631.94,2389.23s-26.49,84.19-15.8,101.55-79.61-15.44-79.61-15.44,27.6-97.23,25.23-102S2631.94,2389.23,2631.94,2389.23Z"/><path class="cls-9" d="M2527.71,2460.06a149.52,149.52,0,0,0-2.5,25.05c-.12,17.39-.13,37.33-.13,37.33s-17.46,9.57,57.74,17.29c53.62,5.5,96.56,7.89,116.36,4.38,8-1.41,12.2-3.78,11.86-7.3,0-.38-.07-.81-.09-1.27-.32-6.21.78-18.27,2.08-29.67,1.6-14,3.5-27,3.5-27s-35-16.91-60.38-33.19-41.54-23.36-46,.69-52.53,17.23-65.88,1.24C2535.34,2436.89,2529.6,2450.87,2527.71,2460.06Z"/><path class="cls-25" d="M2582.82,2539.73c53.62,5.5,96.56,7.89,116.36,4.38a126.43,126.43,0,0,0,11.77-8.57c-.32-6.21.78-18.27,2.08-29.67-6.22-9.6,3.5-27,3.5-27s-12.52-3.32-35.24,28.83c-13.72,19.4-156.08-22.55-156.08-22.55-.12,17.39-.13,37.33-.13,37.33S2507.62,2532,2582.82,2539.73Z"/><path d="M2663.32,2462.3a6,6,0,1,1-6.09,5.89A6,6,0,0,1,2663.32,2462.3Z"/><path d="M2677.23,2474.23a6.11,6.11,0,1,1-6.22,6A6.1,6.1,0,0,1,2677.23,2474.23Z"/><path d="M2648.52,2453a5.78,5.78,0,1,1-5.87,5.68A5.78,5.78,0,0,1,2648.52,2453Z"/><path d="M2626.78,2437.32a7.8,7.8,0,1,1-7.94,7.67A7.81,7.81,0,0,1,2626.78,2437.32Z"/><path class="cls-1" d="M2627.43,2452.56a2.89,2.89,0,0,1-1.43-5.38c19.51-11.52,22.76-9.33,24-8.51a13.9,13.9,0,0,1,5.14,6.53,5.21,5.21,0,0,1-.49,3.45s-1.41-.71-2.74-1.51c-.72-.44-1.32-1-1.88-1.27-1.59-.81-1.27-2.12-2.93-2.15s-11.23,4.36-18.15,8.44A2.85,2.85,0,0,1,2627.43,2452.56Z"/><path class="cls-1" d="M2648.4,2461.67a2.8,2.8,0,0,1-1.56-.48,2.9,2.9,0,0,1-.81-4c10.66-16.08,13.81-15.48,15.32-15.2,4.45.84,6,6.66,6.11,7.27a7.6,7.6,0,0,1,0,3.15s-4.19-1.61-4.59-3.16c-.23-.87-1.75-.8-2.54-.65s-6.17,6.75-9.51,11.79A2.89,2.89,0,0,1,2648.4,2461.67Z"/><path class="cls-1" d="M2663.17,2471.18a2.85,2.85,0,0,1-2-.89,2.89,2.89,0,0,1,.08-4.09h0c.07-.07,7.05-6.85,8.22-13.77a2.9,2.9,0,1,1,5.71,1c-1.49,8.84-9.58,16.66-9.92,17A2.83,2.83,0,0,1,2663.17,2471.18Z"/><path class="cls-1" d="M2677.08,2482.68a2.82,2.82,0,0,1-1.49-.45,2.88,2.88,0,0,1-.92-4c.21-.34,4.52-7.67,1-20.15a2.9,2.9,0,1,1,5.58-1.56c4.24,15.12-1.45,24.39-1.69,24.78A2.88,2.88,0,0,1,2677.08,2482.68Z"/><path class="cls-1" d="M2525.1,2510.68l0,11.76s6,13.63,15.18,15.18c5.85,1,70.3,6.23,116.62,9.17,26.67,1.71,47.33,2.64,47.32,1.57a1.91,1.91,0,0,0,0-.36c20.95,1.65,51,4,52.83,4.4,2.52.51,20.41-3.9,22.07-30.84a69.89,69.89,0,0,0,0-7.69c-1.65-35.51-36.52-41.73-62.56-35-13.79,3.54-22.06,22.28-26.8,39.13-.49,1.72-5.71,18.28-20.77,17.8C2653.07,2535.26,2525.1,2510.68,2525.1,2510.68Z"/><path class="cls-26" d="M2587.82,2532.79c30.81,9.78,116.39,16.64,116.38,15.57a1.91,1.91,0,0,0,0-.36c20.95,1.65,51,4,52.83,4.4,2.52.51,20.41-3.9,22.07-30.84,0,0-44.87,26-112.07,18C2654,2538,2608.35,2533.19,2587.82,2532.79Z"/><path d="M2775.66,2536.92s-3.48,18.22-127.89,3.35-122.7-17.83-122.7-17.83-21.52,7.27-1.49,17.29c18,9,228.84,34.25,259.37,16.09,0,0,6.86-3.86,7.82-9.23S2785.07,2533.56,2775.66,2536.92Z"/><path d="M3128.68,2321.59s32,82.24,51.23,89.09-71.75,37.79-71.75,37.79-39.33-93.11-44.15-95.34S3128.68,2321.59,3128.68,2321.59Z"/><path class="cls-9" d="M3080.72,2429.24c1.18,3,5.28,12.2,9.84,22.32,7.16,15.84,15.48,34,15.48,34s-11.86,16,59.68-8.42c51-17.42,91-33.2,107.54-44.67,6.66-4.62,9.5-8.53,7.72-11.58-.2-.33-.4-.71-.61-1.12-2.89-5.5-6.93-16.92-10.51-27.82-4.41-13.4-8.12-26-8.12-26s-38.9-.72-68.73-4.92-47.5-3.86-41.52,19.87-38.9,39.75-58.18,31.85S3077.73,2421.57,3080.72,2429.24Z"/><path class="cls-25" d="M3165.72,2477.1c51-17.42,91-33.2,107.54-44.67a127.39,127.39,0,0,0,7.11-12.7c-2.89-5.5-6.93-16.92-10.51-27.82-9.66-6.12-8.12-26-8.12-26s-12.77,2.22-20,40.92c-4.36,23.36-151.21,44.76-151.21,44.76,7.16,15.84,15.48,34,15.48,34S3094.18,2501.52,3165.72,2477.1Z"/><path d="M3206.49,2373.1a6,6,0,1,1-3.08,7.9A6,6,0,0,1,3206.49,2373.1Z"/><path d="M3224.1,2378.13a6.11,6.11,0,1,1-3.13,8A6.11,6.11,0,0,1,3224.1,2378.13Z"/><path d="M3189.14,2370.81a5.78,5.78,0,1,1-3,7.62A5.77,5.77,0,0,1,3189.14,2370.81Z"/><path d="M3162.85,2365.69a7.8,7.8,0,1,1-4,10.28A7.79,7.79,0,0,1,3162.85,2365.69Z"/><path class="cls-1" d="M3167.16,2375.48a2.9,2.9,0,0,1-3.55-4.3c12.91-18.62,16.78-18,18.24-17.75a13.85,13.85,0,0,1,7.39,3.78,5.24,5.24,0,0,1,1,3.34s-1.57-.05-3.12-.23c-.84-.09-1.61-.35-2.24-.37-1.78-.07-2-1.4-3.55-.73s-8.39,8.66-13,15.26A3,3,0,0,1,3167.16,2375.48Z"/><path class="cls-1" d="M3192.67,2378.77a2.9,2.9,0,0,1-4-3.1c3-19.05,6.07-19.83,7.56-20.2,4.4-1.1,8.19,3.56,8.59,4.05a7.58,7.58,0,0,1,1.35,2.84s-4.48.29-5.49-1c-.57-.69-1.92,0-2.57.48s-2.79,8.7-3.72,14.68A2.89,2.89,0,0,1,3192.67,2378.77Z"/><path class="cls-1" d="M3210.06,2381.24a2.87,2.87,0,0,1-2.23,0,2.9,2.9,0,0,1-1.63-3.75h0c0-.09,3.54-9.17,1.71-16a2.89,2.89,0,1,1,5.58-1.51c2.35,8.65-1.72,19.14-1.9,19.58A2.88,2.88,0,0,1,3210.06,2381.24Z"/><path class="cls-1" d="M3227.5,2385.87a3,3,0,0,1-1.54.22,2.9,2.9,0,0,1-2.49-3.23c0-.39.9-8.86-7.5-18.73a2.9,2.9,0,0,1,4.42-3.75c10.17,12,8.88,22.76,8.82,23.21A2.9,2.9,0,0,1,3227.5,2385.87Z"/><path class="cls-1" d="M3101.14,2474.83l4.9,10.69s11.11,9.89,20.14,7.45c5.72-1.55,66.47-23.73,109.78-40.42,24.94-9.59,44.09-17.38,43.63-18.35a2.18,2.18,0,0,0-.18-.31c19.71-7.26,48-17.67,49.82-18.09,2.51-.59,16.91-12.07,7.16-37.24a71.89,71.89,0,0,0-3.17-7c-16.35-31.56-50.63-22.64-71.48-5.68-11.06,9-10.73,29.46-8,46.75.27,1.76,2.45,19-11.43,24.85C3227.67,2443.67,3101.14,2474.83,3101.14,2474.83Z"/><path class="cls-26" d="M3167.36,2468.69c32.08-4,112.69-33.52,112.23-34.49a2.18,2.18,0,0,0-.18-.31c19.71-7.26,48-17.67,49.82-18.09,2.51-.59,16.91-12.07,7.16-37.24,0,0-29.9,42.35-94.29,63.19C3229.7,2445.76,3186.18,2460.48,3167.36,2468.69Z"/><path d="M3339.73,2393.93s4.45,18-114.78,56.51S3106,2485.52,3106,2485.52s-16.51,15.6,5.88,16.34c20.06.65,222.2-64.55,242.34-93.8,0,0,4.63-6.38,3.25-11.66S3346.87,2387,3339.73,2393.93Z"/><path class="cls-27" d="M2562.88,1636.32s-44.37,30.56-51.05,49.85c-4.11,11.87,16.87,27,29.78,42.55,3.4,4.1,3,28.35,23,18.09,10-5.12,24.31-25.2,24.31-25.2l20.82-44.49Z"/><path class="cls-1" d="M2568.6,1610.11,2550.74,1637s20.18,34.28,56.1,44.94l26.51-33.63Z"/><path class="cls-28" d="M2999,1206.65s9.84,51.75,14.27,163.19,14.76,286.38,22.88,302.61c0,0-53.88,24.36-96.69,23.62s-39.25-174.92-31.06-217,79.74-288.56,79.74-288.56S2997.4,1196.84,2999,1206.65Z"/><path class="cls-20" d="M3144.49,2342.39c-10.19,11.79-23.13,20.38-35.55,26.56l0,0a167.67,167.67,0,0,1-42.74,14.38S2939.24,2134,2916.73,2032.85s-88.65-207.19-89.88-211.36c-59.27-201.82,106-236.3,106-236.3s18,61,39.46,137h0c30.8,109.17,68.58,249.15,69.77,282.93C3044.07,2062.36,3144.49,2342.39,3144.49,2342.39Z"/><path class="cls-18" d="M3108.94,2369l0,0a167.67,167.67,0,0,1-42.74,14.38S2939.24,2134,2916.73,2032.85s-88.65-207.19-89.88-211.36c-59.27-201.82,106-236.3,106-236.3s18,61,39.46,137h0s-58.26,12.36-68.93,68S3108.94,2369,3108.94,2369Z"/><polygon points="2923.46 1608.85 2942.3 1610.11 2941.18 1586.59 2911.17 1586.59 2923.46 1608.85"/><path class="cls-20" d="M2638.32,2399.59c-13.11,2.24-29,.33-43.7-2.93a286.45,286.45,0,0,1-45.38-14.46s31.44-135.31,49.79-252.38,36.41-81,53.86-190,59-339.25,59-339.25l188.34,92.12s-10.74,23.26-25.3,54.57c-22.71,48.8-54.7,117.15-69.78,147.36-24.74,49.59-34.33,129-47.34,144.19S2638.32,2399.59,2638.32,2399.59Z"/><path class="cls-18" d="M2900.24,1692.73s-10.74,23.26-25.3,54.57h0s-93.81-59-124.5-35.74-50.28,269-91.82,353.27-64,331.83-64,331.83a286.45,286.45,0,0,1-45.38-14.46s31.44-135.31,49.79-252.38,36.41-81,53.86-190,59-339.25,59-339.25Z"/><path class="cls-29" d="M2679.15,1688.92s143.54,20,196,20.2l3.77-20.2-204.45-32Z"/><path class="cls-27" d="M3018.8,1103.24a118.81,118.81,0,0,0-13.6,20.68,279.26,279.26,0,0,0-17.5,41.47s-35.24,23.74-55.17,16.48c-15.62-5.68-17.14-40.76-13.53-42.94,5.23-3.15,18.59-24.39,26.42-41.11,4.2-9,7.1-15.79,7.1-15.79S3036.92,1082,3018.8,1103.24Z"/><path class="cls-24" d="M2997.5,1139.87s-12.85,32.82-35.73,18.23c-11.08-7.07-25.91-42.22-25.91-42.22l-20.21,28.54s.63,27.57,40.22,38.83c16.81,4.78,34.16-24.65,34.16-24.65Z"/><path class="cls-24" d="M3018.8,1103.24a118.81,118.81,0,0,0-13.6,20.68c-31.66-2.92-59.78-26.1-59.78-26.1,4.2-9,7.1-15.79,7.1-15.79S3036.92,1082,3018.8,1103.24Z"/><path class="cls-27" d="M3124,1077.4c-21.2,9.64-32.42-1.66-32.42-1.66s-16.07,19.35-38.25,29.16-54.82,17.64-103.53-5.31c-18-8.5-29-21-35.1-34.15-10.3-22.26-6.49-46.22.7-55.06,11.43-14,25.15-50.57,45.47-106.68s51.26-51.21,51.26-51.21,67.86,32.79,101.55,49.25l6.26,3.06c30.62,15,1.61,111.93,16.16,120.27S3145.21,1067.75,3124,1077.4Z"/><path class="cls-30" d="M3110.77,1044.84s-22.8-34.19-28.06-69.16c-3.63-24.13,19.76-40.82-.65-55.94-9.62-7.13-40.52-24.55-70.59-15-31.75,10.08-96.06,105.64-96.74,160.72l0,0c-10.3-22.26-6.49-46.22.7-55.06,11.43-14,25.15-50.57,45.47-106.68s51.26-51.21,51.26-51.21,67.86,32.79,101.55,49.25c3.63,17,2.63,32.79-1,39.67C3108,950.49,3110.77,1044.84,3110.77,1044.84Z"/><path class="cls-31" d="M3109.24,910.4s-19.44,10.56-42.86-11.87-54-22.12-93.13-17.85,41.24-95.07,86-75.28S3118.13,876.28,3109.24,910.4Z"/><path class="cls-32" d="M3101.86,912.56s-16.9-.22-26.38-29.4-60.15-35.31-99.48-25.84c0,0,36.61-55.36,64.81-56.12s62.67,8.95,69.18,42.38-.75,66.82-.75,66.82Z"/><path class="cls-33" d="M3109.24,910.4c.59-3.75-53.12-152.93-156.53-55.27,0,0,44.31-59.91,84.8-55.64s76.5,20.22,77.22,47.22,6,64.24.73,72S3109.24,910.4,3109.24,910.4Z"/><path class="cls-34" d="M3149.56,896.17c-13.75,38.75-40.32,14.23-40.32,14.23s-.37-2.6-1.18-7c-2.52-13.55-9.37-44.13-23.13-67.37a0,0,0,0,0,0,0c-10.93-18.45-26.22-32.27-47.14-29.29-50.07,7.14-19.92,98.92-94.61,135.32l0,0a132.32,132.32,0,0,1-30.25,10.15c.51-.72,20.76-29.74,21.31-83.54.56-54.48,86.78-94.11,138.49-70.05,32.88,15.3,60.58,34.9,72.85,57.11h0a53.29,53.29,0,0,1,6.37,18.46A46.11,46.11,0,0,1,3149.56,896.17Z"/><path class="cls-33" d="M3152.55,899.34c-13.75,38.75-43.31,11.06-43.31,11.06s2-6.39,4.66-14c8.06-20.61,25.87-23.12,38-22.13C3152.9,881.35,3155.21,891.86,3152.55,899.34Z"/><path class="cls-34" d="M3172.84,1005.51c-4.73,4.69-8.94,8.48-12.64,11.51-13.06,10.76-19.63,12.2-19.63,12.2-20.71-13.16-29.8,15.62-29.8,15.62s-4.43-10.56-9-25h0c-7.28-23.16-14.84-56.34-5.08-72.35,15.86-26,5.33-21.68,12.53-37s20.32-16.13,20.32-16.13,15.16-3.31,37.4,8.47C3196.84,918.56,3194.3,984.16,3172.84,1005.51Z"/><path class="cls-33" d="M3160.2,1017c-13.06,10.76-19.63,12.2-19.63,12.2-20.71-13.16-29.8,15.62-29.8,15.62s-4.43-10.56-9-25h0C3110.63,977.42,3160.2,1017,3160.2,1017Z"/><path class="cls-35" d="M3084.93,836c-10.93-18.45-26.22-32.27-47.14-29.29-50.07,7.14-19.92,98.92-94.61,135.32,46.23-25.11,46.85-130.2,87.62-139.28C3071,793.83,3084.58,835,3084.93,836Z"/><path d="M2971.12,965a4.9,4.9,0,0,0-3.34-5.32c-2.42-.7-5.94.48-9.82,8.94-6,13,5.42,12.19,9.82,5.13A21.28,21.28,0,0,0,2971.12,965Z"/><path d="M3029.26,990a4.91,4.91,0,0,0-3.34-5.32c-2.41-.69-5.94.49-9.82,8.94-6,13,5.42,12.2,9.82,5.14A21.16,21.16,0,0,0,3029.26,990Z"/><path class="cls-24" d="M2990,978.93s-33.53,28.59-31.33,35.54,19.19,13.12,19.19,13.12-14-6.93-10.14-17.32S2990,978.93,2990,978.93Z"/><path class="cls-36" d="M2956.22,942.61a32.52,32.52,0,0,1,7.87-5.89,41.67,41.67,0,0,1,9.08-3.72,30.91,30.91,0,0,1,9.94-1.16,18.81,18.81,0,0,1,5,1,11.58,11.58,0,0,1,4.37,2.56,31.13,31.13,0,0,0-9.21.4c-3,.52-5.87,1.27-8.81,2.06l-8.91,2.52C2962.56,941.18,2959.5,942,2956.22,942.61Z"/><path class="cls-36" d="M3032.84,954.75a20,20,0,0,1,9.88,1.82,28.79,28.79,0,0,1,8.42,5.68,31.26,31.26,0,0,1,3.33,3.86c.48.7,1,1.37,1.43,2.09s.82,1.48,1.2,2.23c.2.37.38.75.57,1.12l.46,1.17c.29.79.57,1.58.83,2.37a20.23,20.23,0,0,1,.56,2.45c.15.82.29,1.64.36,2.48-1.18-1.25-2.11-2.56-3.1-3.81-.52-.61-1-1.22-1.5-1.84l-.71-.93-.77-.88c-.5-.58-1-1.17-1.47-1.77l-1.54-1.68c-.26-.28-.5-.57-.74-.86l-.81-.8c-.53-.53-1-1.1-1.58-1.61a72.25,72.25,0,0,0-6.89-5.87A74.54,74.54,0,0,0,3032.84,954.75Z"/><path class="cls-24" d="M3001.2,1059.52s-31.65.25-60.27-20.75C2940.93,1038.77,2963.67,1066.69,3001.2,1059.52Z"/><circle class="cls-1" cx="2964.61" cy="964.21" r="2.04"/><circle class="cls-1" cx="3022.53" cy="990.21" r="2.04"/><path class="cls-1" d="M2933.16,1120.39s1.87,26.39,40.25,55.92L2990,1158.6l9,48.05s-20-32.31-25.59-30.34c0,0-3.06,15-16.83,34.36,0,0-42.54-54.54-32.7-83.08C2923.88,1127.59,2931.66,1114.58,2933.16,1120.39Z"/><path class="cls-37" d="M2991.22,1194.86s-24.45,389.74-45.8,400.1-66.48-3-66.48-17.72,62.74-398.88,94.47-400.93C2973.41,1176.31,2989.1,1175.6,2991.22,1194.86Z"/><path class="cls-20" d="M2958.46,1419.44h0c-17.17,106.6-45.47,218.47-46.06,285.48,0,0-219.11-5.67-268.56-54.39l-10.43,13.54s-66.43-26.56-65.94-62.48c0,0,96-136.55,106.29-156.47s141-272.36,187.47-298.92c27-15.43,45.2-21.21,55.71-23.35a46.78,46.78,0,0,1,10.88-1.21l.27,0s21.79,24.59,38,104.75C2976.53,1278.14,2970,1347.59,2958.46,1419.44Z"/><path class="cls-18" d="M2643.85,1650.54s82.31-119.06,96.33-136,63.48-101.86,87.83-132.12,64.22-70.85,64.22-70.85,17-17.72-5.17,17S2738,1529.27,2725.42,1599.39s4.15,85.67,4.15,85.67S2678.89,1677.34,2643.85,1650.54Z"/><path class="cls-38" d="M2958.46,1419.44c-.29-1-19.83-73.42-21.63-79.29s21.49-61.66,21.17-63.63-25.92-3.61-29.53-4.59-5.58,1.3-2-32.8c3.35-31.68-7.94-105.81-9.57-116.27l-.2-1.23c-.13-.83,9.36-.12,11.08,0l.27,0s21.79,24.59,38,104.75C2976.53,1278.14,2970,1347.59,2958.46,1419.44Z"/><path class="cls-19" d="M2969.36,1188.14s2.41,6.37,6.68,8.67,13.31.19,15.18-4.33-17.81-16.17-17.81-16.17Z"/><path class="cls-19" d="M2977.69,1197.43s6.14,28.87,1.22,163.69-21.9,272.63-17,292c0,0,10.42,25.91,14.68,28.87,0,0,17.14-12.8,20.09-29.53,0,0,9.64-274.64,7.71-345.43s-13.19-114.53-13.19-114.53Z"/><rect class="cls-19" x="1251.94" y="2071.75" width="1032.5" height="22.63"/></svg>