<svg xmlns="http://www.w3.org/2000/svg" viewBox="0 0 4680 3120"><defs><style>.cls-1{isolation:isolate;}.cls-2,.cls-38{fill:#fff;}.cls-3{fill:#a8d070;}.cls-4{fill:#5b7a6b;}.cls-5{fill:#d8e5c1;}.cls-6{fill:#f3f3f4;}.cls-7{fill:#ebecee;}.cls-8{fill:#d3d7db;}.cls-9{fill:#e0e2e5;}.cls-10{fill:#fefefe;}.cls-11,.cls-27{fill:#3d4f53;}.cls-11{opacity:0.09;}.cls-12{fill:#ffc5b8;}.cls-13,.cls-14{fill:#e98970;}.cls-14,.cls-28{opacity:0.56;}.cls-15{fill:#3d0b01;}.cls-16{fill:#4c2409;}.cls-17{fill:#6d3713;}.cls-18{fill:#87461b;}.cls-19{fill:#a34926;}.cls-20{fill:#231f20;}.cls-21{fill:#2b363c;}.cls-22,.cls-24{fill:#1c2426;}.cls-23{fill:#dbdbdb;}.cls-24,.cls-38{opacity:0.38;}.cls-25{fill:#b51a1a;}.cls-26{fill:#ca2722;}.cls-29{fill:#33231c;}.cls-30{opacity:0.61;}.cls-31{opacity:0.21;}.cls-32{fill:#fac235;}.cls-33{fill:#f9a134;}.cls-34{fill:#912c10;}.cls-34,.cls-35,.cls-39,.cls-44{mix-blend-mode:multiply;}.cls-35{fill:#c491a7;}.cls-35,.cls-39{opacity:0.5;}.cls-36{fill:#f4572d;stroke:#b43b14;}.cls-36,.cls-43{stroke-miterlimit:10;stroke-width:0.39px;}.cls-37{fill:#fbbeac;}.cls-39{fill:#ba755e;}.cls-40,.cls-41{fill:none;}.cls-41{stroke:#000;stroke-linejoin:round;stroke-width:0;}.cls-41,.cls-43{stroke-linecap:round;}.cls-42{fill:#d35e4a;}.cls-43,.cls-44{fill:#5e6667;}.cls-43{stroke:#50494a;}</style></defs><title>03</title><g class="cls-1"><g id="Mỗi_hình_1_layer_riêng" data-name="Mỗi hình 1 layer riêng"><rect class="cls-2" width="4680" height="3120"/><path class="cls-3" d="M1540.62,1434.16c3.52,85.63,123.86,83.08,127.37,168.72l-84.65,63.91c-3.52-85.64-123.86-83.09-127.37-168.73Z"/><path class="cls-4" d="M1536.31,1445.2c9.59,75.86,116.57,78.2,126.16,154.06l-74.82,56.48c-9.59-75.86-116.57-78.19-126.16-154Z"/><path class="cls-3" d="M1538.35,1469.8c22,49,92.13,61.8,114.15,110.84-6.52,4.93-8.79,14.9-6.91,23.67l-43.39,32.76c-1.88-8.77-10.14-10.8-16.59-5.92-22-49.05-92.13-61.8-114.15-110.85,6.52-4.93,8.79-14.9,6.91-23.67q21.69-16.38,43.39-32.75C1523.64,1472.65,1531.9,1474.67,1538.35,1469.8Z"/><path class="cls-4" d="M1531,1528c16-12.09,42.15-11.27,60.22.44s18,32.29,1.74,44.59c-16,12.08-42.15,11.26-60.22-.45S1514.72,1540.25,1531,1528Z"/><path class="cls-5" d="M1563.55,1531.39a26.65,26.65,0,0,1,12.61,2.59l5.64-4.26,6.94,4.66-5.39,4.06a31.62,31.62,0,0,1,5.86,5.65,16.78,16.78,0,0,1,3.1,5.62l-12.4,4a19,19,0,0,0-3.1-5.52,21.62,21.62,0,0,0-5-4.6,12.52,12.52,0,0,0-3.93-1.95,2.9,2.9,0,0,0-2.48.4,1.47,1.47,0,0,0-.32,2.17,25.85,25.85,0,0,0,3.23,3.91,43.72,43.72,0,0,1,4.77,5.88,8.33,8.33,0,0,1,1.31,5.6q-.33,3.06-4.19,6a18.78,18.78,0,0,1-10.74,3.65,26.68,26.68,0,0,1-13-3l-5.53,4.18-6.94-4.66,5.44-4.1q-5.34-4.39-7-9l12.13-4.17a19,19,0,0,0,6.91,8.46c3,2,5.22,2.44,6.71,1.32a1.42,1.42,0,0,0,.28-2.1,26.33,26.33,0,0,0-3.24-3.8,39.42,39.42,0,0,1-4.87-5.8,8.61,8.61,0,0,1-1.41-5.64q.29-3.06,4.16-6A18.5,18.5,0,0,1,1563.55,1531.39Z"/><path class="cls-5" d="M1594.87,1635.11a2.45,2.45,0,0,1,1.52,1.45l1.21-.91c.16.59.31,1.18.46,1.77l-1.15.87a9.67,9.67,0,0,1,.18,2,9.3,9.3,0,0,1-.2,1.86l-2.08.43a9.13,9.13,0,0,0,.18-1.82,6.86,6.86,0,0,0-.18-1.66,1.91,1.91,0,0,0-.34-.79.25.25,0,0,0-.38,0,.75.75,0,0,0-.26.61,11,11,0,0,0,0,1.34,17.18,17.18,0,0,1,0,2,5.41,5.41,0,0,1-.43,1.74,3.65,3.65,0,0,1-1.21,1.51,1.89,1.89,0,0,1-1.81.42,2.71,2.71,0,0,1-1.42-1.68l-1.18.9c-.15-.6-.31-1.19-.47-1.77l1.17-.88a9.17,9.17,0,0,1-.11-3l2.13-.54a7.87,7.87,0,0,0,.12,2.85c.2.76.45,1,.77.79a.81.81,0,0,0,.26-.6,11.47,11.47,0,0,0,0-1.31,17.94,17.94,0,0,1-.09-2,5.17,5.17,0,0,1,.33-1.69,3.34,3.34,0,0,1,1.16-1.48A2.14,2.14,0,0,1,1594.87,1635.11Z"/><path class="cls-5" d="M1654.88,1589.82a2.42,2.42,0,0,1,1.51,1.44l1.21-.91c.16.59.32,1.18.47,1.77l-1.16.87a9.67,9.67,0,0,1,.18,2,8.59,8.59,0,0,1-.19,1.86l-2.08.43a9.94,9.94,0,0,0,.18-1.82,6.24,6.24,0,0,0-.19-1.65,1.8,1.8,0,0,0-.33-.8.25.25,0,0,0-.38,0,.78.78,0,0,0-.27.61,11.46,11.46,0,0,0,0,1.34,15.06,15.06,0,0,1,0,2,5.16,5.16,0,0,1-.43,1.74,3.64,3.64,0,0,1-1.2,1.51,1.9,1.9,0,0,1-1.82.42A2.7,2.7,0,0,1,1649,1599l-1.19.9c-.15-.6-.3-1.19-.46-1.77l1.16-.88a9.43,9.43,0,0,1-.1-3l2.13-.53a7.85,7.85,0,0,0,.11,2.84c.2.76.45,1,.77.79a.77.77,0,0,0,.26-.6,9.15,9.15,0,0,0,0-1.31,18.2,18.2,0,0,1-.1-2,4.94,4.94,0,0,1,.34-1.69,3.38,3.38,0,0,1,1.15-1.48A2.11,2.11,0,0,1,1654.88,1589.82Z"/><path class="cls-5" d="M1472.51,1500.23a2.5,2.5,0,0,1,1.39,1.54l1.21-.91c.14.6.29,1.19.45,1.78l-1.16.88a11.66,11.66,0,0,1,.25,2,9,9,0,0,1-.1,1.78l-2.15.48a10.27,10.27,0,0,0,.11-1.77,7.78,7.78,0,0,0-.21-1.63,2.17,2.17,0,0,0-.32-.81.24.24,0,0,0-.37,0,.83.83,0,0,0-.28.62,9.22,9.22,0,0,0,0,1.34c.05.77.07,1.43.06,2a5.17,5.17,0,0,1-.36,1.68,3.43,3.43,0,0,1-1.17,1.48,2.07,2.07,0,0,1-1.88.46,2.51,2.51,0,0,1-1.5-1.61l-1.19.9c-.15-.59-.3-1.18-.44-1.78l1.16-.88a9.17,9.17,0,0,1,.06-3.1l2.05-.48a7.64,7.64,0,0,0,0,2.92c.2.77.46,1,.78.79a.8.8,0,0,0,.25-.6,11,11,0,0,0,0-1.31,15.22,15.22,0,0,1,0-2,5.46,5.46,0,0,1,.43-1.76,3.73,3.73,0,0,1,1.2-1.52A1.86,1.86,0,0,1,1472.51,1500.23Z"/><path class="cls-5" d="M1532.52,1454.93a2.53,2.53,0,0,1,1.39,1.54l1.21-.91c.14.6.29,1.2.44,1.79l-1.15.87a10.82,10.82,0,0,1,.24,2,8.3,8.3,0,0,1-.09,1.78l-2.16.48a9.25,9.25,0,0,0,.11-1.76,7.29,7.29,0,0,0-.2-1.64,2.17,2.17,0,0,0-.32-.81.25.25,0,0,0-.38,0,.8.8,0,0,0-.27.62,8.89,8.89,0,0,0,0,1.34c.05.77.08,1.43.06,2a4.7,4.7,0,0,1-.36,1.68,3.41,3.41,0,0,1-1.16,1.48,2.08,2.08,0,0,1-1.88.46,2.49,2.49,0,0,1-1.5-1.6l-1.19.89c-.16-.59-.3-1.18-.45-1.78l1.17-.88a8.92,8.92,0,0,1,.06-3.1l2.05-.48a7.45,7.45,0,0,0,0,2.92c.19.77.46,1,.77.79a.77.77,0,0,0,.26-.6c0-.28,0-.72,0-1.31a15.37,15.37,0,0,1,0-2,5.48,5.48,0,0,1,.44-1.76,3.65,3.65,0,0,1,1.2-1.52A1.86,1.86,0,0,1,1532.52,1454.93Z"/><path class="cls-3" d="M952.15,1302.78c-9.81,66.41,83.15,82,73.34,148.43L951,1488c9.81-66.41-83.15-82-73.34-148.43Z"/><path class="cls-4" d="M947.22,1310.65c-3.71,59.77,78.26,77.2,74.55,137L956,1480.14c3.71-59.77-78.26-77.2-74.55-137Z"/><path class="cls-3" d="M945.19,1329.88c9.78,40.95,61.85,61,71.63,101.95-5.74,2.84-8.94,10.18-8.77,17.2l-38.17,18.87c-.17-7-6.23-9.79-11.91-7-9.77-41-61.84-61-71.62-102,5.74-2.84,8.94-10.18,8.77-17.2l38.17-18.87C933.46,1329.92,939.51,1332.68,945.19,1329.88Z"/><path class="cls-4" d="M931,1373.55c14.08-7,34.07-2.51,46.26,9.14s9.15,27.47-5.17,34.55c-14.08,7-34.08,2.51-46.26-9.14S916.72,1380.63,931,1373.55Z"/><path class="cls-5" d="M955.58,1381a20.85,20.85,0,0,1,9.33,3.83l5-2.46,4.65,4.6-4.74,2.34a24.38,24.38,0,0,1,3.69,5.2,13.13,13.13,0,0,1,1.56,4.78l-10.13,1.29a14.74,14.74,0,0,0-1.58-4.7,16.9,16.9,0,0,0-3.14-4.27,9.88,9.88,0,0,0-2.74-2.07,2.29,2.29,0,0,0-2-.06,1.16,1.16,0,0,0-.57,1.63,20.54,20.54,0,0,0,1.91,3.48,34.06,34.06,0,0,1,2.82,5.22,6.56,6.56,0,0,1,.19,4.5q-.71,2.29-4.1,4a14.65,14.65,0,0,1-8.8,1.24,21,21,0,0,1-9.55-4.21l-4.87,2.41-4.66-4.59,4.78-2.37a16.53,16.53,0,0,1-4-7.94l9.94-1.44a14.88,14.88,0,0,0,4.08,7.53c2,2,3.66,2.64,5,2a1.1,1.1,0,0,0,.52-1.57,20.19,20.19,0,0,0-1.94-3.4,31.7,31.7,0,0,1-2.9-5.17,6.78,6.78,0,0,1-.26-4.55q.68-2.31,4.07-4A14.52,14.52,0,0,1,955.58,1381Z"/><path class="cls-5" d="M964.52,1465.32a1.92,1.92,0,0,1,1,1.34l1.06-.53c0,.48.07.95.1,1.43l-1,.5a7.19,7.19,0,0,1-.15,1.59,7.39,7.39,0,0,1-.42,1.39l-1.67,0a7.09,7.09,0,0,0,.41-1.38,5.43,5.43,0,0,0,.1-1.29,1.64,1.64,0,0,0-.14-.67.2.2,0,0,0-.29-.07.63.63,0,0,0-.3.43,9.15,9.15,0,0,0-.16,1,14.23,14.23,0,0,1-.29,1.56,4.12,4.12,0,0,1-.58,1.27,2.86,2.86,0,0,1-1.15,1,1.5,1.5,0,0,1-1.46,0,2.13,2.13,0,0,1-.84-1.49l-1,.51c0-.48-.06-1-.1-1.43l1-.5a7.31,7.31,0,0,1,.36-2.31l1.71-.1a6,6,0,0,0-.32,2.2c0,.62.19.86.48.72a.59.59,0,0,0,.28-.42,7.4,7.4,0,0,0,.16-1,12.7,12.7,0,0,1,.21-1.52,4,4,0,0,1,.51-1.26,2.66,2.66,0,0,1,1.1-1A1.65,1.65,0,0,1,964.52,1465.32Z"/><path class="cls-5" d="M1017.31,1439.24a1.87,1.87,0,0,1,1,1.33l1.07-.52c0,.47.07,1,.1,1.43l-1,.5a7.77,7.77,0,0,1-.16,1.58,6.25,6.25,0,0,1-.42,1.4l-1.66,0a7.49,7.49,0,0,0,.4-1.37,4.63,4.63,0,0,0,.1-1.3,1.54,1.54,0,0,0-.14-.66.2.2,0,0,0-.29-.08.64.64,0,0,0-.29.44,8.65,8.65,0,0,0-.17,1,11.83,11.83,0,0,1-.28,1.55,4.2,4.2,0,0,1-.59,1.28,2.88,2.88,0,0,1-1.14,1,1.47,1.47,0,0,1-1.46.06,2.1,2.1,0,0,1-.84-1.5l-1.05.52c0-.48-.06-1-.1-1.43l1-.51a7.26,7.26,0,0,1,.35-2.3l1.72-.11a6.33,6.33,0,0,0-.33,2.21q.06.93.48.72a.65.65,0,0,0,.29-.43,7.22,7.22,0,0,0,.15-1,15.3,15.3,0,0,1,.22-1.52,3.68,3.68,0,0,1,.5-1.25,2.58,2.58,0,0,1,1.11-1A1.64,1.64,0,0,1,1017.31,1439.24Z"/><path class="cls-5" d="M890.09,1343.67a2,2,0,0,1,.85,1.39l1.06-.53c0,.49,0,1,.08,1.44l-1,.5A9.1,9.1,0,0,1,891,1348a5.93,5.93,0,0,1-.33,1.35l-1.73.06a7.32,7.32,0,0,0,.35-1.34,6.65,6.65,0,0,0,.08-1.29,1.6,1.6,0,0,0-.13-.67.19.19,0,0,0-.28-.08.64.64,0,0,0-.31.43,7.41,7.41,0,0,0-.17,1c-.08.6-.16,1.11-.25,1.54a3.78,3.78,0,0,1-.52,1.24,2.7,2.7,0,0,1-1.11,1,1.6,1.6,0,0,1-1.51.08,2,2,0,0,1-.93-1.46l-1,.52c0-.48-.06-1-.08-1.44l1-.5a7.31,7.31,0,0,1,.5-2.38l1.65-.07a5.7,5.7,0,0,0-.42,2.25c0,.62.2.86.48.72a.61.61,0,0,0,.28-.42,7.34,7.34,0,0,0,.16-1A12.48,12.48,0,0,1,887,1346a4.14,4.14,0,0,1,.59-1.29,2.89,2.89,0,0,1,1.14-1A1.45,1.45,0,0,1,890.09,1343.67Z"/><path class="cls-5" d="M942.88,1317.58a2,2,0,0,1,.84,1.39l1.07-.52c0,.48,0,1,.08,1.44l-1,.5a8.91,8.91,0,0,1-.1,1.55,7.33,7.33,0,0,1-.33,1.36l-1.73,0A8,8,0,0,0,942,1322a5.32,5.32,0,0,0,.08-1.29,1.68,1.68,0,0,0-.13-.67.19.19,0,0,0-.28-.08.65.65,0,0,0-.3.44,8.45,8.45,0,0,0-.18,1q-.11.9-.24,1.53a4.21,4.21,0,0,1-.52,1.25,2.72,2.72,0,0,1-1.12,1,1.63,1.63,0,0,1-1.51.09,2,2,0,0,1-.92-1.46l-1,.52c0-.48-.06-1-.08-1.44l1-.51a7,7,0,0,1,.49-2.37L939,1320a6,6,0,0,0-.42,2.25c0,.62.2.85.48.72a.62.62,0,0,0,.29-.43c.05-.21.1-.55.16-1a12.62,12.62,0,0,1,.27-1.55,4.66,4.66,0,0,1,.59-1.29,2.86,2.86,0,0,1,1.15-1A1.46,1.46,0,0,1,942.88,1317.58Z"/><path class="cls-3" d="M1362.8,2182.89c-50.62-44.07-113.91,25.79-164.54-18.29l9.18-82.55c50.62,44.07,113.91-25.79,164.54,18.28Z"/><path class="cls-4" d="M1358.84,2174.5c-48.33-35.36-107.22,24.27-155.54-11.09q4-36.48,8.11-73c48.32,35.35,107.21-24.27,155.54,11.09Q1362.89,2138,1358.84,2174.5Z"/><path class="cls-3" d="M1343.74,2162.43c-39.76-13.86-84.73,19.17-124.49,5.32.71-6.36-3.75-13-9.75-16.66q2.36-21.16,4.7-42.32c6,3.65,11.6,0,12.3-6.26,39.76,13.86,84.73-19.17,124.49-5.32-.71,6.36,3.75,13,9.75,16.66q-2.34,21.17-4.7,42.32C1350,2152.52,1344.44,2156.13,1343.74,2162.43Z"/><path class="cls-4" d="M1314.6,2127c-1.74,15.61-16.26,30.05-32.65,34s-28.07-7.11-26.31-23c1.74-15.62,16.27-30,32.65-34S1316.36,2111.07,1314.6,2127Z"/><path class="cls-5" d="M1295.13,2143.63a20.91,20.91,0,0,1-8.25,5.78c-.21,1.84-.41,3.67-.61,5.51-2.13.47-4.26,1-6.38,1.44.19-1.75.38-3.51.58-5.26a24.83,24.83,0,0,1-6.37.3,13.13,13.13,0,0,1-4.86-1.26c1.46-3.07,2.91-6.15,4.38-9.23a14.84,14.84,0,0,0,4.8,1.21,17,17,0,0,0,5.29-.35,9.85,9.85,0,0,0,3.22-1.18A2.29,2.29,0,0,0,1288,2139a1.15,1.15,0,0,0-1.06-1.35,20.15,20.15,0,0,0-4-.27,33.93,33.93,0,0,1-5.9-.44,6.57,6.57,0,0,1-3.9-2.27q-1.56-1.83-1.14-5.6a14.59,14.59,0,0,1,3.7-8.07,20.82,20.82,0,0,1,8.69-5.78l.6-5.4,6.38-1.44c-.19,1.76-.39,3.53-.58,5.3a16.57,16.57,0,0,1,8.85.89q-2.07,4.56-4.15,9.14a15,15,0,0,0-8.53-.62c-2.75.63-4.2,1.66-4.36,3.11q-.12,1.05,1,1.29a20,20,0,0,0,3.9.2,31.06,31.06,0,0,1,5.92.35,6.7,6.7,0,0,1,4,2.24q1.59,1.8,1.17,5.57A14.57,14.57,0,0,1,1295.13,2143.63Z"/><path class="cls-5" d="M1219.26,2105.65a1.9,1.9,0,0,1-1.64.08c0,.4-.09.79-.13,1.18q-.63-.33-1.26-.69l.12-1.12a8.21,8.21,0,0,1-1.24-1,6.66,6.66,0,0,1-.95-1.12l.87-1.41a8,8,0,0,0,.94,1.08,5,5,0,0,0,1,.79,1.55,1.55,0,0,0,.64.24c.13,0,.2-.07.22-.21a.68.68,0,0,0-.21-.48,10.21,10.21,0,0,0-.78-.69,14.41,14.41,0,0,1-1.16-1.08,4.25,4.25,0,0,1-.75-1.18,2.9,2.9,0,0,1-.21-1.5,1.45,1.45,0,0,1,.74-1.26,2.08,2.08,0,0,1,1.71.1c0-.39.09-.77.13-1.16q.63.36,1.26.69c0,.38-.09.76-.13,1.14a7.32,7.32,0,0,1,1.75,1.54l-.84,1.5a6.39,6.39,0,0,0-1.68-1.47c-.54-.29-.83-.29-.86,0a.59.59,0,0,0,.2.47,8.2,8.2,0,0,0,.77.68,13,13,0,0,1,1.16,1,3.89,3.89,0,0,1,.78,1.1,2.58,2.58,0,0,1,.22,1.45A1.63,1.63,0,0,1,1219.26,2105.65Z"/><path class="cls-5" d="M1212.75,2164.17a1.9,1.9,0,0,1-1.64.08c0,.4-.08.79-.13,1.18-.42-.22-.84-.45-1.25-.69l.12-1.12a7.76,7.76,0,0,1-1.25-1,7.13,7.13,0,0,1-.95-1.11l.88-1.41a7.27,7.27,0,0,0,.94,1.08,5,5,0,0,0,1,.79,1.51,1.51,0,0,0,.63.23.19.19,0,0,0,.22-.2.62.62,0,0,0-.2-.48,9.67,9.67,0,0,0-.78-.7,12.93,12.93,0,0,1-1.16-1.07,4.28,4.28,0,0,1-.76-1.18,2.9,2.9,0,0,1-.21-1.5,1.5,1.5,0,0,1,.74-1.26,2.11,2.11,0,0,1,1.72.1l.12-1.16,1.26.69-.12,1.14a7.06,7.06,0,0,1,1.74,1.54l-.84,1.5a6.09,6.09,0,0,0-1.68-1.47c-.54-.29-.82-.29-.86,0a.64.64,0,0,0,.2.47,8.29,8.29,0,0,0,.77.67c.47.37.85.7,1.17,1a4.09,4.09,0,0,1,.78,1.11,2.67,2.67,0,0,1,.22,1.45A1.69,1.69,0,0,1,1212.75,2164.17Z"/><path class="cls-5" d="M1361.84,2108.59a2,2,0,0,1-1.62,0c0,.39-.09.78-.13,1.18-.42-.25-.84-.48-1.26-.71,0-.38.09-.75.13-1.13a9.45,9.45,0,0,1-1.26-.92,7.37,7.37,0,0,1-1-1l.89-1.49a7.48,7.48,0,0,0,.94,1,5.94,5.94,0,0,0,1,.76,1.61,1.61,0,0,0,.64.25c.13,0,.2-.06.22-.19a.64.64,0,0,0-.21-.49,6.07,6.07,0,0,0-.78-.71c-.46-.39-.85-.73-1.16-1a3.76,3.76,0,0,1-.76-1.11,2.59,2.59,0,0,1-.22-1.45,1.62,1.62,0,0,1,.75-1.32,1.94,1.94,0,0,1,1.72,0c0-.39.09-.78.13-1.16l1.26.7c0,.38-.09.76-.13,1.14a7,7,0,0,1,1.73,1.7c-.28.47-.55,1-.83,1.43a5.84,5.84,0,0,0-1.67-1.57c-.54-.3-.83-.29-.86,0a.57.57,0,0,0,.2.46,8,8,0,0,0,.77.69,11.45,11.45,0,0,1,1.16,1.06,4.84,4.84,0,0,1,.77,1.2,2.9,2.9,0,0,1,.21,1.5A1.44,1.44,0,0,1,1361.84,2108.59Z"/><path class="cls-5" d="M1355.34,2167.11a2,2,0,0,1-1.63,0c0,.39-.08.78-.13,1.17-.41-.24-.83-.47-1.25-.7l.12-1.13a9.35,9.35,0,0,1-1.25-.92,6.81,6.81,0,0,1-1-1l.88-1.49a7.49,7.49,0,0,0,1,1,5.67,5.67,0,0,0,1,.77,1.64,1.64,0,0,0,.63.25.19.19,0,0,0,.22-.19.66.66,0,0,0-.2-.5,8.06,8.06,0,0,0-.78-.7,14.9,14.9,0,0,1-1.16-1,3.78,3.78,0,0,1-.77-1.11,2.7,2.7,0,0,1-.21-1.46,1.67,1.67,0,0,1,.74-1.32,2,2,0,0,1,1.73,0c0-.38.08-.77.13-1.15l1.25.7-.12,1.14a7.17,7.17,0,0,1,1.73,1.7c-.28.47-.56,1-.83,1.43a6,6,0,0,0-1.67-1.57c-.54-.31-.83-.29-.87,0a.64.64,0,0,0,.21.46,9.23,9.23,0,0,0,.76.68,11.53,11.53,0,0,1,1.16,1.07,4.33,4.33,0,0,1,.77,1.2,2.78,2.78,0,0,1,.22,1.49A1.48,1.48,0,0,1,1355.34,2167.11Z"/><path class="cls-3" d="M1497.67,1541.56c46.89,71.75,148.93,7.92,195.82,79.66q-20,49.14-40,98.26c-46.88-71.75-148.93-7.91-195.82-79.66Q1477.7,1590.7,1497.67,1541.56Z"/><path class="cls-4" d="M1499.63,1553.26c47.09,60.24,140.17,7.44,187.26,67.68q-17.66,43.43-35.32,86.84c-47.1-60.24-140.17-7.44-187.27-67.68Q1482,1596.68,1499.63,1553.26Z"/><path class="cls-3" d="M1514,1573.34c44,30.84,110.78,5.88,154.82,36.72-3.08,7.58.08,17.3,6.19,23.87l-20.49,50.36c-6.11-6.57-14.24-4.08-17.29,3.41-44-30.84-110.77-5.88-154.81-36.72,3.08-7.58-.08-17.3-6.19-23.87q10.24-25.17,20.48-50.36C1502.8,1583.32,1510.93,1580.83,1514,1573.34Z"/><path class="cls-4" d="M1537.46,1627.05c7.56-18.58,30.43-31.26,51.94-30.46s32,18.5,24.33,37.4c-7.55,18.58-30.42,31.27-51.94,30.46S1529.77,1646,1537.46,1627.05Z"/><path class="cls-5" d="M1567.18,1613.33a26.55,26.55,0,0,1,12.15-4.24c.88-2.18,1.77-4.37,2.66-6.55l8.34.45c-.84,2.08-1.69,4.17-2.54,6.25a31.58,31.58,0,0,1,7.92,1.85,16.79,16.79,0,0,1,5.55,3.24q-4.29,4.9-8.59,9.82a18.7,18.7,0,0,0-5.49-3.16,21.84,21.84,0,0,0-6.62-1.41,12.53,12.53,0,0,0-4.37.34,2.89,2.89,0,0,0-1.92,1.61,1.46,1.46,0,0,0,.83,2,26,26,0,0,0,4.78,1.7,43.06,43.06,0,0,1,7.1,2.61,8.27,8.27,0,0,1,4,4.14c.86,1.86.67,4.29-.54,7.28a18.75,18.75,0,0,1-7.35,8.63,26.69,26.69,0,0,1-12.69,4.07l-2.62,6.43-8.34-.45c.86-2.1,1.71-4.2,2.57-6.31q-6.84-1-10.58-4.17l8.28-9.79a19.1,19.1,0,0,0,10.27,3.73q5.38.28,6.44-2.31a1.4,1.4,0,0,0-.84-1.94,25.42,25.42,0,0,0-4.73-1.61,39.48,39.48,0,0,1-7.15-2.49,8.53,8.53,0,0,1-4.09-4.12c-.89-1.85-.71-4.27.5-7.26A18.49,18.49,0,0,1,1567.18,1613.33Z"/><path class="cls-5" d="M1647.21,1686.37a2.42,2.42,0,0,1,2,.46l.57-1.4,1.31,1.28c-.19.45-.37.9-.55,1.34a10.25,10.25,0,0,1,1.19,1.64,8.67,8.67,0,0,1,.78,1.7l-1.57,1.43a9.86,9.86,0,0,0-.77-1.65,6.34,6.34,0,0,0-1-1.33,1.87,1.87,0,0,0-.69-.51.25.25,0,0,0-.34.17.77.77,0,0,0,.08.66,10.25,10.25,0,0,0,.72,1.13,18.34,18.34,0,0,1,1,1.72,5.16,5.16,0,0,1,.52,1.72,3.65,3.65,0,0,1-.26,1.91,1.89,1.89,0,0,1-1.34,1.29,2.68,2.68,0,0,1-2.08-.72c-.18.46-.37.92-.56,1.38-.43-.43-.86-.86-1.3-1.28.18-.45.36-.9.55-1.35a9.11,9.11,0,0,1-1.61-2.51l1.55-1.55a8.16,8.16,0,0,0,1.55,2.39c.57.55.92.65,1.07.28a.79.79,0,0,0-.09-.65,9.32,9.32,0,0,0-.7-1.1,18.46,18.46,0,0,1-1.09-1.63,4.86,4.86,0,0,1-.57-1.63,3.3,3.3,0,0,1,.23-1.86A2.11,2.11,0,0,1,1647.21,1686.37Z"/><path class="cls-5" d="M1675.54,1616.72a2.43,2.43,0,0,1,2,.47l.57-1.4c.44.42.87.84,1.31,1.28-.19.45-.37.89-.55,1.34a9.82,9.82,0,0,1,1.19,1.64,8.67,8.67,0,0,1,.78,1.7l-1.56,1.43a10,10,0,0,0-.78-1.66,6.9,6.9,0,0,0-1-1.32,2.18,2.18,0,0,0-.7-.52.26.26,0,0,0-.34.18.77.77,0,0,0,.08.66,10.25,10.25,0,0,0,.72,1.13,15.45,15.45,0,0,1,1,1.72,5.18,5.18,0,0,1,.52,1.71,3.67,3.67,0,0,1-.26,1.92,1.89,1.89,0,0,1-1.34,1.29,2.72,2.72,0,0,1-2.08-.72c-.18.46-.37.92-.56,1.38-.43-.44-.86-.86-1.3-1.28l.55-1.36a8.93,8.93,0,0,1-1.61-2.5l1.55-1.55a8,8,0,0,0,1.55,2.38c.57.56.92.66,1.07.28a.77.77,0,0,0-.09-.64,8.56,8.56,0,0,0-.7-1.1,18.46,18.46,0,0,1-1.09-1.63,4.86,4.86,0,0,1-.57-1.63,3.3,3.3,0,0,1,.23-1.86A2.11,2.11,0,0,1,1675.54,1616.72Z"/><path class="cls-5" d="M1473,1633.2a2.56,2.56,0,0,1,2,.61l.57-1.4c.43.44.86.88,1.3,1.3-.19.45-.37.9-.55,1.34a11.67,11.67,0,0,1,1.22,1.58,8.93,8.93,0,0,1,.83,1.57l-1.6,1.52a10.63,10.63,0,0,0-.81-1.57,7.54,7.54,0,0,0-1-1.3,2,2,0,0,0-.69-.53.25.25,0,0,0-.34.16.84.84,0,0,0,.09.67,9.1,9.1,0,0,0,.7,1.14c.45.64.8,1.2,1.07,1.68a4.91,4.91,0,0,1,.56,1.63,3.44,3.44,0,0,1-.24,1.87,2.14,2.14,0,0,1-1.38,1.36,2.58,2.58,0,0,1-2.12-.61l-.56,1.37c-.43-.42-.86-.86-1.29-1.3.18-.45.36-.9.55-1.35a8.82,8.82,0,0,1-1.54-2.69l1.52-1.47a7.49,7.49,0,0,0,1.5,2.51c.56.56.92.65,1.07.28a.79.79,0,0,0-.09-.65,10.24,10.24,0,0,0-.7-1.1,14,14,0,0,1-1-1.72,5.48,5.48,0,0,1-.54-1.73,3.67,3.67,0,0,1,.26-1.92A1.86,1.86,0,0,1,1473,1633.2Z"/><path class="cls-5" d="M1501.35,1563.56a2.52,2.52,0,0,1,2,.61l.57-1.4c.43.44.86.87,1.3,1.3-.19.45-.37.89-.55,1.34a11.58,11.58,0,0,1,1.22,1.57,9,9,0,0,1,.83,1.58l-1.6,1.52a10.73,10.73,0,0,0-.81-1.58,8,8,0,0,0-1-1.3,2.14,2.14,0,0,0-.69-.53.25.25,0,0,0-.34.17.84.84,0,0,0,.09.67,8.31,8.31,0,0,0,.71,1.14c.44.64.79,1.19,1.06,1.68a4.91,4.91,0,0,1,.56,1.63,3.39,3.39,0,0,1-.24,1.86,2.09,2.09,0,0,1-1.38,1.36,2.51,2.51,0,0,1-2.12-.61c-.18.46-.37.92-.56,1.38l-1.29-1.3c.18-.45.36-.91.55-1.36a9,9,0,0,1-1.54-2.69l1.52-1.46a7.6,7.6,0,0,0,1.5,2.51c.56.56.92.64,1.07.27a.77.77,0,0,0-.09-.64,10.24,10.24,0,0,0-.7-1.1,14,14,0,0,1-1.05-1.72,5.38,5.38,0,0,1-.53-1.73,3.57,3.57,0,0,1,.25-1.92A1.86,1.86,0,0,1,1501.35,1563.56Z"/><path class="cls-3" d="M1400.82,1788.91c84.31,15.46,108.36-102.49,192.66-87q21.84,48.34,43.67,96.67c-84.31-15.46-108.36,102.48-192.67,87Z"/><path class="cls-4" d="M1410.64,1795.54c76.11,7.38,102-96.45,178.09-89.07q19.3,42.72,38.59,85.44c-76.1-7.38-102,96.45-178.08,89.08Q1429.94,1838.27,1410.64,1795.54Z"/><path class="cls-3" d="M1435.09,1799c52.69-10.66,80.59-76.23,133.29-86.89,3.36,7.45,12.59,11.86,21.56,12l22.38,49.54c-9-.09-12.77,7.51-9.44,14.89-52.69,10.66-80.6,76.22-133.29,86.89-3.37-7.45-12.59-11.86-21.56-12l-22.38-49.55C1434.62,1814,1438.42,1806.35,1435.09,1799Z"/><path class="cls-4" d="M1490.19,1819c-8.25-18.28-1.69-43.6,13.71-58.64s35.48-10.46,43.87,8.14c8.26,18.28,1.7,43.6-13.71,58.63S1498.59,1837.57,1490.19,1819Z"/><path class="cls-5" d="M1500.72,1788a26.64,26.64,0,0,1,5.3-11.73l-2.91-6.44,6.07-5.74q1.39,3.08,2.78,6.15a31.82,31.82,0,0,1,6.8-4.47,16.6,16.6,0,0,1,6.17-1.78l1.2,13a18.41,18.41,0,0,0-6.07,1.8,21.71,21.71,0,0,0-5.59,3.82,12.74,12.74,0,0,0-2.76,3.4,2.92,2.92,0,0,0-.16,2.51,1.48,1.48,0,0,0,2,.8,27.18,27.18,0,0,0,4.53-2.3,42.67,42.67,0,0,1,6.78-3.35,8.36,8.36,0,0,1,5.75-.05q2.91,1,4.9,5.41a18.73,18.73,0,0,1,1.19,11.28,26.69,26.69,0,0,1-5.79,12l2.86,6.33-6.07,5.74-2.81-6.21q-5.46,4.23-10.31,4.79-.69-6.37-1.39-12.75a19.1,19.1,0,0,0,9.78-4.88q3.92-3.7,2.76-6.25a1.4,1.4,0,0,0-2-.73,25.84,25.84,0,0,0-4.43,2.32,39,39,0,0,1-6.73,3.46,8.47,8.47,0,0,1-5.81.13q-2.91-.95-4.91-5.36A18.56,18.56,0,0,1,1500.72,1788Z"/><path class="cls-5" d="M1608.8,1780.32a2.43,2.43,0,0,1,1.74-1.16c-.2-.46-.41-.92-.62-1.38l1.83-.07c.2.44.4.88.59,1.32a10.1,10.1,0,0,1,2,.27,8.82,8.82,0,0,1,1.76.6c0,.71,0,1.42,0,2.13a9.11,9.11,0,0,0-1.74-.58,6.69,6.69,0,0,0-1.65-.19,2.06,2.06,0,0,0-.85.15.26.26,0,0,0-.11.37.77.77,0,0,0,.54.39,11,11,0,0,0,1.31.26,18.21,18.21,0,0,1,2,.43,5.33,5.33,0,0,1,1.6.8,3.78,3.78,0,0,1,1.21,1.51,1.88,1.88,0,0,1,0,1.87,2.71,2.71,0,0,1-1.94,1c.2.45.4.9.61,1.35l-1.83.06-.6-1.33a9.31,9.31,0,0,1-2.93-.55c0-.74,0-1.47-.05-2.2a7.86,7.86,0,0,0,2.8.52c.79,0,1.1-.22.94-.58a.81.81,0,0,0-.53-.39,9.94,9.94,0,0,0-1.28-.24c-.75-.1-1.39-.21-1.94-.34a4.86,4.86,0,0,1-1.57-.7,3.38,3.38,0,0,1-1.19-1.45A2.11,2.11,0,0,1,1608.8,1780.32Z"/><path class="cls-5" d="M1577.85,1711.8a2.43,2.43,0,0,1,1.74-1.16c-.2-.46-.41-.92-.62-1.38l1.83-.07.6,1.32a10.1,10.1,0,0,1,2,.27,8.82,8.82,0,0,1,1.76.6c0,.71,0,1.42,0,2.13a9.26,9.26,0,0,0-1.73-.58,6.82,6.82,0,0,0-1.66-.19,2.06,2.06,0,0,0-.85.15.27.27,0,0,0-.11.37.77.77,0,0,0,.54.39,9.26,9.26,0,0,0,1.31.26,17.69,17.69,0,0,1,2,.43,5.14,5.14,0,0,1,1.6.81,3.68,3.68,0,0,1,1.21,1.5,1.88,1.88,0,0,1,0,1.87,2.71,2.71,0,0,1-1.94,1l.61,1.35-1.83.06-.6-1.33a9.19,9.19,0,0,1-2.92-.55l-.06-2.2a7.9,7.9,0,0,0,2.8.52c.79,0,1.1-.22.94-.58a.8.8,0,0,0-.53-.38,8.2,8.2,0,0,0-1.28-.25,17.41,17.41,0,0,1-1.94-.34,4.86,4.86,0,0,1-1.57-.7,3.38,3.38,0,0,1-1.19-1.45A2.11,2.11,0,0,1,1577.85,1711.8Z"/><path class="cls-5" d="M1450.25,1869.91a2.48,2.48,0,0,1,1.81-1l-.63-1.38c.62,0,1.23,0,1.84,0l.6,1.32a12.08,12.08,0,0,1,2,.2,7.91,7.91,0,0,1,1.71.49v2.2a10.14,10.14,0,0,0-1.7-.49,7,7,0,0,0-1.64-.16,2.17,2.17,0,0,0-.86.13.25.25,0,0,0-.12.36.83.83,0,0,0,.55.4,9,9,0,0,0,1.31.28c.77.12,1.42.24,2,.38a4.72,4.72,0,0,1,1.57.72,3.39,3.39,0,0,1,1.18,1.46,2.06,2.06,0,0,1,0,1.93,2.54,2.54,0,0,1-1.9,1.12l.61,1.35c-.61,0-1.22,0-1.84,0l-.6-1.33a8.82,8.82,0,0,1-3-.74c0-.7,0-1.4,0-2.11a7.24,7.24,0,0,0,2.85.64c.79,0,1.1-.22.94-.58a.77.77,0,0,0-.53-.38,11.08,11.08,0,0,0-1.28-.25,16.67,16.67,0,0,1-2-.42,5.59,5.59,0,0,1-1.62-.81,3.65,3.65,0,0,1-1.22-1.51A1.85,1.85,0,0,1,1450.25,1869.91Z"/><path class="cls-5" d="M1419.3,1801.39a2.5,2.5,0,0,1,1.81-1c-.21-.46-.42-.92-.62-1.38l1.83,0,.6,1.31a12.08,12.08,0,0,1,2,.2,8.33,8.33,0,0,1,1.71.49v2.2a10.14,10.14,0,0,0-1.7-.49,7,7,0,0,0-1.64-.16,2.17,2.17,0,0,0-.86.13.25.25,0,0,0-.12.36.87.87,0,0,0,.55.41,11,11,0,0,0,1.31.27c.77.12,1.42.24,1.95.38a4.72,4.72,0,0,1,1.57.72,3.39,3.39,0,0,1,1.18,1.46,2.06,2.06,0,0,1,0,1.93,2.52,2.52,0,0,1-1.9,1.12l.61,1.35c-.61,0-1.22,0-1.84,0l-.6-1.33a8.82,8.82,0,0,1-3-.74c0-.7,0-1.4,0-2.11a7.24,7.24,0,0,0,2.85.64c.8,0,1.1-.22.94-.58a.74.74,0,0,0-.53-.38,11.08,11.08,0,0,0-1.28-.25,16.67,16.67,0,0,1-2-.42,5.59,5.59,0,0,1-1.62-.81,3.65,3.65,0,0,1-1.22-1.51A1.85,1.85,0,0,1,1419.3,1801.39Z"/><path class="cls-3" d="M1140.67,1566.6c73,44.89,138.08-56.37,211.09-11.48l5.76,105.92c-73-44.9-138.08,56.37-211.09,11.47Z"/><path class="cls-4" d="M1147.43,1576.34c68.29,34.4,130-53,198.24-18.66q2.55,46.82,5.09,93.62c-68.29-34.4-130,53-198.24,18.65Q1150,1623.15,1147.43,1576.34Z"/><path class="cls-3" d="M1169,1588.38c53,9.11,102.71-41.93,155.69-32.82.45,8.16,7.46,15.61,15.78,19q1.49,27.13,3,54.28c-8.32-3.33-14.61,2.39-14.18,10.46-53-9.1-102.7,41.93-155.69,32.83-.44-8.17-7.45-15.62-15.78-18.95q-1.47-27.14-3-54.28C1163.12,1602.18,1169.41,1596.46,1169,1588.38Z"/><path class="cls-4" d="M1213.12,1627c-1.09-20,14.18-41.26,34-49.71s36.86,3.07,38,23.45c1.08,20-14.19,41.26-34,49.71S1214.23,1647.32,1213.12,1627Z"/><path class="cls-5" d="M1234.14,1601.86a26.89,26.89,0,0,1,9.18-9q-.18-3.52-.38-7l7.74-3.16.36,6.74a31.71,31.71,0,0,1,8-1.71,16.79,16.79,0,0,1,6.4.57q-1.8,6.26-3.59,12.54a18.81,18.81,0,0,0-6.3-.51,21.5,21.5,0,0,0-6.59,1.54,12.32,12.32,0,0,0-3.81,2.18,2.9,2.9,0,0,0-1.06,2.27c0,.94.6,1.43,1.63,1.49a26.76,26.76,0,0,0,5-.5,43,43,0,0,1,7.53-.68,8.37,8.37,0,0,1,5.38,2q2.35,2,2.62,6.82a18.76,18.76,0,0,1-3,10.94,26.69,26.69,0,0,1-9.74,9.1l.38,6.93-7.74,3.15c-.12-2.27-.25-4.53-.37-6.8q-6.61,2-11.34.74l3.3-12.39a19.19,19.19,0,0,0,10.89-1c3.32-1.36,4.94-3,4.84-4.84,0-.89-.58-1.35-1.59-1.39a24.66,24.66,0,0,0-5,.56,39.5,39.5,0,0,1-7.53.8,8.64,8.64,0,0,1-5.47-2q-2.37-1.95-2.63-6.78A18.52,18.52,0,0,1,1234.14,1601.86Z"/><path class="cls-5" d="M1337.68,1633.78a2.49,2.49,0,0,1,2-.45c0-.5-.06-1-.08-1.51.57.19,1.15.4,1.72.61,0,.48.06,1,.08,1.44a9.4,9.4,0,0,1,1.78,1,8.45,8.45,0,0,1,1.43,1.2l-.81,2a9.47,9.47,0,0,0-1.41-1.16,6.59,6.59,0,0,0-1.47-.78,1.93,1.93,0,0,0-.85-.16.25.25,0,0,0-.23.3.78.78,0,0,0,.36.56,12.07,12.07,0,0,0,1.12.72,16.57,16.57,0,0,1,1.69,1.11,5.34,5.34,0,0,1,1.2,1.33,3.67,3.67,0,0,1,.58,1.84,1.89,1.89,0,0,1-.67,1.74,2.75,2.75,0,0,1-2.18.24c0,.49,0,1,.08,1.48-.58-.21-1.15-.41-1.73-.6,0-.49,0-1-.08-1.46a9.32,9.32,0,0,1-2.52-1.58c.25-.69.49-1.38.74-2.06a7.86,7.86,0,0,0,2.42,1.49c.75.26,1.11.2,1.09-.2a.78.78,0,0,0-.36-.55,9,9,0,0,0-1.1-.69,19.49,19.49,0,0,1-1.68-1,5.09,5.09,0,0,1-1.22-1.23,3.37,3.37,0,0,1-.58-1.78A2.14,2.14,0,0,1,1337.68,1633.78Z"/><path class="cls-5" d="M1333.6,1558.71a2.44,2.44,0,0,1,2.05-.45l-.09-1.51c.58.19,1.16.39,1.73.6,0,.48,0,1,.08,1.45a9.35,9.35,0,0,1,1.78,1,9,9,0,0,1,1.43,1.2l-.81,2a8.94,8.94,0,0,0-1.41-1.17,6.52,6.52,0,0,0-1.47-.77,2.15,2.15,0,0,0-.85-.17.26.26,0,0,0-.24.3.8.8,0,0,0,.36.57,13,13,0,0,0,1.13.71,15.24,15.24,0,0,1,1.68,1.12,5.14,5.14,0,0,1,1.21,1.32,3.7,3.7,0,0,1,.58,1.84,1.91,1.91,0,0,1-.67,1.75,2.71,2.71,0,0,1-2.18.23c0,.5,0,1,.08,1.49l-1.73-.61-.08-1.45a9.32,9.32,0,0,1-2.52-1.58c.24-.69.49-1.38.74-2.07a7.72,7.72,0,0,0,2.42,1.5c.75.26,1.11.2,1.09-.2a.8.8,0,0,0-.36-.55,8.12,8.12,0,0,0-1.11-.69,16.86,16.86,0,0,1-1.67-1,4.88,4.88,0,0,1-1.22-1.22,3.37,3.37,0,0,1-.58-1.78A2.12,2.12,0,0,1,1333.6,1558.71Z"/><path class="cls-5" d="M1157.46,1660a2.57,2.57,0,0,1,2.06-.29c0-.5-.06-1-.08-1.51.57.22,1.15.43,1.73.63,0,.48,0,1,.07,1.44a11.88,11.88,0,0,1,1.78.9,8.6,8.6,0,0,1,1.42,1.07c-.27.69-.53,1.38-.8,2.06a9.71,9.71,0,0,0-1.41-1.08,7.23,7.23,0,0,0-1.47-.74,2,2,0,0,0-.85-.18c-.17,0-.24.11-.23.29a.8.8,0,0,0,.36.57,8.75,8.75,0,0,0,1.12.73c.67.39,1.23.74,1.68,1.06a4.9,4.9,0,0,1,1.2,1.24,3.4,3.4,0,0,1,.58,1.79,2.12,2.12,0,0,1-.66,1.82,2.55,2.55,0,0,1-2.18.35c0,.49,0,1,.08,1.48l-1.73-.62c0-.49-.05-1-.08-1.46a9,9,0,0,1-2.53-1.78c.25-.66.5-1.31.74-2a7.35,7.35,0,0,0,2.44,1.62c.74.27,1.1.2,1.08-.2a.78.78,0,0,0-.36-.55,10.38,10.38,0,0,0-1.1-.69,13.78,13.78,0,0,1-1.69-1.11,5.46,5.46,0,0,1-1.22-1.34,3.58,3.58,0,0,1-.58-1.84A1.87,1.87,0,0,1,1157.46,1660Z"/><path class="cls-5" d="M1153.38,1584.92a2.56,2.56,0,0,1,2.06-.29l-.09-1.51,1.73.62c0,.48.06,1,.08,1.45a11.88,11.88,0,0,1,1.78.9,9.05,9.05,0,0,1,1.42,1.07c-.27.69-.54,1.37-.8,2.06a10.29,10.29,0,0,0-1.41-1.08,6.75,6.75,0,0,0-1.47-.74,2.1,2.1,0,0,0-.85-.19.25.25,0,0,0-.24.29.82.82,0,0,0,.36.58,11.48,11.48,0,0,0,1.13.73,17.41,17.41,0,0,1,1.68,1.06,5,5,0,0,1,1.2,1.23,3.44,3.44,0,0,1,.58,1.8,2.08,2.08,0,0,1-.67,1.81,2.5,2.5,0,0,1-2.17.35c0,.5,0,1,.08,1.49-.58-.2-1.15-.41-1.73-.63,0-.48,0-1-.08-1.46a8.82,8.82,0,0,1-2.53-1.77c.24-.66.49-1.32.74-2a7.31,7.31,0,0,0,2.43,1.63c.75.27,1.11.19,1.09-.2a.75.75,0,0,0-.36-.55,11.08,11.08,0,0,0-1.11-.7,15.86,15.86,0,0,1-1.68-1.1,5.44,5.44,0,0,1-1.22-1.34,3.71,3.71,0,0,1-.59-1.84A1.88,1.88,0,0,1,1153.38,1584.92Z"/><path class="cls-3" d="M1515.61,956.91c34.3,78.55,145.54,32.58,179.84,111.13l-55.75,90.23c-34.3-78.55-145.55-32.57-179.85-111.12Z"/><path class="cls-4" d="M1515.59,968.77c36.42,67.23,137,30.66,173.4,97.89q-24.65,39.87-49.28,79.76c-36.42-67.24-137-30.66-173.4-97.89Q1491,1008.65,1515.59,968.77Z"/><path class="cls-3" d="M1526.4,991c38.3,37.73,108.26,24.23,146.56,62-4.3,7-2.8,17.07,2.13,24.56q-14.28,23.13-28.58,46.25c-4.93-7.49-13.36-6.38-17.61.5-38.3-37.74-108.26-24.23-146.55-62,4.29-7,2.79-17.07-2.14-24.56l28.58-46.25C1513.72,998.94,1522.15,997.84,1526.4,991Z"/><path class="cls-4" d="M1540.62,1047.83c10.55-17.06,35.2-25.77,56.29-21.4s28.5,23.57,17.77,40.92c-10.54,17.07-35.2,25.78-56.28,21.41S1529.9,1065.19,1540.62,1047.83Z"/><path class="cls-5" d="M1572.21,1039.24a26.61,26.61,0,0,1,12.68-2.16l3.72-6,8.15,1.83-3.55,5.74a31,31,0,0,1,7.51,3.14,16.63,16.63,0,0,1,4.92,4.12l-10.1,8.25a18.45,18.45,0,0,0-4.88-4,21.49,21.49,0,0,0-6.29-2.5,12.61,12.61,0,0,0-4.37-.39,2.92,2.92,0,0,0-2.17,1.27,1.48,1.48,0,0,0,.49,2.14,25.45,25.45,0,0,0,4.43,2.47,44.64,44.64,0,0,1,6.57,3.75,8.39,8.39,0,0,1,3.26,4.75c.53,2-.06,4.34-1.75,7.09a18.76,18.76,0,0,1-8.69,7.28,26.55,26.55,0,0,1-13.19,1.91l-3.65,5.91-8.15-1.83c1.2-1.93,2.39-3.87,3.58-5.8q-6.56-2.16-9.73-5.87l9.79-8.28a19.05,19.05,0,0,0,9.51,5.38q5.27,1.18,6.73-1.2a1.42,1.42,0,0,0-.5-2.06,25.93,25.93,0,0,0-4.4-2.37,38.39,38.39,0,0,1-6.63-3.64,8.53,8.53,0,0,1-3.36-4.74q-.84-3,1.71-7.08A18.54,18.54,0,0,1,1572.21,1039.24Z"/><path class="cls-5" d="M1639,1124.57a2.43,2.43,0,0,1,1.94.8l.8-1.29c.36.49.72,1,1.07,1.48l-.76,1.24a9.55,9.55,0,0,1,.9,1.81,8.34,8.34,0,0,1,.49,1.81l-1.78,1.15a9.56,9.56,0,0,0-.5-1.77,6.72,6.72,0,0,0-.76-1.47,1.94,1.94,0,0,0-.61-.62.24.24,0,0,0-.36.11.76.76,0,0,0,0,.67,12.1,12.1,0,0,0,.52,1.23,16.9,16.9,0,0,1,.75,1.87,5.41,5.41,0,0,1,.22,1.78,3.7,3.7,0,0,1-.57,1.84,1.89,1.89,0,0,1-1.54,1,2.71,2.71,0,0,1-1.93-1l-.78,1.26c-.35-.5-.71-1-1.07-1.48l.76-1.24a9.46,9.46,0,0,1-1.17-2.73l1.79-1.28a7.75,7.75,0,0,0,1.14,2.61c.46.64.79.8,1,.46a.78.78,0,0,0,0-.66,8.59,8.59,0,0,0-.51-1.2,16,16,0,0,1-.8-1.79,5.18,5.18,0,0,1-.3-1.7,3.39,3.39,0,0,1,.54-1.79A2.11,2.11,0,0,1,1639,1124.57Z"/><path class="cls-5" d="M1678.49,1060.61a2.43,2.43,0,0,1,1.94.8l.8-1.29c.36.49.72,1,1.07,1.48l-.76,1.23a9.94,9.94,0,0,1,.9,1.82,8.34,8.34,0,0,1,.49,1.81l-1.78,1.15a9.56,9.56,0,0,0-.5-1.77,6.72,6.72,0,0,0-.76-1.47,1.94,1.94,0,0,0-.61-.62.24.24,0,0,0-.36.11.76.76,0,0,0,0,.67,12.1,12.1,0,0,0,.52,1.23,16.9,16.9,0,0,1,.75,1.87,5.41,5.41,0,0,1,.22,1.78,3.7,3.7,0,0,1-.57,1.84,1.89,1.89,0,0,1-1.54,1,2.71,2.71,0,0,1-1.93-1l-.78,1.26c-.35-.5-.71-1-1.07-1.48l.76-1.24a9.4,9.4,0,0,1-1.17-2.74l1.79-1.27a7.75,7.75,0,0,0,1.14,2.61c.46.64.79.8,1,.46a.78.78,0,0,0,0-.66,8.59,8.59,0,0,0-.51-1.2,16,16,0,0,1-.8-1.79,5.18,5.18,0,0,1-.3-1.7,3.39,3.39,0,0,1,.54-1.79A2.11,2.11,0,0,1,1678.49,1060.61Z"/><path class="cls-5" d="M1476.06,1043.17a2.57,2.57,0,0,1,1.86.94l.79-1.29c.35.51.7,1,1.06,1.5-.25.41-.5.82-.76,1.23a10.93,10.93,0,0,1,.94,1.75,8.2,8.2,0,0,1,.56,1.7l-1.83,1.23a11,11,0,0,0-.54-1.69,7.54,7.54,0,0,0-.78-1.45,2.2,2.2,0,0,0-.6-.64.25.25,0,0,0-.36.11.86.86,0,0,0,0,.68,10.66,10.66,0,0,0,.51,1.24,19.07,19.07,0,0,1,.77,1.83,4.89,4.89,0,0,1,.28,1.7,3.35,3.35,0,0,1-.55,1.8,2.09,2.09,0,0,1-1.58,1.11,2.54,2.54,0,0,1-2-1l-.78,1.26c-.36-.49-.71-1-1.06-1.5l.77-1.24a8.94,8.94,0,0,1-1.07-2.91l1.74-1.19a7.45,7.45,0,0,0,1.07,2.72c.46.65.79.79,1,.45a.76.76,0,0,0,0-.65,8.59,8.59,0,0,0-.51-1.2,17.32,17.32,0,0,1-.75-1.87,5.53,5.53,0,0,1-.23-1.8,3.55,3.55,0,0,1,.57-1.85A1.87,1.87,0,0,1,1476.06,1043.17Z"/><path class="cls-5" d="M1515.58,979.21a2.58,2.58,0,0,1,1.86.94l.79-1.29c.35.51.7,1,1.06,1.5-.25.41-.5.82-.76,1.23a11.79,11.79,0,0,1,.94,1.75,8.2,8.2,0,0,1,.56,1.7l-1.83,1.23a11,11,0,0,0-.54-1.69,8.13,8.13,0,0,0-.78-1.45,2.2,2.2,0,0,0-.6-.64.25.25,0,0,0-.36.11.86.86,0,0,0,0,.68,10.66,10.66,0,0,0,.51,1.24,19.07,19.07,0,0,1,.77,1.83,4.89,4.89,0,0,1,.28,1.7,3.35,3.35,0,0,1-.55,1.8,2.09,2.09,0,0,1-1.58,1.11,2.54,2.54,0,0,1-2-1l-.78,1.26c-.36-.49-.71-1-1.06-1.5l.77-1.24a8.94,8.94,0,0,1-1.07-2.91l1.74-1.19a7.45,7.45,0,0,0,1.07,2.72c.45.65.79.79,1,.45a.76.76,0,0,0,0-.65,8.59,8.59,0,0,0-.51-1.2,17.32,17.32,0,0,1-.75-1.87,5.53,5.53,0,0,1-.23-1.8,3.55,3.55,0,0,1,.57-1.85A1.87,1.87,0,0,1,1515.58,979.21Z"/><path class="cls-3" d="M1338.67,1251c11.42,85,131,71.27,142.43,156.22q-39.19,35.73-78.38,71.47c-11.42-85-131-71.28-142.44-156.23Z"/><path class="cls-4" d="M1335.4,1262.39c16.56,74.64,123.3,67.08,139.86,141.72L1406,1467.28c-16.56-74.65-123.3-67.08-139.86-141.73Z"/><path class="cls-3" d="M1339.71,1286.69c26.46,46.8,97.44,53,123.91,99.81-6,5.51-7.38,15.65-4.69,24.21l-40.18,36.63c-2.68-8.56-11.09-9.82-17.07-4.37-26.47-46.79-97.45-53-123.91-99.81,6-5.51,7.37-15.65,4.69-24.2l40.17-36.63C1325.32,1290.89,1333.73,1292.14,1339.71,1286.69Z"/><path class="cls-4" d="M1337.77,1345.28c14.82-13.51,40.92-15.12,60-5.13s20.94,30.49,5.86,44.23c-14.82,13.52-40.93,15.12-60,5.13S1322.69,1359,1337.77,1345.28Z"/><path class="cls-5" d="M1370.49,1345.69a26.74,26.74,0,0,1,12.8,1.41l5.22-4.77q3.66,2,7.34,4l-5,4.55a31.33,31.33,0,0,1,6.36,5.08,16.85,16.85,0,0,1,3.6,5.31l-12,5.16a18.82,18.82,0,0,0-3.59-5.21,22,22,0,0,0-5.37-4.13,12.65,12.65,0,0,0-4.09-1.57,2.91,2.91,0,0,0-2.43.62,1.48,1.48,0,0,0-.12,2.2,25.79,25.79,0,0,0,3.58,3.59,43.42,43.42,0,0,1,5.29,5.41,8.38,8.38,0,0,1,1.83,5.46q0,3.08-3.63,6.34a18.74,18.74,0,0,1-10.35,4.62,26.58,26.58,0,0,1-13.21-1.79l-5.13,4.68-7.33-4,5-4.59q-5.71-3.87-7.75-8.32l11.69-5.27a19.13,19.13,0,0,0,7.67,7.79q4.72,2.58,6.8.69a1.41,1.41,0,0,0,.08-2.12,25.86,25.86,0,0,0-3.57-3.48,39.43,39.43,0,0,1-5.39-5.33,8.58,8.58,0,0,1-1.92-5.48c0-2,1.2-4.16,3.58-6.33A18.58,18.58,0,0,1,1370.49,1345.69Z"/><path class="cls-5" d="M1411.27,1446.07a2.43,2.43,0,0,1,1.65,1.3l1.11-1c.22.57.43,1.14.63,1.72l-1.07,1a10,10,0,0,1,.37,2,8.21,8.21,0,0,1,0,1.87l-2,.62a9.32,9.32,0,0,0,0-1.83,6.18,6.18,0,0,0-.33-1.63,2,2,0,0,0-.41-.77.26.26,0,0,0-.38,0,.79.79,0,0,0-.21.64,10.74,10.74,0,0,0,.16,1.32,15.09,15.09,0,0,1,.2,2,5.09,5.09,0,0,1-.27,1.77,3.67,3.67,0,0,1-1.05,1.62,1.92,1.92,0,0,1-1.78.58,2.72,2.72,0,0,1-1.56-1.54l-1.1,1c-.2-.58-.41-1.15-.62-1.72l1.08-1a9.39,9.39,0,0,1-.38-3l2.07-.74a8,8,0,0,0,.37,2.83c.27.74.55,1,.85.71a.81.81,0,0,0,.2-.62,9,9,0,0,0-.17-1.3,17.15,17.15,0,0,1-.27-1.94,4.66,4.66,0,0,1,.18-1.72,3.3,3.3,0,0,1,1-1.57A2.09,2.09,0,0,1,1411.27,1446.07Z"/><path class="cls-5" d="M1466.83,1395.42a2.4,2.4,0,0,1,1.64,1.3l1.12-1c.22.57.43,1.14.63,1.72l-1.07,1a10.1,10.1,0,0,1,.37,2,8.11,8.11,0,0,1,0,1.86l-2,.62a9.32,9.32,0,0,0,0-1.83,6.26,6.26,0,0,0-.33-1.63,2,2,0,0,0-.41-.76.25.25,0,0,0-.38,0,.76.76,0,0,0-.21.63,11.08,11.08,0,0,0,.16,1.33,17,17,0,0,1,.2,2,5.12,5.12,0,0,1-.27,1.77,3.58,3.58,0,0,1-1.06,1.61,1.87,1.87,0,0,1-1.77.58,2.67,2.67,0,0,1-1.56-1.53l-1.1,1c-.2-.58-.41-1.15-.62-1.72l1.08-1a9.1,9.1,0,0,1-.38-2.95l2.07-.73a8,8,0,0,0,.37,2.82c.27.74.55,1,.85.71a.8.8,0,0,0,.2-.62,8.78,8.78,0,0,0-.17-1.29,17.46,17.46,0,0,1-.27-1.94,4.66,4.66,0,0,1,.18-1.72,3.32,3.32,0,0,1,1-1.58A2.08,2.08,0,0,1,1466.83,1395.42Z"/><path class="cls-5" d="M1277,1323.08a2.52,2.52,0,0,1,1.53,1.41l1.12-1c.2.58.4,1.16.61,1.73l-1.07,1a11.56,11.56,0,0,1,.42,1.94,8.49,8.49,0,0,1,.07,1.78l-2.1.68a9.62,9.62,0,0,0,0-1.77,7.08,7.08,0,0,0-.36-1.61,2.1,2.1,0,0,0-.39-.77.25.25,0,0,0-.38,0,.78.78,0,0,0-.21.64,9.81,9.81,0,0,0,.14,1.33c.13.77.21,1.43.25,2a5.13,5.13,0,0,1-.2,1.71,3.53,3.53,0,0,1-1,1.58,2.06,2.06,0,0,1-1.82.63,2.51,2.51,0,0,1-1.65-1.46l-1.1,1c-.21-.57-.41-1.15-.61-1.73l1.08-1a9,9,0,0,1-.23-3.08l2-.67a7.52,7.52,0,0,0,.28,2.91c.26.74.55,1,.84.71a.74.74,0,0,0,.2-.62,10.31,10.31,0,0,0-.16-1.3,16.44,16.44,0,0,1-.21-2,5.79,5.79,0,0,1,.27-1.8,3.67,3.67,0,0,1,1-1.62A1.89,1.89,0,0,1,1277,1323.08Z"/><path class="cls-5" d="M1332.52,1272.42a2.56,2.56,0,0,1,1.53,1.41l1.12-1c.19.59.4,1.16.61,1.74l-1.07,1a12.76,12.76,0,0,1,.42,2,8.47,8.47,0,0,1,.07,1.78l-2.1.68a9.57,9.57,0,0,0,0-1.77,7,7,0,0,0-.36-1.61,2.27,2.27,0,0,0-.39-.78.26.26,0,0,0-.38,0,.84.84,0,0,0-.22.65,12.64,12.64,0,0,0,.15,1.33c.13.76.21,1.42.25,2a4.89,4.89,0,0,1-.21,1.71,3.37,3.37,0,0,1-1,1.58,2.07,2.07,0,0,1-1.82.64,2.54,2.54,0,0,1-1.65-1.46l-1.1,1c-.21-.58-.41-1.15-.61-1.74l1.08-1a9.11,9.11,0,0,1-.23-3.09l2-.67a7.48,7.48,0,0,0,.28,2.91c.26.75.55,1,.84.71a.73.73,0,0,0,.2-.62,10.75,10.75,0,0,0-.16-1.3,16.44,16.44,0,0,1-.21-2,5.68,5.68,0,0,1,.27-1.79,3.61,3.61,0,0,1,1-1.62A1.87,1.87,0,0,1,1332.52,1272.42Z"/><path class="cls-3" d="M1218.24,1747.4c83,21.32,115.27-94.65,198.29-73.32l36.78,99.49c-83-21.33-115.27,94.64-198.28,73.31Q1236.63,1797.14,1218.24,1747.4Z"/><path class="cls-4" d="M1227.58,1754.71c75.4,12.69,108.48-89.08,183.88-76.39l32.52,87.94c-75.41-12.69-108.49,89.07-183.89,76.38Q1243.83,1798.67,1227.58,1754.71Z"/><path class="cls-3" d="M1251.72,1759.84c53.31-6.94,85.73-70.39,139-77.34,2.83,7.67,11.73,12.72,20.67,13.44q9.42,25.5,18.85,51c-8.94-.72-13.26,6.6-10.45,14.19-53.32,7-85.74,70.39-139,77.34-2.84-7.67-11.74-12.71-20.68-13.44q-9.42-25.49-18.85-51C1250.2,1774.76,1254.52,1767.43,1251.72,1759.84Z"/><path class="cls-4" d="M1305.29,1783.65c-7-18.81,1.36-43.6,17.78-57.53s36.12-7.95,43.19,11.19c7,18.81-1.36,43.61-17.78,57.53S1312.36,1802.79,1305.29,1783.65Z"/><path class="cls-5" d="M1318,1753.47a26.58,26.58,0,0,1,6.11-11.32l-2.45-6.63q3.23-2.65,6.46-5.3l2.34,6.33a31.42,31.42,0,0,1,7.09-4,16.7,16.7,0,0,1,6.28-1.35q.15,6.51.29,13a18.62,18.62,0,0,0-6.18,1.38,21.45,21.45,0,0,0-5.84,3.42,12.19,12.19,0,0,0-3,3.2,2.9,2.9,0,0,0-.33,2.48,1.47,1.47,0,0,0,2,.94,25.45,25.45,0,0,0,4.67-2,43.49,43.49,0,0,1,7-2.87,8.36,8.36,0,0,1,5.74.36c1.89.79,3.4,2.71,4.51,5.74a18.67,18.67,0,0,1,.4,11.33,26.7,26.7,0,0,1-6.61,11.57l2.4,6.51-6.46,5.3-2.36-6.39q-5.74,3.84-10.62,4-.24-6.39-.5-12.81a19.1,19.1,0,0,0,10.1-4.18c2.78-2.28,3.84-4.3,3.2-6a1.42,1.42,0,0,0-1.94-.86,25.41,25.41,0,0,0-4.57,2,39.18,39.18,0,0,1-7,3,8.57,8.57,0,0,1-5.8-.28c-1.9-.77-3.4-2.67-4.52-5.7A18.56,18.56,0,0,1,1318,1753.47Z"/><path class="cls-5" d="M1426.31,1753.39a2.42,2.42,0,0,1,1.82-1c-.17-.48-.35-.95-.52-1.42l1.83.06c.16.45.33.91.5,1.36a9.3,9.3,0,0,1,2,.41,8.64,8.64,0,0,1,1.72.72c-.06.71-.12,1.41-.19,2.12a8.71,8.71,0,0,0-1.69-.7,6.58,6.58,0,0,0-1.63-.3,1.86,1.86,0,0,0-.86.09.26.26,0,0,0-.14.36.81.81,0,0,0,.51.43,12.76,12.76,0,0,0,1.29.35,16.86,16.86,0,0,1,1.94.56,5.51,5.51,0,0,1,1.54.92,3.6,3.6,0,0,1,1.09,1.59,1.88,1.88,0,0,1-.12,1.86,2.71,2.71,0,0,1-2,.87l.51,1.39-1.83-.07c-.16-.45-.33-.91-.5-1.37a9.09,9.09,0,0,1-2.88-.75c0-.74.06-1.47.1-2.2a7.6,7.6,0,0,0,2.76.71c.78,0,1.11-.13,1-.51a.77.77,0,0,0-.5-.42,9.7,9.7,0,0,0-1.26-.33,18,18,0,0,1-1.9-.48,4.82,4.82,0,0,1-1.53-.81,3.33,3.33,0,0,1-1.08-1.53A2.12,2.12,0,0,1,1426.31,1753.39Z"/><path class="cls-5" d="M1400.23,1682.87a2.47,2.47,0,0,1,1.83-1c-.18-.48-.35-.95-.53-1.42l1.83.06c.17.46.34.91.5,1.36a9.92,9.92,0,0,1,2,.41,8.64,8.64,0,0,1,1.72.72c-.06.71-.13,1.41-.19,2.12a9.38,9.38,0,0,0-1.69-.7,6.65,6.65,0,0,0-1.64-.3,1.88,1.88,0,0,0-.86.09.26.26,0,0,0-.13.36.81.81,0,0,0,.51.43,13.19,13.19,0,0,0,1.28.35,16.13,16.13,0,0,1,1.94.57,5,5,0,0,1,1.54.91,3.7,3.7,0,0,1,1.1,1.59,1.88,1.88,0,0,1-.12,1.86,2.74,2.74,0,0,1-2,.87c.18.46.35.93.52,1.39l-1.83-.06-.51-1.37a9.38,9.38,0,0,1-2.87-.76l.09-2.2a8,8,0,0,0,2.76.72c.79,0,1.12-.14,1-.52a.8.8,0,0,0-.5-.42,9.51,9.51,0,0,0-1.27-.33,18.85,18.85,0,0,1-1.9-.47,4.8,4.8,0,0,1-1.52-.82,3.35,3.35,0,0,1-1.08-1.52A2.14,2.14,0,0,1,1400.23,1682.87Z"/><path class="cls-5" d="M1261.87,1831.66a2.56,2.56,0,0,1,1.88-.88c-.17-.48-.35-1-.52-1.42l1.83.08c.17.46.34.91.5,1.36a11.82,11.82,0,0,1,2,.34,9,9,0,0,1,1.68.6c0,.74-.11,1.47-.16,2.2a9.62,9.62,0,0,0-1.66-.61,7.45,7.45,0,0,0-1.62-.28,2.11,2.11,0,0,0-.87.08.25.25,0,0,0-.14.35.85.85,0,0,0,.51.44,9.3,9.3,0,0,0,1.3.36,18.53,18.53,0,0,1,1.91.52,4.79,4.79,0,0,1,1.51.83,3.36,3.36,0,0,1,1.09,1.54,2.11,2.11,0,0,1-.1,1.93,2.57,2.57,0,0,1-2,1c.18.46.35.93.52,1.39l-1.84-.09c-.17-.45-.33-.91-.5-1.36a9,9,0,0,1-3-1c0-.7.09-1.41.13-2.11a7.45,7.45,0,0,0,2.8.84c.79,0,1.11-.14,1-.52a.76.76,0,0,0-.5-.41,12.81,12.81,0,0,0-1.27-.35,14.34,14.34,0,0,1-1.93-.55,5.56,5.56,0,0,1-1.56-.92,3.64,3.64,0,0,1-1.11-1.59A1.9,1.9,0,0,1,1261.87,1831.66Z"/><path class="cls-5" d="M1235.8,1761.14a2.52,2.52,0,0,1,1.88-.88c-.18-.48-.35-1-.53-1.42l1.84.09.5,1.35a12,12,0,0,1,2,.34,9.32,9.32,0,0,1,1.68.6c-.06.74-.11,1.47-.16,2.2a10.52,10.52,0,0,0-1.66-.61,8.08,8.08,0,0,0-1.63-.28,2.16,2.16,0,0,0-.87.08.25.25,0,0,0-.14.35.87.87,0,0,0,.52.44,9.08,9.08,0,0,0,1.29.36c.76.18,1.4.35,1.92.52a4.79,4.79,0,0,1,1.51.83,3.42,3.42,0,0,1,1.08,1.54,2.05,2.05,0,0,1-.1,1.93,2.51,2.51,0,0,1-2,1c.17.46.34.93.52,1.39l-1.84-.08-.51-1.37a9.12,9.12,0,0,1-2.95-1c0-.7.09-1.4.13-2.11a7.49,7.49,0,0,0,2.81.84c.79,0,1.11-.14,1-.52a.74.74,0,0,0-.5-.41,10.1,10.1,0,0,0-1.26-.34,15.35,15.35,0,0,1-1.93-.56,5.38,5.38,0,0,1-1.57-.92,3.7,3.7,0,0,1-1.1-1.59A1.85,1.85,0,0,1,1235.8,1761.14Z"/><path class="cls-3" d="M1404.07,1634.13c67.57,52.73,143.49-40.68,211.06,12q-3,53-6.05,105.9c-67.57-52.73-143.49,40.68-211.06-12Q1401.05,1687.08,1404.07,1634.13Z"/><path class="cls-4" d="M1409.71,1644.56c64,41.77,135-38.28,199.08,3.49l-5.34,93.6c-64-41.77-135,38.28-199.09-3.49Q1407,1691.36,1409.71,1644.56Z"/><path class="cls-3" d="M1429.78,1658.92c51.65,14.94,106.73-30.25,158.37-15.31-.46,8.16,5.67,16.34,13.58,20.58q-1.55,27.13-3.1,54.28c-7.91-4.24-14.79.74-15.26,8.82-51.64-14.94-106.72,30.25-158.37,15.31.47-8.16-5.67-16.34-13.58-20.58q1.56-27.13,3.1-54.28C1422.43,1672,1429.32,1667,1429.78,1658.92Z"/><path class="cls-4" d="M1469.37,1702.16c1.14-20,18.68-39.43,39.3-45.63s36.28,7.15,35.12,27.52c-1.15,20-18.68,39.43-39.3,45.63S1468.2,1722.53,1469.37,1702.16Z"/><path class="cls-5" d="M1493.05,1679.56a26.61,26.61,0,0,1,10.12-7.94c.14-2.35.27-4.71.41-7.06l8-2.27-.39,6.74a31.3,31.3,0,0,1,8.1-.82,16.8,16.8,0,0,1,6.29,1.28q-2.47,6-4.95,12.06a18.64,18.64,0,0,0-6.21-1.2,21.61,21.61,0,0,0-6.73.79,12.46,12.46,0,0,0-4,1.74,2.9,2.9,0,0,0-1.3,2.15c-.05.93.43,1.48,1.45,1.65a26.76,26.76,0,0,0,5.07.07,42.76,42.76,0,0,1,7.56.16,8.39,8.39,0,0,1,5.13,2.62q2.12,2.23,1.84,7.07a18.85,18.85,0,0,1-4.17,10.55,26.76,26.76,0,0,1-10.69,8l-.4,6.92-8,2.28.39-6.8q-6.79,1.23-11.35-.53,2.33-6,4.66-12a19.06,19.06,0,0,0,10.93.21q5.19-1.47,5.35-4.26c0-.89-.43-1.42-1.43-1.57a25.17,25.17,0,0,0-5,0,39.93,39.93,0,0,1-7.57,0,8.62,8.62,0,0,1-5.21-2.58c-1.43-1.46-2-3.81-1.87-7A18.54,18.54,0,0,1,1493.05,1679.56Z"/><path class="cls-5" d="M1592.4,1722.79a2.45,2.45,0,0,1,2.08-.22l.09-1.51,1.65.79-.09,1.45a8.91,8.91,0,0,1,1.66,1.17,8.46,8.46,0,0,1,1.29,1.35l-1,1.86a9.86,9.86,0,0,0-1.27-1.32,6.25,6.25,0,0,0-1.38-.92,2.13,2.13,0,0,0-.82-.27.27.27,0,0,0-.27.28.78.78,0,0,0,.29.6,13.2,13.2,0,0,0,1,.83,15.47,15.47,0,0,1,1.55,1.3,5.3,5.3,0,0,1,1,1.45,3.63,3.63,0,0,1,.37,1.89,1.88,1.88,0,0,1-.86,1.66,2.65,2.65,0,0,1-2.19,0c0,.5-.06,1-.08,1.49-.55-.28-1.1-.54-1.65-.8,0-.48.05-1,.08-1.45a9.32,9.32,0,0,1-2.33-1.85l1-2a7.92,7.92,0,0,0,2.25,1.75c.7.34,1.07.32,1.09-.08a.75.75,0,0,0-.29-.58,8.51,8.51,0,0,0-1-.81,17.28,17.28,0,0,1-1.56-1.2,4.84,4.84,0,0,1-1.07-1.35,3.34,3.34,0,0,1-.38-1.83A2.14,2.14,0,0,1,1592.4,1722.79Z"/><path class="cls-5" d="M1596.68,1647.73a2.48,2.48,0,0,1,2.09-.22l.09-1.51,1.65.79-.09,1.45a9.35,9.35,0,0,1,1.66,1.16,9.46,9.46,0,0,1,1.29,1.36l-1,1.86a10.53,10.53,0,0,0-1.27-1.32,7.27,7.27,0,0,0-1.38-.93,2,2,0,0,0-.83-.26.26.26,0,0,0-.27.27.79.79,0,0,0,.3.6,10.93,10.93,0,0,0,1,.84,16.75,16.75,0,0,1,1.55,1.29,5.36,5.36,0,0,1,1,1.46,3.73,3.73,0,0,1,.37,1.89,1.9,1.9,0,0,1-.86,1.66,2.69,2.69,0,0,1-2.19,0l-.09,1.48-1.65-.79.09-1.45a9.57,9.57,0,0,1-2.34-1.85c.33-.66.65-1.32,1-2a8,8,0,0,0,2.24,1.75c.71.34,1.08.32,1.1-.08a.79.79,0,0,0-.29-.58,10.57,10.57,0,0,0-1-.81,17.28,17.28,0,0,1-1.56-1.2,5,5,0,0,1-1.07-1.35,3.34,3.34,0,0,1-.38-1.83A2.12,2.12,0,0,1,1596.68,1647.73Z"/><path class="cls-5" d="M1410.38,1728.81a2.55,2.55,0,0,1,2.08-.06c0-.51,0-1,.08-1.51l1.65.81c0,.48,0,1-.08,1.45a10.55,10.55,0,0,1,1.66,1.09,8.62,8.62,0,0,1,1.3,1.22c-.35.65-.69,1.31-1,2a9.35,9.35,0,0,0-1.28-1.23,6.69,6.69,0,0,0-1.37-.9,2.05,2.05,0,0,0-.83-.28.24.24,0,0,0-.27.26.81.81,0,0,0,.3.61,8.5,8.5,0,0,0,1,.85c.62.46,1.14.87,1.55,1.24a5,5,0,0,1,1,1.37,3.39,3.39,0,0,1,.38,1.84,2.09,2.09,0,0,1-.87,1.73,2.5,2.5,0,0,1-2.2.11c0,.49,0,1-.08,1.48l-1.65-.81.09-1.46a8.74,8.74,0,0,1-2.33-2l1-1.87a7.44,7.44,0,0,0,2.24,1.88c.71.35,1.07.32,1.1-.08a.79.79,0,0,0-.29-.58,11,11,0,0,0-1-.82,16.28,16.28,0,0,1-1.55-1.28,5.77,5.77,0,0,1-1.06-1.47,3.67,3.67,0,0,1-.38-1.9A1.86,1.86,0,0,1,1410.38,1728.81Z"/><path class="cls-5" d="M1414.67,1653.75a2.49,2.49,0,0,1,2.07-.06l.09-1.52c.55.28,1.1.56,1.65.82,0,.48-.06,1-.08,1.44a11.93,11.93,0,0,1,1.66,1.1,8,8,0,0,1,1.29,1.22l-1,2a9.93,9.93,0,0,0-1.28-1.22,7,7,0,0,0-1.38-.91,2.08,2.08,0,0,0-.82-.27.24.24,0,0,0-.27.26.82.82,0,0,0,.3.61,7.78,7.78,0,0,0,1,.85c.62.46,1.14.87,1.55,1.24a5,5,0,0,1,1,1.36,3.42,3.42,0,0,1,.37,1.85,2.06,2.06,0,0,1-.86,1.73,2.54,2.54,0,0,1-2.2.11c0,.49,0,1-.08,1.48l-1.65-.81c0-.49.06-1,.08-1.46a8.87,8.87,0,0,1-2.32-2l1-1.88a7.38,7.38,0,0,0,2.24,1.89c.71.35,1.07.32,1.1-.08a.76.76,0,0,0-.3-.58,9.45,9.45,0,0,0-1-.82,16.28,16.28,0,0,1-1.55-1.28,5.54,5.54,0,0,1-1.06-1.47,3.67,3.67,0,0,1-.38-1.9A1.86,1.86,0,0,1,1414.67,1653.75Z"/><path class="cls-6" d="M3703.91,1781.73c20.5-54.43,36.61-109.87,46.61-167.44,9.18-52.77,14.92-105.68,15.07-159q.48-173.91-61.22-337c-29.23-77.61-70.17-148.65-119.45-214.42-56.11-74.87-121.75-141.14-195.06-199.84C3288.75,623.12,3179,557.69,3057,513.6c-58.66-21.2-118.87-35.68-180.78-45.15-113.89-17.44-225-7.59-334.24,26.79-80.23,25.26-153.18,63.17-207.34,130.32-46.62,57.8-62,124.52-55.3,197.3,6.06,65.75,26.41,128.8,36.64,193.81,11.08,70.42-5.4,134.32-39.78,195.38-38.77,68.87-93.7,123.74-150.45,177.11-50.09,47.11-104.79,89.7-144.06,147.3-18.13,26.61-35.85,53.6-43.06,85.77,15.78,0,24.45-13,36-20.38,97.95-62.75,206.22-68.75,316.7-55,73.77,9.2,144.13,34.48,213.61,60.28,112.26,41.69,223.7,85.59,335.65,128.13,111.59,42.4,227.09,69.17,345.2,85.47,56.45,7.79,113.28,9.57,170.07,12.15,55.31,2.51,110.39-.77,165.16-8.62,35.22-5.06,70.31-11,105.46-16.57q30.22-93.2,60.46-186.39l8.24,2.69c-14,60-36.91,117.26-55.51,175.84Z"/><path class="cls-7" d="M3629.68,1813.15c-35.15,5.55-70.25,11.51-105.47,16.57-54.76,7.86-109.85,11.13-165.16,8.62-56.78-2.58-113.62-4.36-170.07-12.15-118.1-16.3-233.61-43.07-345.2-85.47-111.94-42.53-223.38-86.44-335.64-128.13-69.49-25.8-139.84-51.08-213.61-60.28-110.48-13.78-218.76-7.78-316.71,55-11.53,7.38-20.2,20.36-36,20.38-14.09,20.29-16.74,44.11-20,67.49-13.82,98.36,9,189.4,57.94,274.32,24.48,42.5,52.19,83.07,88.46,116.89,6-6.21,12.84-3.26,19.69-1.93,17.11,3.33,34.16,7.71,51.45,9.26,72.33,6.45,144,.3,215-13.8,110.1-21.84,213.45-63.78,316.1-107.31,115.16-48.83,233.68-81.55,359.44-86.83,72.91-3,145.38-.41,217.1,11.63,98.57,16.56,192.07,50.31,283.57,89.91,17.27,7.47,32.56,19.53,51.79,22.44,21.79-19.2,35.17-44.81,50.21-68.76,30.41-48.41,58-98.5,74.49-153.81l-64.25,18.13c-1.66,5.32-3.57,10.57-4.91,16s-2.82,13.33-9.59,10.54c-7.25-3-.36-9.54.55-14.53C3629.16,1815.9,3629.42,1814.52,3629.68,1813.15Zm-65.8,132.57c9.51-14.57,18.49-28.52,27.79-42.25.73-1.06,5-1.38,5.45-.65,1.38,2.12,3.08,5.72,2.17,7.37q-11.52,20.86-24.19,41.07c-.93,1.48-5.37,2.08-7.32,1.19S3565.25,1948.28,3563.88,1945.72Z"/><path class="cls-8" d="M2190.51,2185.21c42.26,27.75,87.19,50.4,133.47,70.63,87,38,177.78,64.17,270.63,82.5,35.5,7,71.61,12.08,107.93,15.65,37.75,3.71,75.45,7.86,113.33,8.51,177.82,3.07,346.6-31,502.12-121.35,63.44-36.86,122.49-79.24,175.85-129.36,18.82-17.69,35.14-38.05,52.6-57.19-47.05-20.79-97.06-29-147.43-37.43-62.33-10.48-124.22-8.16-186.17-.91-77.07,9-150.59,32.53-223,59.3-87.66,32.39-177.15,57.39-269.55,72.28-77.3,12.45-154.82,21.44-233,26.65-90.82,6-181.46,13.22-272.57,7.79C2206.66,2181.8,2197.81,2178.23,2190.51,2185.21Z"/><path class="cls-9" d="M2190.51,2185.21c7.3-7,16.15-3.41,24.17-2.93,91.11,5.43,181.75-1.75,272.57-7.79,78.18-5.21,155.7-14.2,233-26.65,92.4-14.89,181.89-39.89,269.55-72.28,72.45-26.77,146-50.29,223-59.3,61.95-7.25,123.84-9.57,186.17.91,50.37,8.46,100.38,16.64,147.43,37.43,13.44-13.79,27.73-26.91,36-44.87-19.23-2.91-34.52-15-51.79-22.44-91.5-39.6-185-73.35-283.57-89.91-71.72-12-144.19-14.68-217.1-11.63-125.76,5.28-244.28,38-359.44,86.83-102.65,43.53-206,85.47-316.1,107.31-71.08,14.1-142.72,20.25-215,13.8-17.29-1.55-34.34-5.93-51.45-9.26-6.85-1.33-13.66-4.28-19.69,1.93C2104.38,2125,2144.87,2158.29,2190.51,2185.21Z"/><path class="cls-6" d="M2240.49,1044.71c2-59.92-10.87-107.22-42-148.48-25.3-33.57-80-38.68-116.76,9.62a398.44,398.44,0,0,0-49.57,85.44c-24.06,56.5-68.94,90.24-121.38,117.07-27.57,14.11-52.62,31.72-72.17,56.76-59.91,76.75,10.39,161.69,75.18,173.81,67.91,12.69,123.75-14.45,176.2-51,62.57-43.6,107.15-102.5,133.82-174C2233.09,1089.15,2240.36,1063.3,2240.49,1044.71Zm-348.33,98.83c1.53,2,3.83,3.68,3.58,4.85-.68,3.2-1.58,7.22-3.88,9.08-22.06,17.79-35.34,40.77-41.86,68.08-.8,3.35-3.34,6.79-7.35,6-5.93-1.16-4.83-6.41-3.66-10.06,9.08-28.22,21.67-54.36,45.8-73.19C1886.91,1146.66,1889.31,1145.37,1892.16,1143.54Z"/><path class="cls-10" d="M3629.68,1813.15c-.26,1.37-.52,2.75-.77,4.12-.91,5-7.8,11.53-.55,14.53,6.77,2.79,8.21-5,9.59-10.54s3.25-10.65,4.91-16c18.6-58.58,41.55-115.88,55.52-175.84l-8.25-2.69Z"/><path class="cls-10" d="M3563.88,1945.72c1.37,2.56,2.06,5.9,3.9,6.73s6.39.29,7.32-1.19q12.66-20.19,24.19-41.07c.91-1.65-.79-5.25-2.17-7.37-.47-.73-4.72-.41-5.45.65C3582.37,1917.2,3573.39,1931.15,3563.88,1945.72Z"/><path class="cls-10" d="M1892.16,1143.54c-2.85,1.83-5.25,3.12-7.37,4.77-24.13,18.83-36.72,45-45.8,73.19-1.17,3.65-2.27,8.9,3.66,10.06,4,.78,6.55-2.66,7.35-6,6.52-27.31,19.8-50.29,41.86-68.08,2.3-1.86,3.2-5.88,3.88-9.08C1896,1147.22,1893.69,1145.51,1892.16,1143.54Z"/><path class="cls-11" d="M1962.43,2502a407.17,407.17,0,0,0-131.94,22.06c-63.17,21.87-115.26,58,36.54,99.09,247.83,67,1873.53,36.49,1933.33-42.65s-898.25-93.5-898.25-93.5S2404,2500.58,1962.43,2502Z"/><path class="cls-12" d="M2711.87,885.14c.78,14.26,0,17.39-5.36,12.53-.47-.74-3.66-4.58-3.66-4.58a73.65,73.65,0,0,0-8.84-10.52l-.37-.35-.36-.33c-.68-.62-1.22-1.08-1.56-1.37a3.36,3.36,0,0,0-.29-.24l-.11-.08c-3.58-2.92-7.5-4.9-10.91-3.93-5.13,1.44-6.59,4.94-6.59,4.94s-11.46-7.5-15.17,8.58c0,0-15.51-3.3-13.54,16.82,0,0-20.45,8.91-10.22,27.72,8.59,15.81,30.42,44.16,39.64,63.4a50.3,50.3,0,0,1,3.7,9.8c.56,2.43,1.75,3.76,3.38,4.27,3.24,1,8.22-1.28,13.55-4.89h0c11.76-8,25.16-22.43,25.16-22.43s0-1.85,0-4.67c0-5.8.24-15.74,1.35-22.39.35-2.07,1-15.83,1.72-18.44,0,0,14.14-51.09-.48-68.82C2722.89,870.15,2710.92,867.67,2711.87,885.14Z"/><path class="cls-2" d="M2678.66,1018.6l-8.14-20.37s28.37-2.22,52.45-20.36l5.61,18.14Z"/><path class="cls-13" d="M2636.54,921.68a52.11,52.11,0,0,1,6.52,3.76c2.05,1.36,4,2.77,6,4.21l5.74,4.37c1.93,1.46,3.79,2.94,6,4.35a16.16,16.16,0,0,1-7.54-1.64,32.74,32.74,0,0,1-6.55-3.87,41.89,41.89,0,0,1-5.61-5A30.09,30.09,0,0,1,2636.54,921.68Z"/><path class="cls-13" d="M2703.26,911.07a74.48,74.48,0,0,1-8.48-6.37q-4-3.42-7.67-7.16c-2.45-2.48-4.81-5.07-7.05-7.76a70.66,70.66,0,0,1-6.24-8.57,74.4,74.4,0,0,1,8.48,6.36c2.66,2.28,5.21,4.68,7.66,7.17s4.81,5.07,7.05,7.76A72.33,72.33,0,0,1,2703.26,911.07Z"/><path class="cls-13" d="M2658.65,889.79a87.37,87.37,0,0,1,9.36,6.84q4.44,3.68,8.58,7.67c2.76,2.66,5.43,5.42,8,8.29a86.08,86.08,0,0,1,7.17,9.09,88,88,0,0,1-9.37-6.85q-4.44-3.66-8.57-7.66c-2.75-2.66-5.41-5.41-8-8.28A87.89,87.89,0,0,1,2658.65,889.79Z"/><path class="cls-13" d="M2645.11,906.61a76,76,0,0,1,9.3,5.62c3,2,5.81,4.22,8.58,6.5s5.45,4.66,8,7.16a74.55,74.55,0,0,1,7.3,8,74.82,74.82,0,0,1-9.3-5.62q-4.42-3.07-8.57-6.5t-8-7.16A76.88,76.88,0,0,1,2645.11,906.61Z"/><path class="cls-12" d="M3121.56,1196.35A115.74,115.74,0,0,0,3117,1220a271.82,271.82,0,0,0-.3,43.85s-22.87,34.49-43.51,35.38c-16.17.7-31.88-31.84-28.17-33.61,5.5-2.63,7.64-28.87,8.46-46.84.45-9.61.51-16.85.51-16.85S3130,1170.5,3121.56,1196.35Z"/><path class="cls-13" d="M3116,1237.25s-22.41,28.65-35.16,27.61-28.91-24.43-28.91-24.43l-5.37,32.74s-.72,26.65,36.61,12,32.77-40.76,32.77-40.76Z"/><path class="cls-13" d="M3121.56,1196.35A115.74,115.74,0,0,0,3117,1220c-29.58,9.17-63.52-1.22-63.52-1.22.45-9.61.51-16.85.51-16.85S3130,1170.5,3121.56,1196.35Z"/><path class="cls-12" d="M3204.15,1167.52c-19.59,11.42-31.57,1.57-31.57,1.57s-13.68,20.32-34.22,32-51.4,22.45-100.84,5c-18.33-6.48-30.19-17.55-37.35-29.66-12.17-20.57-10.82-44.16-4.72-53.43,9.7-14.73,19.42-51.47,33.62-107.82s44.66-54.64,44.66-54.64,69,25.13,103.23,37.78l6.37,2.35c31.14,11.54,12.52,108.31,27.43,115S3223.75,1156.09,3204.15,1167.52Z"/><path class="cls-14" d="M3188.13,1137.27s-25.43-30.91-34-64.28c-5.87-23,15.16-41.49-6.1-54.15-10-6-41.67-19.82-69.87-7.62-29.78,12.88-82.75,111.77-78,165.21h0c-12.17-20.57-10.82-44.16-4.72-53.43,9.7-14.73,19.42-51.47,33.62-107.82s44.66-54.64,44.66-54.64,69,25.13,103.23,37.78c5.18,16.13,5.76,31.51,2.94,38.53C3176.18,1046.11,3188.13,1137.27,3188.13,1137.27Z"/><path class="cls-15" d="M3173.49,1007.14s-17.8,12.13-42.69-7.31-54.5-16.15-92-8.19,30.66-96.15,76-81.36S3178.77,973.2,3173.49,1007.14Z"/><path class="cls-16" d="M3166.55,1010s-16.4,1.44-28.44-25.91-61.74-28.33-98.93-15.3c0,0,30.06-57.23,57.31-60.73s61.61,2.55,71.19,34.3,5.81,64.83,5.81,64.83Z"/><path class="cls-17" d="M3173.49,1007.14c.21-3.7-66.44-143-157.09-38.24,0,0,37.08-62.4,76.73-62.21s76.11,12.1,79.45,38.19,12.1,61.67,7.75,69.67S3173.49,1007.14,3173.49,1007.14Z"/><path class="cls-18" d="M3211.17,989.4c-9.53,38.89-37.68,17.74-37.68,17.74s-.6-2.49-1.82-6.65c-3.77-12.88-13.4-41.84-29-63a0,0,0,0,0,0,0c-12.4-16.8-28.56-28.7-48.55-23.76-47.82,11.82-9.62,97.81-78.43,140.39l0,0a129,129,0,0,1-28.32,12.79c.42-.74,17.2-30.85,12.47-83-4.79-52.85,74.89-99.69,127.35-81.44,33.36,11.61,62.12,27.89,76.19,48.22h0a51.85,51.85,0,0,1,8,17.25A44.84,44.84,0,0,1,3211.17,989.4Z"/><path class="cls-17" d="M3214.38,992.18c-9.53,38.9-40.89,15-40.89,15s1.27-6.38,3.15-14.06c5.79-20.76,22.81-24.94,34.68-25.18C3213,974.72,3216.22,984.67,3214.38,992.18Z"/><path class="cls-18" d="M3244.43,1093.07c-4.12,5-7.83,9.1-11.11,12.4-11.61,11.7-17.84,13.74-17.84,13.74-21.36-10.73-27.35,18.06-27.35,18.06s-5.32-9.8-11.15-23.39h0c-9.32-21.73-19.9-53.14-12-69.61,12.83-26.79,3.05-21.54,8.52-37.12s18.12-17.63,18.12-17.63,14.36-4.68,37.06,4.55C3259.18,1006.47,3263.14,1070.29,3244.43,1093.07Z"/><path class="cls-17" d="M3233.32,1105.47c-11.61,11.7-17.84,13.74-17.84,13.74-21.36-10.73-27.35,18.06-27.35,18.06s-5.32-9.8-11.15-23.39h0C3181.4,1072,3233.32,1105.47,3233.32,1105.47Z"/><path class="cls-19" d="M3142.66,937.45c-12.4-16.8-28.56-28.7-48.55-23.76-47.82,11.82-9.62,97.81-78.43,140.39,42.33-28.86,32.66-130.75,71.27-143.54C3125.07,897.92,3142.21,936.44,3142.66,937.45Z"/><path d="M3045,1073.58a4.77,4.77,0,0,0-3.75-4.83c-2.41-.43-5.71,1.06-8.64,9.63-4.52,13.18,6.44,11.29,10,4A20.62,20.62,0,0,0,3045,1073.58Z"/><path d="M3103.78,1092.08a4.78,4.78,0,0,0-3.76-4.84c-2.4-.43-5.7,1.06-8.64,9.63-4.51,13.18,6.45,11.29,10,4A20.59,20.59,0,0,0,3103.78,1092.08Z"/><path class="cls-13" d="M3064.69,1085.21s-29.7,31-26.89,37.51,19.88,10.84,19.88,10.84-14.25-5.35-11.52-15.79S3064.69,1085.21,3064.69,1085.21Z"/><path class="cls-20" d="M3031.25,1041.07a31.43,31.43,0,0,1,9.36-2,41,41,0,0,1,9.57.45,29.83,29.83,0,0,1,9.26,3.09,18.4,18.4,0,0,1,4,2.94,11.23,11.23,0,0,1,2.78,4.09,30.82,30.82,0,0,0-8.31-3.4c-2.82-.74-5.7-1.28-8.62-1.79l-8.89-1.46C3037.43,1042.46,3034.39,1041.92,3031.25,1041.07Z"/><path class="cls-20" d="M3103.8,1057.59a19.22,19.22,0,0,1,9.77.75,28,28,0,0,1,8.74,4.68,29.88,29.88,0,0,1,3.6,3.42c.54.63,1.1,1.23,1.6,1.89s.93,1.36,1.38,2.05l.65,1c.19.37.38.73.56,1.1.36.73.7,1.47,1,2.22a18.55,18.55,0,0,1,.77,2.32c.22.79.43,1.57.58,2.38-1.28-1.09-2.32-2.26-3.41-3.37-.56-.54-1.11-1.08-1.64-1.63l-.78-.82c-.28-.26-.56-.51-.83-.78-.55-.51-1.09-1-1.6-1.56l-1.66-1.48c-.28-.24-.54-.5-.81-.75l-.86-.7c-.56-.46-1.1-1-1.68-1.4a70.94,70.94,0,0,0-7.23-5A75.58,75.58,0,0,0,3103.8,1057.59Z"/><path class="cls-13" d="M3079.28,1159.5s-30.46,4.79-61.05-11.34C3018.23,1148.16,3044.15,1171.8,3079.28,1159.5Z"/><circle class="cls-2" cx="3038.61" cy="1073.44" r="1.98"/><circle class="cls-2" cx="3097.28" cy="1092.96" r="1.98"/><path class="cls-21" d="M3252.84,2435.56c-7.67,7.87-19,12.27-31,14.6-26.77,5.19-56.83,0-56.83,0-4.45-61.73-38.18-222.12-52.19-352s-53.46-271.12-64.28-287.67v0c-10.82-16.33-28,329.72-25.44,395.89s-8.92,223.39-8.92,223.39a114.15,114.15,0,0,1-31.77,7c-28.82,2.18-49.7-7-49.7-7s-1.27-297.22-5.08-324.59-7.64-66.82-5.1-86.56c1.76-13.59-2.23-140.19-4.88-217.62V1801c-1.19-34.91-2.12-59.8-2.12-59.8s19.09-78.29,24.19-84c1.26-1.41,10.5-3.26,24.15-5.25,31.6-4.59,86.82-9.94,121.1-12.43,10.74-.8,19.42-1.3,24.68-1.41,29.17-.64,96.86,156,97.38,157.2h0l.05,1.28c0,.12,0,.26,0,.41l.06,1.46c0,.43,0,.91,0,1.43l0,.39c0,.27,0,.55,0,.84s0,.59,0,.9c.25,6.49.68,17.39,1.24,31.25,0,.91.07,1.84.11,2.78,2.52,62.17,7.47,179.18,11.11,232.94,5.09,75.1,14,97.37,14,149.56S3252.84,2435.56,3252.84,2435.56Z"/><path class="cls-22" d="M3252.84,2435.56c-7.67,7.87-19,12.27-31,14.6-5.72-64.32-24.5-265.1-38.37-293.37-16.55-33.74-9.23-268.27-12.73-291.82-2.58-17.37-18.5-21.31-26.66-22.18-24.5-1-70.54-14.67-75.77-17-10.19-4.45-8-90.38-6.08-108.2s-42.33-9.54-53.78-4.45-5.1,89.1-8.71,99.28-82.1-11.41-82.1-11.41v-20.48s30.34-104.31,41.63-123.46a20.11,20.11,0,0,1,4.59-5.19c17.94-14.81,68.87-18.74,99.28-22.75,5.5-.73,13.05,3.21,21.82,10.32,44.71,36.22,121.35,154.7,122.06,155.79h0l.05,1.28,0,.41.06,1.46,0,1.43,0,.39,0,.84,0,.9,1.24,31.25.11,2.78c2.52,62.17,7.47,179.18,11.11,232.94,5.09,75.1,14,97.37,14,149.56S3252.84,2435.56,3252.84,2435.56Z"/><path d="M2986.5,1659.62l114.16-.95s-2.61-24.46-6.41-25.88S2984.42,1607.85,2986.5,1659.62Z"/><path class="cls-23" d="M2986.5,1643.36s107.93,1.6,122.35-5.88,27.11-367.6,27.11-367.6l-50,6.89-11.45.37s-42.28-43.06-50.59-23.35S2986.5,1643.36,2986.5,1643.36Z"/><path class="cls-21" d="M2972.6,1220.19c-36.44-5.1-95.77-32.58-145.4-37.48l-95.65-195.93s-40.58,27.27-61,26.61c0,0,73.56,226.74,100.61,243.9,21.95,13.91,48.23,21.31,57.37,23.61,14.2,5.42,111.16,35.49,111.16,40.32h0c-.51,10.7-79.62,333.88-91.45,444.3a276.7,276.7,0,0,1,60.1,14.26c31.35,11.39,81.93,22.08,81.93,22.08s1.52-131.83,12.3-233.09v0l4.79-98,3.42-29.26.19-1.66v-.09c7-60.3,22-188.75,23.64-203C3034.59,1236.75,3026,1227.67,2972.6,1220.19Z"/><path class="cls-24" d="M3023.54,1300.51c.72,4.46,2.89,11,11.24,5.88s20.82-21.73,27.77-13.53a53.94,53.94,0,0,1,9.44,15.42l-30.43,379.3s12.08-4.69,18.14-11.45,26.63-372.59,26.63-372.59-.27-5.7,3.23-1.66,8.25,21.25,14,18.88,22.92-13.06,22.92-13.06l24-36.91-64.45,6-11.45.37-8.85-2.83-37-.87Z"/><path class="cls-25" d="M3068.73,1295.39s-15.63,88.29-26.62,174.72-25.48,193.91-23,203.8l17.07,17.89,18-14.23c4.66-8.73,27.11-377.47,26.53-392.76C3080.74,1284.81,3069.41,1291.51,3068.73,1295.39Z"/><path class="cls-26" d="M3065.7,1274.31s-3.16,14.53.73,19.32,14.49,2.25,16.12,1.24,4.82-5.54,3.45-18.1l-11.45.37Z"/><path class="cls-22" d="M3048.53,1810.54c-10.82-16.33-28,329.72-25.44,395.89s-8.92,223.39-8.92,223.39a114.15,114.15,0,0,1-31.77,7s21.59-268.6,20.95-337.34,12.74-273,24.19-293.41C3038.84,1786,3048.28,1809.88,3048.53,1810.54Z"/><path class="cls-22" d="M3030.25,1236.88s-2.61-4-5.89-3-31.05,65.65-39.84,79.9-15.43,30.87-13.06,32.54,30.64,32.77,26.36,36.8-24.69,31.59-23.27,37.28,27.13,79.15,27.13,79.15l1.13-27Z"/><path class="cls-27" d="M3034.78,1235.07s-2.62-4-5.89-3-31,65.65-39.84,79.9-15.43,30.87-13.06,32.53,30.63,32.77,26.36,36.81-24.7,31.58-23.27,37.28,27.13,79.15,27.13,79.15l1.13-27Z"/><path class="cls-12" d="M3265.64,1862.52s1.4,16.53-11.2,34-10.5,26.1-11.45,36-9.78,22.41-4.79,23.79,20.21-11.45,21.61-19.73,6.21-12.19,8.47-8.2,16,67.88,21.4,69.38,10.1-5.73,10.1-5.73,2.93,8.88,8.88,7.61,4.66-10.37,4.66-10.37,9.09,3.64,12.83-3.4-8-27.1-7.33-38.35-.92-17.75,1.21-19,17,26.21,24.06,23.25-5.37-13.82-7.68-24.1-10.25-28.63-15.75-37.1-14.44-51.07-14.44-51.07Z"/><g class="cls-28"><path class="cls-13" d="M3299.78,1992a97.12,97.12,0,0,1-4.65-11.07,94.51,94.51,0,0,1-3.42-11.56c-.43-2.1-.6-4-.92-5.94s-.61-3.91-.86-5.89c-.57-3.93-1.07-7.89-1.32-11.91a100.53,100.53,0,0,1,3.61,11.45c.53,1.93.94,3.89,1.37,5.85.21,1,.38,2,.55,3s.29,1.87.51,2.85c.37,1.9.85,3.81,1.33,5.73s.95,3.84,1.38,5.78C3298.28,1984.13,3299.15,1988,3299.78,1992Z"/></g><g class="cls-28"><path class="cls-13" d="M3313.32,1989.24c-1.26-4.11-2.55-8.19-3.66-12.32-.59-2.05-1.09-4.13-1.64-6.19l-1.5-6.23c-1-4.17-1.8-8.36-2.56-12.57s-1.41-8.45-1.79-12.75c1.59,4,2.88,8.11,4.07,12.22s2.26,8.26,3.21,12.43c.45,2.09.91,4.18,1.34,6.27s.83,4.2,1.15,6.32A84.48,84.48,0,0,1,3313.32,1989.24Z"/></g><path class="cls-14" d="M3264.35,1874.9s16.43,1.4,27.88,0,23.09,1.64,23.09,1.64l-8.41-30.41-41.27,16.39Z"/><path class="cls-21" d="M3290.24,1451.79c-1.8-37.26-5.14-71.24-7.43-84-4.53-25.26-12.61-58.24-44-78.9s-94.2-38.77-94.2-38.77L3103,1458l-8.56,47.55s-2.57-.69-4.86-1.6l-1.31,14.95-6.11,304.39s56.64,17.27,116.48,8.72c20.27-2.89,35.39-5.79,46.53-8.35l3,39.83c43.4,11.53,75.7-11.47,75.7-11.47Z"/><path class="cls-22" d="M3245.15,1823.61s-28.79-393.88-36.75-384.28,16.59,215.19,0,297.62-36.74,97.27-36.74,97.27S3201.94,1834.78,3245.15,1823.61Z"/><path class="cls-22" d="M2939.66,1321.22c0-5-135.1-45.9-148.93-53.47l-20.63-11.21,62.88,16.9s52.43,14.58,78.08,11.37,33.17.15,34.53,2.94C2945.59,1287.75,2946.07,1300.32,2939.66,1321.22Z"/><path class="cls-27" d="M3131.29,1247.86l-41.73,256,4.87,1.61s37.58-53.91,36.86-57-7.12-56.75-5.46-58.89,32.18-33.41,33.25-38.2-14.43-101.31-14.43-101.31.36-2.85-3.74-4.63S3131.47,1241.15,3131.29,1247.86Z"/><path d="M3182.66,2447.43s22.56,67,20.39,84.78,39.92-28.85,39.92-28.85-8.89-54.33-5.27-66S3182.66,2447.43,3182.66,2447.43Z"/><path d="M2943.51,2424.21s-2.32,67.54-14.47,77.35,61.43,9.14,61.43,9.14,4.84-77.25,7.76-80.08S2943.51,2424.21,2943.51,2424.21Z"/><path class="cls-29" d="M3004.45,2492.34c0,2.45-.21,10.16-.51,18.66-.5,13.31-1.15,28.56-1.15,28.56s13,7.91-44.76,11.29c-41.2,2.41-74.14,2.81-89.17-.55-6.06-1.35-9.2-3.3-8.82-6,0-.29.07-.62.11-1,.45-4.74,0-14-.6-22.77-.75-10.77-1.77-20.8-1.77-20.8s27.37-11.77,47.31-23.37,32.56-16.48,35.18,2.07,39.08,16.93,50.46,5.76S3004.36,2486,3004.45,2492.34Z"/><path class="cls-30" d="M2958,2550.85c-41.2,2.41-74.14,2.81-89.17-.55a95.37,95.37,0,0,1-8.71-7c.45-4.74,0-14-.6-22.77,5.08-7.13-1.77-20.8-1.77-20.8s9.69-2.12,26,23.23c9.84,15.31,120.16-12,120.16-12-.5,13.31-1.15,28.56-1.15,28.56S3015.82,2547.47,2958,2550.85Z"/><path d="M2899,2488.92a4.59,4.59,0,1,0,4.46,4.71A4.59,4.59,0,0,0,2899,2488.92Z"/><path d="M2888,2497.57a4.68,4.68,0,1,0,4.56,4.81A4.69,4.69,0,0,0,2888,2497.57Z"/><path d="M2910.67,2482.27a4.43,4.43,0,1,0,4.31,4.55A4.43,4.43,0,0,0,2910.67,2482.27Z"/><path d="M2927.84,2471a6,6,0,1,0,5.81,6.13A6,6,0,0,0,2927.84,2471Z"/><path class="cls-2" d="M2927.62,2479.22a2.22,2.22,0,0,0,1.27-4.07c-14.54-9.47-17.1-7.9-18.07-7.31a10.59,10.59,0,0,0-4.15,4.82,4,4,0,0,0,.26,2.65s1.1-.49,2.15-1.06c.56-.31,1-.71,1.47-.91,1.25-.56,1-1.58,2.31-1.54s8.46,3.71,13.61,7.06A2.19,2.19,0,0,0,2927.62,2479.22Z"/><path class="cls-2" d="M2910.48,2488.94a2.17,2.17,0,0,0,1.2-.32,2.21,2.21,0,0,0,.76-3c-7.61-12.66-10-12.31-11.21-12.14-3.43.49-4.78,4.89-4.92,5.35a5.92,5.92,0,0,0-.13,2.41s3.26-1.09,3.61-2.26c.21-.66,1.37-.56,2-.41s4.49,5.36,6.88,9.34A2.22,2.22,0,0,0,2910.48,2488.94Z"/><path class="cls-2" d="M2898.86,2495.72a2.22,2.22,0,0,0,1.66-3.75h0c-.05,0-5.16-5.47-5.82-10.81a2.22,2.22,0,1,0-4.4.54c.84,6.81,6.76,13.07,7,13.34A2.23,2.23,0,0,0,2898.86,2495.72Z"/><path class="cls-2" d="M2887.83,2504.05a2.21,2.21,0,0,0,2-3.3c-.14-.27-3.2-6-.1-15.45a2.22,2.22,0,0,0-4.22-1.39c-3.75,11.43.29,18.72.46,19A2.22,2.22,0,0,0,2887.83,2504.05Z"/><path class="cls-29" d="M3317.33,2577.82s-64.17,11.71-100.56,5.1a42.31,42.31,0,0,1-8.18-2.29,26.52,26.52,0,0,1-2.62-1.23c-20.75-11.05-4.9-39.25-13.49-56.87h0c-3.38-6.92,4-19.09,4-29.2,5.84,16.85,12.21,21.12,16.41,12.59s2.16-32.87,21.86-33.86,24.79,20.48,24.79,20.48c1.4,9.29,11.06,15.07,22.1,22.2h0C3299.11,2526,3320.09,2540.65,3317.33,2577.82Z"/><path class="cls-29" d="M3187.66,2496.14c0-.79,0-1.57,0-2.36A18.32,18.32,0,0,1,3187.66,2496.14Z"/><path class="cls-30" d="M3234.22,2571.74c-4.39,4.33-16.46,7.66-28.25,7.66-20.75-11.05-4.9-39.25-13.49-56.87.41.48,18.74,21.06,36,3.41C3228.44,2525.94,3243.51,2562.59,3234.22,2571.74Z"/><path class="cls-2" d="M3317.33,2577.82s-64.17,11.71-100.56,5.1a42.31,42.31,0,0,1-8.18-2.29,67.89,67.89,0,0,1,1-17.06c-6.41,2-14.28-25.69-14.28-25.69l-.09-3.61s7.37,11.12,11.7,13.58a5.06,5.06,0,0,0,2.79.77,4.72,4.72,0,0,0,3.63-2.51c5.26-14.06,21-35.27,68.29-31.37h0c10.14,6.53,21.45,14.2,28.63,26.72a55.16,55.16,0,0,1,6.81,21.11A78.6,78.6,0,0,1,3317.33,2577.82Z"/><path class="cls-31" d="M3317.06,2562.57c-16.39,6-56.59,9.87-73.38,7.61a78.3,78.3,0,0,1-30.64-11.33s62.39-.82,82.63-9.51a84,84,0,0,0,14.58-7.88A55.16,55.16,0,0,1,3317.06,2562.57Z"/><path class="cls-2" d="M3003.17,2530.56l-.38,9s-5,10.23-12.13,11.11c-4.5.55-54,2.4-89.53,3.11-20.46.41-36.29.42-36.25-.4a2,2,0,0,1,0-.27c-16.08.56-39.18,1.37-40.56,1.59-1.95.31-15.49-3.66-15.86-24.33a55.12,55.12,0,0,1,.23-5.88c2.46-27.11,29.34-30.7,49-24.71,10.43,3.17,16.13,17.78,19.19,30.84.32,1.33,3.76,14.17,15.29,14.31C2904.43,2545.08,3003.17,2530.56,3003.17,2530.56Z"/><path class="cls-31" d="M2954.44,2545.37c-23.9,6.45-89.6,8.83-89.56,8a2,2,0,0,1,0-.27c-16.08.56-39.18,1.37-40.56,1.59-1.95.31-15.49-3.66-15.86-24.33,0,0,33.46,21.37,85.14,17.52C2903.61,2547.15,2938.72,2545,2954.44,2545.37Z"/><path d="M2810.59,2542.24s2.06,14.06,97.73,6.85,94.47-9.53,94.47-9.53,16.22,6.28.56,13.28c-14,6.27-176.22,18.53-199,3.61,0,0-5.12-3.18-5.67-7.32S2803.51,2539.35,2810.59,2542.24Z"/><path d="M3216.78,2582.92c-28.1-5.11-21.47-26.38-21.49-45,10,26.18,23,24.51,67,23.4,28.47-.72,44.46-5.14,52.75-8.57a69.31,69.31,0,0,1,2.32,25.11S3253.16,2589.53,3216.78,2582.92Z"/><ellipse cx="3230.49" cy="2498.16" rx="3.97" ry="3.04" transform="translate(-665.3 1273.53) rotate(-20.26)"/><ellipse cx="3234.74" cy="2504.93" rx="3.97" ry="3.04" transform="matrix(0.94, -0.35, 0.35, 0.94, -667.38, 1275.42)"/><ellipse cx="3239.01" cy="2511.79" rx="3.97" ry="3.04" transform="translate(-669.49 1277.33) rotate(-20.26)"/><path class="cls-2" d="M3240.85,2512.78s18.89-6.55,33.14-2.22c0,0,5-.17-5.25-3.57s-31.21,2.63-30.93,4.6S3240.85,2512.78,3240.85,2512.78Z"/><path class="cls-2" d="M3236.91,2505.28s16.45-6.15,28.89-2c0,0,4.35-.14-4.59-3.41s-27.21,2.37-27,4.24S3236.91,2505.28,3236.91,2505.28Z"/><path class="cls-2" d="M3231.7,2499s16.45-6.15,28.89-2c0,0,4.35-.14-4.59-3.42s-27.21,2.38-27,4.25S3231.7,2499,3231.7,2499Z"/><path class="cls-2" d="M3030.37,1236.69s12.11.72,15,0,13.3,26.6,29.45,40.37c0,0,27.3-2.85,47.49-28,0,0,.95-4.27,4.27-1.9s12.59,7.6,12.59,7.6-30.28,50.35-36.45,55.57c0,0-19.35-33.25-27.9-33.25,0,0-29.21,9.5-37.76,20.9C3037,1298,3031.79,1246.67,3030.37,1236.69Z"/><path class="cls-13" d="M2710.31,903.93a47.12,47.12,0,0,0-2.4-5.1c3.81,10.47-4.44,11.65-5.18,11.74l-.11-.15a.88.88,0,0,1,.05.15l.33,1.37a9.08,9.08,0,0,1-3.9,8.86l-.11.08a9.61,9.61,0,0,1-7.25.8c-4.4,12.09-13.42,12.25-13.42,12.25-2.63,4.33-7,5.78-16.27,4.68a11.18,11.18,0,0,1-1.32-.24c3.41,2.92,7.21,6.19,10.4,9,8,7,20.14,31.76,20.6,32.68-.24-1.17-7.71-33,2.25-47.93l2-3.56c.34-.5.88-1.36,1.49-2.36,0,0,5.28-6.51,6.49-10.09h0c1-2.23-1-4.15,1.83-5.06S2710.71,905.29,2710.31,903.93Z"/><path class="cls-21" d="M2708.24,899.32c0-.77,13.1-58.57,13.1-58.57l-3.52-1-12.59,56.66Z"/><path class="cls-32" d="M2707.76,828.2c7-9.24,12.69-14.32,22-36.29l.06-.14v.15c-.2,23.88,2.94,30.78,5.73,42.07.14.57.25,1.14.34,1.71,1.77,11.15-8,20.75-19.18,19.22h-.06c-10.87-3.06-16-15.77-9.92-25.28C2707.07,829.14,2707.4,828.67,2707.76,828.2Z"/><path class="cls-33" d="M2724.81,816a105.37,105.37,0,0,0,3.29,15.81c.41,1.53.84,3.11,1.25,4.77a18.89,18.89,0,0,1,0,7,13.24,13.24,0,0,1-12.65,11.3h0a13.2,13.2,0,0,1-7.1-14.38,18.53,18.53,0,0,1,2.87-7.45c1-1.35,2.05-2.64,3-3.88A104.29,104.29,0,0,0,2724.81,816Z"/><polygon class="cls-34" points="2653.8 2021.36 2806.98 2075.08 2705.88 2314.51 2557.69 2251.34 2653.8 2021.36"/><path class="cls-35" d="M2751.92,2113c-5.37,28.57-13.4,57.79-27,83.65-19.89,38-50.35,66.21-84.83,89.83l-82.44-35.14,96.11-230,102.8,36.06A253.59,253.59,0,0,1,2751.92,2113Z"/><path class="cls-34" d="M2462.43,2350.48a225.84,225.84,0,0,1-54.91-2.53c-41.34-6.77-82.14-19.41-122.14-31.77-50.21-15.52-101.57-34.72-144.79-65a178,178,0,0,1,8.28-61q2.46-7.78,5.6-15.17l338.82,107.71q-1.73,7.83-4.16,15.61A179.21,179.21,0,0,1,2462.43,2350.48Z"/><path class="cls-36" d="M1637,1524.73l922.9,254.57s207.28,80.9,168,307.55C2685,2334,2438,2341.46,2300.6,2287l-800.37-422S1531.63,1760.22,1637,1524.73Z"/><path class="cls-37" d="M2727.86,2086.85a358.69,358.69,0,0,1-8.6,37.7c-60.4,210-288.66,214-418.66,162.49l-800.37-422s15.61-52.12,61.75-165.43c19.3-47.38,43.93-105.45,75-174.88l922.89,254.57S2767.14,1860.2,2727.86,2086.85Z"/><path class="cls-38" d="M2727.86,2086.85a358.69,358.69,0,0,1-8.6,37.7s-1131.68-413-1140.59-410.73a130,130,0,0,1-16.69-14.21c19.3-47.38,43.93-105.45,75-174.88l922.89,254.57S2767.14,1860.2,2727.86,2086.85Z"/><path class="cls-39" d="M1637,1524.73l922.9,254.57s207.28,80.9,168,307.55C2685,2334,2438,2341.46,2300.6,2287l-800.37-422S1531.63,1760.22,1637,1524.73Zm775.29,528.87c149.59,62.85,145.44,197.74,145.44,197.74,143.06-64.77,142.49-230,142.49-230-11.37-174.44-169.08-229.42-169.08-229.42l-172.2-45.5L1699.07,1570.1,1604.26,1828l510.82,232.93S2216.69,1971.43,2412.25,2053.6Z"/><polygon class="cls-21" points="2378.93 1729.39 2193.55 2230.59 2122.49 2193.12 2301.86 1708.14 2378.93 1729.39"/><path class="cls-21" d="M1500.23,1865s31.4-104.82,136.73-340.31l129.61,35.75-137.72,372.37Z"/><path class="cls-23" d="M2320.06,1745.12a10,10,0,1,0,10-10A9.95,9.95,0,0,0,2320.06,1745.12Z"/><path class="cls-23" d="M2293.27,1813.75a10,10,0,1,0,9.95-10A10,10,0,0,0,2293.27,1813.75Z"/><path class="cls-23" d="M2268.62,1889.14a10,10,0,1,0,10-9.94A10,10,0,0,0,2268.62,1889.14Z"/><path class="cls-23" d="M2240.75,1959.42a10,10,0,1,0,10-10A10,10,0,0,0,2240.75,1959.42Z"/><path class="cls-23" d="M2208.41,2048a10,10,0,1,0,10-10A10,10,0,0,0,2208.41,2048Z"/><path class="cls-23" d="M2183.62,2113.32a9.95,9.95,0,1,0,9.94-10A9.94,9.94,0,0,0,2183.62,2113.32Z"/><path class="cls-40" d="M2295.05,2201.27A138.69,138.69,0,1,0,2433.73,2340,138.68,138.68,0,0,0,2295.05,2201.27Z"/><path d="M2295.05,2151.77c-103.93,0-188.19,84.25-188.19,188.18s84.26,188.19,188.19,188.19,188.19-84.25,188.19-188.19S2399,2151.77,2295.05,2151.77Zm0,326.88A138.69,138.69,0,1,1,2433.73,2340,138.69,138.69,0,0,1,2295.05,2478.65Z"/><path class="cls-41" d="M2156.36,2340a138.69,138.69,0,1,0,138.69-138.68A138.69,138.69,0,0,0,2156.36,2340Z"/><path class="cls-40" d="M2294.4,2187.07a153,153,0,1,0,153,153A153,153,0,0,0,2294.4,2187.07Z"/><path class="cls-2" d="M2294.4,2132.47c-114.64,0-207.6,92.94-207.6,207.58s93,207.6,207.6,207.6,207.6-92.94,207.6-207.6S2409,2132.47,2294.4,2132.47Zm0,360.58a153,153,0,1,1,153-153A153,153,0,0,1,2294.4,2493.05Z"/><path class="cls-40" d="M2294.4,2187.07a153,153,0,1,0,153,153A153,153,0,0,0,2294.4,2187.07Z"/><path class="cls-2" d="M2294.4,2132.47c-114.64,0-207.6,92.94-207.6,207.58s93,207.6,207.6,207.6,207.6-92.94,207.6-207.6S2409,2132.47,2294.4,2132.47Zm0,360.58a153,153,0,1,1,153-153A153,153,0,0,1,2294.4,2493.05Z"/><path class="cls-21" d="M2294.4,2555.58a13.27,13.27,0,0,0,13.27-13.28V2137.81a13.28,13.28,0,0,0-26.55,0V2542.3A13.27,13.27,0,0,0,2294.4,2555.58Z"/><path class="cls-21" d="M2092.16,2353.33h404.47a13.27,13.27,0,1,0,0-26.54H2092.16a13.27,13.27,0,1,0,0,26.54Z"/><path class="cls-21" d="M2437.4,2496.34a13.28,13.28,0,0,0,9.37-22.66l-286-286a13.27,13.27,0,0,0-18.76,18.78l286,286A13.25,13.25,0,0,0,2437.4,2496.34Z"/><path class="cls-21" d="M2151.39,2496.34a13.17,13.17,0,0,0,9.37-3.89l286-286a13.27,13.27,0,1,0-18.76-18.78l-286,286a13.28,13.28,0,0,0,9.39,22.66Z"/><path class="cls-29" d="M2238.47,2340.05a55.94,55.94,0,1,0,55.93-55.93A55.93,55.93,0,0,0,2238.47,2340.05Z"/><path d="M2294.4,2103.37c130.73,0,236.7,106,236.7,236.68s-106,236.7-236.7,236.7-236.69-106-236.69-236.7S2163.69,2103.37,2294.4,2103.37Zm0,411.12A174.44,174.44,0,1,0,2120,2340.05,174.44,174.44,0,0,0,2294.4,2514.49Z"/><path class="cls-42" d="M1501,1889.14a17.08,17.08,0,0,0,15.62-11l134.85-357.29a17.07,17.07,0,1,0-31.94-12l-134.86,357.29a17.08,17.08,0,0,0,10,22A16.83,16.83,0,0,0,1501,1889.14Z"/><path class="cls-2" d="M1623.23,1518.9a10,10,0,1,0,10-10A9.95,9.95,0,0,0,1623.23,1518.9Z"/><path class="cls-2" d="M1589.1,1613.5a10,10,0,1,0,10-10A10,10,0,0,0,1589.1,1613.5Z"/><path class="cls-2" d="M1560.18,1690.5a10,10,0,1,0,10-10A9.94,9.94,0,0,0,1560.18,1690.5Z"/><path class="cls-2" d="M1527.46,1776.78a10,10,0,1,0,10-10A10,10,0,0,0,1527.46,1776.78Z"/><path class="cls-2" d="M1495.25,1864.46a10,10,0,1,0,9.94-10A9.94,9.94,0,0,0,1495.25,1864.46Z"/><path class="cls-43" d="M2762.22,2507.51a9.49,9.49,0,0,0,4.36-17.91c-2.7-2.38-53.84-51.31-19.58-120.93,11.2-22.78,12.84-44.52,4.89-64.63-15.47-39-61.78-56.82-63.74-57.55a9.48,9.48,0,1,0-6.67,17.74c.47.19,40.54,15.71,52.81,46.88,5.87,14.89,4.42,31.44-4.31,49.19-20.33,41.3-14.17,76.77-5.43,99.24,10.2,26.27,27.69,44.77,34.2,47.31A9.62,9.62,0,0,0,2762.22,2507.51Z"/><path class="cls-44" d="M2675.93,2252a9.48,9.48,0,0,1,12.22-5.54,140,140,0,0,1,33.28,19.15,7.56,7.56,0,0,0-1.26,1.79c-6.07,12,9.18,20.92,13.86,29.63,12.2,22.68,10.13,43.9,2,67.54-6,17.46-13.93,36-12.12,54.89,1.9,19.82,8.35,40,20.19,56.22,7.43,10.16,17.61,17.75,26.59,26.45a9.44,9.44,0,0,1-8.43,5.35,9.62,9.62,0,0,1-3.47-.66c-6.51-2.54-24-21-34.2-47.31-8.74-22.47-14.9-57.94,5.43-99.24,8.73-17.75,10.18-34.3,4.31-49.19-12.27-31.17-52.34-46.69-52.81-46.88A9.49,9.49,0,0,1,2675.93,2252Z"/></g></g></svg>