<svg id="Mỗi_hình_1_layer_riêng" data-name="Mỗi hình 1 layer riêng" xmlns="http://www.w3.org/2000/svg" viewBox="0 0 4680 3120"><defs><style>.cls-1{fill:#fff;}.cls-2{fill:#f3f3f4;}.cls-3{fill:#ebecee;}.cls-4{fill:#d3d7db;}.cls-5{fill:#e0e2e5;}.cls-6{fill:#fefefe;}.cls-7{fill:#33231c;}.cls-8{opacity:0.61;}.cls-9{opacity:0.21;}.cls-10{fill:#2b363c;}.cls-11{fill:#1c2426;}.cls-12{fill:#0f1516;}.cls-13{fill:#dbdbdb;}.cls-14{fill:#ffc5b8;}.cls-15,.cls-20{fill:#e98970;}.cls-16{fill:#4c2409;}.cls-17{fill:#6d3713;}.cls-18{fill:#87461b;}.cls-19{fill:#3d0b01;}.cls-20{opacity:0.56;}.cls-21{fill:#231f20;}.cls-22{fill:#b51a1a;}.cls-23{fill:#ca2722;}.cls-24,.cls-26{fill:#3d4f53;}.cls-25{fill:#d38d00;}.cls-26{opacity:0.09;}.cls-27{fill:#9e9e9e;}.cls-28{fill:#606060;}.cls-29{fill:#ffc606;}.cls-30{fill:#f5b400;}.cls-31{fill:#fce267;}</style></defs><title>01</title><rect class="cls-1" width="4680" height="3120"/><path class="cls-2" d="M2723.6,1789.17c20.61-54.73,36.81-110.49,46.87-168.38,9.22-53.07,15-106.28,15.15-159.88q.48-174.9-61.56-338.89c-29.4-78-70.57-149.49-120.13-215.63-56.42-75.29-122.43-141.94-196.16-201-101.67-81.39-212-147.19-334.71-191.53-59-21.32-119.54-35.88-181.79-45.41C1776.74,451,1665,460.87,1555.15,495.44c-80.68,25.4-154.05,63.53-208.51,131.05-46.88,58.13-62.37,125.23-55.62,198.42,6.1,66.11,26.57,129.52,36.85,194.89,11.14,70.82-5.43,135.08-40,196.48-39,69.26-94.23,124.44-151.3,178.11-50.37,47.37-105.38,90.2-144.87,148.13-18.23,26.76-36.05,53.9-43.3,86.25,15.87,0,24.58-13.07,36.18-20.5,98.5-63.1,207.39-69.13,318.48-55.27,74.19,9.25,144.94,34.67,214.82,60.62,112.89,41.92,225,86.07,337.53,128.85,112.22,42.64,228.38,69.56,347.15,86,56.76,7.83,113.92,9.63,171,12.22,55.63,2.53,111-.77,166.09-8.67,35.42-5.09,70.71-11.08,106.06-16.67q30.39-93.72,60.79-187.43l8.3,2.71c-14.05,60.28-37.12,117.91-55.83,176.82Z"/><path class="cls-3" d="M2645.73,1815.3c-35.35,5.59-70.64,11.58-106.06,16.67-55.07,7.9-110.46,11.2-166.09,8.67-57.1-2.59-114.26-4.39-171-12.22-118.77-16.39-234.93-43.31-347.15-86-112.57-42.78-224.64-86.93-337.53-128.85-69.88-25.95-140.63-51.37-214.82-60.62-111.09-13.86-220-7.83-318.48,55.27-11.6,7.43-20.31,20.48-36.18,20.5-14.17,20.41-16.84,44.36-20.14,67.87-13.89,98.92,9.07,190.47,58.27,275.87,24.62,42.73,52.48,83.53,89,117.54,6.07-6.24,12.91-3.28,19.81-1.93,17.21,3.35,34.35,7.75,51.74,9.3,72.73,6.49,144.77.3,216.26-13.88,110.71-22,214.65-64.13,317.88-107.9,115.8-49.11,235-82,361.46-87.32,73.32-3.08,146.2-.42,218.32,11.69,99.12,16.66,193.16,50.6,285.17,90.42,17.36,7.51,32.74,19.64,52.07,22.57,21.92-19.32,35.38-45.08,50.5-69.15,30.58-48.69,58.34-99.06,74.91-154.68L2659,1807.4c-1.67,5.35-3.59,10.63-4.94,16.06s-2.83,13.4-9.64,10.6c-7.3-3-.37-9.6.55-14.61C2645.21,1818.07,2645.47,1816.69,2645.73,1815.3Zm-66.17,133.32c9.56-14.65,18.59-28.68,28-42.49.73-1.06,5-1.38,5.48-.65,1.38,2.13,3.1,5.75,2.18,7.41q-11.58,21-24.33,41.3c-.93,1.49-5.39,2.09-7.36,1.2S2580.94,1951.2,2579.56,1948.62Z"/><path class="cls-4" d="M1198.46,2189.45c42.5,27.92,87.68,50.7,134.23,71,87.51,38.24,178.77,64.52,272.15,83,35.7,7.05,72,12.15,108.53,15.74,38,3.73,75.88,7.9,114,8.56,178.82,3.09,348.56-31.14,505-122,63.79-37.07,123.18-79.69,176.83-130.1,18.94-17.78,35.35-38.26,52.91-57.51-47.32-20.9-97.61-29.13-148.26-37.64-62.69-10.53-124.92-8.2-187.22-.91-77.51,9.06-151.44,32.71-224.29,59.63-88.16,32.58-178.16,57.72-271.08,72.69q-116.6,18.78-234.31,26.8c-91.33,6.07-182.48,13.3-274.1,7.83C1214.71,2186,1205.8,2182.44,1198.46,2189.45Z"/><path class="cls-5" d="M1198.46,2189.45c7.34-7,16.25-3.42,24.31-2.94,91.62,5.47,182.77-1.76,274.1-7.83q117.93-7.86,234.31-26.8c92.92-15,182.92-40.11,271.08-72.69,72.85-26.92,146.78-50.57,224.29-59.63,62.3-7.29,124.53-9.62,187.22.91,50.65,8.51,100.94,16.74,148.26,37.64,13.51-13.87,27.88-27.06,36.16-45.11-19.33-2.93-34.71-15.06-52.07-22.57-92-39.82-186-73.76-285.17-90.42-72.12-12.11-145-14.77-218.32-11.69-126.47,5.3-245.66,38.21-361.46,87.32-103.23,43.77-207.17,85.94-317.88,107.9-71.49,14.18-143.53,20.37-216.26,13.88-17.39-1.55-34.53-6-51.74-9.3-6.9-1.35-13.74-4.31-19.81,1.93C1111.85,2128.91,1152.56,2162.39,1198.46,2189.45Z"/><path class="cls-2" d="M1248.72,1042.54c2-60.26-10.93-107.82-42.2-149.32-25.44-33.76-80.47-38.89-117.42,9.68a400.75,400.75,0,0,0-49.85,85.92c-24.19,56.82-69.33,90.74-122.06,117.73-27.73,14.19-52.92,31.89-72.57,57.08-60.25,77.18,10.44,162.6,75.59,174.78,68.29,12.77,124.46-14.53,177.2-51.28,62.92-43.85,107.75-103.08,134.57-175C1241.28,1087.23,1248.6,1061.24,1248.72,1042.54Zm-350.29,99.39c1.54,2,3.85,3.69,3.6,4.87-.68,3.22-1.59,7.26-3.9,9.13-22.18,17.89-35.54,41-42.09,68.47-.8,3.37-3.37,6.83-7.39,6-6-1.16-4.86-6.45-3.68-10.12,9.13-28.38,21.79-54.66,46.06-73.59C893.15,1145.07,895.57,1143.77,898.43,1141.93Z"/><path class="cls-6" d="M2645.73,1815.3c-.26,1.39-.52,2.77-.77,4.15-.92,5-7.85,11.6-.55,14.61,6.81,2.8,8.26-5,9.64-10.6s3.27-10.71,4.94-16.06c18.71-58.91,41.78-116.54,55.83-176.82l-8.3-2.71Q2676.13,1721.59,2645.73,1815.3Z"/><path class="cls-6" d="M2579.56,1948.62c1.38,2.58,2.08,5.94,3.92,6.77s6.43.29,7.36-1.2q12.73-20.3,24.33-41.3c.92-1.66-.8-5.28-2.18-7.41-.47-.73-4.75-.41-5.48.65C2598.15,1919.94,2589.12,1934,2579.56,1948.62Z"/><path class="cls-6" d="M898.43,1141.93c-2.86,1.84-5.28,3.14-7.4,4.8-24.27,18.93-36.93,45.21-46.06,73.59-1.18,3.67-2.29,9,3.68,10.12,4,.79,6.59-2.67,7.39-6,6.55-27.47,19.91-50.58,42.09-68.47,2.31-1.87,3.22-5.91,3.9-9.13C902.28,1145.62,900,1143.9,898.43,1141.93Z"/><path d="M2116.56,2349.36s3.24,94.29,20.19,108-85.75,12.76-85.75,12.76-6.76-107.84-10.84-111.79S2116.56,2349.36,2116.56,2349.36Z"/><path class="cls-7" d="M2031.48,2444.47c0,3.43.29,14.2.72,26.05.69,18.58,1.6,39.88,1.6,39.88s-18.19,11,62.48,15.76c57.52,3.36,103.5,3.91,124.48-.77,8.46-1.88,12.86-4.61,12.32-8.35-.06-.41-.1-.86-.15-1.36-.63-6.61,0-19.54.83-31.78,1.06-15,2.48-29,2.48-29s-38.21-16.42-66-32.62-45.46-23-49.12,2.89-54.56,23.64-70.45,8S2031.61,2435.66,2031.48,2444.47Z"/><path class="cls-8" d="M2096.28,2526.16c57.52,3.36,103.5,3.91,124.48-.77a131.71,131.71,0,0,0,12.17-9.71c-.63-6.61,0-19.54.83-31.78-7.08-10,2.48-29,2.48-29s-13.53-3-36.3,32.44c-13.74,21.36-167.74-16.78-167.74-16.78.69,18.58,1.6,39.88,1.6,39.88S2015.61,2521.44,2096.28,2526.16Z"/><path d="M2178.63,2439.7a6.4,6.4,0,1,1-6.23,6.57A6.4,6.4,0,0,1,2178.63,2439.7Z"/><path d="M2194,2451.78a6.54,6.54,0,1,1-6.36,6.71A6.54,6.54,0,0,1,2194,2451.78Z"/><path d="M2162.39,2430.42a6.18,6.18,0,1,1-6,6.34A6.18,6.18,0,0,1,2162.39,2430.42Z"/><path d="M2138.44,2414.73a8.34,8.34,0,1,1-8.12,8.56A8.35,8.35,0,0,1,2138.44,2414.73Z"/><path class="cls-1" d="M2194.28,2460.82a3.1,3.1,0,0,1-2.78-4.61c.21-.37,4.47-8.4.15-21.57a3.09,3.09,0,0,1,5.88-1.93c5.24,16-.4,26.12-.64,26.55A3.11,3.11,0,0,1,2194.28,2460.82Z"/><path class="cls-1" d="M2033.27,2497.83l.53,12.57s7,14.28,16.93,15.5c6.29.78,75.38,3.36,125,4.34,28.57.57,50.67.6,50.61-.55a2.15,2.15,0,0,0-.06-.37c22.44.77,54.69,1.91,56.62,2.22,2.72.43,21.61-5.12,22.13-34a76.43,76.43,0,0,0-.32-8.22c-3.43-37.84-41-42.86-68.45-34.49-14.57,4.43-22.52,24.83-26.79,43-.45,1.85-5.25,19.79-21.35,20C2171.1,2518.1,2033.27,2497.83,2033.27,2497.83Z"/><path class="cls-9" d="M2101.3,2518.51c33.36,9,125.08,12.33,125,11.18a2.15,2.15,0,0,0-.06-.37c22.44.77,54.69,1.91,56.62,2.22,2.72.43,21.61-5.12,22.13-34,0,0-46.71,29.83-118.86,24.46C2172.26,2521,2123.24,2518,2101.3,2518.51Z"/><path d="M2302.11,2514.13s-2.87,19.63-136.43,9.57-131.88-13.3-131.88-13.3-22.64,8.76-.79,18.53c19.59,8.76,246,25.87,277.77,5.05,0,0,7.15-4.44,7.91-10.23S2312,2510.1,2302.11,2514.13Z"/><path d="M1616.55,2369.45s-31.49,93.6-28.47,118.35-55.71-40.26-55.71-40.26,12.4-75.86,7.35-92.15S1616.55,2369.45,1616.55,2369.45Z"/><path class="cls-1" d="M2138.74,2426.16a3.09,3.09,0,0,1-1.77-5.69c20.29-13.21,23.87-11,25.22-10.2a14.88,14.88,0,0,1,5.8,6.72,5.64,5.64,0,0,1-.36,3.72s-1.54-.69-3-1.49c-.79-.43-1.46-1-2.07-1.27-1.74-.79-1.45-2.2-3.22-2.16s-11.8,5.19-19,9.87A3.08,3.08,0,0,1,2138.74,2426.16Z"/><path class="cls-1" d="M2162.67,2439.73a3.16,3.16,0,0,1-1.69-.45,3.1,3.1,0,0,1-1.05-4.25c10.63-17.66,14-17.17,15.65-16.94,4.79.69,6.67,6.83,6.86,7.48a8.06,8.06,0,0,1,.19,3.35s-4.55-1.52-5.05-3.15c-.28-.92-1.91-.78-2.74-.57s-6.27,7.49-9.61,13A3.07,3.07,0,0,1,2162.67,2439.73Z"/><path class="cls-1" d="M2178.89,2449.19a3.1,3.1,0,0,1-2.32-5.23h0c.07-.07,7.2-7.64,8.12-15.09a3.1,3.1,0,0,1,6.15.75c-1.18,9.51-9.45,18.25-9.8,18.62A3.08,3.08,0,0,1,2178.89,2449.19Z"/><path class="cls-10" d="M1519.43,2375.76s11,.87,24.55,3.47c3.87.74,8,1.62,12,2.65,18.48,4.68,87,13,87,13s9.74-33.74,20.71-81.31,32.3-141.16,56.25-186.48,34.17-88.11,35.48-129.76,98.77-318.28,125.19-333a3.51,3.51,0,0,1,2.34-.41c27.8,4.58,90.44,323.59,88.62,405.34-1.85,84.14,26.64,217.95,34,241.32s9.92,69,9.92,69c3.25-1.06,20.77.07,40,.68,22.79.74,48,.75,54.31-4.45,11.72-9.57,38-22.13,38-22.13s-30.08-144.87-37.35-191.23-12.44-102.78-5.71-152.18-10.56-64.71-18.3-102-29-354.46-29-354.46-251.09-177.67-341.77-46.44c-8.79,12.71-16.06,28.32-21.47,47.26-61.16,214.57-42.43,317.54-79.52,407.78C1574.47,2060.33,1519.43,2375.76,1519.43,2375.76Z"/><path class="cls-11" d="M1519.43,2375.76s11,.87,24.55,3.47c11.36-49.73,82.16-357.55,101.69-393.92,21.27-39.56,39.71-210.68,53.53-261.85s53.12-68.06,104.49-74.26c174.88-21.13,243.21,23.22,261.71,17.21l-7-99.48s-230.6-52.91-342.66-59.61c-8.79,12.71-16.06,28.32-21.47,47.26-61.16,214.57-42.43,317.54-79.52,407.78C1574.47,2060.33,1519.43,2375.76,1519.43,2375.76Z"/><path class="cls-12" d="M1679.88,1608.77s293.25,16.55,380.62-11.38l-2.1-30.46-373.62,10.55Z"/><path class="cls-11" d="M1883,1663.91c27.8,4.58,90.44,323.59,88.62,405.34-1.85,84.14,26.64,217.95,34,241.32s9.92,69,9.92,69c3.25-1.06,20.77.07,40,.68-12.53-90.66-51.2-366.7-64-413.71-15.32-56.39-30.27-225.62-54.24-280.18C1913.68,1632.46,1883.81,1663.11,1883,1663.91Z"/><path class="cls-10" d="M2066.86,1585.58c-24.16,12.09-72.93,13.55-109.55,12.67-26.41-.64-46.5-2.52-46.5-2.52l-5.87-19.76-3.2,19.23s-37.18,3.06-79.85,3.08c-19.37,0-39.88-.6-58.54-2.41a146.7,146.7,0,0,0-15,8.27s-1.14-3.61-3.2-10.17c-52.81-4.81-81.61,1.23-81.61,1.23-.51-18.24,32.61-111.4,38.31-138.74-41.8-132.78-96-299.38-97.06-308.29-3-24.29,10.28-31.4,21.42-39.76a78.41,78.41,0,0,1,10.43-7.28h0c75.27-36.6,94.23-34.45,94.23-34.45,32.55,9.45,64.11-8.59,87.83-18.44.67-.28,1.3-.87,2-.82,24.52,2.14,51.17,4.36,75.43,7.56s46.11,7.39,61,13.47c0,0,24.9,9.58,28.08,15.94,8.2,16.38,10.69,34.9,19,86.48,19,87.35,30,197.93,30,197.93,8.11,42.41,10.44,57,13.32,75.77.14.94.29,1.88.43,2.81,4.16,27.06,8,51.32,11.18,71C2059.83,1522.47,2066.86,1585.58,2066.86,1585.58Z"/><path class="cls-11" d="M1955.77,1585.8s-.33-20.7-.86-52.63c-.16.6-.33,1.19-.53,1.77-2.24-118.68-6.2-330.28-8-343-3.57-25.83-9.3-9.22-9.3-9.22s1.31,207.86,8.08,320.18c2.73,45.22-39.92,80.47-83.45,67.93-13.07-3.76-24.56-11.43-32-24-29.52-49.83-90.2-289.5-104.79-320.48s-11.44-9.61-11.44-9.61c6,41.67,109.09,375.14,109.09,375.14a19.66,19.66,0,0,0-2.17,5.58c42.67,0,79.85-3.08,79.85-3.08l3.2-19.23,5.87,19.76s20.1,1.88,46.5,2.52A32.75,32.75,0,0,0,1955.77,1585.8Z"/><path class="cls-13" d="M1851.61,1095.41s-28.79-35.4-48-33.18-74.33,13-78.56,37.53,132.2,204,137.16,203.45S1866.52,1148.81,1851.61,1095.41Z"/><path class="cls-14" d="M1810.77,1023.88c-.35,36.36,1.35,91.83,1.35,91.83s-85.17-17.53-72.64-40.06c6.86-12.35,7.14-33.71,6.11-50.91-.87-14.22-2.63-25.61-2.35-26.74,0,0,72-20,68.88-2.5C1811.29,1000.14,1810.9,1010.77,1810.77,1023.88Z"/><path class="cls-15" d="M1812.12,995.5c-.83,4.64-1.22,15.27-1.35,28.38,0,0-47.38,20.67-65.18.86-.87-14.22-2.63-25.61-2.35-26.74C1743.24,998,1815.25,978,1812.12,995.5Z"/><path class="cls-16" d="M1668.43,768.94s-87.71,56.18-30.93,152.2,104.34,77.22,104.34,77.22Z"/><path class="cls-17" d="M1736.06,721.7s-36.7,3.7-78.71,61.4-29.54,126,0,148.2S1736.06,721.7,1736.06,721.7Z"/><path class="cls-18" d="M1842.48,761s33.24-5.59,49.86,11-21.24,135.67-21.24,135.67S1820.32,779,1842.48,761Z"/><path class="cls-19" d="M1837.53,783.09s26.65-2.73,37.26,18.49,4.16,66,4.16,66l-6.46,52.63S1810,811.27,1837.53,783.09Z"/><path class="cls-14" d="M1865.45,998.86c-9.21,10.79-22.91,19.73-42.25,23-52.15,8.78-81-7.29-99.32-22.45s-28.44-37.72-28.44-37.72-13.61,7.71-31.1-7-13.53-48.69,2.44-52.7c10.81-2.73,13.51-49.14,24.35-80.72,5.17-15.08,12.19-26.77,22.83-28.74l6.74-1.23a594.45,594.45,0,0,1,66.84-8.29s3-.31,7.73-.34c11.39-.06,33.08,1.54,49.24,13.09,10.6,7.58,18.82,19.44,20.19,37.94,4.33,58.44,16.12,74.49,18.64,92.1C1885.44,940.53,1881.1,980.54,1865.45,998.86Z"/><path class="cls-20" d="M1844.79,796.49s-37.52-12.93-62.39,16-44.26,65.17-59.65,88.45-7.9,82.56,1.13,98.46c-18.37-15.16-28.44-37.72-28.44-37.72s-13.61,7.71-31.1-7-13.53-48.69,2.44-52.7c10.81-2.73,13.51-49.14,24.35-80.72,5.21-6.61,9.95-11.55,13.77-14.06,11.84-7.78,55-21.41,90.37-24.54,23.94-2.12,44.37.56,49.24,13.09C1844.61,796,1844.71,796.23,1844.79,796.49Z"/><path class="cls-16" d="M1844.79,796.49S1823,745,1757.16,787.26c0,0-4.37-51.71,19.81-65.56S1851.71,730,1844.79,796.49Z"/><path class="cls-19" d="M1844.79,796.49s-36.71-22.85-64.4,8.31-75.49,47.78-75.49,47.78S1799.39,686,1844.79,796.49Z"/><path class="cls-11" d="M1734.66,1069.91s3.38,39.26,26.17,67.74S1865,1327.24,1865,1327.24l-3,5.39s-93.29-101.68-108.24-111.3-15.31-13.53-12.47-21,9.62-31.69,5.35-34.89-37.75-14.6-37.75-19.59,3.27-64.68,13.28-78.17c0,0,7.88-3,12.52-1.22Z"/><path class="cls-16" d="M1710,867.59s-13.85,36.93-7.38,62.32-43.12-70.92-49.95-2.68c0,0-13.26-13-17.1-29.29S1710,867.59,1710,867.59Z"/><path class="cls-18" d="M1844.79,796.49s24.13-81.71-61-90.71S1673.74,836.66,1644,873.36s-42.24,34.21-42.24,34.21,62.68,6.94,99.18-10,58.26-71.53,70.48-122.35S1840.63,708.78,1844.79,796.49Z"/><path d="M1836.18,881.16a4.81,4.81,0,0,1,4.06-4.64c2.45-.3,5.69,1.39,8.14,10.19,3.77,13.54-7.15,11-10.32,3.46A20.78,20.78,0,0,1,1836.18,881.16Z"/><path d="M1775.91,896.34a4.81,4.81,0,0,1,4.06-4.64c2.45-.3,5.69,1.39,8.14,10.19,3.77,13.54-7.15,11-10.32,3.46A20.78,20.78,0,0,1,1775.91,896.34Z"/><path class="cls-15" d="M1815.67,891.72s28.09,32.93,24.87,39.33-20.64,9.75-20.64,9.75,14.66-4.55,12.52-15.22S1815.67,891.72,1815.67,891.72Z"/><path class="cls-21" d="M1855.25,854.11a84.47,84.47,0,0,0-9-3.85,40.59,40.59,0,0,0-8.86-2.11A34.87,34.87,0,0,0,1833,848a37,37,0,0,0-4.51.44,72.49,72.49,0,0,0-9.39,2.48,20.24,20.24,0,0,1,8.28-6.25,22.52,22.52,0,0,1,5.21-1.4,23.48,23.48,0,0,1,5.43-.06,24.14,24.14,0,0,1,10,3.56A21.16,21.16,0,0,1,1855.25,854.11Z"/><path class="cls-21" d="M1781.57,861.86a91.38,91.38,0,0,0-9.22,3.06,59.49,59.49,0,0,0-8.32,4,60.69,60.69,0,0,0-7.65,5.16c-1.3.89-2.42,2-3.71,3s-2.41,2.19-3.82,3.22a23.73,23.73,0,0,1,.84-2.41,14.92,14.92,0,0,1,1-2.34,26.72,26.72,0,0,1,2.88-4.28,28.65,28.65,0,0,1,17.74-10.12A21.26,21.26,0,0,1,1781.57,861.86Z"/><path class="cls-15" d="M1792,962.53s27.66,21.17,63.71,8C1855.67,970.54,1825.23,977.85,1792,962.53Z"/><circle class="cls-1" cx="1842.62" cy="881.39" r="2"/><circle class="cls-1" cx="1782.4" cy="897.61" r="2"/><path class="cls-22" d="M1807.86,1104.51s43.45,101.48,49.5,121.42,13.72,93.54,7,96-51.35-100.3-51.35-100.3-21.18-106.47-20.44-117.15S1807.86,1104.51,1807.86,1104.51Z"/><path class="cls-23" d="M1804.12,1074.59s10,17.45,8.73,25.64-18.52,17.27-24.93,15.85-18-29.56-15.49-34.19,15.49-6.58,15.49-6.58Z"/><path class="cls-1" d="M1739,1062.23s34,10.94,48.93,13.08c0,0-27.42,25.64-29.2,41.66s-17-4.27-19.73-11.4S1731,1062,1739,1062.23Z"/><path class="cls-1" d="M1787.92,1075.31s28.49-33.12,32.76-29.56,13.18,54.48,13.18,54.48S1798.6,1075,1787.92,1075.31Z"/><path class="cls-11" d="M1818.3,1049.1s22.45,45.44,27.43,81.4c4.48,32.28,16.7,169,19.24,196.74a38.12,38.12,0,0,0,.86,5.39s21.57-97.8,31.89-178.27c0,0,2.5-4.63-8.54-7.48s-19.56-9.61-20.47-12.11,26.16-28.13,22.25-32.76c0,0-51.81-53.41-55.73-53.32-6.88.16-18.32-6.33-18.32-6.33Z"/><path class="cls-24" d="M1739.32,1065.25s3.38,39.26,26.17,67.74S1865,1327.24,1865,1327.24h0s-91.65-101-106.6-110.57-15.32-13.53-12.47-21,9.62-31.69,5.34-34.89-37.74-14.6-37.74-19.59,5.16-67.92,15.18-81.41c0,0,5-4.55,9.65-2.81Z"/><path class="cls-24" d="M1812.47,1049.1s22.46,45.44,27.44,81.4S1865,1327.24,1865,1327.24s16.6-92.41,26.93-172.88c0,0,2.49-4.63-8.55-7.48s-19.56-9.61-20.46-12.11,26.16-28.13,22.24-32.76c0,0-60.87-64-67.65-62.85s-6.39,3.2-6.39,3.2Z"/><path class="cls-7" d="M1428.56,2551.47s89.57,16.35,140.37,7.13a58.75,58.75,0,0,0,11.43-3.2,36.48,36.48,0,0,0,3.66-1.72c29-15.43,6.83-54.79,18.82-79.38h0c4.72-9.66-5.59-26.65-5.56-40.76-8.15,23.53-17,29.49-22.91,17.58s-3-45.88-30.51-47.28-34.61,28.6-34.61,28.6c-2,13-15.44,21-30.86,31h0C1454,2479.17,1424.71,2499.59,1428.56,2551.47Z"/><path class="cls-7" d="M1609.57,2437.45c0-1.1,0-2.18,0-3.3A25.67,25.67,0,0,0,1609.57,2437.45Z"/><path class="cls-8" d="M1544.57,2543c6.13,6,23,10.7,39.45,10.69,29-15.43,6.83-54.79,18.82-79.38-.57.66-26.15,29.39-50.2,4.75C1552.64,2479.05,1531.61,2530.22,1544.57,2543Z"/><path class="cls-1" d="M1428.56,2551.47s89.57,16.35,140.37,7.13a58.75,58.75,0,0,0,11.43-3.2,95.29,95.29,0,0,0-1.37-23.81c8.94,2.82,19.93-35.87,19.93-35.87l.13-5s-10.29,15.52-16.33,19a7.09,7.09,0,0,1-3.91,1.07c-3.39-.17-5-3.5-5-3.5-7.35-19.62-29.37-49.23-95.35-43.8h0c-14.15,9.13-29.94,19.83-40,37.31a76.72,76.72,0,0,0-9.5,29.47A107.62,107.62,0,0,0,1428.56,2551.47Z"/><path class="cls-9" d="M1428.94,2530.19c22.87,8.42,79,13.78,102.43,10.62a109.45,109.45,0,0,0,42.77-15.81s-87.1-1.15-115.36-13.28a118.53,118.53,0,0,1-20.34-11A76.72,76.72,0,0,0,1428.94,2530.19Z"/><path d="M1568.93,2558.6c39.22-7.13,30-36.83,30-62.87-14,36.54-32.1,34.21-93.49,32.66-39.75-1-62.07-7.18-73.65-12-2.92,9.82-4.25,21.32-3.23,35C1428.56,2551.47,1518.13,2567.83,1568.93,2558.6Z"/><ellipse cx="1549.78" cy="2440.27" rx="4.24" ry="5.54" transform="translate(-1276.22 3048.92) rotate(-69.74)"/><ellipse cx="1543.86" cy="2449.73" rx="4.24" ry="5.54" transform="matrix(0.35, -0.94, 0.94, 0.35, -1288.97, 3049.54)"/><ellipse cx="1537.89" cy="2459.3" rx="4.24" ry="5.54" transform="translate(-1301.85 3050.2) rotate(-69.74)"/><path class="cls-1" d="M1535.32,2460.69s-26.37-9.15-46.26-3.11c0,0-7-.23,7.32-5s43.58,3.66,43.18,6.41S1535.32,2460.69,1535.32,2460.69Z"/><path class="cls-1" d="M1540.82,2450.22s-23-8.6-40.33-2.77c0,0-6.07-.2,6.4-4.77s38,3.31,37.64,5.93S1540.82,2450.22,1540.82,2450.22Z"/><path class="cls-1" d="M1548.1,2441.41s-23-8.6-40.34-2.77c0,0-6.07-.2,6.4-4.77s38,3.31,37.64,5.93S1548.1,2441.41,1548.1,2441.41Z"/><path class="cls-11" d="M2018.22,1588.84a24.57,24.57,0,0,1,8,2.82l6.6-223.75,3.54,225.31s-8.33,2.57-15.19,2.09Z"/><polygon class="cls-11" points="1743.65 1593.08 1700.35 1455.57 1697.63 1466.52 1730.98 1592.1 1743.65 1593.08"/><polygon class="cls-11" points="1864.97 1327.24 1905.15 1580.72 1902.54 1580.72 1860.21 1322.01 1864.97 1327.24"/><circle class="cls-11" cx="1854.25" cy="1358.87" r="6.47"/><circle class="cls-11" cx="1862.5" cy="1425.12" r="6.47"/><circle class="cls-11" cx="1873.66" cy="1485.62" r="6.47"/><rect class="cls-25" x="2669.33" y="1939.05" width="53.95" height="125.52" rx="20" transform="translate(892.88 -831.02) rotate(20.93)"/><path class="cls-26" d="M1089.16,2492.21s-251.81,50.94,81.91,119.24,2508.72,65.79,2589.42-15.55-1209.8-94.24-1209.8-94.24S1698.74,2490.78,1089.16,2492.21Z"/><path class="cls-27" d="M1875.42,2468.77s892.59,120.62,791.63-438.58h22.44c128.88,571.15-805.32,458.95-805.32,458.95Z"/><polygon class="cls-28" points="1888.65 2519.66 1758.33 2519.66 1744.44 2542.52 1888.65 2565.38 1888.65 2519.66"/><polygon points="1888.65 2553.97 1747.63 2537.27 1744.44 2542.52 1888.65 2565.38 1888.65 2553.97"/><polygon class="cls-28" points="1895.56 2519.66 2025.88 2519.66 2039.77 2542.52 1895.56 2565.38 1895.56 2519.66"/><polygon points="1895.56 2553.97 2036.58 2537.27 2039.77 2542.52 1895.56 2565.38 1895.56 2553.97"/><path class="cls-27" d="M1796.94,1635.26c-31.74,0-59.67-3.62-76-9.12a21.62,21.62,0,0,0-11,18.76v14.4a21.66,21.66,0,0,0,21.59,21.59h144.76v-56C1860.71,1631.08,1831,1635.26,1796.94,1635.26Z"/><path class="cls-28" d="M1741.7,1631.08c-2.13-.36-4.22-.74-6.2-1.15v15.83c2,.75,4.11,1.48,6.2,2.16Z"/><path class="cls-28" d="M1754.1,1632.87c-2.11-.25-4.19-.52-6.2-.81v17.75c2,.59,4.11,1.14,6.2,1.64Z"/><path class="cls-28" d="M1766.5,1634.09c-2.11-.16-4.17-.34-6.2-.55v19.32c2,.43,4.12.8,6.2,1.14Z"/><path class="cls-28" d="M1778.9,1634.86c-2.1-.1-4.16-.2-6.2-.33v20.39c2,.27,4.12.49,6.2.7Z"/><path class="cls-28" d="M1791.3,1635.22q-3.13,0-6.2-.13v21c2.05.13,4.12.23,6.2.27Z"/><path class="cls-28" d="M1797.49,1635.26v21.22c2.08,0,4.15,0,6.2-.14v-21.13C1801.65,1635.24,1799.58,1635.25,1797.49,1635.26Z"/><path class="cls-28" d="M1809.89,1635.06V1656q3.12-.23,6.2-.56v-20.6Q1813,1635,1809.89,1635.06Z"/><path class="cls-28" d="M1822.29,1634.46v20.16c2.08-.31,4.15-.64,6.2-1V1634C1826.46,1634.17,1824.39,1634.33,1822.29,1634.46Z"/><path class="cls-28" d="M1834.69,1633.43v19c2.09-.46,4.15-1,6.2-1.47v-18.18Q1837.86,1633.11,1834.69,1633.43Z"/><path class="cls-28" d="M1847.09,1631.9v17.3q3.14-.95,6.2-2V1630.9C1851.29,1631.26,1849.21,1631.58,1847.09,1631.9Z"/><path class="cls-28" d="M1710.54,1664.09a21.67,21.67,0,0,0,21,16.8h144.76v-16.8Z"/><path class="cls-27" d="M1987.28,1635.26c31.73,0,59.66-3.62,76-9.12a21.64,21.64,0,0,1,11,18.76v14.4a21.65,21.65,0,0,1-21.59,21.59H1907.88v-56C1923.5,1631.08,1953.2,1635.26,1987.28,1635.26Z"/><path class="cls-28" d="M2042.51,1631.08c2.14-.36,4.22-.74,6.2-1.15v15.83c-2,.75-4.1,1.48-6.2,2.16Z"/><path class="cls-28" d="M2030.11,1632.87q3.18-.37,6.2-.81v17.75c-2,.59-4.11,1.14-6.2,1.64Z"/><path class="cls-28" d="M2017.71,1634.09c2.11-.16,4.17-.34,6.2-.55v19.32c-2,.43-4.11.8-6.2,1.14Z"/><path class="cls-28" d="M2005.31,1634.86c2.1-.1,4.16-.2,6.21-.33v20.39c-2.06.27-4.13.49-6.21.7Z"/><path class="cls-28" d="M1992.92,1635.22c2.08,0,4.15-.06,6.19-.13v21c-2,.13-4.12.23-6.19.27Z"/><path class="cls-28" d="M1986.72,1635.26v21.22c-2.08,0-4.15,0-6.2-.14v-21.13C1982.57,1635.24,1984.63,1635.25,1986.72,1635.26Z"/><path class="cls-28" d="M1974.32,1635.06V1656q-3.12-.23-6.2-.56v-20.6Q1971.18,1635,1974.32,1635.06Z"/><path class="cls-28" d="M1961.92,1634.46v20.16c-2.08-.31-4.15-.64-6.2-1V1634C1957.75,1634.17,1959.82,1634.33,1961.92,1634.46Z"/><path class="cls-28" d="M1949.52,1633.43v19q-3.12-.69-6.2-1.47v-18.18Q1946.35,1633.11,1949.52,1633.43Z"/><path class="cls-28" d="M1937.12,1631.9v17.3q-3.13-.95-6.19-2V1630.9C1932.92,1631.26,1935,1631.58,1937.12,1631.9Z"/><path class="cls-28" d="M2073.67,1664.09a21.66,21.66,0,0,1-21,16.8H1907.88v-16.8Z"/><rect class="cls-28" x="1866.02" y="1601.12" width="52.17" height="125.93" rx="21.59"/><rect class="cls-22" x="1866.02" y="1712.66" width="52.17" height="801.76"/><rect class="cls-23" x="1892.11" y="1712.66" width="26.09" height="801.76"/><path d="M1930.79,1716.26a7.22,7.22,0,0,1-7.2,7.2h-63a7.21,7.21,0,0,1-7.19-7.2v-7.19a7.21,7.21,0,0,1,7.19-7.2h63a7.22,7.22,0,0,1,7.2,7.2Z"/><path class="cls-27" d="M1867,1616.41h50.28a21.69,21.69,0,0,0-20.65-15.29h-9A21.67,21.67,0,0,0,1867,1616.41Z"/><path d="M1930.79,2518a7.22,7.22,0,0,1-7.2,7.19h-63a7.21,7.21,0,0,1-7.19-7.19v-7.21a7.21,7.21,0,0,1,7.19-7.19h63a7.22,7.22,0,0,1,7.2,7.19Z"/><path class="cls-27" d="M1904.32,2524.84c0-5.74-5.5-10.42-12.21-10.42s-12.22,4.68-12.22,10.42v40.79c0,5.73,5.5,10.41,12.22,10.41s12.21-4.68,12.21-10.41Z"/><path class="cls-14" d="M1822.59,1591.81s12.55,17.9,15.67,26.53,3,14.35,3,14.35-19.7,4-23.08,24.82,8.9,23.38,8.9,23.38,3.5,5.46-14.36,6-42.08,1.6-51.7-7.66-15.87-49.27-11.21-77.18C1749.86,1602.05,1798.82,1571.61,1822.59,1591.81Z"/><path class="cls-14" d="M1955.77,1585.8s-8.07,21.5-12.45,28.27-6.2,17.83-6.2,17.83,21.41.61,26.21,22.1,1.34,26.89,1.34,26.89-2.18,3.52.27,6.33c6.28,7.24,47,4.51,57.82,1.33s3.24-91.93-4.54-99.71C2018.22,1588.84,1983,1575.52,1955.77,1585.8Z"/><path class="cls-25" d="M3851.43,1243.12a733.39,733.39,0,0,1-11.91,264.35h0a742.77,742.77,0,0,1-37.12,116.3q-6.86,16.65-14.44,32.8c-166.23,354.57-583.52,519.46-949.49,368.73q-25.2-10.38-49.19-22.38c-343.22-171.26-500.73-581.3-352.34-941.56a734.92,734.92,0,0,1,186.91-266.13C2815.78,621.58,3092.11,556,3350.2,641.08q25.47,8.4,50.67,18.77C3653,763.7,3816.94,991.1,3851.43,1243.12Z"/><path class="cls-29" d="M3702.52,1582.64q-13.91,33.78-30.7,65.42c-167.61,316.19-541.05,467.49-882.55,354.88q-25.47-8.4-50.68-18.77c-377.07-155.31-556.83-586.88-401.53-963.93a736.58,736.58,0,0,1,147.68-227.92c.07-.07.15-.13.21-.2a734,734,0,0,1,126.66-106l1.68-1.11C2810.44,555.2,3066.28,522,3301,618.71q25.18,10.38,49.2,22.37C3693.41,812.35,3850.91,1222.37,3702.52,1582.64Z"/><circle class="cls-30" cx="3019.79" cy="1301.44" r="592.21" transform="translate(-35.78 2516.5) rotate(-45)"/><path class="cls-25" d="M2500.4,1123.29c124.56-302.42,470.7-446.61,773.12-322a589.42,589.42,0,0,1,267.34,219.2,589.39,589.39,0,0,0-295.53-266.59c-302.42-124.56-648.56,19.63-773.12,322.05-70.54,171.26-54.83,356.51,26.93,507.63a621.56,621.56,0,0,1,1.26-460.24Z"/><path class="cls-31" d="M3180.52,997.16l25.72-62.45-63.55-26.18L3117,971c-105-37.32-152.21-14.3-196.66,93.63-38.64,93.81-44.7,131.42-19.37,170.19,27.71,44.45,101.7,99.69,122.11,144.68,9,18.17,7,28.16-1.73,50-1.25,3.12-2.62,6.49-4.13,10.15-24.53,59.53-36.24,73.59-80.62,55.31-45.38-18.7-37.6-46.17-18.49-92.58a263.51,263.51,0,0,1,14.89-30.44l-112-46.11c-10.5,16.92-22.09,39.26-33.31,66.51-44,106.93-12.11,155.46,75,196.08l-32.36,78.58,63.55,26.17,32.78-79.61c105.26,34.67,154.31,4.14,208.46-115.2q7-15.33,14.08-32.64c42.79-103.89,16.66-126.45-19.57-167.34-26.05-28.42-57.79-54.47-88.05-87-28.06-29.27-29-35.57-7.41-88,20.77-50.43,35.84-58.38,72.16-43.42,42.36,17.45,39.69,41.12,22.23,83.48-6.23,15.13-10.38,25.22-15.11,33.88l111,45.7a477.62,477.62,0,0,0,29.38-59.85C3293.26,1087.25,3273.68,1040.25,3180.52,997.16Z"/><path class="cls-12" d="M2674,2084.85s-15-50.78-4.34-58.79,22.26-2.58,25.2,11.58,3.88,45.77,3.88,45.77S2687,2076,2674,2084.85Z"/><polygon class="cls-29" points="2665.8 2006.07 2622.63 1985.83 2614.97 2001.81 2658.58 2024.95 2665.8 2006.07"/><ellipse class="cls-29" cx="2605.89" cy="1985.82" rx="21.1" ry="22.17"/><path class="cls-15" d="M1800.59,1584.89s-45,19.6-52.15,45a207.31,207.31,0,0,1,1.42-27.88S1772.81,1585.8,1800.59,1584.89Z"/><path class="cls-15" d="M1955.77,1585.8s52.91-2.24,69,27.84c0,0-.76-14.25-6.51-24.8C2018.22,1588.84,1990.17,1575.84,1955.77,1585.8Z"/></svg>