<svg id="Mỗi_hình_1_layer_riêng" data-name="Mỗi hình 1 layer riêng" xmlns="http://www.w3.org/2000/svg" viewBox="0 0 4680 3120"><defs><style>.cls-1{fill:#fff;}.cls-2{fill:#f3f3f4;}.cls-3{fill:#ebecee;}.cls-4{fill:#d3d7db;}.cls-5{fill:#e0e2e5;}.cls-6{fill:#fefefe;}.cls-7{fill:#ffc5b8;}.cls-8{fill:#a8d070;}.cls-9{fill:#5b7a6b;}.cls-10{fill:#d8e5c1;}.cls-11,.cls-20{fill:#e98970;}.cls-12{fill:#33231c;}.cls-13{opacity:0.61;}.cls-14{opacity:0.21;}.cls-15{fill:#2b363c;}.cls-16{fill:#4c2409;}.cls-17{fill:#6d3713;}.cls-18{fill:#87461b;}.cls-19{fill:#3d0b01;}.cls-20{opacity:0.56;}.cls-21{fill:#231f20;}.cls-22{fill:#1c2426;}.cls-23{fill:#dbdbdb;}.cls-24{fill:#000f11;opacity:0.13;}.cls-25{fill:#b51a1a;}.cls-26{fill:#3d4f53;}</style></defs><title>04</title><rect class="cls-1" width="4680" height="3120"/><path class="cls-2" d="M3036.23,1723.82c5.35-54.81,6.44-109.47,1.42-164.56-4.59-50.5-12.36-100.29-25.34-149.07q-42.34-159.12-138.87-293c-45.82-63.77-100.73-118.65-162-166.65-69.71-54.65-146-99.1-227.5-134.73-112.35-49.12-228.79-81.94-351.16-92.24-58.85-5-117.46-3.38-176.39,3.18-108.42,12.08-207.62,48.44-299,106.73-67.14,42.83-124.51,95.44-157.51,170.15-28.4,64.32-26.06,129.11-2,194,21.71,58.62,55.84,111.26,81.18,168.18,27.45,61.66,28.1,124.14,11.7,188.42-18.51,72.5-55.24,136.18-94,198.94-34.2,55.4-73.74,107.79-95.47,170.12-10,28.79-19.6,57.82-18.27,89,14.42-3.9,19.15-17.9,27.88-27.49,74.11-81.46,171.63-113.59,276-128.17,69.71-9.73,140.26-3.93,210.13,2.57,112.9,10.49,225.58,23.22,338.4,34.57,112.46,11.32,224.65,7.37,336.64-6.78,53.52-6.77,105.92-19.12,158.48-30.73,51.19-11.31,100.74-27.86,148.88-48.51,31-13.29,61.58-27.37,92.35-41.1l9.42-185.28,8.2.43c2,58.25-4.91,116.29-7.5,174.42Z"/><path class="cls-3" d="M2971.83,1766.62c-30.77,13.73-61.39,27.81-92.35,41.1-48.14,20.65-97.69,37.2-148.88,48.51-52.56,11.61-105,24-158.48,30.73-112,14.15-224.18,18.1-336.64,6.78-112.82-11.35-225.5-24.08-338.4-34.57-69.87-6.5-140.42-12.3-210.13-2.57-104.4,14.58-201.92,46.71-276,128.17-8.73,9.59-13.46,23.59-27.88,27.49-7.89,22-4.46,44.44-1.71,66.63,11.57,93.33,54.85,171,120.46,236.55,32.84,32.83,68.15,63.11,109.63,85.11,4-7.16,10.94-6.14,17.54-6.61,16.46-1.16,33.13-1.35,49.31-4.19,67.72-11.9,131.7-35.15,193.22-65.52,95.29-47.06,179.47-110.82,262.61-175.88,93.28-73,193.58-132,307.27-167.81,65.91-20.73,132.82-36.14,201.35-42.77,94.2-9.11,188-1.26,281.38,12.44,17.63,2.58,34.57,9.84,52.87,7.78,15.2-22.92,21.14-49.64,29-75.23,15.89-51.74,28.8-104.33,30.26-158.94L2982,1756.19c-.21,5.27-.66,10.55-.56,15.81s.7,12.88-6.18,12c-7.37-1-2.68-8.63-3.07-13.41C2972,1769.26,2971.93,1767.94,2971.83,1766.62ZM2944.28,1904c5.11-15.67,9.89-30.63,15-45.47.4-1.15,4.21-2.48,4.82-1.94,1.78,1.6,4.22,4.48,3.8,6.21q-5.4,21.92-12,43.5c-.48,1.58-4.39,3.22-6.39,2.89S2946.17,1906,2944.28,1904Z"/><path class="cls-4" d="M1747.55,2460.84c45.47,15,92.12,24.64,139.41,31.74,88.92,13.36,178.32,14.93,267.72,8.85,34.19-2.32,68.45-6.57,102.53-12.24,35.43-5.89,70.92-11.38,105.71-20.1,163.33-40.93,309.28-113.58,429.24-234.47,48.92-49.31,92.48-102.59,128.94-161.54,12.86-20.8,22.77-43.43,34-65.23-48.14-7.43-95.87-2.61-144,2.05-59.56,5.76-115.57,23.1-170.43,45-68.25,27.2-129.68,66.79-189.33,109.09-72.18,51.18-147.85,96.05-228.67,132.39-67.61,30.4-136.27,57.7-206.48,81.69-81.54,27.87-162.65,56.73-247.28,74.18C1761.48,2453.75,1752.5,2452.66,1747.55,2460.84Z"/><path class="cls-5" d="M1747.55,2460.84c5-8.18,13.93-7.09,21.38-8.62,84.63-17.45,165.74-46.31,247.28-74.18,70.21-24,138.87-51.29,206.48-81.69,80.82-36.34,156.49-81.21,228.67-132.39,59.65-42.3,121.08-81.89,189.33-109.09,54.86-21.87,110.87-39.21,170.43-45,48.14-4.66,95.87-9.48,144-2.05,8.89-15.92,18.72-31.42,21.84-49.86-18.3,2.06-35.24-5.2-52.87-7.78-93.39-13.7-187.18-21.55-281.38-12.44-68.53,6.63-135.44,22-201.35,42.77-113.69,35.76-214,94.84-307.27,167.81-83.14,65.06-167.32,128.82-262.61,175.88-61.52,30.37-125.5,53.62-193.22,65.52-16.18,2.84-32.85,3-49.31,4.19-6.6.47-13.55-.55-17.54,6.61C1654,2427,1699.2,2447.46,1747.55,2460.84Z"/><path class="cls-2" d="M1512.67,1405.81c-12.91-55.28-36.32-95.36-74.9-125.43-31.39-24.47-82.67-15.68-104.38,37.52a377.08,377.08,0,0,0-24.31,90.31c-8.09,57.58-40.83,99.46-82.17,136.9-21.74,19.68-40.31,41.94-52,69.64-35.89,84.92,49.28,145.28,111.49,140.42,65.21-5.1,109.59-43.66,148.56-90,46.47-55.25,72.75-120.07,79.54-192C1516.84,1448.26,1517.13,1422.84,1512.67,1405.81Zm-294.16,176c1.88,1.42,4.41,2.42,4.47,3.55.17,3.09.33,7-1.32,9.25-15.79,21.7-22.28,46-21.52,72.55.1,3.26-1.38,7-5.24,7.3-5.7.4-6-4.67-5.82-8.3,1.36-28,6.44-55,23.87-78.18C1214.48,1586,1216.36,1584.24,1218.51,1581.86Z"/><path class="cls-6" d="M2971.83,1766.62c.1,1.32.2,2.64.31,4,.39,4.78-4.3,12.46,3.07,13.41,6.88.89,6.28-6.59,6.18-12s.35-10.54.56-15.81c2.59-58.13,9.47-116.17,7.5-174.42l-8.2-.43Z"/><path class="cls-6" d="M2944.28,1904c1.89,2,3.34,4.88,5.23,5.19s5.91-1.31,6.39-2.89q6.61-21.57,12-43.5c.42-1.73-2-4.61-3.8-6.21-.61-.54-4.42.79-4.82,1.94C2954.17,1873.39,2949.39,1888.35,2944.28,1904Z"/><path class="cls-6" d="M1218.51,1581.86c-2.15,2.38-4,4.14-5.56,6.17-17.43,23.16-22.51,50.15-23.87,78.18-.17,3.63.12,8.7,5.82,8.3,3.86-.27,5.34-4,5.24-7.3-.76-26.57,5.73-50.85,21.52-72.55,1.65-2.26,1.49-6.16,1.32-9.25C1222.92,1584.28,1220.39,1583.28,1218.51,1581.86Z"/><path class="cls-7" d="M1798.19,1044l-23.64,5.89,0,0L1754,1055h0l-31.87,8c-1-2.2-2-4.33-3-6.39-9.45-20.24-15.61-34.19-16.83-37.53-3.82-10.49-28.64-43.49-47.55-67.8,25.89-15.61,44.82-43.88,67.66-65q.27.63.48,1.08c.27.62.42.94.42.94s.56-.91,1.55-2.47c.67-1.07,1.55-2.44,2.58-4,1.74-2.68,3.92-6,6.34-9.54,1.32-1.94,2.72-3.95,4.15-6h0q1.15-1.62,2.34-3.24h0c1.66-2.26,3.33-4.47,5-6.54,3.77-4.74,7.37-8.7,10.18-10.7a8.35,8.35,0,0,1,2.23-1.22,4.64,4.64,0,0,1,1.79-.29c2.69.27,1.45,5-.59,12.35q-.72,2.57-1.52,5.54c-.13.5-.26,1-.39,1.54-.44,1.69-.87,3.47-1.27,5.31a91.74,91.74,0,0,0-2.19,17c-.37,14.75-6.92,30.8-9.59,49.33h0c-1.7,11.7-1.87,24.36,2,38.32,2.73,9.88,18.51,31,40.32,56.56v0Q1792,1036.88,1798.19,1044Z"/><path class="cls-7" d="M1722.42,886.18c-22.84,21.16-41.77,49.43-67.66,65l-2.51-3.22-1.35-1.73-2.53-3.22-.59-.76-2.55-3.23c-5.59-7.1-9.85-12.42-11.58-14.61a20,20,0,0,0-2.31-2.28v0c-8.28-7.23-31.32-21.22-44.73-32.65-1.36-1.15-2.62-2.28-3.75-3.37l-1-1a34.74,34.74,0,0,1-2.55-2.87c-.23-.28-.45-.56-.64-.83a13.79,13.79,0,0,1-.8-1.19,11.64,11.64,0,0,1-.83-1.59c-.08-.2-.15-.41-.22-.61s-.11-.4-.15-.6a3.59,3.59,0,0,1,.18-2.24,3.06,3.06,0,0,1,.71-1,4.64,4.64,0,0,1,.86-.69,4.71,4.71,0,0,1,.76-.42l.28-.14a10.93,10.93,0,0,1,4.44-.88,21.32,21.32,0,0,1,4.95.63,41.69,41.69,0,0,1,4.89,1.52c15.49,5.78,35.16,21.31,41.2,20.54,6.87-.92-10.28-15.9-23.77-29.32-.92-.9-1.82-1.81-2.7-2.7-.3-.32-.61-.62-.91-.93-.94-1-1.85-1.94-2.71-2.86-.56-.61-1.1-1.2-1.61-1.78l-.29-.33c-.79-.9-1.56-1.82-2.31-2.75-11.31-14-16.92-30-8.85-33.35,4-1.68,17.84,8,31.73,18.57.44.33.87.65,1.3,1l3.63,2.78,1.21.93,2.73,2.1,1.13.89c3.26,2.52,6.39,4.93,9.24,7.09l.2.15a130.63,130.63,0,0,0,11,7.73l.08,0c1.5.85,2.53,1.24,2.93,1,.93-.55,0-3.49-2.06-7.83h0l0-.09c-1.69-3.58-4.12-8.1-6.85-13l-.09-.16c-1.12-2-2.3-4.11-3.49-6.22-.06-.09-.11-.18-.16-.27-.77-1.35-1.53-2.71-2.32-4.07a2,2,0,0,0-.11-.2c-1-1.74-2-3.47-3-5.19l-.06-.1c-4.46-7.87-8.56-15.26-10.69-20.12-6.72-15.2-12.56-31.29,1.43-29,6.75,1.12,16.06,16.15,24.68,32.28.22.41.45.82.66,1.24.78,1.42,1.53,2.87,2.28,4.31l.59,1.12c.59,1.13,1.17,2.25,1.73,3.37l.53,1,2.47,4.85c.08.15.14.3.22.45,2.12,4.16,4.1,8.07,5.89,11.5.06.13.12.26.19.39a99.34,99.34,0,0,0,6,10.42l.14.19a10.38,10.38,0,0,0,.85,1c6.23,6.52,5.75-9.75,5.35-27.76V821c0-2.61-.11-5.24-.14-7.85a76.69,76.69,0,0,0-1-11.14c-.16-1-.33-2-.5-2.95s-.33-1.68-.5-2.5c-.2-1-.42-2-.63-3-.26-1.24-.51-2.44-.74-3.62s-.44-2.17-.61-3.22c-1.38-7.89-1.39-14.41,4.23-19.69,5.07-4.75,9.49-1.1,13.16,7.63.44,1,.87,2.14,1.29,3.32.29.84.59,1.71.86,2.62.36,1.1.7,2.24,1,3.43.13.5.27,1,.41,1.52.29,1.12.59,2.28.87,3.48a269.77,269.77,0,0,1,5.19,31.37c2.4,21.31,9.19,42.15,14,55,.16.46.34.92.51,1.36l1.37,3.53q.27.63.51,1.23C1721.25,883.45,1721.92,885.05,1722.42,886.18Z"/><path class="cls-8" d="M1792.44,859.38a77.44,77.44,0,0,0-35.47,4.24c.13-.52.26-1,.39-1.54q.8-3,1.52-5.54c2-7.36,3.28-12.08.59-12.35a4.64,4.64,0,0,0-1.79.29,8.35,8.35,0,0,0-2.23,1.22c-2.81,2-6.41,6-10.18,10.7-1.64,2.07-3.31,4.28-5,6.54h0q-1.18,1.62-2.34,3.24h0c-1.43,2-2.83,4-4.15,6-2.42,3.54-4.6,6.86-6.34,9.54-1.7,1.46-3.37,2.94-5,4.48-22.84,21.16-41.77,49.43-67.66,65a77.22,77.22,0,0,1-49.66,11.13q-25.85-47-51.66-94a77.23,77.23,0,0,0,49.79-11.21,129.14,129.14,0,0,0,21.58-16.87c4.81-4.54,9.47-9.39,14-14.35,5.15-5.58,10.22-11.3,15.36-16.9A244.08,244.08,0,0,1,1677,786.7a108.54,108.54,0,0,1,17.39-12.06,76.86,76.86,0,0,1,46.4-9.26Q1766.6,812.39,1792.44,859.38Z"/><path class="cls-9" d="M1782,853.47a75.26,75.26,0,0,0-23.14,3.07c2-7.36,3.28-12.08.59-12.35a4.64,4.64,0,0,0-1.79.29,8.35,8.35,0,0,0-2.23,1.22c-2.81,2-6.41,6-10.18,10.7-1.64,2.07-3.31,4.28-5,6.54h0q-1.18,1.62-2.34,3.24h0a128,128,0,0,0-18,14c-23.33,21.43-42.52,50.41-69,66a76.73,76.73,0,0,1-41.37,11.08l-45.67-83.07a78,78,0,0,0,15.31-1.21c1.6-.29,3.18-.62,4.72-1a80.76,80.76,0,0,0,23.66-10.26,135.56,135.56,0,0,0,22.1-17.8c4.19-4.06,8.25-8.32,12.27-12.67,5.11-5.53,10.14-11.2,15.24-16.74a257.61,257.61,0,0,1,21.17-21,114.41,114.41,0,0,1,18.19-13,76.28,76.28,0,0,1,39.82-10.19Z"/><path class="cls-8" d="M1765.43,836.19c-6.42.43-9.92,4.57-10,9.51-2.81,2-6.41,6-10.18,10.7-10,4.7-18.86,11.33-27.21,19-23.78,21.67-43.19,51.29-70.28,66.93a80.78,80.78,0,0,1-18.18,7.79c-4-7.24-13.63-11-22.68-10.35q-13.25-24.09-26.48-48.18a11.78,11.78,0,0,0,6.16-2c4.13-2.92,5-8.52,2.18-13.7,1.68-.48,3.32-1,5-1.6a85.53,85.53,0,0,0,17.43-8.78A142.52,142.52,0,0,0,1633.51,847c3.7-3.65,7.32-7.45,10.89-11.32,5-5.48,10-11.09,15.08-16.59a267.25,267.25,0,0,1,20-20,116.8,116.8,0,0,1,18.5-13.55,80.08,80.08,0,0,1,18.32-7.87c4,7.25,13.62,11,22.67,10.35Q1752.2,812.1,1765.43,836.19Z"/><path class="cls-9" d="M1645.91,891.6c-9.77-17.77-5.16-43.81,9.18-60.19s34.93-13.35,44.87,4.73c9.77,17.77,5.16,43.81-9.18,60.19S1655.85,909.68,1645.91,891.6Z"/><path class="cls-10" d="M1654.07,859.53a27,27,0,0,1,4.42-12.25L1655,841c1.9-2.08,3.78-4.18,5.67-6.27l3.29,6a31.65,31.65,0,0,1,6.5-5,16.91,16.91,0,0,1,6.08-2.28q1.11,6.48,2.23,13a18.63,18.63,0,0,0-6,2.3,21.62,21.62,0,0,0-5.33,4.29,12.73,12.73,0,0,0-2.52,3.65,2.92,2.92,0,0,0,0,2.53,1.49,1.49,0,0,0,2.13.65,27.44,27.44,0,0,0,4.38-2.67,43.65,43.65,0,0,1,6.57-3.92,8.46,8.46,0,0,1,5.8-.5c2,.51,3.8,2.21,5.37,5.06a19,19,0,0,1,2.09,11.28,27,27,0,0,1-4.89,12.56l3.38,6.15c-1.89,2.08-3.77,4.18-5.67,6.26-1.1-2-2.21-4-3.31-6q-5.18,4.71-10,5.65-1.2-6.36-2.41-12.74a19.22,19.22,0,0,0,9.47-5.69c2.44-2.7,3.2-4.87,2.29-6.53a1.42,1.42,0,0,0-2.06-.57,25.93,25.93,0,0,0-4.27,2.68,40,40,0,0,1-6.51,4,8.7,8.7,0,0,1-5.85.59c-2-.48-3.8-2.16-5.38-5A18.82,18.82,0,0,1,1654.07,859.53Z"/><path class="cls-10" d="M1762.42,843.24a2.45,2.45,0,0,1,1.67-1.31c-.25-.44-.5-.89-.74-1.34.61-.08,1.22-.14,1.84-.21l.7,1.29a9.47,9.47,0,0,1,2,.11,8.14,8.14,0,0,1,1.83.47l.12,2.14a9.57,9.57,0,0,0-1.79-.45,6.44,6.44,0,0,0-1.68-.05,1.89,1.89,0,0,0-.85.22.25.25,0,0,0-.08.37.78.78,0,0,0,.57.36,12.64,12.64,0,0,0,1.34.16,15.72,15.72,0,0,1,2,.27,5.29,5.29,0,0,1,1.67.69,3.67,3.67,0,0,1,1.34,1.42,1.9,1.9,0,0,1,.15,1.88,2.67,2.67,0,0,1-1.88,1.17l.72,1.32-1.84.2c-.23-.43-.47-.86-.71-1.29a9.28,9.28,0,0,1-3-.33c-.08-.74-.15-1.47-.23-2.21a8,8,0,0,0,2.87.3c.79-.09,1.09-.3.89-.65a.78.78,0,0,0-.56-.35,9,9,0,0,0-1.31-.14,18.57,18.57,0,0,1-2-.19,5,5,0,0,1-1.65-.59,3.37,3.37,0,0,1-1.31-1.36A2.15,2.15,0,0,1,1762.42,843.24Z"/><path class="cls-10" d="M1725.79,776.61a2.48,2.48,0,0,1,1.67-1.3l-.73-1.34,1.83-.21.71,1.28a10.15,10.15,0,0,1,2,.11,9.37,9.37,0,0,1,1.83.47l.12,2.14a9.56,9.56,0,0,0-1.79-.44,6.5,6.5,0,0,0-1.68-.06,2,2,0,0,0-.85.22.26.26,0,0,0-.08.38.78.78,0,0,0,.57.35,12.3,12.3,0,0,0,1.34.16,15.39,15.39,0,0,1,2,.28,5.21,5.21,0,0,1,1.68.68,3.82,3.82,0,0,1,1.34,1.42,1.9,1.9,0,0,1,.15,1.88,2.72,2.72,0,0,1-1.88,1.17l.72,1.32c-.62.06-1.23.13-1.84.21l-.71-1.29a9.57,9.57,0,0,1-3-.33c-.08-.74-.15-1.48-.23-2.21a8,8,0,0,0,2.86.3c.8-.09,1.1-.3.9-.66a.81.81,0,0,0-.56-.35,9,9,0,0,0-1.31-.14,19.06,19.06,0,0,1-2-.19,5,5,0,0,1-1.64-.58,3.34,3.34,0,0,1-1.31-1.37A2.18,2.18,0,0,1,1725.79,776.61Z"/><path class="cls-10" d="M1609.67,946.11a2.55,2.55,0,0,1,1.75-1.17c-.25-.45-.5-.89-.74-1.34l1.85-.19.7,1.28a12.27,12.27,0,0,1,2,0,8.94,8.94,0,0,1,1.77.35c.06.74.12,1.49.17,2.23a9.69,9.69,0,0,0-1.75-.37,7.27,7.27,0,0,0-1.67,0,2.11,2.11,0,0,0-.85.2.24.24,0,0,0-.09.37.84.84,0,0,0,.58.37,12,12,0,0,0,1.35.17c.78.06,1.44.13,2,.23a4.88,4.88,0,0,1,1.64.6,3.57,3.57,0,0,1,1.31,1.38,2.12,2.12,0,0,1,.19,2,2.58,2.58,0,0,1-1.83,1.27c.24.44.48.88.73,1.32-.62.07-1.23.13-1.85.18l-.72-1.29a9.19,9.19,0,0,1-3.09-.51l-.18-2.12a7.51,7.51,0,0,0,2.93.41q1.19-.12.9-.66a.79.79,0,0,0-.57-.34,10,10,0,0,0-1.31-.15,16.3,16.3,0,0,1-2-.27,5.44,5.44,0,0,1-1.7-.69,3.67,3.67,0,0,1-1.34-1.42A1.89,1.89,0,0,1,1609.67,946.11Z"/><path class="cls-10" d="M1573.05,879.48a2.54,2.54,0,0,1,1.75-1.16c-.25-.45-.5-.9-.74-1.35.62-.05,1.23-.11,1.85-.18l.7,1.28a12.27,12.27,0,0,1,2,0,9.09,9.09,0,0,1,1.77.35c.06.75.11,1.49.17,2.23a10.86,10.86,0,0,0-1.75-.37,7.89,7.89,0,0,0-1.67,0,2.19,2.19,0,0,0-.86.21.24.24,0,0,0-.08.37.81.81,0,0,0,.58.36,8.6,8.6,0,0,0,1.35.17c.78.06,1.44.13,2,.23a5.2,5.2,0,0,1,1.63.6,3.52,3.52,0,0,1,1.32,1.38,2.12,2.12,0,0,1,.19,1.95,2.55,2.55,0,0,1-1.83,1.27l.72,1.32-1.85.19-.71-1.3a9.19,9.19,0,0,1-3.09-.5l-.18-2.13a7.54,7.54,0,0,0,2.93.42c.79-.08,1.09-.31.89-.66a.74.74,0,0,0-.56-.34,11.86,11.86,0,0,0-1.31-.16,14.71,14.71,0,0,1-2-.26,6,6,0,0,1-1.7-.69,3.67,3.67,0,0,1-1.34-1.42A1.89,1.89,0,0,1,1573.05,879.48Z"/><path class="cls-8" d="M1519.09,856.44c86.21,8.92,101.12-111.88,187.34-103l51.66,94c-86.21-8.92-101.12,111.88-187.34,103Z"/><path class="cls-9" d="M1529.52,862.36c77.3,1.41,95.17-105.3,172.48-103.89l45.66,83.08c-77.3-1.41-95.17,105.3-172.48,103.89Z"/><path class="cls-8" d="M1554.43,863.89c52.28-14.92,75.22-83.22,127.49-98.15,4,7.25,13.64,11,22.69,10.35q13.23,24.09,26.48,48.18c-9,.61-12.28,8.58-8.34,15.75-52.28,14.92-75.22,83.22-127.5,98.15-4-7.25-13.63-11-22.68-10.35q-13.23-24.09-26.48-48.18C1555.14,879,1558.37,871.06,1554.43,863.89Z"/><path class="cls-9" d="M1611.56,879.69c-9.77-17.78-5.16-43.82,9.19-60.2s34.93-13.35,44.87,4.73c9.77,17.78,5.15,43.82-9.19,60.2S1621.5,897.77,1611.56,879.69Z"/><path class="cls-10" d="M1619.72,847.61a27.09,27.09,0,0,1,4.42-12.24l-3.44-6.26,5.67-6.27,3.28,6a32.21,32.21,0,0,1,6.5-5,17.09,17.09,0,0,1,6.08-2.29q1.11,6.5,2.23,13a18.87,18.87,0,0,0-6,2.3,22,22,0,0,0-5.33,4.29,12.87,12.87,0,0,0-2.52,3.65,3,3,0,0,0,0,2.54,1.49,1.49,0,0,0,2.13.64,25.87,25.87,0,0,0,4.38-2.67,44.15,44.15,0,0,1,6.57-3.92,8.46,8.46,0,0,1,5.8-.5q3,.78,5.37,5.07a18.93,18.93,0,0,1,2.09,11.27,27,27,0,0,1-4.89,12.56l3.38,6.15-5.66,6.27-3.32-6c-3.45,3.14-6.78,5-10,5.64q-1.2-6.36-2.41-12.74a19.22,19.22,0,0,0,9.47-5.69c2.44-2.69,3.21-4.87,2.3-6.52a1.44,1.44,0,0,0-2.07-.58,26.18,26.18,0,0,0-4.27,2.69,40.25,40.25,0,0,1-6.51,4,8.7,8.7,0,0,1-5.85.59q-3-.74-5.37-5A18.73,18.73,0,0,1,1619.72,847.61Z"/><path class="cls-10" d="M1728.07,831.33a2.44,2.44,0,0,1,1.67-1.31c-.25-.45-.49-.9-.74-1.34.61-.08,1.22-.15,1.84-.21l.7,1.28a10.11,10.11,0,0,1,2,.11,9.37,9.37,0,0,1,1.83.47c0,.71.08,1.43.13,2.14a9.86,9.86,0,0,0-1.8-.44,6.48,6.48,0,0,0-1.68-.06,2.09,2.09,0,0,0-.85.22.27.27,0,0,0-.08.38.79.79,0,0,0,.58.35,12,12,0,0,0,1.34.16,15.64,15.64,0,0,1,2,.28,5.26,5.26,0,0,1,1.67.68,3.74,3.74,0,0,1,1.34,1.42,1.9,1.9,0,0,1,.15,1.88,2.71,2.71,0,0,1-1.88,1.18l.73,1.31c-.62.06-1.23.13-1.84.21-.24-.43-.48-.86-.71-1.29a9.63,9.63,0,0,1-3-.33c-.07-.74-.15-1.48-.23-2.21a8,8,0,0,0,2.87.3c.79-.09,1.09-.3.9-.66a.79.79,0,0,0-.57-.34,8.65,8.65,0,0,0-1.31-.15,18.84,18.84,0,0,1-2-.19,5,5,0,0,1-1.65-.58,3.47,3.47,0,0,1-1.31-1.37A2.12,2.12,0,0,1,1728.07,831.33Z"/><path class="cls-10" d="M1691.45,764.7a2.47,2.47,0,0,1,1.67-1.31c-.25-.44-.5-.89-.74-1.34.61-.08,1.22-.14,1.84-.21l.7,1.28a10.13,10.13,0,0,1,2,.12,8.14,8.14,0,0,1,1.83.47c0,.71.08,1.42.13,2.14a10.77,10.77,0,0,0-1.8-.45,6.44,6.44,0,0,0-1.68,0,1.89,1.89,0,0,0-.85.22.25.25,0,0,0-.08.37.8.8,0,0,0,.57.36,12.64,12.64,0,0,0,1.34.16,15.72,15.72,0,0,1,2,.27,5.29,5.29,0,0,1,1.67.69,3.67,3.67,0,0,1,1.34,1.42,1.9,1.9,0,0,1,.15,1.88,2.67,2.67,0,0,1-1.88,1.17l.72,1.32-1.83.2-.72-1.29a9.31,9.31,0,0,1-3-.33c-.07-.74-.15-1.47-.23-2.21a8,8,0,0,0,2.87.3c.79-.09,1.09-.3.9-.65a.82.82,0,0,0-.57-.35,9,9,0,0,0-1.31-.14,18.57,18.57,0,0,1-2-.19A5,5,0,0,1,1693,768a3.34,3.34,0,0,1-1.31-1.37A2.12,2.12,0,0,1,1691.45,764.7Z"/><path class="cls-10" d="M1575.32,934.19a2.56,2.56,0,0,1,1.75-1.16l-.74-1.35c.62,0,1.24-.11,1.85-.18.24.42.47.85.71,1.28a12.27,12.27,0,0,1,2,0,8.79,8.79,0,0,1,1.76.36c.06.74.12,1.48.17,2.22a9.69,9.69,0,0,0-1.75-.36,7.23,7.23,0,0,0-1.66,0,2.13,2.13,0,0,0-.86.21.25.25,0,0,0-.09.37.83.83,0,0,0,.58.36,8.6,8.6,0,0,0,1.35.17c.78.06,1.44.14,2,.23a5.08,5.08,0,0,1,1.63.61,3.4,3.4,0,0,1,1.31,1.37,2.1,2.1,0,0,1,.19,1.95,2.53,2.53,0,0,1-1.83,1.27c.25.44.49.88.73,1.32l-1.85.19c-.24-.43-.48-.86-.71-1.3a8.87,8.87,0,0,1-3.09-.5c-.06-.71-.12-1.42-.19-2.13a7.56,7.56,0,0,0,2.93.42c.8-.08,1.09-.31.9-.66a.74.74,0,0,0-.56-.34,12.11,12.11,0,0,0-1.32-.16,14.71,14.71,0,0,1-2-.26,6,6,0,0,1-1.7-.69,3.75,3.75,0,0,1-1.34-1.42A1.91,1.91,0,0,1,1575.32,934.19Z"/><path class="cls-10" d="M1538.7,867.57a2.55,2.55,0,0,1,1.75-1.17l-.74-1.34,1.85-.19.7,1.28a12.42,12.42,0,0,1,2,.05,8.83,8.83,0,0,1,1.76.35c.06.74.12,1.49.17,2.23a9.69,9.69,0,0,0-1.75-.37,7.27,7.27,0,0,0-1.67,0,2.16,2.16,0,0,0-.85.2.26.26,0,0,0-.09.37.84.84,0,0,0,.58.37,12,12,0,0,0,1.35.17c.78.06,1.44.13,2,.23a4.8,4.8,0,0,1,1.64.6,3.57,3.57,0,0,1,1.31,1.38,2.12,2.12,0,0,1,.19,1.95,2.58,2.58,0,0,1-1.83,1.27l.73,1.32c-.62.07-1.23.13-1.85.18-.24-.43-.48-.86-.71-1.29a9.11,9.11,0,0,1-3.09-.51c-.07-.71-.13-1.41-.19-2.12a7.7,7.7,0,0,0,2.93.41c.8-.08,1.09-.31.9-.66a.79.79,0,0,0-.56-.34,10.41,10.41,0,0,0-1.32-.15,16.3,16.3,0,0,1-2-.27,5.44,5.44,0,0,1-1.7-.69,3.75,3.75,0,0,1-1.34-1.42A1.9,1.9,0,0,1,1538.7,867.57Z"/><path class="cls-8" d="M1362.1,763c86.21,8.91,101.12-111.89,187.34-103l51.66,94c-86.21-8.91-101.12,111.89-187.34,103Z"/><path class="cls-9" d="M1372.53,768.86c77.3,1.42,95.17-105.3,172.48-103.89l45.66,83.08c-77.3-1.41-95.17,105.31-172.48,103.89Z"/><path class="cls-8" d="M1397.44,770.39c52.28-14.92,75.22-83.22,127.49-98.14,4,7.24,13.64,11,22.69,10.35q13.23,24.09,26.48,48.17c-9,.62-12.28,8.59-8.34,15.75-52.28,14.93-75.22,83.23-127.49,98.15-4-7.25-13.64-11-22.69-10.35q-13.23-24.09-26.48-48.18C1398.15,785.53,1401.38,777.56,1397.44,770.39Z"/><path class="cls-9" d="M1454.57,786.19c-9.77-17.78-5.15-43.81,9.19-60.19s34.93-13.36,44.87,4.73c9.77,17.77,5.16,43.81-9.19,60.19S1464.51,804.27,1454.57,786.19Z"/><path class="cls-10" d="M1462.74,754.11a27,27,0,0,1,4.41-12.24l-3.44-6.26,5.67-6.27c1.09,2,2.19,4,3.28,6a32.21,32.21,0,0,1,6.5-5,16.86,16.86,0,0,1,6.08-2.28q1.11,6.48,2.24,13a19.07,19.07,0,0,0-6,2.3,22.08,22.08,0,0,0-5.33,4.3,12.85,12.85,0,0,0-2.52,3.64,3,3,0,0,0,0,2.54,1.49,1.49,0,0,0,2.13.64,26.33,26.33,0,0,0,4.38-2.66,44.15,44.15,0,0,1,6.57-3.92,8.46,8.46,0,0,1,5.8-.5q3,.76,5.37,5.06a18.93,18.93,0,0,1,2.09,11.27,27.13,27.13,0,0,1-4.88,12.57l3.38,6.14-5.67,6.27-3.32-6c-3.45,3.14-6.78,5-10,5.64q-1.2-6.35-2.41-12.73a19.37,19.37,0,0,0,9.47-5.69c2.44-2.7,3.21-4.87,2.3-6.53a1.43,1.43,0,0,0-2.06-.58,26.44,26.44,0,0,0-4.28,2.69,39.14,39.14,0,0,1-6.51,4,8.69,8.69,0,0,1-5.85.59q-3-.74-5.37-5A18.76,18.76,0,0,1,1462.74,754.11Z"/><path class="cls-10" d="M1571.08,737.83a2.47,2.47,0,0,1,1.67-1.31l-.74-1.34c.61-.08,1.22-.15,1.84-.21l.7,1.28a10.89,10.89,0,0,1,2,.11,9.19,9.19,0,0,1,1.83.47c0,.72.08,1.43.13,2.15a9,9,0,0,0-1.8-.45,7,7,0,0,0-1.68-.06,2.27,2.27,0,0,0-.85.22.27.27,0,0,0-.08.38.8.8,0,0,0,.58.36,10.37,10.37,0,0,0,1.34.15,17.3,17.3,0,0,1,2,.28,5.66,5.66,0,0,1,1.68.68,3.75,3.75,0,0,1,1.33,1.43,1.93,1.93,0,0,1,.16,1.88,2.75,2.75,0,0,1-1.89,1.17l.73,1.32-1.84.2c-.24-.43-.48-.86-.71-1.29a9.25,9.25,0,0,1-3-.33c-.08-.74-.16-1.47-.23-2.21a8,8,0,0,0,2.86.3c.79-.09,1.09-.3.9-.66a.79.79,0,0,0-.57-.34,10.2,10.2,0,0,0-1.31-.15,16.47,16.47,0,0,1-2-.19,4.89,4.89,0,0,1-1.64-.58,3.36,3.36,0,0,1-1.32-1.37A2.12,2.12,0,0,1,1571.08,737.83Z"/><path class="cls-10" d="M1534.46,671.2a2.46,2.46,0,0,1,1.67-1.3l-.74-1.35,1.84-.2.7,1.28a9.44,9.44,0,0,1,2,.11,8.71,8.71,0,0,1,1.83.47c0,.71.08,1.42.13,2.14a9.86,9.86,0,0,0-1.8-.44,6.06,6.06,0,0,0-1.68-.06,1.89,1.89,0,0,0-.85.22.26.26,0,0,0-.08.38.82.82,0,0,0,.58.35,12,12,0,0,0,1.34.16,15.64,15.64,0,0,1,2,.28,5,5,0,0,1,1.67.68,3.67,3.67,0,0,1,1.34,1.42,1.9,1.9,0,0,1,.15,1.88,2.67,2.67,0,0,1-1.88,1.17c.24.44.48.88.73,1.32-.62.06-1.23.13-1.84.21l-.71-1.3a9.34,9.34,0,0,1-3-.33c-.07-.73-.15-1.47-.23-2.2a8,8,0,0,0,2.87.3q1.18-.14.9-.66a.82.82,0,0,0-.57-.35,9,9,0,0,0-1.31-.14,18.57,18.57,0,0,1-2-.19,4.82,4.82,0,0,1-1.65-.59,3.44,3.44,0,0,1-1.31-1.36A2.14,2.14,0,0,1,1534.46,671.2Z"/><path class="cls-10" d="M1418.33,840.7a2.57,2.57,0,0,1,1.75-1.17c-.25-.45-.49-.9-.74-1.34l1.85-.19.71,1.28a11.26,11.26,0,0,1,2,.05,8.17,8.17,0,0,1,1.76.35l.18,2.23a9,9,0,0,0-1.76-.37,7.23,7.23,0,0,0-1.66,0,2.32,2.32,0,0,0-.86.21.25.25,0,0,0-.09.37.84.84,0,0,0,.58.37,12,12,0,0,0,1.35.17c.78.06,1.45.13,2,.22a5.08,5.08,0,0,1,1.63.61,3.43,3.43,0,0,1,1.31,1.38,2.08,2.08,0,0,1,.19,1.94,2.56,2.56,0,0,1-1.83,1.28l.73,1.31c-.61.07-1.23.14-1.85.19l-.71-1.29a9.11,9.11,0,0,1-3.09-.51c-.06-.71-.12-1.42-.19-2.13a7.56,7.56,0,0,0,2.93.42c.8-.08,1.09-.31.9-.66a.77.77,0,0,0-.56-.34,10.18,10.18,0,0,0-1.32-.15,15.86,15.86,0,0,1-2-.27,5.25,5.25,0,0,1-1.7-.69,3.7,3.7,0,0,1-1.35-1.42A1.9,1.9,0,0,1,1418.33,840.7Z"/><path class="cls-10" d="M1381.71,774.07a2.57,2.57,0,0,1,1.75-1.17c-.25-.44-.49-.89-.74-1.34.62,0,1.24-.12,1.85-.19l.71,1.29a11.25,11.25,0,0,1,2,0,8.83,8.83,0,0,1,1.76.35c.06.75.12,1.49.17,2.23a10.63,10.63,0,0,0-1.75-.37,7.88,7.88,0,0,0-1.67,0,2.16,2.16,0,0,0-.85.2.26.26,0,0,0-.09.37.84.84,0,0,0,.58.37,8.6,8.6,0,0,0,1.35.17c.78.06,1.44.13,2,.23a4.8,4.8,0,0,1,1.64.6,3.5,3.5,0,0,1,1.31,1.38,2.12,2.12,0,0,1,.19,1.95,2.53,2.53,0,0,1-1.83,1.27l.73,1.32-1.85.19-.71-1.3a8.87,8.87,0,0,1-3.09-.51c-.06-.7-.13-1.41-.19-2.12a7.51,7.51,0,0,0,2.93.41c.8-.08,1.09-.3.9-.66a.79.79,0,0,0-.56-.34,12.71,12.71,0,0,0-1.32-.15,13.22,13.22,0,0,1-2-.27,5.66,5.66,0,0,1-1.7-.68,3.82,3.82,0,0,1-1.34-1.42A1.91,1.91,0,0,1,1381.71,774.07Z"/><path class="cls-8" d="M1089,1011.22c92.46-49.4,25.67-180.6,118.13-230l115.4,59.27c-92.46,49.4-25.67,180.6-118.13,230Z"/><path class="cls-9" d="M1103.5,1010.09c78.46-50.89,24.16-170,102.62-220.86l102,52.39c-78.46,50.89-24.16,170-102.62,220.86Z"/><path class="cls-8" d="M1129.51,994.77c42.31-50.34,19.09-134.33,61.41-184.66,8.89,4.56,21.08,1.76,29.74-5l59.15,30.38c-8.66,6.74-6.5,16.91,2.3,21.43-42.32,50.34-19.1,134.33-61.41,184.67-8.9-4.57-21.08-1.77-29.74,5l-59.15-30.38C1140.47,1009.46,1138.31,999.29,1129.51,994.77Z"/><path class="cls-9" d="M1197.48,972c-21.82-11.21-34.82-40.44-31.53-66.56s26-37,48.19-25.62C1236,891,1249,920.2,1245.66,946.33S1219.68,983.35,1197.48,972Z"/><path class="cls-10" d="M1184,934.27A32.55,32.55,0,0,1,1180.1,919l-7.69-4,1.44-10.12,7.35,3.77a38.13,38.13,0,0,1,3.1-9.45,20.43,20.43,0,0,1,4.55-6.41q5.51,5.76,11,11.52a22.9,22.9,0,0,0-4.43,6.35,26.47,26.47,0,0,0-2.44,7.91,15.2,15.2,0,0,0,0,5.36,3.53,3.53,0,0,0,1.75,2.52,1.8,1.8,0,0,0,2.57-.8,31.47,31.47,0,0,0,2.59-5.64,52.17,52.17,0,0,1,3.93-8.37,10.26,10.26,0,0,1,5.47-4.43c2.36-.84,5.31-.35,8.82,1.45a22.91,22.91,0,0,1,9.72,9.88,32.69,32.69,0,0,1,3.6,15.9l7.55,3.88-1.44,10.12-7.41-3.81q-2,8.2-6.23,12.43-5.51-5.57-11-11.13a23.39,23.39,0,0,0,5.65-12.12q.93-6.52-2.12-8.09a1.71,1.71,0,0,0-2.45.81,32,32,0,0,0-2.47,5.59,48.62,48.62,0,0,1-3.8,8.44,10.47,10.47,0,0,1-5.46,4.55q-3.53,1.32-8.79-1.4A22.63,22.63,0,0,1,1184,934.27Z"/><path class="cls-10" d="M1281.55,844.63a3,3,0,0,1,.79-2.44l-1.65-.85c.56-.49,1.13-1,1.71-1.45l1.57.81a11.91,11.91,0,0,1,2.13-1.28,11.49,11.49,0,0,1,2.15-.77l1.58,2.07a10.82,10.82,0,0,0-2.1.77,7.65,7.65,0,0,0-1.73,1.07,2.69,2.69,0,0,0-.7.8.32.32,0,0,0,.17.43,1,1,0,0,0,.82,0,12.18,12.18,0,0,0,1.45-.75,20.25,20.25,0,0,1,2.22-1.09,6.57,6.57,0,0,1,2.14-.45,4.53,4.53,0,0,1,2.3.52,2.33,2.33,0,0,1,1.43,1.78,3.27,3.27,0,0,1-1.1,2.45l1.62.83c-.58.48-1.14,1-1.7,1.46l-1.59-.82a11.48,11.48,0,0,1-3.22,1.69l-1.73-2a9.71,9.71,0,0,0,3.08-1.64c.73-.63.89-1.05.45-1.27a1,1,0,0,0-.8,0,11.21,11.21,0,0,0-1.41.74,20,20,0,0,1-2.11,1.14,5.9,5.9,0,0,1-2,.53,4.16,4.16,0,0,1-2.24-.48A2.62,2.62,0,0,1,1281.55,844.63Z"/><path class="cls-10" d="M1199.76,802.61a3,3,0,0,1,.78-2.44l-1.64-.84c.56-.49,1.12-1,1.7-1.45l1.57.8a12.62,12.62,0,0,1,2.13-1.27,10.82,10.82,0,0,1,2.15-.77c.53.69,1,1.38,1.58,2.06a12.08,12.08,0,0,0-2.1.77,8,8,0,0,0-1.72,1.08,2.51,2.51,0,0,0-.71.8.31.31,0,0,0,.18.43,1,1,0,0,0,.81,0,16.27,16.27,0,0,0,1.45-.75,18.59,18.59,0,0,1,2.22-1.09,6.57,6.57,0,0,1,2.14-.45,4.53,4.53,0,0,1,2.3.52,2.29,2.29,0,0,1,1.43,1.78,3.3,3.3,0,0,1-1.1,2.45l1.62.83c-.57.48-1.14,1-1.7,1.45l-1.59-.81a11.48,11.48,0,0,1-3.22,1.69l-1.73-2.06a9.71,9.71,0,0,0,3.08-1.63c.73-.63.89-1,.45-1.27a.92.92,0,0,0-.79,0,10.88,10.88,0,0,0-1.42.75c-.79.47-1.48.85-2.1,1.14a5.9,5.9,0,0,1-2,.53,4.16,4.16,0,0,1-2.24-.48A2.57,2.57,0,0,1,1199.76,802.61Z"/><path class="cls-10" d="M1198,1051.11a3.1,3.1,0,0,1,1-2.35l-1.65-.85c.59-.47,1.17-1,1.73-1.44l1.58.81a14.45,14.45,0,0,1,2-1.31,10.27,10.27,0,0,1,2-.85l1.68,2.12a13.07,13.07,0,0,0-2,.82,9,9,0,0,0-1.69,1.09,2.69,2.69,0,0,0-.72.79.31.31,0,0,0,.16.43,1,1,0,0,0,.83,0,11,11,0,0,0,1.47-.74c.82-.47,1.54-.84,2.15-1.12a6.11,6.11,0,0,1,2-.5,4.19,4.19,0,0,1,2.25.49,2.56,2.56,0,0,1,1.51,1.83,3.11,3.11,0,0,1-1,2.51l1.61.83c-.56.48-1.14,1-1.72,1.44l-1.59-.82a10.76,10.76,0,0,1-3.44,1.58l-1.63-2a9,9,0,0,0,3.22-1.57c.74-.61.89-1,.45-1.26a.92.92,0,0,0-.79,0,16,16,0,0,0-1.42.74,18.72,18.72,0,0,1-2.2,1.1,6.87,6.87,0,0,1-2.17.46,4.44,4.44,0,0,1-2.31-.52A2.27,2.27,0,0,1,1198,1051.11Z"/><path class="cls-10" d="M1116.23,1009.1a3.08,3.08,0,0,1,1-2.35l-1.64-.85c.58-.47,1.16-.95,1.73-1.44l1.57.81a14.52,14.52,0,0,1,2-1.32,11.12,11.12,0,0,1,2-.84l1.68,2.12a11.7,11.7,0,0,0-2,.82,9.06,9.06,0,0,0-1.7,1.09,2.57,2.57,0,0,0-.72.79.3.3,0,0,0,.17.43,1,1,0,0,0,.83,0,13.33,13.33,0,0,0,1.46-.74,24.23,24.23,0,0,1,2.16-1.12,5.83,5.83,0,0,1,2-.5,4.19,4.19,0,0,1,2.25.49,2.56,2.56,0,0,1,1.51,1.82,3.11,3.11,0,0,1-1,2.52l1.62.83-1.73,1.44-1.59-.82a10.88,10.88,0,0,1-3.44,1.58l-1.62-2a9.06,9.06,0,0,0,3.21-1.57c.75-.62.89-1,.46-1.27a1,1,0,0,0-.8,0,13.64,13.64,0,0,0-1.42.74,18,18,0,0,1-2.2,1.1,6.87,6.87,0,0,1-2.17.46,4.44,4.44,0,0,1-2.31-.52A2.3,2.3,0,0,1,1116.23,1009.1Z"/><path class="cls-8" d="M1187.69,1261.24c67.44,16.42,92.37-77.81,159.81-61.39l30.81,80.19c-67.44-16.43-92.38,77.81-159.82,61.39Q1203.1,1301.34,1187.69,1261.24Z"/><path class="cls-9" d="M1195.32,1267.06c61.19,9.51,86.94-73.23,148.13-63.72l27.22,70.87c-61.18-9.5-86.93,73.24-148.12,63.73Z"/><path class="cls-8" d="M1214.93,1271c43.09-6.17,68.7-57.88,111.8-64,2.38,6.18,9.63,10.18,16.88,10.68l15.78,41.09c-7.24-.49-10.67,5.48-8.32,11.6-43.1,6.17-68.7,57.87-111.8,64-2.38-6.18-9.63-10.17-16.88-10.67q-7.89-20.55-15.79-41.1C1213.85,1283.07,1217.27,1277.1,1214.93,1271Z"/><path class="cls-9" d="M1258.55,1289.71c-5.83-15.16.66-35.32,13.81-46.76s29.17-6.81,35.09,8.62c5.83,15.16-.66,35.32-13.81,46.76S1264.47,1305.14,1258.55,1289.71Z"/><path class="cls-10" d="M1268.5,1265.15a21.62,21.62,0,0,1,4.83-9.24l-2-5.34,5.18-4.36q1,2.55,2,5.1a25.61,25.61,0,0,1,5.7-3.29,13.72,13.72,0,0,1,5.07-1.16c.12,3.52.24,7,.36,10.56a15.12,15.12,0,0,0-5,1.18,17.43,17.43,0,0,0-4.7,2.82,10.09,10.09,0,0,0-2.39,2.63,2.35,2.35,0,0,0-.25,2,1.19,1.19,0,0,0,1.62.74,20.93,20.93,0,0,0,3.77-1.64,35.88,35.88,0,0,1,5.64-2.4,6.83,6.83,0,0,1,4.65.23q2.31.94,3.71,4.61a15.12,15.12,0,0,1,.44,9.17,21.7,21.7,0,0,1-5.24,9.44l2,5.24-5.18,4.36-2-5.15a17.16,17.16,0,0,1-8.56,3.39q-.25-5.17-.53-10.37a15.46,15.46,0,0,0,8.13-3.49c2.23-1.87,3.07-3.52,2.53-4.93a1.14,1.14,0,0,0-1.57-.68,20.93,20.93,0,0,0-3.69,1.67,31.26,31.26,0,0,1-5.6,2.49,6.9,6.9,0,0,1-4.7-.17c-1.55-.6-2.79-2.13-3.72-4.56A15,15,0,0,1,1268.5,1265.15Z"/><path class="cls-10" d="M1356.24,1264a2,2,0,0,1,1.46-.85c-.14-.38-.29-.77-.44-1.15l1.48,0,.42,1.09a8.41,8.41,0,0,1,1.62.31,7.28,7.28,0,0,1,1.4.57c0,.57-.09,1.14-.14,1.71a7.81,7.81,0,0,0-1.37-.54,5.39,5.39,0,0,0-1.33-.23,1.71,1.71,0,0,0-.7.08.21.21,0,0,0-.1.29.64.64,0,0,0,.42.35c.22.08.57.16,1,.27a11.56,11.56,0,0,1,1.58.44,4.09,4.09,0,0,1,1.25.72,2.94,2.94,0,0,1,.91,1.27,1.55,1.55,0,0,1-.08,1.51,2.17,2.17,0,0,1-1.62.73c.14.37.28.75.43,1.12l-1.48,0c-.15-.37-.29-.74-.43-1.11a7.44,7.44,0,0,1-2.34-.58l.06-1.78a6.55,6.55,0,0,0,2.24.55c.64,0,.9-.12.79-.43a.67.67,0,0,0-.41-.33,7.1,7.1,0,0,0-1-.26,15.09,15.09,0,0,1-1.55-.36,4.19,4.19,0,0,1-1.24-.64,2.77,2.77,0,0,1-.89-1.23A1.7,1.7,0,0,1,1356.24,1264Z"/><path class="cls-10" d="M1334.4,1207.14a2,2,0,0,1,1.47-.86l-.44-1.14,1.48,0,.42,1.09a8.17,8.17,0,0,1,1.61.31,7.4,7.4,0,0,1,1.4.57c0,.57-.09,1.15-.13,1.72a7.64,7.64,0,0,0-1.38-.55,5.24,5.24,0,0,0-1.32-.23,1.47,1.47,0,0,0-.7.09.21.21,0,0,0-.11.29.65.65,0,0,0,.42.34,8.37,8.37,0,0,0,1.05.27,13,13,0,0,1,1.57.44,4.22,4.22,0,0,1,1.26.72,3.15,3.15,0,0,1,.91,1.28,1.53,1.53,0,0,1-.09,1.51,2.17,2.17,0,0,1-1.62.72c.15.38.29.75.43,1.12l-1.48,0-.42-1.1a7.65,7.65,0,0,1-2.34-.59l.06-1.78a6.28,6.28,0,0,0,2.24.55q1,0,.78-.42a.61.61,0,0,0-.41-.34,7.54,7.54,0,0,0-1-.25c-.6-.12-1.12-.24-1.55-.37a4,4,0,0,1-1.24-.64,2.77,2.77,0,0,1-.89-1.23A1.71,1.71,0,0,1,1334.4,1207.14Z"/><path class="cls-10" d="M1223.88,1329a2,2,0,0,1,1.51-.74c-.14-.38-.29-.76-.44-1.14l1.49,0,.42,1.1a8.49,8.49,0,0,1,1.59.25,6.84,6.84,0,0,1,1.37.47c0,.6-.07,1.19-.11,1.78a8.94,8.94,0,0,0-1.35-.48,6.14,6.14,0,0,0-1.32-.2,1.73,1.73,0,0,0-.7.07.2.2,0,0,0-.11.28.66.66,0,0,0,.42.35,7,7,0,0,0,1,.28c.61.14,1.13.27,1.56.4a4.09,4.09,0,0,1,1.23.66,2.77,2.77,0,0,1,.89,1.23,1.68,1.68,0,0,1-.06,1.57,2,2,0,0,1-1.59.81l.44,1.13c-.5,0-1,0-1.49-.06-.14-.36-.28-.73-.43-1.1a7.42,7.42,0,0,1-2.39-.74c0-.57.05-1.13.08-1.7a5.92,5.92,0,0,0,2.28.64c.64,0,.9-.12.78-.42a.57.57,0,0,0-.41-.33,7.61,7.61,0,0,0-1-.27,10.54,10.54,0,0,1-1.57-.43,4.35,4.35,0,0,1-1.28-.73,3,3,0,0,1-.91-1.27A1.52,1.52,0,0,1,1223.88,1329Z"/><path class="cls-10" d="M1202.05,1272.19a2.07,2.07,0,0,1,1.51-.73c-.15-.38-.29-.77-.44-1.15l1.49.06.42,1.09a9.56,9.56,0,0,1,1.59.25,7.41,7.41,0,0,1,1.36.47c0,.6-.07,1.2-.1,1.79a7.72,7.72,0,0,0-1.35-.48,5.62,5.62,0,0,0-1.32-.21,1.7,1.7,0,0,0-.7.07.19.19,0,0,0-.11.28.67.67,0,0,0,.42.36,8,8,0,0,0,1,.28,15.8,15.8,0,0,1,1.56.4,4.07,4.07,0,0,1,1.23.65,2.8,2.8,0,0,1,.89,1.24,1.69,1.69,0,0,1-.06,1.56,2,2,0,0,1-1.59.82c.15.37.29.75.43,1.12l-1.49,0-.42-1.11a7.15,7.15,0,0,1-2.4-.73l.09-1.71a6.14,6.14,0,0,0,2.28.65c.64,0,.9-.13.78-.43a.65.65,0,0,0-.41-.33,8.73,8.73,0,0,0-1-.26,12.74,12.74,0,0,1-1.57-.44,4.27,4.27,0,0,1-1.27-.72,3,3,0,0,1-.91-1.28A1.52,1.52,0,0,1,1202.05,1272.19Z"/><path class="cls-8" d="M1848.45,1661.54c35.46,59.66,120.22,11.52,155.69,71.19l-35.72,78.12c-35.47-59.67-120.23-11.53-155.69-71.19Q1830.58,1700.6,1848.45,1661.54Z"/><path class="cls-9" d="M1849.63,1671.07c36,50.35,113.15,10.84,149.18,61.2q-15.78,34.53-31.57,69c-36-50.36-113.15-10.85-149.18-61.21Q1833.84,1705.59,1849.63,1671.07Z"/><path class="cls-8" d="M1860.55,1687.81c34.57,26.46,89.42,8.57,124,35-2.76,6-.53,14,4.18,19.52q-9.15,20-18.31,40c-4.71-5.52-11.38-3.79-14.1,2.17-34.57-26.47-89.43-8.58-124-35,2.76-6,.53-14-4.18-19.53l18.3-40C1851.16,1695.5,1857.83,1693.76,1860.55,1687.81Z"/><path class="cls-9" d="M1877.7,1732.07c6.75-14.77,25.69-24.25,43.07-22.86s25.27,16.07,18.4,31.1c-6.75,14.77-25.69,24.25-43.07,22.86S1870.83,1747.1,1877.7,1732.07Z"/><path class="cls-10" d="M1902.21,1722a21.73,21.73,0,0,1,10-3l2.38-5.2,6.73.64q-1.12,2.49-2.27,5a25.57,25.57,0,0,1,6.35,1.76,13.64,13.64,0,0,1,4.37,2.82l-7.29,7.64a15.21,15.21,0,0,0-4.33-2.74,17.5,17.5,0,0,0-5.3-1.37,9.91,9.91,0,0,0-3.55.13,2.35,2.35,0,0,0-1.61,1.23,1.19,1.19,0,0,0,.6,1.68,21.3,21.3,0,0,0,3.81,1.54,35,35,0,0,1,5.66,2.35,6.79,6.79,0,0,1,3.09,3.48q.95,2.31-.69,5.88a15.25,15.25,0,0,1-6.24,6.73,21.75,21.75,0,0,1-10.41,2.86l-2.34,5.11-6.73-.65,2.29-5a17.06,17.06,0,0,1-8.41-3.74l7-7.64a15.41,15.41,0,0,0,8.19,3.37c2.89.28,4.66-.27,5.28-1.64a1.13,1.13,0,0,0-.61-1.6,21.28,21.28,0,0,0-3.77-1.47,31.87,31.87,0,0,1-5.7-2.25,7,7,0,0,1-3.17-3.48c-.65-1.52-.43-3.48.66-5.85A15.06,15.06,0,0,1,1902.21,1722Z"/><path class="cls-10" d="M1964.45,1783.84a2,2,0,0,1,1.64.45l.51-1.12,1,1.09-.49,1.06a8.58,8.58,0,0,1,.91,1.37,7.37,7.37,0,0,1,.57,1.4l-1.32,1.11a7.09,7.09,0,0,0-.57-1.37,5.51,5.51,0,0,0-.76-1.11,1.66,1.66,0,0,0-.55-.44.2.2,0,0,0-.28.13.65.65,0,0,0,0,.54c.1.21.28.52.54.94a11.34,11.34,0,0,1,.79,1.43,4.37,4.37,0,0,1,.36,1.4,3,3,0,0,1-.27,1.54,1.54,1.54,0,0,1-1.14,1,2.22,2.22,0,0,1-1.65-.65c-.17.36-.33.73-.5,1.09-.34-.37-.67-.73-1-1.08l.49-1.08a7.31,7.31,0,0,1-1.22-2.08l1.31-1.2a6.32,6.32,0,0,0,1.18,2c.43.47.71.56.85.27a.64.64,0,0,0-.05-.53,7.55,7.55,0,0,0-.53-.91,13.25,13.25,0,0,1-.82-1.36,3.89,3.89,0,0,1-.41-1.34,2.57,2.57,0,0,1,.25-1.49A1.71,1.71,0,0,1,1964.45,1783.84Z"/><path class="cls-10" d="M1989.77,1728.47a2,2,0,0,1,1.64.45l.51-1.12,1,1.09c-.17.35-.33.71-.49,1.06a8.15,8.15,0,0,1,.91,1.37,7.12,7.12,0,0,1,.57,1.4l-1.32,1.1a7.27,7.27,0,0,0-.57-1.36,5.24,5.24,0,0,0-.76-1.11,1.66,1.66,0,0,0-.55-.44.2.2,0,0,0-.28.13.62.62,0,0,0,0,.54,9.85,9.85,0,0,0,.54.93,13.76,13.76,0,0,1,.79,1.44,4.3,4.3,0,0,1,.36,1.4,3,3,0,0,1-.27,1.54,1.54,1.54,0,0,1-1.14,1,2.2,2.2,0,0,1-1.65-.66l-.5,1.1c-.34-.37-.67-.73-1-1.08l.49-1.08a7.45,7.45,0,0,1-1.22-2.08l1.31-1.2a6.32,6.32,0,0,0,1.18,2c.43.47.71.56.85.27a.64.64,0,0,0,0-.53,7.55,7.55,0,0,0-.53-.91,15.69,15.69,0,0,1-.83-1.36,4.1,4.1,0,0,1-.4-1.34,2.56,2.56,0,0,1,.25-1.49A1.69,1.69,0,0,1,1989.77,1728.47Z"/><path class="cls-10" d="M1825.35,1734.83a2.07,2.07,0,0,1,1.59.56l.51-1.11c.33.37.66.74,1,1.1l-.49,1.06a9.55,9.55,0,0,1,.94,1.32,6.78,6.78,0,0,1,.61,1.3l-1.35,1.17a7.54,7.54,0,0,0-.6-1.3,5.55,5.55,0,0,0-.77-1.08,1.94,1.94,0,0,0-.54-.46.21.21,0,0,0-.28.12.64.64,0,0,0,0,.55,8.14,8.14,0,0,0,.53,1,15.44,15.44,0,0,1,.81,1.39,4.1,4.1,0,0,1,.39,1.34,2.7,2.7,0,0,1-.26,1.5,1.67,1.67,0,0,1-1.16,1,2,2,0,0,1-1.69-.56c-.17.36-.33.73-.5,1.09-.34-.36-.67-.72-1-1.1.16-.35.32-.71.49-1.07a7.41,7.41,0,0,1-1.15-2.23l1.28-1.13a5.94,5.94,0,0,0,1.13,2.08c.43.47.72.55.85.26a.6.6,0,0,0,0-.53,7,7,0,0,0-.53-.91,12.62,12.62,0,0,1-.79-1.43,4.31,4.31,0,0,1-.37-1.42,3,3,0,0,1,.27-1.54A1.53,1.53,0,0,1,1825.35,1734.83Z"/><path class="cls-10" d="M1850.67,1679.46a2,2,0,0,1,1.58.56l.51-1.11c.34.37.67.74,1,1.1l-.49,1.06a8.71,8.71,0,0,1,.93,1.32,6.07,6.07,0,0,1,.62,1.3l-1.35,1.17a7.21,7.21,0,0,0-.6-1.3,6,6,0,0,0-.77-1.09,1.9,1.9,0,0,0-.55-.45.2.2,0,0,0-.27.12.64.64,0,0,0,0,.55,6.86,6.86,0,0,0,.53,1,15.44,15.44,0,0,1,.81,1.39,4,4,0,0,1,.39,1.34,2.79,2.79,0,0,1-.26,1.5,1.69,1.69,0,0,1-1.16,1.05,2.06,2.06,0,0,1-1.69-.56c-.17.36-.33.73-.5,1.09-.34-.36-.67-.73-1-1.1.16-.36.32-.71.49-1.07a7.41,7.41,0,0,1-1.15-2.23l1.27-1.14a5.92,5.92,0,0,0,1.14,2.08c.43.48.72.56.85.27a.6.6,0,0,0,0-.53,9.38,9.38,0,0,0-.53-.92,12.56,12.56,0,0,1-.79-1.42,4.31,4.31,0,0,1-.37-1.42,3,3,0,0,1,.27-1.54A1.49,1.49,0,0,1,1850.67,1679.46Z"/><path class="cls-8" d="M1960.75,1575.38c-4.06,69.29,93.12,76.92,89.06,146.21l-73.36,44.68c4.06-69.29-93.12-76.92-89.06-146.21Z"/><path class="cls-9" d="M1956.39,1583.93c1.62,61.9,87.64,72.4,89.26,134.3l-64.84,39.49c-1.62-61.9-87.64-72.39-89.26-134.29Z"/><path class="cls-8" d="M1956.06,1603.92c13.8,41.29,69.26,57.21,83.06,98.51-5.66,3.44-8.29,11.29-7.48,18.51l-37.6,22.9c-.81-7.22-7.3-9.51-12.89-6.11-13.8-41.29-69.26-57.21-83.07-98.5,5.66-3.45,8.29-11.3,7.48-18.52l37.6-22.9C1944,1605,1950.46,1607.33,1956.06,1603.92Z"/><path class="cls-9" d="M1945.45,1650.19c13.87-8.45,34.87-5.69,48.49,5.2s11.92,27.48-2.19,36.07c-13.87,8.45-34.87,5.69-48.48-5.2S1931.34,1658.79,1945.45,1650.19Z"/><path class="cls-10" d="M1971.4,1655.58a21.67,21.67,0,0,1,10,3.09l4.88-3,5.22,4.31-4.67,2.84a25.79,25.79,0,0,1,4.27,5,13.51,13.51,0,0,1,2,4.79l-10.32,2.24a15,15,0,0,0-2-4.69,17.45,17.45,0,0,0-3.63-4.11,10.11,10.11,0,0,0-3-1.89,2.35,2.35,0,0,0-2,.12,1.2,1.2,0,0,0-.44,1.73,21.78,21.78,0,0,0,2.29,3.41,34.79,34.79,0,0,1,3.37,5.12,6.76,6.76,0,0,1,.61,4.62q-.51,2.43-3.86,4.47a15.19,15.19,0,0,1-9,2.08,21.68,21.68,0,0,1-10.22-3.46l-4.8,2.92-5.22-4.31,4.72-2.87a17.12,17.12,0,0,1-4.87-7.81l10.1-2.39a15.49,15.49,0,0,0,4.89,7.38c2.24,1.85,4,2.39,5.3,1.6a1.14,1.14,0,0,0,.39-1.67,20.27,20.27,0,0,0-2.3-3.32,32.6,32.6,0,0,1-3.46-5.07,7,7,0,0,1-.68-4.66c.32-1.62,1.6-3.12,3.83-4.48A15.08,15.08,0,0,1,1971.4,1655.58Z"/><path class="cls-10" d="M1988.29,1741.68a2,2,0,0,1,1.11,1.29l1-.64c.09.49.16,1,.24,1.46l-1,.61a8.29,8.29,0,0,1,0,1.65,7.41,7.41,0,0,1-.31,1.48l-1.71.17a7.6,7.6,0,0,0,.29-1.45,5.49,5.49,0,0,0,0-1.35,1.53,1.53,0,0,0-.21-.67.21.21,0,0,0-.3,0,.65.65,0,0,0-.27.47c0,.24-.06.59-.08,1.08a13.79,13.79,0,0,1-.14,1.63,4.53,4.53,0,0,1-.49,1.37,3.07,3.07,0,0,1-1.09,1.12,1.57,1.57,0,0,1-1.5.19,2.17,2.17,0,0,1-1-1.47l-1,.63c-.07-.49-.15-1-.23-1.47l1-.61a7.3,7.3,0,0,1,.15-2.41l1.76-.26a6.48,6.48,0,0,0-.14,2.3c.1.63.28.87.56.7a.66.66,0,0,0,.26-.47,7.69,7.69,0,0,0,.07-1,14.5,14.5,0,0,1,.08-1.59,4,4,0,0,1,.41-1.33,2.73,2.73,0,0,1,1-1.1A1.72,1.72,0,0,1,1988.29,1741.68Z"/><path class="cls-10" d="M2040.29,1710a2,2,0,0,1,1.11,1.29l1-.64c.09.48.16,1,.24,1.46l-1,.61a8.18,8.18,0,0,1,0,1.64,7.12,7.12,0,0,1-.31,1.48l-1.71.18a7.6,7.6,0,0,0,.29-1.45,5.49,5.49,0,0,0,0-1.35,1.48,1.48,0,0,0-.21-.67.2.2,0,0,0-.3,0,.63.63,0,0,0-.27.47,9.67,9.67,0,0,0-.08,1.08,13.79,13.79,0,0,1-.14,1.63,4.38,4.38,0,0,1-.49,1.36,3,3,0,0,1-1.09,1.12,1.52,1.52,0,0,1-1.5.19,2.18,2.18,0,0,1-1-1.46l-1,.62c-.08-.49-.15-1-.23-1.46l1-.61a7.57,7.57,0,0,1,.16-2.41l1.76-.26a6.47,6.47,0,0,0-.14,2.3c.1.63.28.86.56.7a.66.66,0,0,0,.26-.47,10,10,0,0,0,.07-1,12.38,12.38,0,0,1,.08-1.59,3.72,3.72,0,0,1,.41-1.33,2.61,2.61,0,0,1,1-1.1A1.72,1.72,0,0,1,2040.29,1710Z"/><path class="cls-10" d="M1900.55,1623.14a2.05,2.05,0,0,1,1,1.35l1-.63q.09.73.21,1.47l-1,.61a9.6,9.6,0,0,1,0,1.61,8,8,0,0,1-.22,1.43l-1.78.21a7.16,7.16,0,0,0,.23-1.41,5.86,5.86,0,0,0,0-1.34,1.76,1.76,0,0,0-.19-.68.2.2,0,0,0-.3,0,.63.63,0,0,0-.27.48,6.18,6.18,0,0,0-.09,1.08c0,.63-.06,1.16-.11,1.6a4,4,0,0,1-.43,1.33,2.79,2.79,0,0,1-1.06,1.1,1.68,1.68,0,0,1-1.55.22,2.08,2.08,0,0,1-1.08-1.41l-1,.62q-.12-.74-.21-1.47l1-.62a7.28,7.28,0,0,1,.29-2.49l1.7-.22a6,6,0,0,0-.23,2.36c.09.63.28.86.56.69a.63.63,0,0,0,.25-.46,9.43,9.43,0,0,0,.08-1.06,10.63,10.63,0,0,1,.14-1.62,4.4,4.4,0,0,1,.49-1.38,2.88,2.88,0,0,1,1.09-1.13A1.51,1.51,0,0,1,1900.55,1623.14Z"/><path class="cls-10" d="M1952.55,1591.47a2,2,0,0,1,1,1.35l1-.64c.06.5.13,1,.21,1.48l-1,.61a9.6,9.6,0,0,1,0,1.61,7.71,7.71,0,0,1-.22,1.42l-1.78.22a7.14,7.14,0,0,0,.23-1.42,5.79,5.79,0,0,0,0-1.33,1.76,1.76,0,0,0-.19-.68.2.2,0,0,0-.3-.06.67.67,0,0,0-.27.48,6.42,6.42,0,0,0-.09,1.09c0,.62-.06,1.16-.11,1.6a4,4,0,0,1-.43,1.33,2.79,2.79,0,0,1-1.06,1.1,1.68,1.68,0,0,1-1.55.22,2,2,0,0,1-1.08-1.42l-1,.63q-.12-.74-.21-1.47l1-.62a7.28,7.28,0,0,1,.29-2.49l1.7-.22a5.84,5.84,0,0,0-.23,2.36c.09.63.28.86.56.69a.63.63,0,0,0,.25-.46,7.87,7.87,0,0,0,.07-1.06,11.8,11.8,0,0,1,.15-1.62,4.21,4.21,0,0,1,.49-1.39,2.92,2.92,0,0,1,1.09-1.12A1.48,1.48,0,0,1,1952.55,1591.47Z"/><path class="cls-11" d="M1718.18,890.22s-43.66,49.16-42.09,61,10,19.06,14.55,18.38,52.18-22.09,52.18-22.09v15.31L1686,992.89l-31.28-41.67Z"/><path class="cls-7" d="M2857.91,603.6c-5.92,13.78-33.53,40.56-41.41,51.76h0a3.75,3.75,0,0,0-.24.36,16.27,16.27,0,0,0-1.46,2.41l-.91,2c-.67,1.46-1.57,3.39-2.63,5.69-25-19.77-59.08-20.84-91.51-25.38.25-1.53.56-3.52.88-5.86.2-1.45.4-3,.61-4.74.42-3.55.85-7.63,1.19-12.1a238.56,238.56,0,0,0,.31-33.85c-.23-3.37-.54-6.77-1-10.14a281.57,281.57,0,0,1-2.39-30.12c0-1.91,0-3.74,0-5.5q.09-3.6.37-6.75c1.09-12.2,4.58-18.8,11.52-14.88,7.88,4.45,8.63,12.43,9,22.49.07,2,.13,4.16.23,6.35.07,1.66.17,3.36.32,5.11a74.68,74.68,0,0,0,1.62,10.84c.39,1.71.79,3.44,1.17,5.16,1,4.65,2,9.27,3,13.44,3,12.5,5.8,21,9.35,14.9a38.47,38.47,0,0,0,2.63-7.59c.31-1.1.61-2.27.93-3.52.8-3.15,1.66-6.78,2.58-10.7s1.85-8,2.88-12.17c.47-2,1-4,1.46-6l1.17-4.65c.51-1.94,1-3.87,1.55-5.75,4.2-15.14,9.09-28.34,14.59-30.71,13-5.58,11.19,11.44,8.27,27.79-.29,1.63-.7,3.53-1.2,5.63-.43,1.78-.93,3.72-1.46,5.76-.4,1.49-.81,3-1.26,4.63-.59,2.14-1.22,4.37-1.86,6.62-1.24,4.35-2.52,8.81-3.72,13.11-.74,2.6-1.44,5.14-2.09,7.55-2.81,10.52-4.55,18.68-2.83,19.19s11.21-11.45,21.7-24.56c4.78-6,9.8-12.18,14.46-17.52,1.28-1.46,2.53-2.86,3.73-4.17,1.75-1.87,3.4-3.58,4.93-5,3.66-3.46,6.65-5.51,8.45-5.23,3.88.6,5.68,4.34,5.79,9.75a35.47,35.47,0,0,1-.53,6.49c-.26,1.6-.62,3.27-1.08,5a80,80,0,0,1-6.47,16.49c-9,17.21-30.52,45.33-22.08,44.41,7.92-.87,31.92-34.47,47-34.5a8.79,8.79,0,0,1,2.86.46,4.18,4.18,0,0,1,1.16.57,3.31,3.31,0,0,1,1.46,2.51h0A10.47,10.47,0,0,1,2857.91,603.6Z"/><path class="cls-7" d="M2811.26,665.79c-10.77,23.39-39.11,85.72-40.74,100.5-.39,3.54-3.07,18.54-7.44,40.45l-1.4,6.91-32.85-.17h0l-21.14-.11h0l-24.35-.11c2.9-5.57,5.68-11,8.33-16.24h0c15.11-30,25.44-54.26,25.75-64.51a90.66,90.66,0,0,0-7.13-37.7h0c-7-17.37-17.15-31.42-21-45.65a92.29,92.29,0,0,0-6.75-17.19c-1.57-3.15-3.17-6.06-4.61-8.63h0c-1.7-3.07-3.2-5.69-4.17-7.78h0c-1.81-3.87-1.87-5.94,1.66-5.67,4.47.34,14.1,7.65,23.2,15.46h0c2.66,2.29,5.28,4.61,7.71,6.8,3.11,2.82,5.9,5.43,8.09,7.5,2.92,2.77,4.74,4.57,4.74,4.57s.26-1.35.66-3.78c31.36,4.39,64.3,5.53,89,23.49C2809.61,664.51,2810.43,665.14,2811.26,665.79Z"/><path class="cls-8" d="M2878.15,593q-23.55,48.18-47.12,96.35a78.71,78.71,0,0,0-18.55-22.54c-.4-.34-.81-.66-1.22-1-.83-.65-1.65-1.28-2.5-1.89-24.71-18-57.65-19.1-89-23.49-1.8-.24-3.61-.51-5.4-.79-2.19-2.07-5-4.68-8.09-7.5-2.43-2.19-5.05-4.51-7.71-6.8h0c-9.1-7.81-18.73-15.12-23.2-15.46-3.53-.27-3.47,1.8-1.66,5.67h0c1,2.09,2.47,4.71,4.17,7.78h0c1.44,2.57,3,5.48,4.61,8.63-17.33-6.38-32.56-17-43.47-36.53q23.53-48.2,47.11-96.36a76.82,76.82,0,0,0,33.64,32.29,108.06,108.06,0,0,0,20.51,7.61,233,233,0,0,0,28.91,5.42c7.19,1,14.45,1.79,21.66,2.71a261.12,261.12,0,0,1,31.6,5.58,122.91,122.91,0,0,1,14.24,4.52C2853.17,563.65,2867.65,574.23,2878.15,593Z"/><path class="cls-9" d="M2871.51,592.22l-41.64,85.17a76.13,76.13,0,0,0-16-17.29c-25.45-20.06-60.34-20.79-93.26-25.55-4.85-.69-9.65-1.48-14.37-2.43-2.43-2.19-5.05-4.51-7.71-6.8h0c-9.1-7.81-18.73-15.12-23.2-15.46-3.53-.27-3.47,1.8-1.66,5.67h0c1,2.09,2.47,4.71,4.17,7.78a76.6,76.6,0,0,1-32.21-27.16q20.81-42.58,41.63-85.17a76.76,76.76,0,0,0,32.11,27.11,116,116,0,0,0,21.11,7.21,257.69,257.69,0,0,0,27.13,4.82c7.22,1,14.51,1.78,21.75,2.72a267.94,267.94,0,0,1,28.13,4.85,122.06,122.06,0,0,1,18.64,6C2849.79,569.39,2862,578.12,2871.51,592.22Z"/><path class="cls-8" d="M2858.6,604.51q-12.06,24.69-24.15,49.38c-5.7-7-14.08-5.1-17.67,2.25l-.52-.41c-25.88-20.52-61.56-20.93-95-25.92a207.86,207.86,0,0,1-22.69-4.49h0c-9.1-7.81-18.73-15.12-23.2-15.46-3.53-.27-3.47,1.8-1.66,5.67a77.07,77.07,0,0,1-10.55-7.15c3.63-7.42,1.12-17.46-4.59-24.5l24.15-49.39c5.71,7,14.09,5.1,17.68-2.24a81.8,81.8,0,0,0,19,11.35,122.87,122.87,0,0,0,21.44,6.82c8.32,1.91,16.94,3.22,25.64,4.36,7.2.94,14.46,1.76,21.66,2.7,8.71,1.15,17.34,2.47,25.66,4.39a121.23,121.23,0,0,1,21.29,6.8A81.72,81.72,0,0,1,2854,580c-2.19,4.5-2.14,9.93-.49,15.08a28.8,28.8,0,0,0,4.39,8.53C2858.13,603.91,2858.37,604.21,2858.6,604.51Z"/><path class="cls-9" d="M2720.34,588.06c8.91-18.22,32.86-29.44,54.51-27.14s31,20.87,22,39.41c-8.91,18.22-32.86,29.44-54.51,27.14S2711.27,606.59,2720.34,588.06Z"/><path class="cls-10" d="M2751.26,576.27a26.93,26.93,0,0,1,12.56-3.44q1.56-3.21,3.14-6.42l8.38,1-3,6.13a32,32,0,0,1,7.87,2.41,17,17,0,0,1,5.37,3.66q-4.66,4.64-9.34,9.3a19.17,19.17,0,0,0-5.32-3.56,21.86,21.86,0,0,0-6.58-1.88,12.41,12.41,0,0,0-4.43,0,3,3,0,0,0-2.06,1.49,1.5,1.5,0,0,0,.7,2.11,26.68,26.68,0,0,0,4.71,2.05,42.82,42.82,0,0,1,7,3.11,8.47,8.47,0,0,1,3.75,4.45c.74,1.94.38,4.38-1,7.31a18.93,18.93,0,0,1-8,8.2,27,27,0,0,1-13.09,3.24l-3.08,6.3-8.39-1,3-6.19q-6.83-1.51-10.38-4.94,4.52-4.64,9-9.31a19.31,19.31,0,0,0,10.1,4.48q5.42.66,6.66-1.88a1.42,1.42,0,0,0-.72-2,25.26,25.26,0,0,0-4.65-1.95,39.38,39.38,0,0,1-7-3,8.58,8.58,0,0,1-3.85-4.44q-1.14-2.88,1-7.28A18.73,18.73,0,0,1,2751.26,576.27Z"/><path class="cls-10" d="M2827,655.48a2.47,2.47,0,0,1,2,.62l.67-1.38c.42.45.83.92,1.23,1.39-.21.43-.43.87-.64,1.31a10.22,10.22,0,0,1,1.09,1.74,9.06,9.06,0,0,1,.67,1.76l-1.68,1.34a10.47,10.47,0,0,0-.67-1.73,6.79,6.79,0,0,0-.92-1.4,2.17,2.17,0,0,0-.67-.57.26.26,0,0,0-.36.15.82.82,0,0,0,0,.68,10.76,10.76,0,0,0,.65,1.18,16.67,16.67,0,0,1,.93,1.82,5.11,5.11,0,0,1,.41,1.76,3.73,3.73,0,0,1-.4,1.91,1.89,1.89,0,0,1-1.44,1.21,2.76,2.76,0,0,1-2-.87l-.66,1.35c-.4-.46-.81-.93-1.22-1.38.21-.44.43-.88.64-1.33a9.53,9.53,0,0,1-1.45-2.63l1.67-1.46a8,8,0,0,0,1.41,2.51q.8.9,1.05.36a.74.74,0,0,0,0-.66,7.83,7.83,0,0,0-.64-1.15c-.4-.65-.73-1.22-1-1.73a5.09,5.09,0,0,1-.46-1.68,3.3,3.3,0,0,1,.36-1.86A2.18,2.18,0,0,1,2827,655.48Z"/><path class="cls-10" d="M2860.35,587.19a2.42,2.42,0,0,1,2,.61l.67-1.38,1.23,1.39c-.22.43-.43.87-.64,1.31a10.18,10.18,0,0,1,1.08,1.74,8.53,8.53,0,0,1,.67,1.77l-1.68,1.33a8.87,8.87,0,0,0-.67-1.72,6.24,6.24,0,0,0-.91-1.41,2.17,2.17,0,0,0-.67-.57.28.28,0,0,0-.36.15.82.82,0,0,0,0,.68,12.19,12.19,0,0,0,.64,1.18,16.93,16.93,0,0,1,.94,1.82,5.41,5.41,0,0,1,.41,1.76,3.7,3.7,0,0,1-.4,1.91,1.88,1.88,0,0,1-1.45,1.21,2.72,2.72,0,0,1-2-.86l-.66,1.35c-.4-.47-.81-.93-1.23-1.39l.65-1.32a9.73,9.73,0,0,1-1.45-2.64l1.67-1.46a8.22,8.22,0,0,0,1.41,2.52c.53.59.87.72,1,.35a.78.78,0,0,0,0-.66,8.39,8.39,0,0,0-.64-1.15c-.4-.65-.73-1.22-1-1.73a5.21,5.21,0,0,1-.47-1.68,3.4,3.4,0,0,1,.37-1.86A2.12,2.12,0,0,1,2860.35,587.19Z"/><path class="cls-10" d="M2654.91,589.8a2.58,2.58,0,0,1,2,.76l.67-1.38c.4.48.81.94,1.22,1.41-.22.43-.43.87-.65,1.31a11.13,11.13,0,0,1,1.13,1.67,8.72,8.72,0,0,1,.72,1.65l-1.72,1.42a9.44,9.44,0,0,0-.71-1.65,7.53,7.53,0,0,0-.93-1.38,2.13,2.13,0,0,0-.66-.58.24.24,0,0,0-.35.14.84.84,0,0,0,0,.69,13.2,13.2,0,0,0,.64,1.2c.4.67.72,1.25,1,1.76a5,5,0,0,1,.45,1.68,3.51,3.51,0,0,1-.37,1.87,2.13,2.13,0,0,1-1.49,1.28,2.56,2.56,0,0,1-2.09-.77l-.66,1.36-1.22-1.41c.22-.44.44-.88.65-1.33a8.94,8.94,0,0,1-1.36-2.82l1.63-1.37a7.48,7.48,0,0,0,1.35,2.63c.52.61.87.72,1,.36a.78.78,0,0,0,0-.66,12.45,12.45,0,0,0-.64-1.16,15.88,15.88,0,0,1-.94-1.8,5.39,5.39,0,0,1-.41-1.79,3.65,3.65,0,0,1,.39-1.92A1.86,1.86,0,0,1,2654.91,589.8Z"/><path class="cls-10" d="M2688.31,521.5a2.58,2.58,0,0,1,2,.76c.22-.46.44-.92.67-1.38.4.48.81,1,1.22,1.41l-.65,1.31a11.93,11.93,0,0,1,1.13,1.67,8.72,8.72,0,0,1,.72,1.65l-1.72,1.42a10.16,10.16,0,0,0-.71-1.64,7.3,7.3,0,0,0-.93-1.39,2.13,2.13,0,0,0-.66-.58.25.25,0,0,0-.35.14.84.84,0,0,0,0,.69,12,12,0,0,0,.64,1.2c.4.67.72,1.26,1,1.76a5.08,5.08,0,0,1,.45,1.68,3.43,3.43,0,0,1-.38,1.87,2.09,2.09,0,0,1-1.48,1.28,2.58,2.58,0,0,1-2.09-.76l-.66,1.35c-.41-.46-.82-.93-1.22-1.41l.65-1.32a9,9,0,0,1-1.36-2.82l1.63-1.38a7.46,7.46,0,0,0,1.34,2.64c.53.6.88.71,1.06.35a.78.78,0,0,0,0-.66,12.45,12.45,0,0,0-.64-1.16,14.4,14.4,0,0,1-.94-1.8,5.66,5.66,0,0,1-.42-1.79,3.8,3.8,0,0,1,.39-1.91A1.89,1.89,0,0,1,2688.31,521.5Z"/><path class="cls-11" d="M2811.26,665.79c-10.77,23.39-39.11,85.72-40.74,100.5-.39,3.54-3.07,18.54-7.44,40.45-13.23,1.74-24.53,5-34.25,6.74h0c-8.07,1.49-15,2-21.14-.11h0c-6.19-2.15-11.46-7-16-16.35h0c15.11-30,25.44-54.26,25.75-64.51a90.66,90.66,0,0,0-7.13-37.7c.9.54,40,24,63,3.85,14.42-12.62,27.57-26.23,35.5-34.75C2808.76,663.9,2811.67,666.12,2811.26,665.79Z"/><path d="M2109.47,2081.92s-58.54-59.28-77.75-58,48-59.61,48-59.61,68.94,66,73.95,66.1S2109.47,2081.92,2109.47,2081.92Z"/><path class="cls-12" d="M2118.6,1981.64c-.52-3-2.55-12.28-4.83-22.51-3.6-16-7.83-34.36-7.83-34.36s14-12.52-56.79-3.6c-50.48,6.37-90.49,13.31-108,20.77-7,3-10.42,6.07-9.35,9.23.12.34.23.73.35,1.15,1.62,5.64,3.17,17,4.41,27.73,1.51,13.23,2.54,25.62,2.54,25.62s35.82,8.09,62.6,17.66,43.18,12.64,42.17-10.44,43.56-29.33,59.87-18.35S2119.9,1989.31,2118.6,1981.64Z"/><path class="cls-13" d="M2049.15,1921.17c-50.48,6.37-90.49,13.31-108,20.77a118.88,118.88,0,0,0-9,10.38c1.62,5.64,3.17,17,4.41,27.73,7.76,7.5,2.54,25.62,2.54,25.62s12.22.38,26.27-34c8.48-20.77,148.35-12.52,148.35-12.52-3.6-16-7.83-34.36-7.83-34.36S2120,1912.25,2049.15,1921.17Z"/><path d="M1991.61,2009.53a5.66,5.66,0,1,1,4.34-6.71A5.66,5.66,0,0,1,1991.61,2009.53Z"/><path d="M1976.28,2001.53a5.77,5.77,0,1,1,4.43-6.85A5.78,5.78,0,0,1,1976.28,2001.53Z"/><path d="M2007.2,2015a5.46,5.46,0,1,1,4.2-6.48A5.46,5.46,0,0,1,2007.2,2015Z"/><path d="M2030.54,2024.72a7.37,7.37,0,1,1,5.66-8.74A7.38,7.38,0,0,1,2030.54,2024.72Z"/><path class="cls-1" d="M2028.42,2014.84a2.74,2.74,0,0,1,2.46,4.66c-15.49,14.74-19,13.42-20.25,12.93a13.15,13.15,0,0,1-6.12-4.91,5,5,0,0,1-.28-3.28s1.45.35,2.84.81c.76.24,1.43.63,2,.77,1.64.4,1.61,1.68,3.15,1.35s9.4-6.41,14.89-11.63A2.85,2.85,0,0,1,2028.42,2014.84Z"/><path class="cls-1" d="M2005.46,2006.93a2.73,2.73,0,0,1,3.14,3.63c-6.38,17-9.4,17.18-10.85,17.24-4.28.17-6.9-4.86-7.17-5.39a7,7,0,0,1-.7-2.88s4.19.59,4.89,1.93c.39.74,1.78.36,2.47,0s4.24-7.52,6.24-12.87A2.73,2.73,0,0,1,2005.46,2006.93Z"/><path class="cls-1" d="M1989.85,2001.33a2.73,2.73,0,0,1,2.86,4.17h0c0,.07-5,7.79-4.62,14.41a2.73,2.73,0,1,1-5.45.34c-.52-8.45,5.25-17.37,5.5-17.74A2.69,2.69,0,0,1,1989.85,2001.33Z"/><path class="cls-1" d="M1974.61,1993.72a2.73,2.73,0,0,1,3.16,3.55c-.12.36-2.52,8,3.35,18.75a2.73,2.73,0,0,1-4.79,2.63c-7.13-13-3.87-22.75-3.73-23.16A2.72,2.72,0,0,1,1974.61,1993.72Z"/><path class="cls-1" d="M2108.42,1935.59l-2.48-10.82s-8.39-11.26-17.2-10.73c-5.59.35-66,9.25-109.21,16.41-24.9,4.11-44.09,7.66-43.85,8.64a2.46,2.46,0,0,0,.11.32c-19.61,2.95-47.79,7.17-49.51,7.21-2.43.07-17.94,7.94-13.74,33.07a70.09,70.09,0,0,0,1.6,7.08c9.09,32.3,42.49,30.6,65,18.9,11.93-6.2,15.54-25.2,16.31-41.7.08-1.69,1.36-18,15.31-20.8C1985.49,1940.25,2108.42,1935.59,2108.42,1935.59Z"/><path class="cls-14" d="M2046,1928.62c-30.42-2.43-110.59,9.49-110.35,10.47a2.46,2.46,0,0,0,.11.32c-19.61,2.95-47.79,7.17-49.51,7.21-2.43.07-17.94,7.94-13.74,33.07,0,0,35.74-33.45,99.25-40.43C1984,1937.93,2027.06,1932.63,2046,1928.62Z"/><path d="M1872.39,1964.84s-.68-17.51,116.91-30.33,116.64-9.74,116.64-9.74,18.24-11.27-2.31-16.22c-18.42-4.44-217.76,17.25-242,40.46,0,0-5.49,5-5.22,10.15S1864.46,1969.93,1872.39,1964.84Z"/><path d="M1871.75,2469.94s-80.26,22.35-88.49,39.75-28.76-71-28.76-71,91.16-28.19,93.7-32.51S1871.75,2469.94,1871.75,2469.94Z"/><path class="cls-12" d="M1785.09,2411.81c-3-.25-12.53-.62-23-1-16.41-.55-35.22-1.07-35.22-1.07s-8.6-16.71-17.77,54.06c-6.54,50.46-9.89,90.92-7.06,109.7,1.13,7.57,3.25,11.61,6.58,11.37.36,0,.77,0,1.21,0,5.86-.15,17.22,1.2,27.94,2.71,13.18,1.86,25.43,4,25.43,4s16.84-32.64,32.84-56.15,23.1-38.61.51-43.45-17.43-49.53-2.69-62.55S1792.84,2412.48,1785.09,2411.81Z"/><path class="cls-13" d="M1709.1,2463.82c-6.54,50.46-9.89,90.92-7.06,109.7a116.76,116.76,0,0,0,7.79,11.32c5.86-.15,17.22,1.2,27.94,2.71,9.21-5.62,25.43,4,25.43,4s3.45-11.74-26.32-34c-18-13.44,25.21-146.72,25.21-146.72-16.41-.55-35.22-1.07-35.22-1.07S1718.27,2393.05,1709.1,2463.82Z"/><path d="M1780.14,2541.74a5.66,5.66,0,1,1-5.4-5.9A5.66,5.66,0,0,1,1780.14,2541.74Z"/><path d="M1768.54,2554.56a5.77,5.77,0,1,1-5.52-6A5.78,5.78,0,0,1,1768.54,2554.56Z"/><path d="M1789.32,2528a5.46,5.46,0,1,1-5.21-5.69A5.46,5.46,0,0,1,1789.32,2528Z"/><path d="M1804.63,2507.88a7.36,7.36,0,1,1-7-7.68A7.37,7.37,0,0,1,1804.63,2507.88Z"/><path class="cls-1" d="M1794.54,2507.44a2.74,2.74,0,0,1,5.12-1.21c10.38,18.7,8.23,21.72,7.42,22.85a13.11,13.11,0,0,1-6.28,4.69,5,5,0,0,1-3.25-.55s.7-1.31,1.5-2.55c.43-.67,1-1.22,1.24-1.74.81-1.48,2-1.14,2.1-2.71s-3.83-10.71-7.51-17.34A2.73,2.73,0,0,1,1794.54,2507.44Z"/><path class="cls-1" d="M1781.11,2527.67a2.77,2.77,0,0,1,.49-1.46,2.74,2.74,0,0,1,3.81-.66c14.9,10.46,14.26,13.42,13.95,14.84-.9,4.18-6.43,5.45-7,5.58a7.14,7.14,0,0,1-3,0s1.63-3.91,3.1-4.25c.82-.2.8-1.64.67-2.38s-6.21-6-10.88-9.28A2.71,2.71,0,0,1,1781.11,2527.67Z"/><path class="cls-1" d="M1771.76,2541.37a2.73,2.73,0,0,1,4.75-1.72h0c.06.07,6.28,6.82,12.79,8.1a2.73,2.73,0,1,1-1,5.36c-8.3-1.62-15.48-9.45-15.78-9.78A2.73,2.73,0,0,1,1771.76,2541.37Z"/><path class="cls-1" d="M1760.56,2554.21a2.68,2.68,0,0,1,.46-1.4,2.72,2.72,0,0,1,3.77-.76c.32.2,7.13,4.45,19,1.47a2.73,2.73,0,0,1,1.34,5.3c-14.39,3.62-23-2-23.35-2.22A2.73,2.73,0,0,1,1760.56,2554.21Z"/><path class="cls-1" d="M1738,2410.07l-11.1-.31s-13,5.28-14.71,13.95c-1.08,5.49-7.65,66.19-11.6,109.82-2.28,25.13-3.68,44.6-2.66,44.62a1.47,1.47,0,0,0,.33,0c-2.08,19.73-5.08,48.06-5.47,49.74-.55,2.37,3.16,19.36,28.54,21.61a67.36,67.36,0,0,0,7.26.23c33.55-.67,40.3-33.42,34.64-58.15-3-13.11-20.47-21.38-36.26-26.28-1.6-.51-17.1-5.86-16.27-20.05C1711.55,2530.23,1738,2410.07,1738,2410.07Z"/><path class="cls-14" d="M1715.52,2468.71c-10,28.83-18.64,109.42-17.62,109.44a1.47,1.47,0,0,0,.33,0c-2.08,19.73-5.08,48.06-5.47,49.74-.55,2.37,3.16,19.36,28.54,21.61,0,0-23.38-43-14.15-106.22C1708.93,2531.07,1714.63,2488.07,1715.52,2468.71Z"/><path d="M1706.89,2645.87s-17.11-3.74.06-120.77,19.92-115.34,19.92-115.34-6.32-20.49-16.28-1.85c-8.93,16.72-38.08,215.1-21.72,244.36,0,0,3.47,6.58,8.52,7.62S1709.83,2654.84,1706.89,2645.87Z"/><path class="cls-15" d="M2253.07,1864.62s-9.71,109.82-20.43,210.52l-74.3-63.45c-47.82,16.24-67.67,76.69-67.67,76.69l120.93,144.15c-1,3.76-1.92,6-2.73,6.52-11.73,7.22-231,55-378,158.79,0,0,14.43,71.28,37,88.42,0,0,441.19-109.17,465.55-153.38l11.73-17.14s78.5,85.71,158.8,98.34,106.46-22.55,115.48-72.17,37.9-553.08,37.9-553.08Zm224.27,374.29L2407,2190.22l85.61-223.38S2480,2222.67,2477.34,2238.91Z"/><path class="cls-7" d="M2410.27,1186.45c5.49,36.65,16.08,92.2,16.08,92.2s-88.51-4-79.52-28.68c4.93-13.52,1.79-35.06-2-52.21-3.14-14.17-6.75-25.34-6.64-26.53,0,0,69.25-31.7,68.91-13.56C2407,1162.48,2408.3,1173.24,2410.27,1186.45Z"/><path class="cls-11" d="M2407.08,1157.67c-.09,4.81,1.22,15.57,3.19,28.78,0,0-44.36,28.4-65.46,11.31-3.14-14.17-6.75-25.34-6.64-26.53C2338.17,1171.23,2407.42,1139.53,2407.08,1157.67Z"/><path class="cls-16" d="M2226.16,952.71s-79.26,70.59-6.72,158.12,117.37,61,117.37,61Z"/><path class="cls-17" d="M2286.65,894.33s-36.34,9.6-69.36,74.41-9.53,131.57,23.75,149.13S2286.65,894.33,2286.65,894.33Z"/><path class="cls-18" d="M2400,916.8s32.56-10.94,51.95,3.12.37,139.93.37,139.93S2380.63,938.52,2400,916.8Z"/><path class="cls-19" d="M2398.6,939.84s26.38-7,40.47,12.64,14.76,65.76,14.76,65.76l1.93,54S2375.43,972.61,2398.6,939.84Z"/><path class="cls-7" d="M2461.29,1152.51c-7.54,12.33-19.9,23.53-38.83,29.91-51.07,17.19-82.63,5.64-103.55-6.67s-34.67-33.4-34.67-33.4-12.46,9.93-32.42-2.1-21.42-46.82-6-53.42c10.45-4.48,5.72-51.62,11.57-85.13,2.78-16,8-28.91,18.37-32.59,2-.7,4.21-1.49,6.58-2.31a605.49,605.49,0,0,1,65.94-19.07s2.93-.78,7.72-1.58c11.45-1.89,33.54-3.75,51.65,5.29,11.89,5.93,22.06,16.54,26.41,34.93,13.72,58.13,28.16,72.39,33.51,89.7C2472.06,1090.61,2474.1,1131.56,2461.29,1152.51Z"/><path class="cls-20" d="M2408.06,952.16s-39.83-7-60.22,26.11-34.09,72.67-45.85,98.57,5.28,84.35,16.92,98.91c-20.92-12.31-34.67-33.4-34.67-33.4s-12.46,9.93-32.42-2.1-21.42-46.82-6-53.42c10.45-4.48,5.72-51.62,11.57-85.13,4.18-7.49,8.16-13.23,11.61-16.36,10.66-9.73,51.87-30.36,87-39.19,23.76-6,44.74-6.54,51.65,5.29C2407.79,951.67,2407.94,951.91,2408.06,952.16Z"/><path class="cls-16" d="M2408.06,952.17s-30.16-48.32-89.67,4.75c0,0-12.68-51.33,9.43-69.15S2404.37,884.16,2408.06,952.17Z"/><path class="cls-19" d="M2408.06,952.17s-40.6-17.12-63.48,18.68-68.3,60.19-68.3,60.19S2344.66,848.25,2408.06,952.17Z"/><path class="cls-16" d="M2283.79,1045.32s-8,39.39,2.56,63.91-54.76-64.47-50.7,5.3c0,0-15.42-11-21.9-26.73S2283.79,1045.32,2283.79,1045.32Z"/><path class="cls-18" d="M2408.06,952.17s11.19-86.11-75.92-81.52-89.78,149.36-113.86,191.06-37,41.2-37,41.2,64.19-3.06,98.21-25.92,47.15-81.32,51.31-134.43S2389.81,864.56,2408.06,952.17Z"/><path d="M2413,1038.75a4.9,4.9,0,0,1,3.34-5.32c2.42-.69,6,.49,9.82,9,6,13-5.43,12.21-9.83,5.14A21.14,21.14,0,0,1,2413,1038.75Z"/><path d="M2354.75,1063.69a4.92,4.92,0,0,1,3.34-5.33c2.42-.69,5.95.5,9.83,9,6,13-5.44,12.2-9.84,5.13A21.11,21.11,0,0,1,2354.75,1063.69Z"/><path class="cls-11" d="M2394,1052.66s33.55,28.64,31.34,35.6-19.22,13.12-19.22,13.12,14-6.93,10.16-17.33S2394,1052.66,2394,1052.66Z"/><path class="cls-21" d="M2427.82,1008.47a85.09,85.09,0,0,0-9.65-2.47,40.56,40.56,0,0,0-9.26-.71,34.39,34.39,0,0,0-4.52.53,39,39,0,0,0-4.48,1.18,71,71,0,0,0-9,4,20.82,20.82,0,0,1,7.36-7.59,22.32,22.32,0,0,1,5-2.23,23.92,23.92,0,0,1,5.44-.93,24.64,24.64,0,0,1,10.65,2A21.65,21.65,0,0,1,2427.82,1008.47Z"/><path class="cls-21" d="M2354.92,1028.09a88.25,88.25,0,0,0-8.8,4.52,59.78,59.78,0,0,0-7.76,5.33,63,63,0,0,0-6.87,6.43c-1.17,1.12-2.11,2.42-3.25,3.63s-2,2.6-3.3,3.87c.11-.86.28-1.71.47-2.56a15.69,15.69,0,0,1,.7-2.52,26.31,26.31,0,0,1,2.22-4.75,29.16,29.16,0,0,1,16.21-13A21.83,21.83,0,0,1,2354.92,1028.09Z"/><path class="cls-11" d="M2371.49,1127s58.54,23,82.67-23.59C2454.16,1103.45,2425.46,1132.68,2371.49,1127Z"/><circle class="cls-1" cx="2419.48" cy="1037.95" r="2.04"/><circle class="cls-1" cx="2361.48" cy="1063.93" r="2.04"/><path class="cls-22" d="M2654.12,1842.92s-118.64,56-196.24,71.1-210.39,11.57-210.39,11.57l5.58-61,404.21-75.79Z"/><path class="cls-15" d="M2293.68,1251.55s-139.4,17.6-227.37,24.36S1939.1,1284,1939.1,1284L1761.81,964.64s-70.38,5.41-79.85,50.08c0,0,143.45,355.93,198.94,372.17s303.69,32.91,310.46,41,40.06,210.69,34.65,264.83S2201.65,1889,2201.65,1889s136.66,31.48,299.06-15.89l10.86-32.83,9.72,27.71s125.61-15.53,159.45-61.54c0,0-56.85-161-63.61-212.48s-27.86-241.33-27.86-241.33S2770.06,855,2797.12,760.28c0,0-31.38-1.5-102.85-30.67,0,0-180.45,472.77-225.56,498S2441.64,1335,2293.68,1251.55Z"/><path class="cls-23" d="M2458.78,1569.6s-16.56-38.85-37-83.24c-15.27-33.19-32.68-69.49-46.93-95-33.29-59.55-31-93.09-31-93.09-1.2-4.81-6.61-31.57,6.31-29.16s45.42,1.8,45.42,1.8,51.12-20.75,55.64-12c2.59,5,4.7,107.5,6,193.4C2458.24,1515.43,2458.78,1569.6,2458.78,1569.6Z"/><path class="cls-24" d="M2356.53,1326.59s13.53,5.41,18,0,12-35.93,23.3-38.72,45.57,9.65,45.57,9.65,8.72-35,0-37.4-47.82,10.83-47.82,10.83-52.08,7.14-53.71,14.85S2356.53,1326.59,2356.53,1326.59Z"/><path class="cls-25" d="M2387,1284.33s7.54,13.91,10.92,15.94,13.31-.9,15.57-2.7,9-23.69,6.31-25.72-24.13-.9-24.13-.9-10.83,8.12-11.05,9.25S2387,1284.33,2387,1284.33Z"/><path class="cls-25" d="M2458.78,1569.6s-16.56-38.85-37-83.24c-12.75-82.95-23.92-186.09-23.92-186.09s4.52-3.16,15.57-2.7c6,.24,26.3,80.59,43.83,154.75C2458.24,1515.43,2458.78,1569.6,2458.78,1569.6Z"/><path class="cls-1" d="M1683.94,1008l-11-18.67s35.63-17.49,79.39-35.08l9.48,15.78S1708,1018,1683.94,1008Z"/><path class="cls-1" d="M2694.87,745.25l8.42-31s71.58,31.58,93.83,25.26L2787.8,769S2709,768.1,2694.87,745.25Z"/><path class="cls-22" d="M2324,1252.09l137,323.4-25.92-336.37s25.74-6.19,29.16-8.67l17.11,131.92-11.67,11.39,16.14,33.43L2461,1575.49s-98.05-120-98.05-121.35,10.73-45.56,10.73-45.56l-35.12-13.08-58.23-142.29s3.63-1,13.32-1.66C2307.24,1250.68,2322.58,1248.88,2324,1252.09Z"/><path class="cls-1" d="M2347.51,1240.58s26.16,31.57,48.12,30.37c0,0,14.22-4.86,22.45-37.47,0,0,.41-6.14,5.82-2.83s21.95,3,21.95,3-3.61,56.24-.6,62.85c0,0-20.75-25.86-49.62-25.56,0,0-14.36,17.82-23.91,49.4,0,0-51-70.15-45.56-71.35S2344.07,1236.72,2347.51,1240.58Z"/><path class="cls-26" d="M2332.05,1246.19l126.73,323.4-24-336.37s22.45-2,25.61-4.46l16.71,130.61-16.49,12.14,18.9,34.33-20.76,163.75s-90.67-120-90.67-121.35,9.92-45.56,9.92-45.56l-32.48-13.08-51.87-138s-2.42-4.34,6.54-5C2312.76,1245.72,2330.75,1243,2332.05,1246.19Z"/><path class="cls-22" d="M2232.64,2075.14s-12.43,96.29-21,157.39L2191.87,2209s-16.24-95.24,28.35-144.48Z"/><path class="cls-22" d="M2407,2190.22l-61.88,125.52,18.44,18.22s12.15-75.93,113-71.87l.83-23.18Z"/><path class="cls-22" d="M2492.59,1966.84l10.4-31.39s5-15.34,5.42,18-28.87,257.59-28.87,257.59Z"/><polygon class="cls-22" points="2458.78 1569.6 2509.52 1846.45 2511.57 1840.26 2459.69 1562.47 2458.78 1569.6"/><circle class="cls-22" cx="2446.51" cy="1598.67" r="5.88"/><circle class="cls-22" cx="2460.64" cy="1684.08" r="5.88"/><circle class="cls-22" cx="2475.38" cy="1784.83" r="5.88"/><path class="cls-8" d="M2709.51,460c48.13,72.08,150.67,6.52,198.8,78.6q-19.72,49.88-39.44,99.74c-48.12-72.08-150.67-6.51-198.8-78.59Z"/><path class="cls-9" d="M2711.61,471.8c48.22,60.45,141.8,6.14,190,66.58q-17.43,44.08-34.85,88.16c-48.22-60.44-141.81-6.13-190-66.57Z"/><path class="cls-8" d="M2726.32,492c44.84,30.74,112.07,4.84,156.91,35.59-3,7.69.25,17.49,6.49,24.07q-10.09,25.56-20.21,51.12c-6.24-6.58-14.44-4-17.45,3.63-44.83-30.75-112.07-4.85-156.91-35.59,3-7.69-.25-17.49-6.49-24.07q10.11-25.56,20.21-51.13C2715.11,502.17,2723.31,499.57,2726.32,492Z"/><path class="cls-9" d="M2750.59,546.05c7.46-18.87,30.46-31.92,52.22-31.33s32.56,18.39,25,37.58c-7.46,18.86-30.46,31.92-52.22,31.32S2743,565.23,2750.59,546.05Z"/><path class="cls-10" d="M2780.5,531.87a27.16,27.16,0,0,1,12.25-4.41c.87-2.21,1.75-4.43,2.63-6.64l8.44.37c-.84,2.11-1.68,4.23-2.51,6.34a32,32,0,0,1,8,1.79,17,17,0,0,1,5.63,3.23q-4.28,5-8.58,10a18.73,18.73,0,0,0-5.58-3.13,21.8,21.8,0,0,0-6.71-1.37,12.3,12.3,0,0,0-4.41.39,3,3,0,0,0-1.94,1.64,1.5,1.5,0,0,0,.87,2,26.21,26.21,0,0,0,4.85,1.68,44,44,0,0,1,7.21,2.55,8.49,8.49,0,0,1,4.08,4.15c.89,1.87.72,4.33-.47,7.37a19,19,0,0,1-7.35,8.8,26.94,26.94,0,0,1-12.79,4.25l-2.58,6.52-8.44-.37c.84-2.13,1.68-4.27,2.53-6.4q-6.91-1-10.73-4.12l8.27-10a19.3,19.3,0,0,0,10.42,3.67c3.63.15,5.8-.64,6.49-2.4a1.43,1.43,0,0,0-.87-2,26,26,0,0,0-4.8-1.57,40,40,0,0,1-7.25-2.45,8.65,8.65,0,0,1-4.18-4.13c-.91-1.85-.77-4.31.43-7.34A18.85,18.85,0,0,1,2780.5,531.87Z"/><path class="cls-10" d="M2862.15,604.93a2.46,2.46,0,0,1,2.08.45c.18-.48.37-1,.56-1.43.45.43.89.85,1.33,1.29l-.54,1.36a9.52,9.52,0,0,1,1.22,1.65,8.71,8.71,0,0,1,.81,1.71l-1.57,1.46a10.21,10.21,0,0,0-.8-1.67,6.74,6.74,0,0,0-1-1.33,2,2,0,0,0-.71-.51.25.25,0,0,0-.34.18.76.76,0,0,0,.09.67,12.67,12.67,0,0,0,.73,1.13,16.46,16.46,0,0,1,1.08,1.73,5.23,5.23,0,0,1,.54,1.73,3.64,3.64,0,0,1-.24,1.94,1.9,1.9,0,0,1-1.35,1.31,2.7,2.7,0,0,1-2.1-.7l-.56,1.4c-.44-.44-.88-.87-1.33-1.29l.54-1.37a9.53,9.53,0,0,1-1.65-2.51l1.55-1.59a8.13,8.13,0,0,0,1.6,2.4c.57.55.93.65,1.08.27a.76.76,0,0,0-.1-.65,8.12,8.12,0,0,0-.72-1.1,15.93,15.93,0,0,1-1.11-1.65,4.82,4.82,0,0,1-.6-1.63,3.47,3.47,0,0,1,.21-1.89A2.14,2.14,0,0,1,2862.15,604.93Z"/><path class="cls-10" d="M2890.11,534.23a2.44,2.44,0,0,1,2.07.45l.56-1.43c.45.42.89.85,1.33,1.29-.18.45-.35.9-.53,1.36a10.21,10.21,0,0,1,1.22,1.65,8.84,8.84,0,0,1,.8,1.7l-1.57,1.47a9.45,9.45,0,0,0-.8-1.67,6.74,6.74,0,0,0-1-1.33,1.82,1.82,0,0,0-.71-.51.25.25,0,0,0-.34.17.8.8,0,0,0,.09.67,11.08,11.08,0,0,0,.74,1.14,16.21,16.21,0,0,1,1.07,1.73,5.49,5.49,0,0,1,.55,1.73,3.71,3.71,0,0,1-.25,1.93,1.89,1.89,0,0,1-1.35,1.32,2.7,2.7,0,0,1-2.1-.7c-.19.46-.37.93-.55,1.4-.45-.44-.89-.87-1.34-1.29l.55-1.37a9.34,9.34,0,0,1-1.66-2.51l1.55-1.59a8.13,8.13,0,0,0,1.6,2.4c.57.55.93.65,1.08.27a.79.79,0,0,0-.09-.65,10.48,10.48,0,0,0-.73-1.11c-.45-.61-.82-1.15-1.11-1.64a4.79,4.79,0,0,1-.6-1.64,3.37,3.37,0,0,1,.22-1.88A2.12,2.12,0,0,1,2890.11,534.23Z"/><path class="cls-10" d="M2685.5,552.9a2.56,2.56,0,0,1,2,.6l.57-1.42c.43.44.88.88,1.32,1.31l-.54,1.36a11.19,11.19,0,0,1,1.25,1.57,9.36,9.36,0,0,1,.86,1.59l-1.61,1.55a8.91,8.91,0,0,0-.84-1.58,7.66,7.66,0,0,0-1-1.31,2.16,2.16,0,0,0-.71-.53.25.25,0,0,0-.34.17.86.86,0,0,0,.09.68,11.13,11.13,0,0,0,.73,1.15c.45.64.82,1.2,1.1,1.68a5.06,5.06,0,0,1,.57,1.64,3.48,3.48,0,0,1-.22,1.89,2.12,2.12,0,0,1-1.38,1.39,2.59,2.59,0,0,1-2.15-.59c-.18.46-.36.93-.55,1.39-.44-.42-.88-.86-1.32-1.3l.54-1.37a9.14,9.14,0,0,1-1.58-2.71l1.52-1.5a7.22,7.22,0,0,0,1.55,2.52c.57.57.93.65,1.08.27a.76.76,0,0,0-.1-.65,10.47,10.47,0,0,0-.72-1.11,13.81,13.81,0,0,1-1.08-1.72,5.62,5.62,0,0,1-.56-1.75,3.85,3.85,0,0,1,.24-1.94A1.9,1.9,0,0,1,2685.5,552.9Z"/><path class="cls-10" d="M2713.45,482.2a2.59,2.59,0,0,1,2,.6c.18-.47.37-.95.56-1.42.44.44.88.88,1.32,1.3l-.54,1.36a11.89,11.89,0,0,1,1.25,1.58,8.39,8.39,0,0,1,.86,1.59l-1.61,1.55a10.06,10.06,0,0,0-.83-1.59,7.58,7.58,0,0,0-1-1.3,2.26,2.26,0,0,0-.7-.53.25.25,0,0,0-.34.17.78.78,0,0,0,.09.68,9.26,9.26,0,0,0,.72,1.15c.45.63.82,1.19,1.1,1.68a5,5,0,0,1,.58,1.64,3.49,3.49,0,0,1-.23,1.89,2.12,2.12,0,0,1-1.38,1.39,2.54,2.54,0,0,1-2.14-.6c-.19.47-.37.94-.56,1.4-.44-.42-.88-.86-1.32-1.3l.54-1.38a9.18,9.18,0,0,1-1.58-2.7l1.52-1.5a7.63,7.63,0,0,0,1.55,2.52c.57.57.93.65,1.08.27a.79.79,0,0,0-.09-.65,13.08,13.08,0,0,0-.73-1.11,15.1,15.1,0,0,1-1.08-1.72,5.61,5.61,0,0,1-.55-1.75,3.64,3.64,0,0,1,.24-1.94A1.87,1.87,0,0,1,2713.45,482.2Z"/><path class="cls-8" d="M3064.71,782.22c133.82,31.55,181.84-155.45,315.65-123.9q31.08,79.18,62.17,158.38c-133.82-31.56-181.84,155.45-315.65,123.89Q3095.8,861.41,3064.71,782.22Z"/><path class="cls-9" d="M3079.92,793.64c121.32,18,171.13-146.3,292.46-128.35l54.94,140c-121.32-17.95-171.13,146.3-292.46,128.36Q3107.4,863.64,3079.92,793.64Z"/><path class="cls-8" d="M3118.8,801.12c85.27-12.85,135.25-115.63,220.52-128.47,4.79,12.21,19.22,20,33.58,20.89l31.86,81.18c-14.36-.88-21.06,11-16.31,23.08-85.28,12.84-135.26,115.62-220.53,128.47-4.79-12.21-19.22-20-33.58-20.9l-31.86-81.17C3116.84,825.08,3123.54,813.2,3118.8,801.12Z"/><path class="cls-9" d="M3205.46,837.59c-11.75-30,.8-70,26.69-92.83s57.67-13.9,69.63,16.57c11.75,29.95-.8,70-26.69,92.82S3217.42,868.05,3205.46,837.59Z"/><path class="cls-10" d="M3224.83,788.79a42.71,42.71,0,0,1,9.43-18.36l-4.14-10.56q5.1-4.33,10.19-8.7l4,10.08a51,51,0,0,1,11.25-6.62,26.92,26.92,0,0,1,10-2.35q.42,10.43.86,20.9a29.87,29.87,0,0,0-9.86,2.4,34.69,34.69,0,0,0-9.26,5.67,20.07,20.07,0,0,0-4.7,5.23,4.66,4.66,0,0,0-.46,4c.55,1.4,1.62,1.87,3.22,1.44a41.59,41.59,0,0,0,7.44-3.3,70.31,70.31,0,0,1,11.13-4.84,13.37,13.37,0,0,1,9.22.4c3.05,1.21,5.53,4.24,7.42,9.06a30,30,0,0,1,1,18.16q-2.28,9.81-10.24,18.76l4.06,10.36-10.19,8.71-4-10.17q-9.09,6.35-16.9,6.84-.6-10.26-1.21-20.53a30.69,30.69,0,0,0,16.06-7q6.57-5.62,4.94-9.8c-.53-1.33-1.57-1.77-3.13-1.33a41.6,41.6,0,0,0-7.27,3.36,64.21,64.21,0,0,1-11.06,5,13.81,13.81,0,0,1-9.32-.27c-3.07-1.17-5.54-4.17-7.44-9A29.72,29.72,0,0,1,3224.83,788.79Z"/><path class="cls-10" d="M3398.58,785.2a3.91,3.91,0,0,1,2.89-1.72c-.29-.75-.59-1.51-.89-2.26,1,0,2,0,2.94,0,.28.72.56,1.44.85,2.16a15.77,15.77,0,0,1,3.2.59,14.12,14.12,0,0,1,2.78,1.11l-.24,3.4a14.58,14.58,0,0,0-2.74-1.07,10.27,10.27,0,0,0-2.63-.43,3.16,3.16,0,0,0-1.37.17.42.42,0,0,0-.21.58,1.25,1.25,0,0,0,.83.68,19.75,19.75,0,0,0,2.08.52,24.41,24.41,0,0,1,3.12.84,8.52,8.52,0,0,1,2.5,1.42,5.88,5.88,0,0,1,1.81,2.51,3,3,0,0,1-.14,3,4.34,4.34,0,0,1-3.2,1.46l.87,2.22c-1,0-2,0-2.93,0l-.86-2.18a14.9,14.9,0,0,1-4.64-1.13l.09-3.52a12.75,12.75,0,0,0,4.45,1.06c1.26,0,1.78-.26,1.54-.86a1.23,1.23,0,0,0-.81-.65,14.7,14.7,0,0,0-2-.5,26.73,26.73,0,0,1-3.06-.7,7.89,7.89,0,0,1-2.47-1.25,5.37,5.37,0,0,1-1.79-2.42A3.41,3.41,0,0,1,3398.58,785.2Z"/><path class="cls-10" d="M3354.52,672.94a3.91,3.91,0,0,1,2.89-1.72c-.3-.75-.59-1.5-.89-2.26,1,0,1.95,0,2.93,0,.29.72.57,1.44.85,2.16a15.52,15.52,0,0,1,3.2.59,13.64,13.64,0,0,1,2.78,1.11c-.08,1.13-.16,2.26-.23,3.4a14.85,14.85,0,0,0-2.74-1.07,10.8,10.8,0,0,0-2.63-.43,3.38,3.38,0,0,0-1.38.17.42.42,0,0,0-.21.58,1.3,1.3,0,0,0,.84.68,20.09,20.09,0,0,0,2.07.52,26.4,26.4,0,0,1,3.13.84,8.65,8.65,0,0,1,2.5,1.42,6,6,0,0,1,1.81,2.51,3,3,0,0,1-.14,3,4.34,4.34,0,0,1-3.2,1.46l.87,2.22c-1,0-2,0-2.93,0l-.86-2.18a14.83,14.83,0,0,1-4.64-1.13l.09-3.51a12.66,12.66,0,0,0,4.44,1.05c1.27,0,1.79-.26,1.55-.85a1.21,1.21,0,0,0-.82-.66,14.78,14.78,0,0,0-2-.49c-1.19-.22-2.21-.45-3.07-.7a8.1,8.1,0,0,1-2.46-1.26,5.32,5.32,0,0,1-1.79-2.42A3.35,3.35,0,0,1,3354.52,672.94Z"/><path class="cls-10" d="M3137.37,916a4,4,0,0,1,3-1.48c-.3-.76-.6-1.51-.89-2.27l3,.09.84,2.16a18.68,18.68,0,0,1,3.16.47,14.29,14.29,0,0,1,2.71.92c-.06,1.18-.13,2.36-.19,3.54a15.14,15.14,0,0,0-2.68-.94,12,12,0,0,0-2.62-.39,3.3,3.3,0,0,0-1.38.15.39.39,0,0,0-.22.56,1.35,1.35,0,0,0,.84.7,17.47,17.47,0,0,0,2.09.54c1.21.25,2.24.5,3.09.76a8,8,0,0,1,2.45,1.29,5.51,5.51,0,0,1,1.78,2.43,3.32,3.32,0,0,1-.1,3.1,4,4,0,0,1-3.13,1.63l.87,2.22c-1,0-2,0-2.95-.08-.28-.72-.57-1.45-.85-2.18a14.13,14.13,0,0,1-4.76-1.43c.05-1.12.1-2.25.14-3.38a12,12,0,0,0,4.52,1.25c1.27,0,1.78-.26,1.55-.85a1.21,1.21,0,0,0-.81-.65,17.88,17.88,0,0,0-2-.51,23.1,23.1,0,0,1-3.12-.83,8.67,8.67,0,0,1-2.53-1.43,5.92,5.92,0,0,1-1.83-2.51A3,3,0,0,1,3137.37,916Z"/><path class="cls-10" d="M3093.31,803.71a4,4,0,0,1,3-1.48c-.29-.76-.59-1.51-.89-2.26,1,0,2,.06,2.95.08.29.72.57,1.44.85,2.16a19,19,0,0,1,3.16.48,14,14,0,0,1,2.7.91l-.18,3.54a15.14,15.14,0,0,0-2.68-.94,12.05,12.05,0,0,0-2.62-.39,3.57,3.57,0,0,0-1.39.15.4.4,0,0,0-.21.56,1.32,1.32,0,0,0,.84.7,15.48,15.48,0,0,0,2.08.54,31.12,31.12,0,0,1,3.1.77,7.75,7.75,0,0,1,2.44,1.28,5.46,5.46,0,0,1,1.79,2.43,3.37,3.37,0,0,1-.1,3.11A4.08,4.08,0,0,1,3105,817l.87,2.22-2.95-.09c-.28-.72-.57-1.45-.85-2.18a14.35,14.35,0,0,1-4.76-1.42c.05-1.13.09-2.25.14-3.38a11.92,11.92,0,0,0,4.52,1.24c1.27,0,1.78-.26,1.55-.85a1.23,1.23,0,0,0-.82-.65,17.33,17.33,0,0,0-2-.51,23.33,23.33,0,0,1-3.11-.83,9.06,9.06,0,0,1-2.54-1.42,5.82,5.82,0,0,1-1.82-2.51A3,3,0,0,1,3093.31,803.71Z"/><path class="cls-8" d="M1339.92,1962.33c60.53,112.54,220.23,30.68,280.76,143.23l-71.87,140.86c-60.52-112.54-220.23-30.68-280.76-143.23Z"/><path class="cls-9" d="M1341.34,1979.94c62.3,95.47,207.27,28.89,269.57,124.36l-63.52,124.51c-62.3-95.47-207.27-28.88-269.57-124.36Q1309.58,2042.2,1341.34,1979.94Z"/><path class="cls-8" d="M1360.11,2011.6c61.5,51.41,163.81,22.82,225.3,74.23-5.53,10.86-2.07,25.71,6.17,36.24l-36.84,72.2c-8.24-10.53-20.63-7.86-26.11,2.88-61.5-51.41-163.81-22.82-225.31-74.23,5.54-10.86,2.08-25.71-6.16-36.24q18.42-36.1,36.83-72.2C1342.23,2025,1354.63,2022.34,1360.11,2011.6Z"/><path class="cls-9" d="M1388.16,2094.38c13.59-26.64,49.17-42.58,81-38.65s45.21,31.55,31.39,58.64c-13.59,26.64-49.17,42.58-81,38.66S1374.33,2121.47,1388.16,2094.38Z"/><path class="cls-10" d="M1434,2077.77a39.86,39.86,0,0,1,18.59-4.76l4.79-9.38,12.34,1.72-4.58,9a46.65,46.65,0,0,1,11.54,3.75,24.83,24.83,0,0,1,7.82,5.52q-7,6.73-14,13.49a28,28,0,0,0-7.76-5.38,31.88,31.88,0,0,0-9.65-2.95,18.64,18.64,0,0,0-6.53-.05,4.35,4.35,0,0,0-3.07,2.15c-.63,1.24-.3,2.28,1,3.13a39.36,39.36,0,0,0,6.89,3.13,65.34,65.34,0,0,1,10.22,4.77,12.44,12.44,0,0,1,5.41,6.66c1,2.87.45,6.46-1.73,10.74a27.94,27.94,0,0,1-12,11.89q-8.23,4.47-19.37,4.44l-4.7,9.22-12.34-1.73,4.62-9q-10-2.42-15.18-7.55l13.54-13.49a28.51,28.51,0,0,0,14.79,6.84q8,1.11,9.86-2.6c.6-1.19.26-2.19-1-3a38.15,38.15,0,0,0-6.81-3,59,59,0,0,1-10.31-4.6,12.77,12.77,0,0,1-5.56-6.64q-1.61-4.29,1.67-10.72A27.64,27.64,0,0,1,1434,2077.77Z"/><path class="cls-10" d="M1543.64,2196.44a3.61,3.61,0,0,1,3,.95l1-2c.6.68,1.19,1.37,1.78,2.07-.33.64-.66,1.28-1,1.92A14.6,14.6,0,0,1,1550,2202a13.26,13.26,0,0,1,.94,2.62l-2.51,1.93a14.62,14.62,0,0,0-.94-2.56,10.26,10.26,0,0,0-1.32-2.1,3,3,0,0,0-1-.85.37.37,0,0,0-.52.21,1.14,1.14,0,0,0,0,1,15.74,15.74,0,0,0,.92,1.76,23.65,23.65,0,0,1,1.33,2.7,7.73,7.73,0,0,1,.56,2.61,5.47,5.47,0,0,1-.63,2.81,2.8,2.8,0,0,1-2.17,1.74,4,4,0,0,1-3-1.32c-.34.65-.68,1.31-1,2-.59-.7-1.18-1.39-1.78-2.07l1-1.94a13.76,13.76,0,0,1-2.07-3.92l2.5-2.11a11.55,11.55,0,0,0,2,3.74c.76.89,1.27,1.08,1.54.55a1.15,1.15,0,0,0,0-1,14.64,14.64,0,0,0-.91-1.72,26,26,0,0,1-1.41-2.56,7.5,7.5,0,0,1-.65-2.49,5.06,5.06,0,0,1,.58-2.74A3.15,3.15,0,0,1,1543.64,2196.44Z"/><path class="cls-10" d="M1594.58,2096.59a3.59,3.59,0,0,1,3,.95c.35-.67.69-1.34,1-2,.6.68,1.19,1.37,1.78,2.07-.33.64-.66,1.28-1,1.92a15.22,15.22,0,0,1,1.56,2.59,13.26,13.26,0,0,1,.94,2.62l-2.51,1.93a14.62,14.62,0,0,0-.94-2.56,9.86,9.86,0,0,0-1.33-2.1,2.94,2.94,0,0,0-1-.85.38.38,0,0,0-.53.21,1.18,1.18,0,0,0,.05,1,15.74,15.74,0,0,0,.92,1.76,23.65,23.65,0,0,1,1.33,2.7,8,8,0,0,1,.56,2.61,5.47,5.47,0,0,1-.63,2.81,2.81,2.81,0,0,1-2.17,1.74,4,4,0,0,1-3-1.32l-1,2c-.59-.7-1.18-1.39-1.78-2.07l1-1.94a14.06,14.06,0,0,1-2.08-3.92l2.51-2.11a11.75,11.75,0,0,0,2,3.74c.77.89,1.28,1.08,1.55.55a1.15,1.15,0,0,0,0-1,15.07,15.07,0,0,0-.92-1.72,26.73,26.73,0,0,1-1.4-2.57,7.38,7.38,0,0,1-.65-2.48,5.06,5.06,0,0,1,.58-2.74A3.15,3.15,0,0,1,1594.58,2096.59Z"/><path class="cls-10" d="M1291.66,2095.31a3.8,3.8,0,0,1,2.87,1.17l1-2c.58.71,1.17,1.41,1.76,2.1l-1,1.92a17.08,17.08,0,0,1,1.61,2.49,13.08,13.08,0,0,1,1,2.44l-2.58,2.06a14.09,14.09,0,0,0-1-2.44,11.29,11.29,0,0,0-1.34-2.06,3.27,3.27,0,0,0-1-.88.36.36,0,0,0-.52.2,1.19,1.19,0,0,0,0,1,14.38,14.38,0,0,0,.91,1.79c.57,1,1,1.87,1.37,2.62a7.35,7.35,0,0,1,.62,2.49,5.07,5.07,0,0,1-.6,2.74,3.08,3.08,0,0,1-2.21,1.85,3.79,3.79,0,0,1-3.07-1.18l-1,2c-.59-.69-1.18-1.39-1.76-2.1l1-1.94a13.45,13.45,0,0,1-1.94-4.19l2.44-2a11.18,11.18,0,0,0,1.92,3.92c.76.9,1.28,1.08,1.55.55a1.15,1.15,0,0,0,0-1,15.84,15.84,0,0,0-.9-1.73,21,21,0,0,1-1.35-2.68,8,8,0,0,1-.57-2.64,5.58,5.58,0,0,1,.62-2.82A2.79,2.79,0,0,1,1291.66,2095.31Z"/><path class="cls-10" d="M1342.59,1995.46a3.77,3.77,0,0,1,2.87,1.17c.35-.67.69-1.34,1-2,.58.71,1.17,1.41,1.76,2.1l-1,1.92a17.08,17.08,0,0,1,1.61,2.49,12.36,12.36,0,0,1,1,2.44l-2.57,2.06a14.92,14.92,0,0,0-1-2.44,11.76,11.76,0,0,0-1.34-2.07,3.34,3.34,0,0,0-1-.87.37.37,0,0,0-.53.2,1.24,1.24,0,0,0,0,1,14.38,14.38,0,0,0,.91,1.79c.57,1,1,1.87,1.37,2.62a7.35,7.35,0,0,1,.62,2.49,5.08,5.08,0,0,1-.6,2.74,3.08,3.08,0,0,1-2.22,1.85,3.77,3.77,0,0,1-3.06-1.18l-1,2c-.59-.69-1.18-1.39-1.76-2.1l1-1.94a13.56,13.56,0,0,1-1.94-4.19l2.44-2a11,11,0,0,0,1.92,3.92c.76.9,1.28,1.08,1.55.55a1.15,1.15,0,0,0,0-1,16.35,16.35,0,0,0-.91-1.73,22.23,22.23,0,0,1-1.34-2.68,8,8,0,0,1-.57-2.64,5.48,5.48,0,0,1,.62-2.82A2.8,2.8,0,0,1,1342.59,1995.46Z"/><path class="cls-8" d="M3082.92,1409.75c66.64,15.72,90.56-77.42,157.2-61.7l31,78.87c-66.64-15.71-90.56,77.42-157.2,61.71Z"/><path class="cls-9" d="M3090.49,1415.44c60.42,8.94,85.23-72.86,145.65-63.92q13.68,34.86,27.37,69.71c-60.43-8.93-85.23,72.87-145.66,63.93Z"/><path class="cls-8" d="M3109.85,1419.16c42.47-6.39,67.36-57.58,109.83-64,2.39,6.08,9.57,10,16.72,10.41l15.87,40.43c-7.15-.44-10.49,5.48-8.13,11.49-42.47,6.4-67.35,57.59-109.82,64-2.39-6.08-9.58-10-16.73-10.4l-15.87-40.43C3108.88,1431.1,3112.21,1425.18,3109.85,1419.16Z"/><path class="cls-9" d="M3153,1437.33c-5.85-14.92.4-34.85,13.29-46.23s28.72-6.92,34.68,8.25c5.85,14.91-.4,34.85-13.29,46.23S3159,1452.5,3153,1437.33Z"/><path class="cls-10" d="M3162.66,1413a21.35,21.35,0,0,1,4.7-9.14l-2.07-5.26,5.08-4.33c.65,1.67,1.31,3.35,2,5a25.48,25.48,0,0,1,5.6-3.3,13.59,13.59,0,0,1,5-1.17c.14,3.47.28,6.93.43,10.41a15,15,0,0,0-4.91,1.2,17,17,0,0,0-4.61,2.82,10.1,10.1,0,0,0-2.35,2.6,2.34,2.34,0,0,0-.22,2,1.17,1.17,0,0,0,1.6.71,20.23,20.23,0,0,0,3.7-1.64,34.64,34.64,0,0,1,5.55-2.41,6.66,6.66,0,0,1,4.59.2c1.52.6,2.75,2.11,3.69,4.51a14.92,14.92,0,0,1,.5,9,21.28,21.28,0,0,1-5.1,9.35l2,5.16-5.08,4.33c-.66-1.68-1.33-3.37-2-5.06a16.9,16.9,0,0,1-8.42,3.41q-.29-5.12-.6-10.23a15.21,15.21,0,0,0,8-3.5q3.27-2.79,2.46-4.88a1.13,1.13,0,0,0-1.56-.66,20.55,20.55,0,0,0-3.62,1.67,31.32,31.32,0,0,1-5.51,2.5,6.85,6.85,0,0,1-4.64-.13c-1.52-.58-2.76-2.08-3.7-4.48A14.84,14.84,0,0,1,3162.66,1413Z"/><path class="cls-10" d="M3249.19,1411.24a1.92,1.92,0,0,1,1.44-.86c-.15-.37-.29-.75-.44-1.12l1.46,0,.42,1.08a8.3,8.3,0,0,1,1.6.29,6.84,6.84,0,0,1,1.38.55l-.12,1.69a8.53,8.53,0,0,0-1.36-.53,5.55,5.55,0,0,0-1.31-.21,1.63,1.63,0,0,0-.69.08.21.21,0,0,0-.1.29.65.65,0,0,0,.42.34c.22.07.56.16,1,.26a13.09,13.09,0,0,1,1.56.42,4.18,4.18,0,0,1,1.24.7,2.92,2.92,0,0,1,.9,1.26,1.48,1.48,0,0,1-.07,1.48,2.14,2.14,0,0,1-1.59.73l.43,1.11c-.49,0-1,0-1.46,0l-.42-1.08a7.39,7.39,0,0,1-2.31-.56c0-.59,0-1.17,0-1.76a6.33,6.33,0,0,0,2.21.53c.63,0,.89-.13.77-.43a.62.62,0,0,0-.4-.33,10,10,0,0,0-1-.24,14,14,0,0,1-1.52-.35,4,4,0,0,1-1.23-.62,2.65,2.65,0,0,1-.89-1.21A1.7,1.7,0,0,1,3249.19,1411.24Z"/><path class="cls-10" d="M3227.25,1355.33a2,2,0,0,1,1.44-.86l-.45-1.12,1.47,0,.42,1.08a8.07,8.07,0,0,1,1.59.29,7.89,7.89,0,0,1,1.39.55l-.12,1.7a7,7,0,0,0-1.36-.53,5.19,5.19,0,0,0-1.31-.22,1.44,1.44,0,0,0-.69.09.2.2,0,0,0-.1.28.58.58,0,0,0,.41.34,8.73,8.73,0,0,0,1,.26,13.09,13.09,0,0,1,1.56.42,4.26,4.26,0,0,1,1.25.71,2.88,2.88,0,0,1,.9,1.25,1.52,1.52,0,0,1-.07,1.49,2.14,2.14,0,0,1-1.6.72l.44,1.11-1.46,0-.43-1.08a7.53,7.53,0,0,1-2.31-.56c0-.59,0-1.17,0-1.75a6.52,6.52,0,0,0,2.22.52c.63,0,.89-.13.77-.43a.61.61,0,0,0-.41-.32,7,7,0,0,0-1-.25,14.81,14.81,0,0,1-1.53-.35,3.75,3.75,0,0,1-1.23-.62,2.65,2.65,0,0,1-.89-1.21A1.67,1.67,0,0,1,3227.25,1355.33Z"/><path class="cls-10" d="M3119.1,1476.36a2,2,0,0,1,1.49-.73c-.15-.38-.3-.76-.44-1.13l1.46,0c.15.36.29.72.43,1.08a9.29,9.29,0,0,1,1.57.23,7.32,7.32,0,0,1,1.35.46c0,.59-.06,1.17-.1,1.76a7.71,7.71,0,0,0-1.33-.46,6,6,0,0,0-1.3-.2,2,2,0,0,0-.7.07.21.21,0,0,0-.1.29.68.68,0,0,0,.42.34,8.33,8.33,0,0,0,1,.27c.61.13,1.12.25,1.55.38a3.83,3.83,0,0,1,1.21.64,2.76,2.76,0,0,1,.89,1.21,1.65,1.65,0,0,1-.05,1.55,2,2,0,0,1-1.56.81l.44,1.11-1.47,0c-.14-.36-.28-.72-.43-1.08a7.35,7.35,0,0,1-2.37-.71c0-.56,0-1.12.07-1.68a6.18,6.18,0,0,0,2.26.62c.63,0,.88-.13.77-.43a.61.61,0,0,0-.41-.32,8.18,8.18,0,0,0-1-.26,12.4,12.4,0,0,1-1.56-.41,4.31,4.31,0,0,1-1.26-.71,3,3,0,0,1-.91-1.25A1.5,1.5,0,0,1,3119.1,1476.36Z"/><path class="cls-10" d="M3097.16,1420.45a2,2,0,0,1,1.48-.73c-.14-.38-.29-.75-.44-1.13l1.47,0,.42,1.08a8.4,8.4,0,0,1,1.57.24,6.67,6.67,0,0,1,1.35.45l-.09,1.76a7.82,7.82,0,0,0-1.34-.46,5.88,5.88,0,0,0-1.3-.2,1.63,1.63,0,0,0-.69.08.2.2,0,0,0-.11.28.65.65,0,0,0,.42.34,7,7,0,0,0,1,.27c.61.13,1.12.25,1.54.38a4.09,4.09,0,0,1,1.22.64,2.81,2.81,0,0,1,.89,1.22,1.66,1.66,0,0,1-.05,1.54,2,2,0,0,1-1.56.81l.43,1.11-1.47,0-.42-1.09a7.2,7.2,0,0,1-2.37-.71c0-.56,0-1.12.07-1.68a6.08,6.08,0,0,0,2.25.62c.63,0,.89-.13.77-.43a.59.59,0,0,0-.4-.32,7.54,7.54,0,0,0-1-.25,10.65,10.65,0,0,1-1.55-.42,4.19,4.19,0,0,1-1.26-.71,2.82,2.82,0,0,1-.91-1.25A1.48,1.48,0,0,1,3097.16,1420.45Z"/><path class="cls-8" d="M3402.8,1695.88c66.64,15.71,90.56-77.42,157.2-61.71l31,78.87c-66.64-15.71-90.56,77.42-157.2,61.71Z"/><path class="cls-9" d="M3410.37,1701.56c60.42,8.94,85.23-72.86,145.65-63.92q13.68,34.86,27.37,69.72c-60.43-8.94-85.23,72.86-145.66,63.92Z"/><path class="cls-8" d="M3429.73,1705.29c42.47-6.4,67.36-57.59,109.83-64,2.39,6.08,9.57,10,16.72,10.4l15.87,40.43c-7.15-.44-10.49,5.48-8.13,11.49-42.47,6.4-67.36,57.59-109.82,64-2.39-6.08-9.58-10-16.73-10.4l-15.87-40.43C3428.76,1717.22,3432.09,1711.3,3429.73,1705.29Z"/><path class="cls-9" d="M3472.89,1723.45c-5.85-14.92.4-34.85,13.29-46.23s28.72-6.92,34.68,8.25c5.85,14.92-.4,34.85-13.29,46.23S3478.85,1738.62,3472.89,1723.45Z"/><path class="cls-10" d="M3482.54,1699.15a21.33,21.33,0,0,1,4.7-9.15l-2.07-5.25,5.08-4.34c.65,1.67,1.31,3.35,2,5a25,25,0,0,1,5.6-3.29,13.43,13.43,0,0,1,5-1.18q.21,5.2.43,10.41a15,15,0,0,0-4.91,1.2,17.25,17.25,0,0,0-4.62,2.82,10.22,10.22,0,0,0-2.34,2.61,2.32,2.32,0,0,0-.22,2,1.18,1.18,0,0,0,1.6.72,21.22,21.22,0,0,0,3.7-1.65,35.17,35.17,0,0,1,5.55-2.41,6.72,6.72,0,0,1,4.59.2q2.28.92,3.69,4.51a15,15,0,0,1,.5,9.05,21.29,21.29,0,0,1-5.1,9.34l2,5.16-5.07,4.34-2-5.07a16.9,16.9,0,0,1-8.42,3.41c-.19-3.41-.4-6.81-.6-10.23a15.21,15.21,0,0,0,8-3.5q3.27-2.79,2.46-4.88a1.13,1.13,0,0,0-1.56-.66,20.55,20.55,0,0,0-3.62,1.67,31.32,31.32,0,0,1-5.51,2.5,6.85,6.85,0,0,1-4.64-.13c-1.53-.58-2.76-2.08-3.7-4.48A14.81,14.81,0,0,1,3482.54,1699.15Z"/><path class="cls-10" d="M3569.07,1697.36a2,2,0,0,1,1.44-.86c-.15-.37-.29-.75-.44-1.12l1.46,0,.42,1.08a8.3,8.3,0,0,1,1.6.29,7.48,7.48,0,0,1,1.38.55l-.12,1.7a7.71,7.71,0,0,0-1.36-.54,5.55,5.55,0,0,0-1.31-.21,1.44,1.44,0,0,0-.69.09.2.2,0,0,0-.1.28.65.65,0,0,0,.42.34,8.23,8.23,0,0,0,1,.26,13.09,13.09,0,0,1,1.56.42,4.35,4.35,0,0,1,1.24.71,2.88,2.88,0,0,1,.9,1.25,1.47,1.47,0,0,1-.07,1.48,2.14,2.14,0,0,1-1.59.73l.43,1.11-1.46,0-.42-1.08a7.52,7.52,0,0,1-2.32-.56c0-.59,0-1.17,0-1.76a6.33,6.33,0,0,0,2.21.53c.63,0,.89-.13.77-.43a.59.59,0,0,0-.4-.32,7.54,7.54,0,0,0-1-.25,14,14,0,0,1-1.52-.35,3.75,3.75,0,0,1-1.23-.62,2.65,2.65,0,0,1-.89-1.21A1.64,1.64,0,0,1,3569.07,1697.36Z"/><path class="cls-10" d="M3547.12,1641.45a2,2,0,0,1,1.45-.85l-.45-1.13,1.46,0c.15.36.29.72.43,1.08a8.07,8.07,0,0,1,1.59.29,7.18,7.18,0,0,1,1.39.56l-.12,1.69a7.24,7.24,0,0,0-1.36-.53,5.19,5.19,0,0,0-1.31-.22,1.76,1.76,0,0,0-.69.09.21.21,0,0,0-.1.29.6.6,0,0,0,.41.33,8.73,8.73,0,0,0,1,.26,13.09,13.09,0,0,1,1.56.42,4.26,4.26,0,0,1,1.25.71,3,3,0,0,1,.9,1.25,1.52,1.52,0,0,1-.07,1.49,2.14,2.14,0,0,1-1.6.72l.44,1.11-1.46,0-.43-1.09a7.53,7.53,0,0,1-2.31-.56c0-.59,0-1.17,0-1.75a6.29,6.29,0,0,0,2.22.52c.63,0,.88-.13.77-.42a.59.59,0,0,0-.41-.33,7,7,0,0,0-1-.25,12.6,12.6,0,0,1-1.53-.35,3.75,3.75,0,0,1-1.23-.62,2.67,2.67,0,0,1-.89-1.2A1.73,1.73,0,0,1,3547.12,1641.45Z"/><path class="cls-10" d="M3439,1762.48a2,2,0,0,1,1.49-.73c-.15-.38-.3-.75-.44-1.13l1.46,0,.43,1.08a8.4,8.4,0,0,1,1.57.24,6.67,6.67,0,0,1,1.35.45c0,.59-.07,1.18-.1,1.76a7.71,7.71,0,0,0-1.33-.46,6,6,0,0,0-1.3-.2,1.71,1.71,0,0,0-.7.08.19.19,0,0,0-.1.28.65.65,0,0,0,.42.34,6.84,6.84,0,0,0,1,.27c.61.13,1.12.25,1.54.38a4,4,0,0,1,1.22.64,2.76,2.76,0,0,1,.89,1.21,1.67,1.67,0,0,1,0,1.55,2,2,0,0,1-1.56.81l.44,1.11-1.47,0c-.14-.37-.29-.73-.43-1.09a7.27,7.27,0,0,1-2.37-.71c0-.56.05-1.12.07-1.68a6.18,6.18,0,0,0,2.26.62c.63,0,.88-.13.77-.43a.63.63,0,0,0-.41-.32,7,7,0,0,0-1-.25,10.81,10.81,0,0,1-1.56-.42,4.19,4.19,0,0,1-1.26-.71,2.9,2.9,0,0,1-.91-1.25A1.51,1.51,0,0,1,3439,1762.48Z"/><path class="cls-10" d="M3417,1706.58a2,2,0,0,1,1.48-.74c-.14-.38-.29-.75-.44-1.13.49,0,1,0,1.47,0l.42,1.08a8.4,8.4,0,0,1,1.57.24,6.67,6.67,0,0,1,1.35.45l-.09,1.76a7.82,7.82,0,0,0-1.34-.46,5.88,5.88,0,0,0-1.3-.2,1.81,1.81,0,0,0-.69.08.2.2,0,0,0-.11.28.69.69,0,0,0,.42.35,7.31,7.31,0,0,0,1,.26c.61.13,1.12.26,1.54.39a4.06,4.06,0,0,1,1.22.63,2.81,2.81,0,0,1,.89,1.22,1.66,1.66,0,0,1,0,1.54,2,2,0,0,1-1.56.81l.43,1.11-1.47,0-.42-1.09a7,7,0,0,1-2.37-.71c0-.56,0-1.12.07-1.68a5.9,5.9,0,0,0,2.25.62c.63,0,.89-.13.77-.43a.61.61,0,0,0-.4-.32,9.48,9.48,0,0,0-1-.25,10.65,10.65,0,0,1-1.55-.42,4.19,4.19,0,0,1-1.26-.71,2.77,2.77,0,0,1-.91-1.25A1.46,1.46,0,0,1,3417,1706.58Z"/><path class="cls-8" d="M3043,1450c55.62,39.93,113.23-37,168.85,2.88l-1.44,84.72c-55.62-39.93-113.23,37.05-168.85-2.88Z"/><path class="cls-9" d="M3047.82,1458.14c52.46,31.29,106.57-34.88,159-3.58q-.63,37.44-1.27,74.88c-52.45-31.29-106.57,34.88-159,3.58Q3047.18,1495.58,3047.82,1458.14Z"/><path class="cls-8" d="M3064.3,1469c41.71,10.27,84.23-27.56,125.93-17.29-.11,6.53,5.05,12.87,11.49,16q-.36,21.7-.74,43.42c-6.44-3.13-11.78,1.07-11.89,7.53-41.7-10.27-84.22,27.56-125.93,17.29.12-6.53-5-12.87-11.49-16q.38-21.71.74-43.42C3058.85,1479.62,3064.19,1475.42,3064.3,1469Z"/><path class="cls-9" d="M3097.29,1502.21c.27-16,13.64-32.07,29.9-37.68s29.19,4.55,28.92,20.84c-.28,16-13.65,32.07-29.91,37.68S3097,1518.5,3097.29,1502.21Z"/><path class="cls-10" d="M3115.46,1483.41a21.36,21.36,0,0,1,7.83-6.66c0-1.88.07-3.76.1-5.65l6.34-2.07-.09,5.39a25.43,25.43,0,0,1,6.44-.91,13.56,13.56,0,0,1,5.06.82q-1.79,4.89-3.56,9.79a15.08,15.08,0,0,0-5-.77,17.36,17.36,0,0,0-5.34.86,10,10,0,0,0-3.16,1.51,2.34,2.34,0,0,0-1,1.76c0,.74.39,1.17,1.21,1.27a21,21,0,0,0,4-.11,34,34,0,0,1,6-.11,6.7,6.7,0,0,1,4.18,1.93q1.76,1.71,1.69,5.58a15,15,0,0,1-3,8.55,21.34,21.34,0,0,1-8.27,6.7l-.1,5.54-6.34,2.07.09-5.44a16.85,16.85,0,0,1-9.08-.06q1.66-4.83,3.34-9.68a15.21,15.21,0,0,0,8.73-.19c2.73-.89,4.1-2.08,4.13-3.57,0-.71-.38-1.11-1.19-1.21a20.78,20.78,0,0,0-4,.17,30.82,30.82,0,0,1-6,.21,6.89,6.89,0,0,1-4.24-1.89c-1.19-1.12-1.76-3-1.71-5.55A14.77,14.77,0,0,1,3115.46,1483.41Z"/><path class="cls-10" d="M3196.15,1514.74a2,2,0,0,1,1.65-.24c0-.4,0-.81,0-1.21l1.35.58c0,.38,0,.77,0,1.16a8.23,8.23,0,0,1,1.36.87,7.61,7.61,0,0,1,1.07,1l-.76,1.52a7.75,7.75,0,0,0-1.05-1,5.27,5.27,0,0,0-1.13-.7,1.74,1.74,0,0,0-.67-.18.22.22,0,0,0-.21.23.65.65,0,0,0,.26.47,9.38,9.38,0,0,0,.86.63,13.54,13.54,0,0,1,1.28,1,4.38,4.38,0,0,1,.88,1.13,2.92,2.92,0,0,1,.35,1.5,1.5,1.5,0,0,1-.63,1.35,2.17,2.17,0,0,1-1.75.07c0,.39,0,.79,0,1.18l-1.34-.58c0-.39,0-.77,0-1.16a7.43,7.43,0,0,1-1.92-1.4c.23-.54.47-1.07.71-1.61a6.12,6.12,0,0,0,1.84,1.33c.58.25.87.22.88-.1a.61.61,0,0,0-.25-.45,6.55,6.55,0,0,0-.85-.62,15.17,15.17,0,0,1-1.28-.9,4,4,0,0,1-.89-1,2.57,2.57,0,0,1-.37-1.45A1.67,1.67,0,0,1,3196.15,1514.74Z"/><path class="cls-10" d="M3197.17,1454.69a1.92,1.92,0,0,1,1.65-.24l0-1.21,1.34.58c0,.38,0,.77,0,1.15a8.3,8.3,0,0,1,1.36.88,7.61,7.61,0,0,1,1.07,1l-.76,1.52a7.75,7.75,0,0,0-1.05-1,5.27,5.27,0,0,0-1.13-.7,1.7,1.7,0,0,0-.67-.18.2.2,0,0,0-.2.23.62.62,0,0,0,.25.47,9.38,9.38,0,0,0,.86.63,13.54,13.54,0,0,1,1.28,1,4.38,4.38,0,0,1,.88,1.13,2.92,2.92,0,0,1,.36,1.5,1.51,1.51,0,0,1-.64,1.35,2.13,2.13,0,0,1-1.75.06c0,.4,0,.8,0,1.19l-1.34-.58,0-1.16a7.43,7.43,0,0,1-1.92-1.4l.71-1.61a6.12,6.12,0,0,0,1.84,1.33c.58.25.87.22.88-.1a.65.65,0,0,0-.25-.46,7.9,7.9,0,0,0-.85-.61,13.43,13.43,0,0,1-1.27-.9,3.85,3.85,0,0,1-.9-1,2.68,2.68,0,0,1-.37-1.45A1.7,1.7,0,0,1,3197.17,1454.69Z"/><path class="cls-10" d="M3051.05,1525.37a2,2,0,0,1,1.66-.12c0-.4,0-.8,0-1.21l1.34.6c0,.38,0,.77,0,1.16a9.48,9.48,0,0,1,1.37.81,7.38,7.38,0,0,1,1.07.94l-.76,1.59a7.48,7.48,0,0,0-1.06-.94,5.67,5.67,0,0,0-1.13-.67,1.66,1.66,0,0,0-.66-.2.2.2,0,0,0-.21.22.65.65,0,0,0,.26.48,7,7,0,0,0,.85.64c.52.35.94.66,1.28.94a4.21,4.21,0,0,1,.89,1.06,2.8,2.8,0,0,1,.35,1.46,1.67,1.67,0,0,1-.63,1.41,2,2,0,0,1-1.75.15c0,.4,0,.8,0,1.19l-1.34-.59c0-.39,0-.78,0-1.17a7.25,7.25,0,0,1-1.92-1.56l.7-1.53a6,6,0,0,0,1.85,1.43c.58.26.87.22.87-.1a.58.58,0,0,0-.25-.45,8.37,8.37,0,0,0-.84-.62,11.75,11.75,0,0,1-1.28-1,4.59,4.59,0,0,1-.89-1.13,2.85,2.85,0,0,1-.37-1.51A1.47,1.47,0,0,1,3051.05,1525.37Z"/><path class="cls-10" d="M3052.08,1465.32a2,2,0,0,1,1.65-.12c0-.4,0-.81,0-1.21l1.34.6c0,.38,0,.77,0,1.15a10.56,10.56,0,0,1,1.37.82,7.38,7.38,0,0,1,1.07.94l-.76,1.59a7.48,7.48,0,0,0-1.06-.94,5.91,5.91,0,0,0-1.12-.67,1.74,1.74,0,0,0-.67-.2.2.2,0,0,0-.21.22.65.65,0,0,0,.26.48,8.25,8.25,0,0,0,.85.64c.52.35.94.66,1.28.94a4,4,0,0,1,.89,1.06,2.9,2.9,0,0,1,.36,1.46,1.7,1.7,0,0,1-.64,1.41,2,2,0,0,1-1.75.15c0,.4,0,.8,0,1.19-.45-.19-.89-.39-1.34-.6,0-.39,0-.77,0-1.16a7.25,7.25,0,0,1-1.92-1.56l.7-1.53a6.12,6.12,0,0,0,1.85,1.43c.58.26.87.22.87-.1a.58.58,0,0,0-.25-.45,8.37,8.37,0,0,0-.84-.62,11.75,11.75,0,0,1-1.28-1,4.46,4.46,0,0,1-.89-1.14,2.9,2.9,0,0,1-.37-1.5A1.48,1.48,0,0,1,3052.08,1465.32Z"/><path class="cls-8" d="M2965.78,2228.44c100.74,19.6,131.07-121.31,231.82-101.7l51,116.31c-100.75-19.6-131.08,121.31-231.82,101.7Z"/><path class="cls-9" d="M2977.45,2236.51c91,9.83,123.37-114.16,214.4-104.34L3237,2235c-91-9.83-123.36,114.16-214.39,104.34Z"/><path class="cls-8" d="M3006.68,2241c63.23-12.09,97.49-90.23,160.72-102.32,3.94,9,14.93,14.37,25.67,14.6q13.07,29.8,26.15,59.62c-10.74-.24-15.38,8.82-11.49,17.7-63.24,12.08-97.5,90.22-160.73,102.31-3.93-9-14.93-14.37-25.66-14.6l-26.16-59.62C3005.92,2258.88,3010.57,2249.82,3006.68,2241Z"/><path class="cls-9" d="M3072.4,2265.6c-9.65-22-1.46-52.22,17.18-70s42.61-12.07,52.42,10.31c9.65,22,1.47,52.22-17.18,70S3082.22,2288,3072.4,2265.6Z"/><path class="cls-10" d="M3085.41,2228.63a32,32,0,0,1,6.5-14c-1.14-2.58-2.27-5.17-3.4-7.75l7.34-6.79q1.64,3.69,3.25,7.4a38.23,38.23,0,0,1,8.2-5.27,20.1,20.1,0,0,1,7.41-2.05q.63,7.77,1.26,15.57a22.17,22.17,0,0,0-7.28,2.08,25.7,25.7,0,0,0-6.74,4.5,15.14,15.14,0,0,0-3.36,4,3.5,3.5,0,0,0-.22,3,1.77,1.77,0,0,0,2.44,1,32,32,0,0,0,5.45-2.69,52.23,52.23,0,0,1,8.16-3.93,10,10,0,0,1,6.9,0c2.31.82,4.24,3,5.8,6.54a22.49,22.49,0,0,1,1.27,13.52,31.84,31.84,0,0,1-7.09,14.3l3.34,7.61-7.34,6.79q-1.65-3.74-3.28-7.47-6.58,5-12.41,5.6c-.49-5.09-1-10.18-1.5-15.28a22.77,22.77,0,0,0,11.77-5.71q4.74-4.38,3.4-7.46a1.7,1.7,0,0,0-2.38-.89,30.32,30.32,0,0,0-5.32,2.71,47,47,0,0,1-8.1,4.07,10.27,10.27,0,0,1-7,.08q-3.48-1.18-5.81-6.49A22.16,22.16,0,0,1,3085.41,2228.63Z"/><path class="cls-10" d="M3214.92,2220.85a2.92,2.92,0,0,1,2.1-1.37l-.72-1.66,2.19-.05.69,1.59a12.6,12.6,0,0,1,2.41.34,10.9,10.9,0,0,1,2.1.75c0,.84-.05,1.69-.07,2.54a11.08,11.08,0,0,0-2.08-.71,7.64,7.64,0,0,0-2-.25,2.36,2.36,0,0,0-1,.17.31.31,0,0,0-.14.44.92.92,0,0,0,.64.48,13.91,13.91,0,0,0,1.56.33,17.84,17.84,0,0,1,2.36.54,6.09,6.09,0,0,1,1.91,1,4.39,4.39,0,0,1,1.42,1.82,2.23,2.23,0,0,1,0,2.23,3.16,3.16,0,0,1-2.34,1.18l.72,1.63-2.2.05-.7-1.6a10.93,10.93,0,0,1-3.49-.7c0-.88,0-1.75,0-2.63a9.54,9.54,0,0,0,3.35.66c.94,0,1.32-.25,1.13-.68a1,1,0,0,0-.63-.47,11.05,11.05,0,0,0-1.53-.31,21.52,21.52,0,0,1-2.31-.43,6,6,0,0,1-1.88-.86,4,4,0,0,1-1.4-1.75A2.53,2.53,0,0,1,3214.92,2220.85Z"/><path class="cls-10" d="M3178.75,2138.4a2.91,2.91,0,0,1,2.1-1.36l-.72-1.66c.72,0,1.45-.05,2.19-.05l.69,1.58a11.88,11.88,0,0,1,2.41.35,10.59,10.59,0,0,1,2.11.75c0,.84-.06,1.69-.08,2.54a12.06,12.06,0,0,0-2.07-.72,7.72,7.72,0,0,0-2-.24,2.36,2.36,0,0,0-1,.17.3.3,0,0,0-.14.43,1,1,0,0,0,.64.48,13.7,13.7,0,0,0,1.57.33,19.84,19.84,0,0,1,2.35.54,6.54,6.54,0,0,1,1.91,1,4.46,4.46,0,0,1,1.42,1.82,2.27,2.27,0,0,1,0,2.24,3.27,3.27,0,0,1-2.35,1.18l.72,1.63c-.74,0-1.47,0-2.19.05l-.71-1.6a11.21,11.21,0,0,1-3.49-.71c0-.87,0-1.75,0-2.62a9.74,9.74,0,0,0,3.35.65c.94,0,1.32-.24,1.13-.68a.94.94,0,0,0-.63-.47,11.37,11.37,0,0,0-1.53-.3,21.31,21.31,0,0,1-2.31-.44,5.88,5.88,0,0,1-1.88-.86,4,4,0,0,1-1.4-1.75A2.53,2.53,0,0,1,3178.75,2138.4Z"/><path class="cls-10" d="M3023.91,2326.07a3.06,3.06,0,0,1,2.18-1.19c-.24-.55-.48-1.11-.73-1.66.74,0,1.47,0,2.2,0,.24.53.47,1.06.7,1.59a14.56,14.56,0,0,1,2.37.26,10.52,10.52,0,0,1,2,.61l0,2.64a11.7,11.7,0,0,0-2-.62,8.86,8.86,0,0,0-2-.21,2.54,2.54,0,0,0-1,.15.29.29,0,0,0-.14.43,1,1,0,0,0,.64.49,10.69,10.69,0,0,0,1.57.34c.92.15,1.69.31,2.33.48a6,6,0,0,1,1.87.89,4.06,4.06,0,0,1,1.4,1.76,2.53,2.53,0,0,1,0,2.32,3,3,0,0,1-2.29,1.31c.24.54.48,1.08.71,1.63l-2.2,0c-.23-.53-.47-1.06-.7-1.6a10.72,10.72,0,0,1-3.59-.92c0-.84,0-1.69,0-2.53a8.79,8.79,0,0,0,3.41.8c.94,0,1.32-.25,1.12-.68a.92.92,0,0,0-.62-.47,14.94,14.94,0,0,0-1.54-.31,19.4,19.4,0,0,1-2.35-.53,6.8,6.8,0,0,1-1.93-1,4.33,4.33,0,0,1-1.43-1.82A2.23,2.23,0,0,1,3023.91,2326.07Z"/><path class="cls-10" d="M2987.74,2243.63a3,3,0,0,1,2.18-1.19c-.24-.56-.48-1.11-.73-1.67.74,0,1.48,0,2.21,0l.69,1.59a13.54,13.54,0,0,1,2.37.26,10.55,10.55,0,0,1,2,.6l0,2.65a10.9,10.9,0,0,0-2-.62,8.91,8.91,0,0,0-2-.22,2.49,2.49,0,0,0-1,.16.28.28,0,0,0-.14.42.93.93,0,0,0,.65.49,11.48,11.48,0,0,0,1.57.35c.91.15,1.69.31,2.32.48a5.9,5.9,0,0,1,1.87.88,4.09,4.09,0,0,1,1.4,1.77,2.51,2.51,0,0,1,0,2.31,3,3,0,0,1-2.29,1.31c.24.54.48,1.09.71,1.63-.72,0-1.46,0-2.2,0-.23-.54-.46-1.07-.7-1.6a10.73,10.73,0,0,1-3.59-.93c0-.84,0-1.68,0-2.52a8.94,8.94,0,0,0,3.41.79c.94,0,1.32-.24,1.12-.68a.91.91,0,0,0-.62-.46,14.37,14.37,0,0,0-1.54-.32,16.23,16.23,0,0,1-2.35-.53,6.33,6.33,0,0,1-1.93-1,4.33,4.33,0,0,1-1.43-1.82A2.21,2.21,0,0,1,2987.74,2243.63Z"/></svg>